<?xml version="1.0" encoding="UTF-8"?>
<svg width="18px" height="18px" viewBox="0 0 18 18" version="1.1" xmlns="http://www.w3.org/2000/svg" xmlns:xlink="http://www.w3.org/1999/xlink">
    <title>Attention</title>
    <g id="页面-1" stroke="none" stroke-width="1" fill="none" fill-rule="evenodd">
        <g id="pc" transform="translate(-20.000000, -67.000000)">
            <g id="Attention" transform="translate(20.000000, 67.000000)">
                <rect id="矩形" fill="#D8D8D8" opacity="0" x="0" y="0" width="18" height="18"></rect>
                <path d="M9.8731977,2.56447922 L16.1698421,13.8459672 C16.439007,14.3282209 16.2662644,14.9373661 15.7840106,15.206531 C15.6350322,15.2896818 15.4672569,15.3333333 15.2966444,15.3333333 L2.70335556,15.3333333 C2.15107081,15.3333333 1.70335556,14.8856181 1.70335556,14.3333333 C1.70335556,14.1627209 1.74700713,13.9949456 1.83015786,13.8459672 L8.1268023,2.56447922 C8.3959672,2.08222544 9.00511238,1.90948278 9.48736616,2.17864767 C9.64925649,2.26900506 9.78284031,2.40258889 9.8731977,2.56447922 Z" id="三角形" stroke="#ad33ad" stroke-width="2"></path>
                <rect id="矩形" fill="#ad33ad" x="8" y="6" width="2" height="5" rx="1"></rect>
                <circle id="椭圆形" fill="#ad33ad" cx="9" cy="13" r="1"></circle>
            </g>
        </g>
    </g>
</svg>