<?xml version="1.0" encoding="UTF-8"?>
<svg width="18px" height="18px" viewBox="0 0 18 18" version="1.1" xmlns="http://www.w3.org/2000/svg" xmlns:xlink="http://www.w3.org/1999/xlink">
    <title>CF4</title>
    <g id="页面-1" stroke="none" stroke-width="1" fill="none" fill-rule="evenodd">
        <g id="画板" transform="translate(-122.000000, -36.000000)">
            <g id="CF-4" transform="translate(122.000000, 36.000000)">
                <rect id="矩形" fill="#D8D8D8" opacity="0" x="0" y="0" width="18" height="18"></rect>
                <polygon id="路径" fill="#ad33ad" fill-rule="nonzero" points="10.9638672 1.84179688 16.4326172 1.84179688 16.4326172 3.37988281 13.1855469 3.37988281 13.1855469 4.62988281 15.9589844 4.62988281 15.9589844 6.07519531 13.1855469 6.07519531 13.1855469 9 10.9638672 9"></polygon>
                <path d="M13.4980469,16.6621094 L9.875,16.6621094 L9.875,15.0263672 L13.4980469,10.7197266 L15.2314453,10.7197266 L15.2314453,15.1191406 L16.1298828,15.1191406 L16.1298828,16.6621094 L15.2314453,16.6621094 L15.2314453,18 L13.4980469,18 L13.4980469,16.6621094 Z M13.4980469,15.1191406 L13.4980469,12.8681641 L11.5839844,15.1191406 L13.4980469,15.1191406 Z" id="形状" fill="#ad33ad" fill-rule="nonzero"></path>
                <path d="M6.49804688,6.07519531 L8.43652344,6.66113281 C8.3063151,7.2047526 8.10123698,7.65885417 7.82128906,8.0234375 C7.54134115,8.38802083 7.19384766,8.66308594 6.77880859,8.84863281 C6.36376953,9.03417969 5.83561198,9.12695312 5.19433594,9.12695312 C4.41634115,9.12695312 3.78076172,9.01383464 3.28759766,8.78759766 C2.79443359,8.56136068 2.3688151,8.16341146 2.01074219,7.59375 C1.65266927,7.02408854 1.47363281,6.29492188 1.47363281,5.40625 C1.47363281,4.22135417 1.78857422,3.31070964 2.41845703,2.67431641 C3.04833984,2.03792318 3.93945312,1.71972656 5.09179688,1.71972656 C5.99348958,1.71972656 6.7023112,1.90201823 7.21826172,2.26660156 C7.73421224,2.6311849 8.11751302,3.19108073 8.36816406,3.94628906 L6.41503906,4.38085938 C6.34667969,4.16276042 6.2750651,4.00325521 6.20019531,3.90234375 C6.0764974,3.73307292 5.92513021,3.60286458 5.74609375,3.51171875 C5.56705729,3.42057292 5.36686198,3.375 5.14550781,3.375 C4.64420573,3.375 4.26009115,3.57682292 3.99316406,3.98046875 C3.79134115,4.27994792 3.69042969,4.75032552 3.69042969,5.39160156 C3.69042969,6.1858724 3.8108724,6.73030599 4.05175781,7.02490234 C4.29264323,7.3194987 4.6311849,7.46679688 5.06738281,7.46679688 C5.4905599,7.46679688 5.81038411,7.34798177 6.02685547,7.11035156 C6.24332682,6.87272135 6.40039062,6.52766927 6.49804688,6.07519531 Z" id="路径备份-3" fill="#ad33ad" fill-rule="nonzero"></path>
            </g>
        </g>
    </g>
</svg>