<?xml version="1.0" encoding="UTF-8"?>
<svg width="18px" height="18px" viewBox="0 0 18 18" version="1.1" xmlns="http://www.w3.org/2000/svg" xmlns:xlink="http://www.w3.org/1999/xlink">
    <title>CF5</title>
    <g id="页面-1" stroke="none" stroke-width="1" fill="none" fill-rule="evenodd">
        <g id="画板" transform="translate(-153.000000, -37.000000)">
            <g id="CF5" transform="translate(153.000000, 37.000000)">
                <rect id="矩形" fill="#D8D8D8" opacity="0" x="0" y="0" width="18" height="18"></rect>
                <g id="CF-5" transform="translate(1.473633, 0.719727)" fill="#ad33ad" fill-rule="nonzero">
                    <polygon id="路径" points="9.49023438 0.122070312 14.9589844 0.122070312 14.9589844 1.66015625 11.7119141 1.66015625 11.7119141 2.91015625 14.4853516 2.91015625 14.4853516 4.35546875 11.7119141 4.35546875 11.7119141 7.28027344 9.49023438 7.28027344"></polygon>
                    <path d="M9.7421875,9.12207031 L14.4638672,9.12207031 L14.4638672,10.7089844 L11.265625,10.7089844 L11.0947266,11.7832031 C11.3160807,11.6790365 11.5349935,11.6009115 11.7514648,11.5488281 C11.9679362,11.4967448 12.1819661,11.4707031 12.3935547,11.4707031 C13.1097005,11.4707031 13.6907552,11.6871745 14.1367188,12.1201172 C14.5826823,12.5530599 14.8056641,13.0983073 14.8056641,13.7558594 C14.8056641,14.218099 14.690918,14.6624349 14.4614258,15.0888672 C14.2319336,15.5152995 13.9064128,15.8408203 13.4848633,16.0654297 C13.0633138,16.2900391 12.523763,16.4023438 11.8662109,16.4023438 C11.3942057,16.4023438 10.9897461,16.3575846 10.652832,16.2680664 C10.315918,16.1785482 10.0294596,16.0450846 9.79345703,15.8676758 C9.55745443,15.6902669 9.36621094,15.4892578 9.21972656,15.2646484 C9.07324219,15.0400391 8.95117188,14.7600911 8.85351562,14.4248047 L10.8652344,14.2050781 C10.9140625,14.5273438 11.0279948,14.7722982 11.2070312,14.9399414 C11.3860677,15.1075846 11.5992839,15.1914062 11.8466797,15.1914062 C12.1233724,15.1914062 12.3520508,15.0864258 12.5327148,14.8764648 C12.7133789,14.6665039 12.8037109,14.3531901 12.8037109,13.9365234 C12.8037109,13.5100911 12.7125651,13.1975911 12.5302734,12.9990234 C12.3479818,12.8004557 12.1054688,12.7011719 11.8027344,12.7011719 C11.6106771,12.7011719 11.4251302,12.7483724 11.2460938,12.8427734 C11.1126302,12.9111328 10.9661458,13.0348307 10.8066406,13.2138672 L9.11230469,12.9697266 L9.7421875,9.12207031 Z" id="路径"></path>
                    <path d="M5.02441406,4.35546875 L6.96289062,4.94140625 C6.83268229,5.48502604 6.62760417,5.9391276 6.34765625,6.30371094 C6.06770833,6.66829427 5.72021484,6.94335938 5.30517578,7.12890625 C4.89013672,7.31445312 4.36197917,7.40722656 3.72070312,7.40722656 C2.94270833,7.40722656 2.30712891,7.29410807 1.81396484,7.06787109 C1.32080078,6.84163411 0.895182292,6.4436849 0.537109375,5.87402344 C0.179036458,5.30436198 0,4.57519531 0,3.68652344 C0,2.5016276 0.314941406,1.59098307 0.944824219,0.954589844 C1.57470703,0.318196615 2.46582031,0 3.61816406,0 C4.51985677,0 5.22867839,0.182291667 5.74462891,0.546875 C6.26057943,0.911458333 6.64388021,1.47135417 6.89453125,2.2265625 L4.94140625,2.66113281 C4.87304688,2.44303385 4.80143229,2.28352865 4.7265625,2.18261719 C4.60286458,2.01334635 4.4514974,1.88313802 4.27246094,1.79199219 C4.09342448,1.70084635 3.89322917,1.65527344 3.671875,1.65527344 C3.17057292,1.65527344 2.78645833,1.85709635 2.51953125,2.26074219 C2.31770833,2.56022135 2.21679688,3.03059896 2.21679688,3.671875 C2.21679688,4.46614583 2.33723958,5.01057943 2.578125,5.30517578 C2.81901042,5.59977214 3.15755208,5.74707031 3.59375,5.74707031 C4.01692708,5.74707031 4.3367513,5.62825521 4.55322266,5.390625 C4.76969401,5.15299479 4.92675781,4.80794271 5.02441406,4.35546875 Z" id="路径备份-7"></path>
                </g>
            </g>
        </g>
    </g>
</svg>