<?xml version="1.0" encoding="UTF-8"?>
<svg width="18px" height="18px" viewBox="0 0 18 18" version="1.1" xmlns="http://www.w3.org/2000/svg" xmlns:xlink="http://www.w3.org/1999/xlink">
    <title>CF9</title>
    <g id="页面-1" stroke="none" stroke-width="1" fill="none" fill-rule="evenodd">
        <g id="画板" transform="translate(-274.000000, -36.000000)">
            <g id="CF9" transform="translate(274.000000, 36.000000)">
                <rect id="矩形" fill="#D8D8D8" opacity="0" x="0" y="0" width="18" height="18"></rect>
                <g id="CF-9" transform="translate(1.473633, 0.719727)" fill="#ad33ad" fill-rule="nonzero">
                    <polygon id="路径" points="9.49023438 0.122070312 14.9589844 0.122070312 14.9589844 1.66015625 11.7119141 1.66015625 11.7119141 2.91015625 14.4853516 2.91015625 14.4853516 4.35546875 11.7119141 4.35546875 11.7119141 7.28027344 9.49023438 7.28027344"></polygon>
                    <path d="M9.02441406,14.6738281 L11.0019531,14.4248047 C11.0540365,14.7014974 11.1419271,14.8968099 11.265625,15.0107422 C11.3893229,15.1246745 11.5406901,15.1816406 11.7197266,15.1816406 C12.038737,15.1816406 12.2877604,15.0205078 12.4667969,14.6982422 C12.5970052,14.460612 12.6946615,13.9576823 12.7597656,13.1894531 C12.5221354,13.4335938 12.2779948,13.6126302 12.0273438,13.7265625 C11.7766927,13.8404948 11.4869792,13.8974609 11.1582031,13.8974609 C10.5169271,13.8974609 9.9757487,13.6695964 9.53466797,13.2138672 C9.09358724,12.758138 8.87304688,12.1819661 8.87304688,11.4853516 C8.87304688,11.0100911 8.98535156,10.5771484 9.20996094,10.1865234 C9.43457031,9.79589844 9.7438151,9.50048828 10.1376953,9.30029297 C10.5315755,9.10009766 11.0263672,9 11.6220703,9 C12.3382161,9 12.9127604,9.12288411 13.3457031,9.36865234 C13.7786458,9.61442057 14.1245117,10.0050456 14.3833008,10.5405273 C14.6420898,11.0760091 14.7714844,11.7832031 14.7714844,12.6621094 C14.7714844,13.9544271 14.4996745,14.9008789 13.9560547,15.5014648 C13.4124349,16.1020508 12.6588542,16.4023438 11.6953125,16.4023438 C11.125651,16.4023438 10.6764323,16.3364258 10.3476562,16.2045898 C10.0188802,16.0727539 9.74544271,15.8798828 9.52734375,15.6259766 C9.30924479,15.3720703 9.14160156,15.0546875 9.02441406,14.6738281 Z M12.6865234,11.4804688 C12.6865234,11.093099 12.5888672,10.7895508 12.3935547,10.5698242 C12.1982422,10.3500977 11.960612,10.2402344 11.6806641,10.2402344 C11.4169922,10.2402344 11.1980794,10.3395182 11.0239258,10.5380859 C10.8497721,10.7366536 10.7626953,11.0345052 10.7626953,11.4316406 C10.7626953,11.8320312 10.8530273,12.1380208 11.0336914,12.3496094 C11.2143555,12.5611979 11.4397786,12.6669922 11.7099609,12.6669922 C11.9899089,12.6669922 12.2226562,12.5644531 12.4082031,12.359375 C12.59375,12.1542969 12.6865234,11.8613281 12.6865234,11.4804688 Z" id="形状"></path>
                    <path d="M5.02441406,4.35546875 L6.96289062,4.94140625 C6.83268229,5.48502604 6.62760417,5.9391276 6.34765625,6.30371094 C6.06770833,6.66829427 5.72021484,6.94335938 5.30517578,7.12890625 C4.89013672,7.31445312 4.36197917,7.40722656 3.72070312,7.40722656 C2.94270833,7.40722656 2.30712891,7.29410807 1.81396484,7.06787109 C1.32080078,6.84163411 0.895182292,6.4436849 0.537109375,5.87402344 C0.179036458,5.30436198 0,4.57519531 0,3.68652344 C0,2.5016276 0.314941406,1.59098307 0.944824219,0.954589844 C1.57470703,0.318196615 2.46582031,0 3.61816406,0 C4.51985677,0 5.22867839,0.182291667 5.74462891,0.546875 C6.26057943,0.911458333 6.64388021,1.47135417 6.89453125,2.2265625 L4.94140625,2.66113281 C4.87304688,2.44303385 4.80143229,2.28352865 4.7265625,2.18261719 C4.60286458,2.01334635 4.4514974,1.88313802 4.27246094,1.79199219 C4.09342448,1.70084635 3.89322917,1.65527344 3.671875,1.65527344 C3.17057292,1.65527344 2.78645833,1.85709635 2.51953125,2.26074219 C2.31770833,2.56022135 2.21679688,3.03059896 2.21679688,3.671875 C2.21679688,4.46614583 2.33723958,5.01057943 2.578125,5.30517578 C2.81901042,5.59977214 3.15755208,5.74707031 3.59375,5.74707031 C4.01692708,5.74707031 4.3367513,5.62825521 4.55322266,5.390625 C4.76969401,5.15299479 4.92675781,4.80794271 5.02441406,4.35546875 Z" id="路径备份-6"></path>
                </g>
            </g>
        </g>
    </g>
</svg>