<?xml version="1.0" encoding="UTF-8"?>
<svg width="18px" height="18px" viewBox="0 0 18 18" version="1.1" xmlns="http://www.w3.org/2000/svg" xmlns:xlink="http://www.w3.org/1999/xlink">
    <title>Clear</title>
    <g id="页面-1" stroke="none" stroke-width="1" fill="none" fill-rule="evenodd">
        <g id="pc" transform="translate(-165.000000, -66.000000)">
            <g id="Clear" transform="translate(165.000000, 66.000000)">
                <rect id="矩形" fill="#D8D8D8" opacity="0" x="0" y="0" width="18" height="18"></rect>
                <path d="M10.375,1 C10.9272847,1 11.375,1.44771525 11.375,2 L11.375,4.6875 L11.371,4.75 L15.0625,4.75 C15.6147847,4.75 16.0625,5.19771525 16.0625,5.75 L16.0625,7.5 C16.0625,8.05228475 15.6147847,8.5 15.0625,8.5 L3,8.5 C2.44771525,8.5 2,8.05228475 2,7.5 L2,5.75 C2,5.19771525 2.44771525,4.75 3,4.75 L6.68946738,4.75074157 C6.6881623,4.72982875 6.6875,4.70874172 6.6875,4.6875 L6.6875,2 C6.6875,1.44771525 7.13521525,1 7.6875,1 L10.375,1 Z" id="形状结合" stroke="#ad33ad" stroke-width="2"></path>
                <path d="M3.42076742,8.5 L14.6199712,8.5 L15.8338351,14.8111247 C15.938148,15.3534689 15.5830535,15.8776881 15.0407093,15.9820011 C14.9784636,15.9939732 14.9152206,16 14.851834,16 L3.20722044,16 C2.65493569,16 2.20722044,15.5522847 2.20722044,15 C2.20722044,14.9375487 2.21307067,14.8752346 2.22469445,14.8138745 L3.42076742,8.5 L3.42076742,8.5 Z" id="矩形" stroke="#ad33ad" stroke-width="2"></path>
                <rect id="矩形" fill="#ad33ad" x="5.75" y="11.3125" width="1.875" height="3.75"></rect>
                <rect id="矩形" fill="#ad33ad" x="10.4375" y="11.3125" width="1.875" height="3.75"></rect>
            </g>
        </g>
    </g>
</svg>