<?xml version="1.0" encoding="UTF-8"?>
<svg width="18px" height="18px" viewBox="0 0 18 18" version="1.1" xmlns="http://www.w3.org/2000/svg" xmlns:xlink="http://www.w3.org/1999/xlink">
    <title>Default icon</title>
    <g id="页面-1" stroke="none" stroke-width="1" fill="none" fill-rule="evenodd">
        <g id="pc" transform="translate(-1041.000000, -221.000000)">
            <g id="Default-icon" transform="translate(1041.000000, 221.000000)">
                <rect id="矩形" fill="#D8D8D8" opacity="0" x="0" y="0" width="18" height="18"></rect>
                <path d="M8,15 L6,15 L1,15 L1,1 L15,1 L15,7 L15,8" id="路径" stroke="#ad33ad" stroke-width="2" stroke-linejoin="bevel" stroke-dasharray="1"></path>
                <path d="M9.75855856,8.51891892 C9.7588359,7.92110777 10.1109693,7.37947103 10.6572306,7.13661952 C11.2034919,6.89376801 11.8415185,6.99520907 12.2855246,7.39550505 C12.7295306,7.79580103 12.8963149,8.41994147 12.7111712,8.98836036 C12.7363964,8.9865946 12.7616216,8.98558558 12.7855856,8.98558558 C12.9325413,8.98533182 13.0777483,9.01745651 13.2108829,9.07967567 C13.4799118,8.14939973 13.0501957,7.15917037 12.1869891,6.72023504 C11.3237824,6.2812997 10.2704747,6.51742042 9.67725027,7.2828449 C9.08402581,8.04826939 9.11814994,9.12717888 9.75855856,9.85358558 L9.75855856,8.51891892 Z" id="路径" stroke="#ad33ad" stroke-width="0.4" fill="#ad33ad" fill-rule="nonzero"></path>
                <path d="M16.525982,10.7947387 C16.1856753,10.4538431 15.6518683,10.4010223 15.2513513,10.6686126 C15.151783,10.3853232 14.9312137,10.1610993 14.6495986,10.0568896 C14.3679836,9.9526798 14.0545863,9.97931294 13.7945946,10.1295496 C13.7754234,10.1409009 13.7562523,10.1527568 13.7378378,10.1651171 C13.642006,9.89189415 13.4334177,9.67300569 13.1651274,9.56412585 C12.896837,9.45524601 12.5947011,9.46686809 12.3355676,9.59603603 C12.3179099,9.61344144 12.2997478,9.63034234 12.2813333,9.64648648 L12.2813333,8.51891892 C12.281346,7.96430762 11.8337338,7.51365354 11.2791351,7.50989021 C10.7201441,7.50637838 10.2630631,7.97809009 10.2630631,8.53682883 L10.2630631,12.7297658 L9.5343063,12.001009 C9.14025362,11.6069563 8.50136799,11.6069563 8.10731531,12.001009 C7.71326263,12.3950617 7.71326263,13.0339473 8.10731531,13.428 L10.2630631,15.5834955 L11.1376216,16.449982 C11.5792668,16.8876879 12.1758923,17.1333333 12.7976937,17.1333333 L14.9380541,17.1333333 C15.9783197,17.1333333 16.8216222,16.2900314 16.8216222,15.2497658 L16.8216222,11.5081081 C16.8218981,11.2404578 16.7155037,10.9837315 16.525982,10.7947387 L16.525982,10.7947387 Z M16.3171171,15.0731892 C16.3171171,15.4857705 16.1532198,15.8814535 15.8614808,16.1731925 C15.5697418,16.4649316 15.1740588,16.6288288 14.7614775,16.6288288 L12.9142342,16.6288288 C12.3785702,16.6287427 11.8635679,16.4221093 11.4763964,16.0519279 L10.7675676,15.3746306 L10.2630631,14.8701261 L8.464,13.0720721 C8.3363886,12.9444607 8.28655067,12.758463 8.33325969,12.5841426 C8.37996871,12.4098221 8.51612846,12.2736624 8.69044888,12.2269534 C8.8647693,12.1802444 9.05076698,12.2300823 9.17837838,12.3576937 L10.2630631,13.4423784 L10.7675676,13.9468829 L10.7675676,8.53153153 C10.7675676,8.25405406 10.9872793,8.01744144 11.2655135,8.01386722 C11.4004492,8.0121556 11.5304632,8.06453313 11.6264994,8.15933689 C11.7225356,8.25414065 11.776588,8.38346737 11.7765766,8.51841442 L11.7765766,9.94565766 L11.7778378,9.94565766 C11.7778378,9.96180181 11.7765766,9.97794596 11.7765766,9.99434234 L11.7765766,12.3150631 L12.2810811,12.3150631 L12.2810811,10.4990991 C12.2810209,10.2855739 12.4153892,10.0951346 12.6165766,10.0236036 C12.7710649,9.96867622 12.9426102,9.99225014 13.0765552,10.0868143 C13.2105002,10.1813785 13.2901363,10.3351368 13.2900901,10.4990991 L13.2900901,12.8198198 L13.7945946,12.8198198 L13.7945946,11.0167207 C13.7945946,10.7392432 14.0143063,10.5026306 14.2925405,10.4990991 C14.4274762,10.4973448 14.5574902,10.5497223 14.6535264,10.6445261 C14.7495627,10.7393298 14.803615,10.8686566 14.8036036,11.0036036 L14.8036036,13.3243243 L15.3081081,13.3243243 L15.3081081,11.5212252 C15.3081081,11.2437478 15.5278198,11.0071351 15.8060541,11.0036036 C15.9409897,11.0018493 16.0710037,11.0542268 16.16704,11.1490306 C16.2630762,11.2438343 16.3171171,11.3731611 16.3171171,11.5081081 L16.3171171,15.0731892 Z" id="形状" stroke="#ad33ad" stroke-width="0.6" fill="#ad33ad" fill-rule="nonzero"></path>
                <rect id="矩形" fill="#ad33ad" x="15" y="1" width="1" height="1"></rect>
                <rect id="矩形" fill="#ad33ad" x="1" y="0" width="1" height="1"></rect>
                <rect id="矩形" fill="#ad33ad" x="0" y="14" width="1" height="1"></rect>
            </g>
        </g>
    </g>
</svg>