<?xml version="1.0" encoding="UTF-8"?>
<svg width="20px" height="20px" viewBox="0 0 20 20" version="1.1" xmlns="http://www.w3.org/2000/svg" xmlns:xlink="http://www.w3.org/1999/xlink">
    <!-- Generator: Sketch 63.1 (92452) - https://sketch.com -->
    <title>编组</title>
    <desc>Created with Sketch.</desc>
    <g id="TE" stroke="none" stroke-width="1" fill="none" fill-rule="evenodd">
        <g id="画板备份-18" transform="translate(-489.000000, -381.000000)" fill-rule="nonzero">
            <g id="编组" transform="translate(489.000000, 381.000000)">
                <path d="M0.00973451327,9.97787611 C0.00973451327,13.5391501 1.9096515,16.8299031 4.99380527,18.6105401 C8.07795903,20.3911771 11.8777932,20.3911771 14.9619469,18.6105401 C18.0461007,16.8299031 19.9460177,13.5391501 19.9460177,9.97787611 C19.9460177,4.47262352 15.4831287,0.00973451327 9.97787611,0.00973451327 C4.47262352,0.00973451327 0.00973451327,4.47262352 0.00973451327,9.97787611 Z" id="路径" fill="#377D75"></path>
                <path d="M13.8292035,14.0557522 C14.2045617,14.0557522 14.5088495,14.3600401 14.5088495,14.7353982 C14.5088495,15.1107563 14.2045617,15.4150442 13.8292035,15.4150442 L6.12654867,15.4150442 C5.75119056,15.4150442 5.4469027,15.1107563 5.4469027,14.7353982 C5.4469027,14.3600401 5.75119056,14.0557522 6.12654867,14.0557522 L13.8292035,14.0557522 L13.8292035,14.0557522 Z M5.9,9.52477876 C6.65071626,9.52477876 7.25929204,10.1333545 7.25929204,10.8840708 C7.25929204,11.6347871 6.65071626,12.2433628 5.9,12.2433628 C5.14928374,12.2433628 4.54070796,11.6347871 4.54070796,10.8840708 C4.54070796,10.1333545 5.14928374,9.52477876 5.9,9.52477876 Z M9.97787611,9.52477876 C10.7285924,9.52477876 11.3371681,10.1333545 11.3371681,10.8840708 C11.3371681,11.6347871 10.7285924,12.2433628 9.97787611,12.2433628 C9.22715984,12.2433628 8.61858407,11.6347871 8.61858407,10.8840708 C8.61858407,10.1333545 9.22715984,9.52477876 9.97787611,9.52477876 Z M14.0557522,9.52477876 C14.8064685,9.52477876 15.4150442,10.1333545 15.4150442,10.8840708 C15.4150442,11.6347871 14.8064685,12.2433628 14.0557522,12.2433628 C13.305036,12.2433628 12.6964602,11.6347871 12.6964602,10.8840708 C12.6964602,10.1333545 13.305036,9.52477876 14.0557522,9.52477876 L14.0557522,9.52477876 Z M5.9,5.44690265 C6.65071626,5.44690265 7.25929204,6.05547843 7.25929204,6.80619469 C7.25929204,7.55691095 6.65071626,8.16548673 5.9,8.16548673 C5.14928374,8.16548673 4.54070796,7.55691095 4.54070796,6.80619469 C4.54070796,6.05547843 5.14928374,5.44690265 5.9,5.44690265 Z M9.97787611,5.44690265 C10.7285924,5.44690265 11.3371681,6.05547843 11.3371681,6.80619469 C11.3371681,7.55691095 10.7285924,8.16548673 9.97787611,8.16548673 C9.22715984,8.16548673 8.61858407,7.55691095 8.61858407,6.80619469 C8.61858407,6.05547843 9.22715984,5.44690265 9.97787611,5.44690265 L9.97787611,5.44690265 Z M14.0557522,5.44690265 C14.8064685,5.44690265 15.4150442,6.05547843 15.4150442,6.80619469 C15.4150442,7.55691095 14.8064685,8.16548673 14.0557522,8.16548673 C13.305036,8.16548673 12.6964602,7.55691095 12.6964602,6.80619469 C12.6964602,6.05547843 13.305036,5.44690265 14.0557522,5.44690265 L14.0557522,5.44690265 Z" id="形状" fill="#FFFFFF"></path>
                <path d="M13.8292035,14.0557522 C14.2045617,14.0557522 14.5088495,14.3600401 14.5088495,14.7353982 C14.5088495,15.1107563 14.2045617,15.4150442 13.8292035,15.4150442 L6.12654867,15.4150442 C5.75119056,15.4150442 5.4469027,15.1107563 5.4469027,14.7353982 C5.4469027,14.3600401 5.75119056,14.0557522 6.12654867,14.0557522 L13.8292035,14.0557522 L13.8292035,14.0557522 Z" id="路径" fill="#C3D8D5"></path>
            </g>
        </g>
    </g>
</svg>