<?xml version="1.0" encoding="UTF-8"?>
<svg width="18px" height="18px" viewBox="0 0 18 18" version="1.1" xmlns="http://www.w3.org/2000/svg" xmlns:xlink="http://www.w3.org/1999/xlink">
    <title>Erase field</title>
    <g id="页面-1" stroke="none" stroke-width="1" fill="none" fill-rule="evenodd">
        <g id="pc" transform="translate(-253.000000, -220.000000)">
            <g id="Erase-field" transform="translate(253.000000, 220.000000)">
                <rect id="矩形" fill="#D8D8D8" opacity="0" x="0" y="0" width="18" height="18"></rect>
                <path d="M4,11 L2,11 C1.44771525,11 1,10.5522847 1,10 L1,3 C1,2.44771525 1.44771525,2 2,2 L16,2 C16.5522847,2 17,2.44771525 17,3 L17,10 C17,10.5522847 16.5522847,11 16,11 L8,11" id="路径" stroke="#ad33ad" stroke-width="2"></path>
                <path d="M10.2,6 L4.998,11.202 L3,13.2 L7.8,18 L15,10.8 L10.2,6 Z M4.698,13.2 L7,11 L10,14 L7.8,16.302 L4.698,13.2 Z M10.8,16.8 L15,16.8 L15,18 L10.8,18 L10.8,16.8 Z" id="形状" fill="#ad33ad" fill-rule="nonzero"></path>
                <rect id="矩形" stroke="#ad33ad" x="3.5" y="4.5" width="1" height="4"></rect>
            </g>
        </g>
    </g>
</svg>