<?xml version="1.0" encoding="UTF-8"?>
<svg width="18px" height="18px" viewBox="0 0 18 18" version="1.1" xmlns="http://www.w3.org/2000/svg" xmlns:xlink="http://www.w3.org/1999/xlink">
    <title>escape</title>
    <g id="页面-1" stroke="none" stroke-width="1" fill="none" fill-rule="evenodd">
        <g id="pc" transform="translate(-384.000000, -221.000000)">
            <g id="escape" transform="translate(384.000000, 221.000000)">
                <rect id="矩形" fill="#D8D8D8" opacity="0" x="0" y="0" width="18" height="18"></rect>
                <path d="M13.9999957,9.99999638 L6.99999566,9.99999638 L6.99999566,7.99999638 L13.9999957,7.99999638 L12.9999957,5.99999638 L14.9999957,5.99999638 L16.9999957,8.99999638 L14.9999957,11.9999964 L12.9999957,11.9999964 L13.9999957,9.99999638 Z M14.6581235,3.34399831 L13.2431912,4.75839729 C12.1194424,3.63051578 10.5921381,2.99759441 9,3 C5.68639661,3 3,5.68639661 3,9 C3,12.3135918 5.68639661,14.9999899 9,14.9999899 C10.6122597,14.9999899 12.1210586,14.362657 13.2399912,13.2453245 L14.6527901,14.6607901 C13.1543102,16.1608291 11.120266,17.0025422 9,17 C4.58186407,17 1,13.4181243 1,9 C1,4.58186407 4.58186407,1 9,1 C11.1503927,1 13.1679912,1.85333271 14.6581235,3.34399831 Z" id="形状" fill="#ad33ad" fill-rule="nonzero"></path>
            </g>
        </g>
    </g>
</svg>