<?xml version="1.0" encoding="UTF-8"?>
<svg width="18px" height="18px" viewBox="0 0 18 18" version="1.1" xmlns="http://www.w3.org/2000/svg" xmlns:xlink="http://www.w3.org/1999/xlink">
    <title>F1</title>
    <g id="页面-1" stroke="none" stroke-width="1" fill="none" fill-rule="evenodd">
        <g id="画板" transform="translate(-15.000000, -67.000000)">
            <g id="F1" transform="translate(15.000000, 67.000000)">
                <rect id="矩形" fill="#D8D8D8" opacity="0" x="0" y="0" width="18" height="18"></rect>
                <g transform="translate(3.963867, 4.719727)" fill="#ad33ad" fill-rule="nonzero" id="路径">
                    <polygon points="0 0.122070312 5.46875 0.122070312 5.46875 1.66015625 2.22167969 1.66015625 2.22167969 2.91015625 4.99511719 2.91015625 4.99511719 4.35546875 2.22167969 4.35546875 2.22167969 7.28027344 0 7.28027344"></polygon>
                    <path d="M10.8452691,0 L10.8452691,7.28027344 L8.83355035,7.28027344 L8.83355035,2.50976562 C8.50802951,2.75716146 8.19308811,2.95735677 7.88872613,3.11035156 C7.58436415,3.26334635 7.20269097,3.40983073 6.7437066,3.54980469 L6.7437066,1.91894531 C7.42078993,1.70084635 7.94650608,1.43880208 8.32085503,1.1328125 C8.69520399,0.826822917 8.98817274,0.44921875 9.19976128,0 L10.8452691,0 Z"></path>
                </g>
            </g>
        </g>
    </g>
</svg>