<?xml version="1.0" encoding="UTF-8"?>
<svg width="18px" height="18px" viewBox="0 0 18 18" version="1.1" xmlns="http://www.w3.org/2000/svg" xmlns:xlink="http://www.w3.org/1999/xlink">
    <title>F10</title>
    <g id="页面-1" stroke="none" stroke-width="1" fill="none" fill-rule="evenodd">
        <g id="画板" transform="translate(-303.000000, -66.000000)">
            <g id="F10" transform="translate(303.000000, 66.000000)">
                <rect id="矩形" fill="#D8D8D8" opacity="0" x="0" y="0" width="18" height="18"></rect>
                <g transform="translate(2.707574, 0.841797)" fill="#ad33ad" fill-rule="nonzero">
                    <polygon id="路径" points="2.2562934 0 7.7250434 0 7.7250434 1.53808594 4.47797309 1.53808594 4.47797309 2.78808594 7.25141059 2.78808594 7.25141059 4.23339844 4.47797309 4.23339844 4.47797309 7.15820312 2.2562934 7.15820312"></polygon>
                    <path d="M4.1015625,8.87792969 L4.1015625,16.1582031 L2.08984375,16.1582031 L2.08984375,11.3876953 C1.76432292,11.6350911 1.44938151,11.8352865 1.14501953,11.9882812 C0.840657552,12.141276 0.458984375,12.2877604 0,12.4277344 L0,10.796875 C0.677083333,10.578776 1.20279948,10.3167318 1.57714844,10.0107422 C1.9514974,9.7047526 2.24446615,9.32714844 2.45605469,8.87792969 L4.1015625,8.87792969 Z" id="路径"></path>
                    <path d="M7.70258247,12.5498047 C7.70258247,11.1891276 7.94753689,10.2369792 8.43744575,9.69335938 C8.9273546,9.14973958 9.67361111,8.87792969 10.6762153,8.87792969 C11.1579861,8.87792969 11.5534939,8.93733724 11.8627387,9.05615234 C12.1719835,9.17496745 12.4242622,9.32958984 12.6195747,9.52001953 C12.8148872,9.71044922 12.9686957,9.91064453 13.0810004,10.1206055 C13.1933051,10.3305664 13.2836372,10.5755208 13.3519965,10.8554688 C13.4854601,11.3893229 13.5521918,11.9459635 13.5521918,12.5253906 C13.5521918,13.8242188 13.3324653,14.7747396 12.8930122,15.3769531 C12.453559,15.9791667 11.6967231,16.2802734 10.6225043,16.2802734 C10.0202908,16.2802734 9.53363715,16.1842448 9.1625434,15.9921875 C8.79144965,15.8001302 8.48708767,15.5185547 8.24945747,15.1474609 C8.07693142,14.8837891 7.94265408,14.5232747 7.84662543,14.065918 C7.75059679,13.6085612 7.70258247,13.1031901 7.70258247,12.5498047 Z M9.67523872,12.5546875 C9.67523872,13.4661458 9.75580512,14.0887044 9.91693793,14.4223633 C10.0780707,14.7560221 10.3116319,14.9228516 10.6176215,14.9228516 C10.8194444,14.9228516 10.9944119,14.8520508 11.1425239,14.7104492 C11.2906359,14.5688477 11.3996853,14.3450521 11.4696723,14.0390625 C11.5396593,13.7330729 11.5746528,13.2561849 11.5746528,12.6083984 C11.5746528,11.6578776 11.4940864,11.019043 11.3329536,10.6918945 C11.1718207,10.3647461 10.9301215,10.2011719 10.6078559,10.2011719 C10.2790799,10.2011719 10.0414497,10.3680013 9.89496528,10.7016602 C9.7484809,11.035319 9.67523872,11.6529948 9.67523872,12.5546875 Z" id="形状"></path>
                </g>
            </g>
        </g>
    </g>
</svg>