<?xml version="1.0" encoding="UTF-8"?>
<svg width="18px" height="18px" viewBox="0 0 18 18" version="1.1" xmlns="http://www.w3.org/2000/svg" xmlns:xlink="http://www.w3.org/1999/xlink">
    <title>F11</title>
    <g id="页面-1" stroke="none" stroke-width="1" fill="none" fill-rule="evenodd">
        <g id="画板" transform="translate(-336.000000, -66.000000)">
            <g id="F11" transform="translate(336.000000, 66.000000)">
                <rect id="矩形" fill="#D8D8D8" opacity="0" x="0" y="0" width="18" height="18"></rect>
                <g transform="translate(2.707574, 0.841797)" fill="#ad33ad" fill-rule="nonzero" id="路径">
                    <polygon points="2.2562934 0 7.7250434 0 7.7250434 1.53808594 4.47797309 1.53808594 4.47797309 2.78808594 7.25141059 2.78808594 7.25141059 4.23339844 4.47797309 4.23339844 4.47797309 7.15820312 2.2562934 7.15820312"></polygon>
                    <path d="M12.1015625,8.87792969 L12.1015625,16.1582031 L10.0898438,16.1582031 L10.0898438,11.3876953 C9.76432292,11.6350911 9.44938151,11.8352865 9.14501953,11.9882812 C8.84065755,12.141276 8.45898438,12.2877604 8,12.4277344 L8,10.796875 C8.67708333,10.578776 9.20279948,10.3167318 9.57714844,10.0107422 C9.9514974,9.7047526 10.2444661,9.32714844 10.4560547,8.87792969 L12.1015625,8.87792969 Z"></path>
                    <path d="M4.1015625,8.87792969 L4.1015625,16.1582031 L2.08984375,16.1582031 L2.08984375,11.3876953 C1.76432292,11.6350911 1.44938151,11.8352865 1.14501953,11.9882812 C0.840657552,12.141276 0.458984375,12.2877604 0,12.4277344 L0,10.796875 C0.677083333,10.578776 1.20279948,10.3167318 1.57714844,10.0107422 C1.9514974,9.7047526 2.24446615,9.32714844 2.45605469,8.87792969 L4.1015625,8.87792969 Z"></path>
                </g>
            </g>
        </g>
    </g>
</svg>