<?xml version="1.0" encoding="UTF-8"?>
<svg width="18px" height="18px" viewBox="0 0 18 18" version="1.1" xmlns="http://www.w3.org/2000/svg" xmlns:xlink="http://www.w3.org/1999/xlink">
    <title>F14</title>
    <g id="页面-1" stroke="none" stroke-width="1" fill="none" fill-rule="evenodd">
        <g id="画板" transform="translate(-437.000000, -66.000000)">
            <g id="F14" transform="translate(437.000000, 66.000000)">
                <rect id="矩形" fill="#D8D8D8" opacity="0" x="0" y="0" width="18" height="18"></rect>
                <g transform="translate(2.707574, 0.841797)" fill="#ad33ad" fill-rule="nonzero">
                    <polygon id="路径" points="2.2562934 0 7.7250434 0 7.7250434 1.53808594 4.47797309 1.53808594 4.47797309 2.78808594 7.25141059 2.78808594 7.25141059 4.23339844 4.47797309 4.23339844 4.47797309 7.15820312 2.2562934 7.15820312"></polygon>
                    <path d="M10.7904731,14.8203125 L7.16742622,14.8203125 L7.16742622,13.1845703 L10.7904731,8.87792969 L12.5238715,8.87792969 L12.5238715,13.2773438 L13.422309,13.2773438 L13.422309,14.8203125 L12.5238715,14.8203125 L12.5238715,16.1582031 L10.7904731,16.1582031 L10.7904731,14.8203125 Z M10.7904731,13.2773438 L10.7904731,11.0263672 L8.87641059,13.2773438 L10.7904731,13.2773438 Z" id="形状"></path>
                    <path d="M4.1015625,8.87792969 L4.1015625,16.1582031 L2.08984375,16.1582031 L2.08984375,11.3876953 C1.76432292,11.6350911 1.44938151,11.8352865 1.14501953,11.9882812 C0.840657552,12.141276 0.458984375,12.2877604 0,12.4277344 L0,10.796875 C0.677083333,10.578776 1.20279948,10.3167318 1.57714844,10.0107422 C1.9514974,9.7047526 2.24446615,9.32714844 2.45605469,8.87792969 L4.1015625,8.87792969 Z" id="路径"></path>
                </g>
            </g>
        </g>
    </g>
</svg>