<?xml version="1.0" encoding="UTF-8"?>
<svg width="18px" height="18px" viewBox="0 0 18 18" version="1.1" xmlns="http://www.w3.org/2000/svg" xmlns:xlink="http://www.w3.org/1999/xlink">
    <title>F15</title>
    <g id="页面-1" stroke="none" stroke-width="1" fill="none" fill-rule="evenodd">
        <g id="画板" transform="translate(-468.000000, -66.000000)">
            <g id="F15" transform="translate(468.000000, 66.000000)">
                <rect id="矩形" fill="#D8D8D8" opacity="0" x="0" y="0" width="18" height="18"></rect>
                <g transform="translate(2.707574, 0.841797)" fill="#ad33ad" fill-rule="nonzero" id="路径">
                    <polygon points="2.2562934 0 7.7250434 0 7.7250434 1.53808594 4.47797309 1.53808594 4.47797309 2.78808594 7.25141059 2.78808594 7.25141059 4.23339844 4.47797309 4.23339844 4.47797309 7.15820312 2.2562934 7.15820312"></polygon>
                    <path d="M8.50824653,9 L13.2299262,9 L13.2299262,10.5869141 L10.031684,10.5869141 L9.86078559,11.6611328 C10.0821398,11.5569661 10.3010525,11.4788411 10.5175239,11.4267578 C10.7339952,11.3746745 10.9480252,11.3486328 11.1596137,11.3486328 C11.8757595,11.3486328 12.4568142,11.5651042 12.9027778,11.9980469 C13.3487413,12.4309896 13.5717231,12.976237 13.5717231,13.6337891 C13.5717231,14.0960286 13.456977,14.5403646 13.2274848,14.9667969 C12.9979926,15.3932292 12.6724718,15.71875 12.2509223,15.9433594 C11.8293728,16.1679688 11.289822,16.2802734 10.63227,16.2802734 C10.1602648,16.2802734 9.75580512,16.2355143 9.41889106,16.1459961 C9.081977,16.0564779 8.79551866,15.9230143 8.55951606,15.7456055 C8.32351345,15.5681966 8.13226997,15.3671875 7.98578559,15.1425781 C7.83930122,14.9179688 7.7172309,14.6380208 7.61957465,14.3027344 L9.6312934,14.0830078 C9.68012153,14.4052734 9.79405382,14.6502279 9.97309028,14.8178711 C10.1521267,14.9855143 10.3653429,15.0693359 10.6127387,15.0693359 C10.8894314,15.0693359 11.1181098,14.9643555 11.2987739,14.7543945 C11.4794379,14.5444336 11.56977,14.2311198 11.56977,13.8144531 C11.56977,13.3880208 11.4786241,13.0755208 11.2963325,12.8769531 C11.1140408,12.6783854 10.8715278,12.5791016 10.5687934,12.5791016 C10.3767361,12.5791016 10.1911892,12.6263021 10.0121528,12.7207031 C9.87868924,12.7890625 9.73220486,12.9127604 9.57269965,13.0917969 L7.87836372,12.8476562 L8.50824653,9 Z"></path>
                    <path d="M4.1015625,8.87792969 L4.1015625,16.1582031 L2.08984375,16.1582031 L2.08984375,11.3876953 C1.76432292,11.6350911 1.44938151,11.8352865 1.14501953,11.9882812 C0.840657552,12.141276 0.458984375,12.2877604 0,12.4277344 L0,10.796875 C0.677083333,10.578776 1.20279948,10.3167318 1.57714844,10.0107422 C1.9514974,9.7047526 2.24446615,9.32714844 2.45605469,8.87792969 L4.1015625,8.87792969 Z"></path>
                </g>
            </g>
        </g>
    </g>
</svg>