<?xml version="1.0" encoding="UTF-8"?>
<svg width="18px" height="18px" viewBox="0 0 18 18" version="1.1" xmlns="http://www.w3.org/2000/svg" xmlns:xlink="http://www.w3.org/1999/xlink">
    <title>F19</title>
    <g id="页面-1" stroke="none" stroke-width="1" fill="none" fill-rule="evenodd">
        <g id="画板" transform="translate(-589.000000, -65.000000)">
            <g id="F19" transform="translate(589.000000, 65.000000)">
                <rect id="矩形" fill="#D8D8D8" opacity="0" x="0" y="0" width="18" height="18"></rect>
                <g transform="translate(2.707574, 0.841797)" fill="#ad33ad" fill-rule="nonzero">
                    <polygon id="路径" points="2.2562934 0 7.7250434 0 7.7250434 1.53808594 4.47797309 1.53808594 4.47797309 2.78808594 7.25141059 2.78808594 7.25141059 4.23339844 4.47797309 4.23339844 4.47797309 7.15820312 2.2562934 7.15820312"></polygon>
                    <path d="M7.79047309,14.5517578 L9.76801215,14.3027344 C9.82009549,14.5794271 9.90798611,14.7747396 10.031684,14.8886719 C10.1553819,15.0026042 10.3067491,15.0595703 10.4857856,15.0595703 C10.804796,15.0595703 11.0538194,14.8984375 11.2328559,14.5761719 C11.3630642,14.3385417 11.4607205,13.835612 11.5258247,13.0673828 C11.2881944,13.3115234 11.0440538,13.4905599 10.7934028,13.6044922 C10.5427517,13.7184245 10.2530382,13.7753906 9.92426215,13.7753906 C9.28298611,13.7753906 8.74180773,13.547526 8.300727,13.0917969 C7.85964627,12.6360677 7.6391059,12.0598958 7.6391059,11.3632812 C7.6391059,10.8880208 7.75141059,10.4550781 7.97601997,10.0644531 C8.20062934,9.67382812 8.50987413,9.37841797 8.90375434,9.17822266 C9.29763455,8.97802734 9.79242622,8.87792969 10.3881293,8.87792969 C11.1042752,8.87792969 11.6788194,9.0008138 12.1117622,9.24658203 C12.5447049,9.49235026 12.8905707,9.88297526 13.1493598,10.418457 C13.4081489,10.9539388 13.5375434,11.6611328 13.5375434,12.5400391 C13.5375434,13.8323568 13.2657335,14.7788086 12.7221137,15.3793945 C12.1784939,15.9799805 11.4249132,16.2802734 10.4613715,16.2802734 C9.89171007,16.2802734 9.44249132,16.2143555 9.11371528,16.0825195 C8.78493924,15.9506836 8.51150174,15.7578125 8.29340278,15.5039062 C8.07530382,15.25 7.90766059,14.9326172 7.79047309,14.5517578 Z M11.4525825,11.3583984 C11.4525825,10.9710286 11.3549262,10.6674805 11.1596137,10.4477539 C10.9643012,10.2280273 10.726671,10.1181641 10.4467231,10.1181641 C10.1830512,10.1181641 9.96413845,10.2174479 9.78998481,10.4160156 C9.61583116,10.6145833 9.52875434,10.9124349 9.52875434,11.3095703 C9.52875434,11.7099609 9.61908637,12.0159505 9.79975043,12.2275391 C9.9804145,12.4391276 10.2058377,12.5449219 10.47602,12.5449219 C10.7559679,12.5449219 10.9887153,12.4423828 11.1742622,12.2373047 C11.359809,12.0322266 11.4525825,11.7392578 11.4525825,11.3583984 Z" id="形状"></path>
                    <path d="M4.1015625,8.87792969 L4.1015625,16.1582031 L2.08984375,16.1582031 L2.08984375,11.3876953 C1.76432292,11.6350911 1.44938151,11.8352865 1.14501953,11.9882812 C0.840657552,12.141276 0.458984375,12.2877604 0,12.4277344 L0,10.796875 C0.677083333,10.578776 1.20279948,10.3167318 1.57714844,10.0107422 C1.9514974,9.7047526 2.24446615,9.32714844 2.45605469,8.87792969 L4.1015625,8.87792969 Z" id="路径"></path>
                </g>
            </g>
        </g>
    </g>
</svg>