<?xml version="1.0" encoding="UTF-8"?>
<svg width="18px" height="18px" viewBox="0 0 18 18" version="1.1" xmlns="http://www.w3.org/2000/svg" xmlns:xlink="http://www.w3.org/1999/xlink">
    <title>F2</title>
    <g id="页面-1" stroke="none" stroke-width="1" fill="none" fill-rule="evenodd">
        <g id="画板" transform="translate(-52.000000, -67.000000)">
            <g id="F2" transform="translate(52.000000, 67.000000)">
                <rect id="矩形" fill="#D8D8D8" opacity="0" x="0" y="0" width="18" height="18"></rect>
                <g transform="translate(2.963867, 4.719727)" fill="#ad33ad" fill-rule="nonzero" id="路径">
                    <polygon points="0 0.122070312 5.46875 0.122070312 5.46875 1.66015625 2.22167969 1.66015625 2.22167969 2.91015625 4.99511719 2.91015625 4.99511719 4.35546875 2.22167969 4.35546875 2.22167969 7.28027344 0 7.28027344"></polygon>
                    <path d="M12.2666016,7.28027344 L6.29980469,7.28027344 C6.36816406,6.69108073 6.57568359,6.13688151 6.92236328,5.61767578 C7.26904297,5.09847005 7.91927083,4.48567708 8.87304688,3.77929687 C9.45572917,3.34635417 9.82845052,3.01757812 9.99121094,2.79296875 C10.1539714,2.56835938 10.2353516,2.35514323 10.2353516,2.15332031 C10.2353516,1.93522135 10.1547852,1.74886068 9.99365234,1.59423828 C9.83251953,1.43961589 9.62988281,1.36230469 9.38574219,1.36230469 C9.13183594,1.36230469 8.92431641,1.44205729 8.76318359,1.6015625 C8.60205078,1.76106771 8.4938151,2.04264323 8.43847656,2.44628906 L6.44628906,2.28515625 C6.52441406,1.72526042 6.66764323,1.2882487 6.87597656,0.974121094 C7.0843099,0.65999349 7.37809245,0.419108073 7.75732422,0.251464844 C8.13655599,0.0838216146 8.66145833,0 9.33203125,0 C10.031901,0 10.5763346,0.0797526042 10.965332,0.239257813 C11.3543294,0.398763021 11.660319,0.643717448 11.8833008,0.974121094 C12.1062826,1.30452474 12.2177734,1.67480469 12.2177734,2.08496094 C12.2177734,2.52115885 12.0900065,2.93782552 11.8344727,3.33496094 C11.5789388,3.73209635 11.1142578,4.16829427 10.4404297,4.64355469 C10.0400391,4.9202474 9.77229818,5.11393229 9.63720703,5.22460938 C9.50211589,5.33528646 9.34342448,5.48014323 9.16113281,5.65917969 L12.2666016,5.65917969 L12.2666016,7.28027344 Z"></path>
                </g>
            </g>
        </g>
    </g>
</svg>