<?xml version="1.0" encoding="UTF-8"?>
<svg width="18px" height="18px" viewBox="0 0 18 18" version="1.1" xmlns="http://www.w3.org/2000/svg" xmlns:xlink="http://www.w3.org/1999/xlink">
    <title>F20</title>
    <g id="页面-1" stroke="none" stroke-width="1" fill="none" fill-rule="evenodd">
        <g id="画板" transform="translate(-619.000000, -65.000000)">
            <g id="F20" transform="translate(619.000000, 65.000000)">
                <rect id="矩形" fill="#D8D8D8" opacity="0" x="0" y="0" width="18" height="18"></rect>
                <g transform="translate(1.263672, 0.841797)" fill="#ad33ad" fill-rule="nonzero">
                    <polygon id="路径" points="2.70019531 0 8.16894531 0 8.16894531 1.53808594 4.921875 1.53808594 4.921875 2.78808594 7.6953125 2.78808594 7.6953125 4.23339844 4.921875 4.23339844 4.921875 7.15820312 2.70019531 7.15820312"></polygon>
                    <path d="M9.14648438,12.5498047 C9.14648438,11.1891276 9.3914388,10.2369792 9.88134766,9.69335938 C10.3712565,9.14973958 11.117513,8.87792969 12.1201172,8.87792969 C12.601888,8.87792969 12.9973958,8.93733724 13.3066406,9.05615234 C13.6158854,9.17496745 13.8681641,9.32958984 14.0634766,9.52001953 C14.2587891,9.71044922 14.4125977,9.91064453 14.5249023,10.1206055 C14.637207,10.3305664 14.7275391,10.5755208 14.7958984,10.8554688 C14.929362,11.3893229 14.9960938,11.9459635 14.9960938,12.5253906 C14.9960938,13.8242188 14.7763672,14.7747396 14.3369141,15.3769531 C13.8974609,15.9791667 13.140625,16.2802734 12.0664062,16.2802734 C11.4641927,16.2802734 10.9775391,16.1842448 10.6064453,15.9921875 C10.2353516,15.8001302 9.93098958,15.5185547 9.69335938,15.1474609 C9.52083333,14.8837891 9.38655599,14.5232747 9.29052734,14.065918 C9.1944987,13.6085612 9.14648438,13.1031901 9.14648438,12.5498047 Z M11.1191406,12.5546875 C11.1191406,13.4661458 11.199707,14.0887044 11.3608398,14.4223633 C11.5219727,14.7560221 11.7555339,14.9228516 12.0615234,14.9228516 C12.2633464,14.9228516 12.4383138,14.8520508 12.5864258,14.7104492 C12.7345378,14.5688477 12.8435872,14.3450521 12.9135742,14.0390625 C12.9835612,13.7330729 13.0185547,13.2561849 13.0185547,12.6083984 C13.0185547,11.6578776 12.9379883,11.019043 12.7768555,10.6918945 C12.6157227,10.3647461 12.3740234,10.2011719 12.0517578,10.2011719 C11.7229818,10.2011719 11.4853516,10.3680013 11.3388672,10.7016602 C11.1923828,11.035319 11.1191406,11.6529948 11.1191406,12.5546875 Z" id="形状"></path>
                    <path d="M5.96679688,16.1582031 L0,16.1582031 C0.068359375,15.5690104 0.275878906,15.0148112 0.622558594,14.4956055 C0.969238281,13.9763997 1.61946615,13.3636068 2.57324219,12.6572266 C3.15592448,12.2242839 3.52864583,11.8955078 3.69140625,11.6708984 C3.85416667,11.4462891 3.93554687,11.2330729 3.93554687,11.03125 C3.93554687,10.813151 3.85498047,10.6267904 3.69384766,10.472168 C3.53271484,10.3175456 3.33007812,10.2402344 3.0859375,10.2402344 C2.83203125,10.2402344 2.62451172,10.319987 2.46337891,10.4794922 C2.30224609,10.6389974 2.19401042,10.9205729 2.13867188,11.3242188 L0.146484375,11.1630859 C0.224609375,10.6031901 0.367838542,10.1661784 0.576171875,9.85205078 C0.784505208,9.53792318 1.07828776,9.29703776 1.45751953,9.12939453 C1.8367513,8.9617513 2.36165365,8.87792969 3.03222656,8.87792969 C3.73209635,8.87792969 4.27652995,8.95768229 4.66552734,9.1171875 C5.05452474,9.27669271 5.36051432,9.52164714 5.58349609,9.85205078 C5.80647786,10.1824544 5.91796875,10.5527344 5.91796875,10.9628906 C5.91796875,11.3990885 5.79020182,11.8157552 5.53466797,12.2128906 C5.27913411,12.610026 4.81445312,13.046224 4.140625,13.5214844 C3.74023438,13.7981771 3.47249349,13.991862 3.33740234,14.1025391 C3.2023112,14.2132161 3.04361979,14.3580729 2.86132812,14.5371094 L5.96679688,14.5371094 L5.96679688,16.1582031 Z" id="路径"></path>
                </g>
            </g>
        </g>
    </g>
</svg>