<?xml version="1.0" encoding="UTF-8"?>
<svg width="18px" height="18px" viewBox="0 0 18 18" version="1.1" xmlns="http://www.w3.org/2000/svg" xmlns:xlink="http://www.w3.org/1999/xlink">
    <title>F24</title>
    <g id="页面-1" stroke="none" stroke-width="1" fill="none" fill-rule="evenodd">
        <g id="画板" transform="translate(-731.000000, -65.000000)">
            <g id="F24" transform="translate(731.000000, 65.000000)">
                <rect id="矩形" fill="#D8D8D8" opacity="0" x="0" y="0" width="18" height="18"></rect>
                <g transform="translate(1.263672, 0.841797)" fill="#ad33ad" fill-rule="nonzero">
                    <polygon id="路径" points="1.70019531 0 7.16894531 0 7.16894531 1.53808594 3.921875 1.53808594 3.921875 2.78808594 6.6953125 2.78808594 6.6953125 4.23339844 3.921875 4.23339844 3.921875 7.15820312 1.70019531 7.15820312"></polygon>
                    <path d="M5.96679688,16.1582031 L0,16.1582031 C0.068359375,15.5690104 0.275878906,15.0148112 0.622558594,14.4956055 C0.969238281,13.9763997 1.61946615,13.3636068 2.57324219,12.6572266 C3.15592448,12.2242839 3.52864583,11.8955078 3.69140625,11.6708984 C3.85416667,11.4462891 3.93554687,11.2330729 3.93554687,11.03125 C3.93554687,10.813151 3.85498047,10.6267904 3.69384766,10.472168 C3.53271484,10.3175456 3.33007812,10.2402344 3.0859375,10.2402344 C2.83203125,10.2402344 2.62451172,10.319987 2.46337891,10.4794922 C2.30224609,10.6389974 2.19401042,10.9205729 2.13867188,11.3242188 L0.146484375,11.1630859 C0.224609375,10.6031901 0.367838542,10.1661784 0.576171875,9.85205078 C0.784505208,9.53792318 1.07828776,9.29703776 1.45751953,9.12939453 C1.8367513,8.9617513 2.36165365,8.87792969 3.03222656,8.87792969 C3.73209635,8.87792969 4.27652995,8.95768229 4.66552734,9.1171875 C5.05452474,9.27669271 5.36051432,9.52164714 5.58349609,9.85205078 C5.80647786,10.1824544 5.91796875,10.5527344 5.91796875,10.9628906 C5.91796875,11.3990885 5.79020182,11.8157552 5.53466797,12.2128906 C5.27913411,12.610026 4.81445312,13.046224 4.140625,13.5214844 C3.74023438,13.7981771 3.47249349,13.991862 3.33740234,14.1025391 C3.2023112,14.2132161 3.04361979,14.3580729 2.86132812,14.5371094 L5.96679688,14.5371094 L5.96679688,16.1582031 Z" id="路径"></path>
                    <path d="M12.234375,14.8203125 L8.61132812,14.8203125 L8.61132812,13.1845703 L12.234375,8.87792969 L13.9677734,8.87792969 L13.9677734,13.2773438 L14.8662109,13.2773438 L14.8662109,14.8203125 L13.9677734,14.8203125 L13.9677734,16.1582031 L12.234375,16.1582031 L12.234375,14.8203125 Z M12.234375,13.2773438 L12.234375,11.0263672 L10.3203125,13.2773438 L12.234375,13.2773438 Z" id="形状"></path>
                </g>
            </g>
        </g>
    </g>
</svg>