<?xml version="1.0" encoding="UTF-8"?>
<svg width="18px" height="18px" viewBox="0 0 18 18" version="1.1" xmlns="http://www.w3.org/2000/svg" xmlns:xlink="http://www.w3.org/1999/xlink">
    <title>F4</title>
    <g id="页面-1" stroke="none" stroke-width="1" fill="none" fill-rule="evenodd">
        <g id="画板" transform="translate(-122.000000, -66.000000)">
            <g id="F-4" transform="translate(122.000000, 66.000000)">
                <rect id="矩形" fill="#D8D8D8" opacity="0" x="0" y="0" width="18" height="18"></rect>
                <polygon id="路径" fill="#ad33ad" fill-rule="nonzero" points="2.96386719 5.84179688 8.43261719 5.84179688 8.43261719 7.37988281 5.18554688 7.37988281 5.18554688 8.62988281 7.95898438 8.62988281 7.95898438 10.0751953 5.18554688 10.0751953 5.18554688 13 2.96386719 13"></polygon>
                <path d="M12.4980469,11.6621094 L8.875,11.6621094 L8.875,10.0263672 L12.4980469,5.71972656 L14.2314453,5.71972656 L14.2314453,10.1191406 L15.1298828,10.1191406 L15.1298828,11.6621094 L14.2314453,11.6621094 L14.2314453,13 L12.4980469,13 L12.4980469,11.6621094 Z M12.4980469,10.1191406 L12.4980469,7.86816406 L10.5839844,10.1191406 L12.4980469,10.1191406 Z" id="形状" fill="#ad33ad" fill-rule="nonzero"></path>
            </g>
        </g>
    </g>
</svg>