<?xml version="1.0" encoding="UTF-8"?>
<svg width="18px" height="18px" viewBox="0 0 18 18" version="1.1" xmlns="http://www.w3.org/2000/svg" xmlns:xlink="http://www.w3.org/1999/xlink">
    <title>F5</title>
    <g id="页面-1" stroke="none" stroke-width="1" fill="none" fill-rule="evenodd">
        <g id="画板" transform="translate(-153.000000, -67.000000)">
            <g id="F5" transform="translate(153.000000, 67.000000)">
                <rect id="矩形" fill="#D8D8D8" opacity="0" x="0" y="0" width="18" height="18"></rect>
                <g id="F-5" transform="translate(2.963867, 5.841797)" fill="#ad33ad" fill-rule="nonzero">
                    <polygon id="路径" points="0 0 5.46875 0 5.46875 1.53808594 2.22167969 1.53808594 2.22167969 2.78808594 4.99511719 2.78808594 4.99511719 4.23339844 2.22167969 4.23339844 2.22167969 7.15820312 0 7.15820312"></polygon>
                    <path d="M7.25195312,0 L11.9736328,0 L11.9736328,1.58691406 L8.77539062,1.58691406 L8.60449219,2.66113281 C8.82584635,2.55696615 9.04475911,2.47884115 9.26123047,2.42675781 C9.47770182,2.37467448 9.69173177,2.34863281 9.90332031,2.34863281 C10.6194661,2.34863281 11.2005208,2.56510417 11.6464844,2.99804688 C12.0924479,3.43098958 12.3154297,3.97623698 12.3154297,4.63378906 C12.3154297,5.09602865 12.2006836,5.54036458 11.9711914,5.96679688 C11.7416992,6.39322917 11.4161784,6.71875 10.9946289,6.94335938 C10.5730794,7.16796875 10.0335286,7.28027344 9.37597656,7.28027344 C8.90397135,7.28027344 8.49951172,7.23551432 8.16259766,7.14599609 C7.82568359,7.05647786 7.53922526,6.92301432 7.30322266,6.74560547 C7.06722005,6.56819661 6.87597656,6.3671875 6.72949219,6.14257812 C6.58300781,5.91796875 6.4609375,5.63802083 6.36328125,5.30273438 L8.375,5.08300781 C8.42382812,5.40527344 8.53776042,5.65022786 8.71679688,5.81787109 C8.89583333,5.98551432 9.10904948,6.06933594 9.35644531,6.06933594 C9.63313802,6.06933594 9.86181641,5.96435547 10.0424805,5.75439453 C10.2231445,5.54443359 10.3134766,5.23111979 10.3134766,4.81445312 C10.3134766,4.38802083 10.2223307,4.07552083 10.0400391,3.87695312 C9.8577474,3.67838542 9.61523438,3.57910156 9.3125,3.57910156 C9.12044271,3.57910156 8.93489583,3.62630208 8.75585938,3.72070312 C8.62239583,3.7890625 8.47591146,3.91276042 8.31640625,4.09179688 L6.62207031,3.84765625 L7.25195312,0 Z" id="路径"></path>
                </g>
            </g>
        </g>
    </g>
</svg>