<?xml version="1.0" encoding="UTF-8"?>
<svg width="18px" height="18px" viewBox="0 0 18 18" version="1.1" xmlns="http://www.w3.org/2000/svg" xmlns:xlink="http://www.w3.org/1999/xlink">
    <title>F8</title>
    <g id="页面-1" stroke="none" stroke-width="1" fill="none" fill-rule="evenodd">
        <g id="画板" transform="translate(-241.000000, -67.000000)">
            <g id="F8" transform="translate(241.000000, 67.000000)">
                <rect id="矩形" fill="#D8D8D8" opacity="0" x="0" y="0" width="18" height="18"></rect>
                <g id="F-8" transform="translate(2.963867, 5.719727)" fill="#ad33ad" fill-rule="nonzero">
                    <polygon id="路径" points="0 0.122070312 5.46875 0.122070312 5.46875 1.66015625 2.22167969 1.66015625 2.22167969 2.91015625 4.99511719 2.91015625 4.99511719 4.35546875 2.22167969 4.35546875 2.22167969 7.28027344 0 7.28027344"></polygon>
                    <path d="M7.64257812,3.43261719 C7.33007812,3.26660156 7.10221354,3.08105469 6.95898438,2.87597656 C6.76367188,2.59602865 6.66601562,2.27376302 6.66601562,1.90917969 C6.66601562,1.31022135 6.94759115,0.8203125 7.51074219,0.439453125 C7.95019531,0.146484375 8.53125,0 9.25390625,0 C10.2109375,0 10.9181315,0.182291667 11.3754883,0.546875 C11.8328451,0.911458333 12.0615234,1.37044271 12.0615234,1.92382812 C12.0615234,2.24609375 11.9703776,2.54720052 11.7880859,2.82714844 C11.6513672,3.03548177 11.4365234,3.23730469 11.1435547,3.43261719 C11.5309245,3.61816406 11.8198242,3.86393229 12.0102539,4.16992188 C12.2006836,4.47591146 12.2958984,4.81445312 12.2958984,5.18554688 C12.2958984,5.54361979 12.2137044,5.87809245 12.0493164,6.18896484 C11.8849284,6.49983724 11.6831055,6.73990885 11.4438477,6.90917969 C11.2045898,7.07845052 10.9067383,7.20296224 10.550293,7.28271484 C10.1938477,7.36246745 9.81380208,7.40234375 9.41015625,7.40234375 C8.65169271,7.40234375 8.07226562,7.31282552 7.671875,7.13378906 C7.27148438,6.9547526 6.9671224,6.69108073 6.75878906,6.34277344 C6.55045573,5.99446615 6.44628906,5.60546875 6.44628906,5.17578125 C6.44628906,4.75585938 6.54394531,4.40022786 6.73925781,4.10888672 C6.93457031,3.81754557 7.23567708,3.5921224 7.64257812,3.43261719 Z M8.53613281,2.02636719 C8.53613281,2.27376302 8.61344401,2.47314453 8.76806641,2.62451172 C8.9226888,2.77587891 9.12858073,2.8515625 9.38574219,2.8515625 C9.61360677,2.8515625 9.80078125,2.77669271 9.94726562,2.62695312 C10.09375,2.47721354 10.1669922,2.28352865 10.1669922,2.04589844 C10.1669922,1.7985026 10.0904948,1.59749349 9.9375,1.44287109 C9.78450521,1.2882487 9.58919271,1.2109375 9.3515625,1.2109375 C9.11067708,1.2109375 8.91455078,1.28662109 8.76318359,1.43798828 C8.61181641,1.58935547 8.53613281,1.78548177 8.53613281,2.02636719 Z M8.42871094,5.10742188 C8.42871094,5.42317708 8.52473958,5.68115234 8.71679688,5.88134766 C8.90885417,6.08154297 9.12858073,6.18164062 9.37597656,6.18164062 C9.61360677,6.18164062 9.82682292,6.07991536 10.015625,5.87646484 C10.2044271,5.67301432 10.2988281,5.41503906 10.2988281,5.10253906 C10.2988281,4.78678385 10.2036133,4.52799479 10.0131836,4.32617188 C9.82275391,4.12434896 9.60221354,4.0234375 9.3515625,4.0234375 C9.10416667,4.0234375 8.88850911,4.12109375 8.70458984,4.31640625 C8.52067057,4.51171875 8.42871094,4.77539062 8.42871094,5.10742188 Z" id="形状"></path>
                </g>
            </g>
        </g>
    </g>
</svg>