<?xml version="1.0" encoding="UTF-8"?>
<svg width="18px" height="18px" viewBox="0 0 18 18" version="1.1" xmlns="http://www.w3.org/2000/svg" xmlns:xlink="http://www.w3.org/1999/xlink">
    <title>field mark</title>
    <g id="页面-1" stroke="none" stroke-width="1" fill="none" fill-rule="evenodd">
        <g id="pc" transform="translate(-1724.000000, -489.000000)">
            <g id="field-mark" transform="translate(1724.000000, 489.000000)">
                <rect id="矩形" fill="#D8D8D8" fill-rule="nonzero" opacity="0" x="0" y="0" width="18" height="18"></rect>
                <path d="M5,11 L2,11 C1.44771525,11 1,10.5522847 1,10 L1,3 C1,2.44771525 1.44771525,2 2,2 L16,2 C16.5522847,2 17,2.44771525 17,3 L17,10 C17,10.5522847 16.5522847,11 16,11" id="路径" stroke="#ad33ad" stroke-width="2"></path>
                <rect id="矩形" stroke="#ad33ad" x="3.5" y="4.5" width="1" height="4"></rect>
                <path d="M14.5,6.75 L13.8,6.75 C13.1,6.75 12.4,6.6 11.75,6.35 C11,6.05 10.2,5.9 9.35,5.9 L6.75,5.9 L6.75,5.5 C6.75,5.2 6.55,5 6.25,5 C5.95,5 5.75,5.2 5.75,5.5 L5.75,16 L5,16 C4.7,16 4.5,16.2 4.5,16.5 C4.5,16.8 4.70000001,17 5,17 L7.5,17 C7.8,17 8,16.8 8,16.5 C8,16.2 7.79999999,16 7.5,16 L6.75,16 L6.75,12.8 L9.35,12.8 C10.05,12.8 10.75,12.95 11.4,13.2 C12.15,13.5 12.95,13.65 13.8,13.65 L14.5,13.65 C15.05,13.65 15.5,13.2 15.5,12.65 L15.5,7.75 C15.5,7.20000001 15.05,6.75000001 14.5,6.75 Z M14.5,12.65 L13.8,12.65 C13.1,12.65 12.4,12.5 11.75,12.25 C11,11.95 10.2,11.8 9.35,11.8 L6.75,11.8 L6.75,6.9 L9.35,6.9 C10.05,6.9 10.75,7.05 11.4,7.3 C12.15,7.6 12.95,7.75 13.8,7.75 L14.5,7.75 L14.5,12.65 Z" id="形状" stroke="#ad33ad" stroke-width="0.4" fill="#ad33ad" fill-rule="nonzero"></path>
            </g>
        </g>
    </g>
</svg>