<?xml version="1.0" encoding="UTF-8"?>
<svg width="24px" height="24px" viewBox="0 0 24 24" version="1.1" xmlns="http://www.w3.org/2000/svg" xmlns:xlink="http://www.w3.org/1999/xlink">
    <!-- Generator: Sketch 63.1 (92452) - https://sketch.com -->
    <title>编组</title>
    <desc>Created with Sketch.</desc>
    <g id="TE" stroke="none" stroke-width="1" fill="none" fill-rule="evenodd">
        <g id="画板备份-16" transform="translate(-16.000000, -85.000000)" fill="#387D75" fill-rule="nonzero">
            <g id="编组" transform="translate(16.000000, 85.000000)">
                <path d="M12.1979828,18.1484906 L7.56035371,13.3090097 C7.0798821,12.807598 7.0798821,11.9922681 7.56035371,11.4908563 L12.1979828,6.65110766 C12.5188105,6.31629745 13.0385515,6.31629745 13.3593792,6.65110766 C13.6802069,6.98591788 13.6802069,7.52831044 13.3593792,7.86312065 L9.01203505,12.399933 L13.3593792,16.9367454 C13.6802069,17.2715556 13.6802069,17.8139482 13.3593792,18.1487584 C13.1989653,18.3161635 12.988759,18.4 12.7788093,18.4 C12.5688597,18.4 12.35814,18.3161635 12.1979828,18.1484906 Z M8.75988208,12.7644769 L8.80948208,12.7644769 L8.75988208,12.7644769 Z" id="形状"></path>
                <path d="M12,1.71428571 C17.6716071,1.71428571 22.2857143,6.32839286 22.2857143,12 C22.2857143,17.6716071 17.6716071,22.2857143 12,22.2857143 C6.32839286,22.2857143 1.71428571,17.6716071 1.71428571,12 C1.71428571,6.32839286 6.32839286,1.71428571 12,1.71428571 M12,0 C5.37267857,0 0,5.37267857 0,12 C0,18.6273214 5.37267857,24 12,24 C18.6273214,24 24,18.6273214 24,12 C24,5.37267857 18.6273214,0 12,0 Z" id="形状"></path>
            </g>
        </g>
    </g>
</svg>