<?xml version="1.0" encoding="UTF-8"?>
<svg width="18px" height="18px" viewBox="0 0 18 18" version="1.1" xmlns="http://www.w3.org/2000/svg" xmlns:xlink="http://www.w3.org/1999/xlink">
    <title>help</title>
    <g id="页面-1" stroke="none" stroke-width="1" fill="none" fill-rule="evenodd">
        <g id="pc" transform="translate(-508.000000, -221.000000)" fill-rule="nonzero">
            <g id="help" transform="translate(508.000000, 221.000000)">
                <rect id="矩形" fill="#000000" opacity="0" x="0" y="0" width="18" height="18"></rect>
                <path d="M8.8,0.8 C4.381722,0.8 0.8,4.381722 0.8,8.8 C0.8,13.218278 4.381722,16.8 8.8,16.8 C13.218278,16.8 16.8,13.218278 16.8,8.8 C16.8,4.381722 13.218278,0.8 8.8,0.8 L8.8,0.8 Z M8.8,15.0222222 C5.36356156,15.0222222 2.57777778,12.2364384 2.57777778,8.8 C2.57777778,5.36356156 5.36356156,2.57777778 8.8,2.57777778 C12.2364384,2.57777778 15.0222222,5.36356156 15.0222222,8.8 C15.0222222,12.2364384 12.2364384,15.0222222 8.8,15.0222222 L8.8,15.0222222 Z M8.8,4.35555556 C8.08535699,4.3304569 7.39239912,4.6033404 6.88675865,5.10898087 C6.38111818,5.61462134 6.10823467,6.30757922 6.13333333,7.02222222 L7.91111111,7.02222222 C7.91111111,7.02222222 7.99111111,6.13333333 8.8,6.13333333 C9.03574799,6.13333333 9.26184036,6.22698386 9.42853936,6.39368286 C9.59523836,6.56038186 9.68888889,6.78647423 9.68888889,7.02222222 C9.68888889,7.84 7.91111111,8.30222222 7.91111111,9.68888889 L7.91111111,10.5777778 L9.68888889,10.5777778 L9.68888889,9.68888889 C9.68888889,8.85333333 11.4666667,8.57777778 11.4666667,7.02222222 C11.5363373,6.2958483 11.2778538,5.57633067 10.7618727,5.06034953 C10.2458916,4.54436839 9.52637392,4.2858849 8.8,4.35555556 L8.8,4.35555556 Z M9.24444444,11.4666667 L8.35555556,11.4666667 C8.11009567,11.4666667 7.91111111,11.6656512 7.91111111,11.9111111 L7.91111111,12.8 C7.91111111,13.0454599 8.11009567,13.2444444 8.35555556,13.2444444 L9.24444444,13.2444444 C9.48990433,13.2444444 9.68888961,13.0454599 9.68888961,12.8 L9.68888961,11.9111111 C9.68910986,11.7884679 9.63864202,11.6711847 9.54943202,11.5870243 C9.46022202,11.5028639 9.34020017,11.4593079 9.21777778,11.4666667 L9.24444444,11.4666667 Z" id="形状" fill="#ad33ad"></path>
            </g>
        </g>
    </g>
</svg>