<?xml version="1.0" encoding="UTF-8"?>
<svg width="18px" height="18px" viewBox="0 0 18 18" version="1.1" xmlns="http://www.w3.org/2000/svg" xmlns:xlink="http://www.w3.org/1999/xlink">
    <title>HEX</title>
    <g id="页面-1" stroke="none" stroke-width="1" fill="none" fill-rule="evenodd">
        <g id="画板" transform="translate(-157.000000, -98.000000)">
            <g id="HEX" transform="translate(157.000000, 98.000000)">
                <rect id="矩形" fill="#D8D8D8" opacity="0" x="0" y="0" width="18" height="18"></rect>
                <g transform="translate(0.519531, 5.989258)" fill="#ad33ad" fill-rule="nonzero" id="路径">
                    <polygon points="0 0 1.80639648 0 1.80639648 2.44952251 3.78027344 2.44952251 3.78027344 0 5.59464518 0 5.59464518 7 3.78027344 7 3.78027344 4.16848568 1.80639648 4.16848568 1.80639648 7 0 7"></polygon>
                    <polygon points="5.90080078 0 10.7417839 0 10.7417839 1.49454297 7.71118489 1.49454297 7.71118489 2.60709413 10.5224642 2.60709413 10.5224642 4.03478854 7.71118489 4.03478854 7.71118489 5.41473397 10.8295117 5.41473397 10.8295117 7 5.90080078 7"></polygon>
                    <polygon points="10.7203841 0 12.7102116 0 13.7469954 2.15347885 14.7518783 0 16.7217676 0 14.9034082 3.39017735 16.8932357 7 14.8635319 7 13.7111068 4.75102319 12.554694 7 10.5369531 7 12.554694 3.35197817"></polygon>
                </g>
            </g>
        </g>
    </g>
</svg>