<?xml version="1.0" encoding="UTF-8"?>
<svg width="18px" height="18px" viewBox="0 0 18 18" version="1.1" xmlns="http://www.w3.org/2000/svg" xmlns:xlink="http://www.w3.org/1999/xlink">
    <title>Home</title>
    <g id="页面-1" stroke="none" stroke-width="1" fill="none" fill-rule="evenodd">
        <g id="pc" transform="translate(-364.000000, -65.000000)">
            <g id="Home" transform="translate(364.000000, 65.000000)">
                <rect id="矩形" fill="#D8D8D8" opacity="0" x="0" y="0" width="18" height="18"></rect>
                <path d="M9.15358,1.32989833 C9.62418359,1.32929406 10.0949995,1.49406466 10.4726848,1.82432998 L10.4726848,1.82432998 L15.3165367,6.06001673 C15.7508507,6.43980085 16,6.98863922 16,7.56558343 L16,7.56558343 L16,15 C16,15.5522847 15.7761424,16.0522847 15.4142136,16.4142136 C15.0522847,16.7761424 14.5522847,17 14,17 L14,17 L4,17 C3.44771525,17 2.94771525,16.7761424 2.58578644,16.4142136 C2.22385763,16.0522847 2,15.5522847 2,15 L2,15 L2,7.86208845 C2,7.28693616 2.24760989,6.73962283 2.67960125,6.35990765 L2.67960125,6.35990765 L7.8357493,1.82771588 C8.21258515,1.49648173 8.6829764,1.3305026 9.15358,1.32989833 Z" id="路径-8" stroke="#ad33ad" stroke-width="2"></path>
                <rect id="矩形" fill="#ad33ad" x="4" y="12" width="10" height="2" rx="1"></rect>
            </g>
        </g>
    </g>
</svg>