<?xml version="1.0" encoding="UTF-8"?>
<svg width="18px" height="18px" viewBox="0 0 18 18" version="1.1" xmlns="http://www.w3.org/2000/svg" xmlns:xlink="http://www.w3.org/1999/xlink">
    <title>Insert</title>
    <g id="页面-1" stroke="none" stroke-width="1" fill="none" fill-rule="evenodd">
        <g id="pc" transform="translate(-417.000000, -66.000000)">
            <g id="Insert" transform="translate(417.000000, 66.000000)">
                <rect id="矩形" fill="#D8D8D8" opacity="0" x="0" y="0" width="18" height="18"></rect>
                <g id="编组-5" transform="translate(2.000000, 2.137729)">
                    <polyline id="路径-5" stroke="#ad33ad" stroke-width="2" stroke-linecap="round" points="2.72727273 2.05148685 0 7.39680303 2.72727273 12.0514869"></polyline>
                    <polyline id="路径-5" stroke="#ad33ad" stroke-width="2" stroke-linecap="round" transform="translate(13.363636, 7.051487) scale(-1, 1) translate(-13.363636, -7.051487) " points="14.7272727 2.05148685 12 7.39680303 14.7272727 12.0514869"></polyline>
                    <path d="M7.58958179,0.0700842016 L7.72535354,0.0795782867 C8.27446785,0.1179761 8.68930073,0.592934074 8.65347711,1.14222233 L7.81508285,13.9974317 C7.77914016,14.5485457 7.30323674,14.9661745 6.75212281,14.9302318 C6.75056374,14.9301301 6.74900491,14.9300248 6.74744633,14.9299158 L6.61167458,14.9204217 C6.06256027,14.8820239 5.64772739,14.4070659 5.68355101,13.8577777 L6.52194527,1.00256826 C6.55788796,0.451454327 7.03379138,0.0338255151 7.58490531,0.0697682015 C7.58646438,0.0698698815 7.58802322,0.0699752151 7.58958179,0.0700842016 Z" id="矩形" fill="#ad33ad"></path>
                </g>
            </g>
        </g>
    </g>
</svg>