<?xml version="1.0" encoding="UTF-8"?>
<svg width="18px" height="16px" viewBox="0 0 18 16" version="1.1" xmlns="http://www.w3.org/2000/svg" xmlns:xlink="http://www.w3.org/1999/xlink">
    <!-- Generator: Sketch 63.1 (92452) - https://sketch.com -->
    <title>编组 3</title>
    <desc>Created with Sketch.</desc>
    <g id="TE" stroke="none" stroke-width="1" fill="none" fill-rule="evenodd">
        <g id="pc" transform="translate(-1670.000000, -20.000000)">
            <g id="编组-23" transform="translate(1477.000000, 2.000000)">
                <g id="编组-9" transform="translate(152.000000, 17.000000)">
                    <g id="编组-3" transform="translate(42.428571, 2.000000)">
                        <g id="编组" transform="translate(2.000000, 3.000000)" fill="#FFFFFF" fill-rule="nonzero">
                            <path d="M3.23333333,1.271875 C3.23333333,1.51005207 3.36039927,1.73013675 3.56666666,1.84922529 C3.77293405,1.96831383 4.02706595,1.96831383 4.23333333,1.84922529 C4.43960073,1.73013675 4.56666667,1.51005207 4.56666667,1.271875 C4.56666667,1.03369793 4.43960073,0.813613245 4.23333333,0.69452471 C4.02706595,0.575436174 3.77293405,0.575436174 3.56666666,0.69452471 C3.36039927,0.813613245 3.23333333,1.03369793 3.23333333,1.271875 L3.23333333,1.271875 Z" id="路径"></path>
                            <path d="M3.23333333,3.93854167 C3.23333333,4.17671874 3.36039927,4.39680343 3.56666666,4.51589196 C3.77293405,4.6349805 4.02706595,4.6349805 4.23333333,4.51589196 C4.43960073,4.39680343 4.56666667,4.17671874 4.56666667,3.93854167 C4.56666667,3.70036461 4.43960073,3.48027992 4.23333333,3.36119138 C4.02706595,3.24210285 3.77293405,3.24210285 3.56666666,3.36119138 C3.36039927,3.48027992 3.23333333,3.70036461 3.23333333,3.93854167 Z" id="路径"></path>
                            <path d="M5.56666666,3.93854167 C5.5666302,4.17674304 5.69368818,4.39686578 5.89997054,4.515977 C6.1062529,4.63508821 6.36041377,4.63508821 6.56669613,4.515977 C6.77297849,4.39686578 6.90003647,4.17674304 6.90000001,3.93854167 C6.90003647,3.7003403 6.77297849,3.48021756 6.56669613,3.36110635 C6.36041377,3.24199513 6.1062529,3.24199513 5.89997054,3.36110635 C5.69368818,3.48021756 5.5666302,3.7003403 5.56666666,3.93854167 Z" id="路径"></path>
                            <path d="M5.56666666,1.271875 C5.5666302,1.51007637 5.69368818,1.73019911 5.89997054,1.84931032 C6.1062529,1.96842154 6.36041377,1.96842154 6.56669613,1.84931032 C6.77297849,1.73019911 6.90003647,1.51007637 6.90000001,1.271875 C6.90003647,1.03367363 6.77297849,0.813550888 6.56669613,0.694439675 C6.36041377,0.575328463 6.1062529,0.575328463 5.89997054,0.694439675 C5.69368818,0.813550888 5.5666302,1.03367363 5.56666666,1.271875 L5.56666666,1.271875 Z" id="路径"></path>
                            <path d="M7.89999999,3.93854167 C7.89996353,4.17674304 8.02702151,4.39686578 8.23330387,4.515977 C8.43958623,4.63508821 8.6937471,4.63508821 8.90002946,4.515977 C9.10631182,4.39686578 9.2333698,4.17674304 9.23333334,3.93854167 C9.2333698,3.7003403 9.10631182,3.48021756 8.90002946,3.36110635 C8.6937471,3.24199513 8.43958623,3.24199513 8.23330387,3.36110635 C8.02702151,3.48021756 7.89996353,3.7003403 7.89999999,3.93854167 L7.89999999,3.93854167 Z" id="路径"></path>
                            <path d="M7.89999999,1.271875 C7.89996353,1.51007637 8.02702151,1.73019911 8.23330387,1.84931032 C8.43958623,1.96842154 8.6937471,1.96842154 8.90002946,1.84931032 C9.10631182,1.73019911 9.2333698,1.51007637 9.23333334,1.271875 C9.2333698,1.03367363 9.10631182,0.813550888 8.90002946,0.694439675 C8.6937471,0.575328463 8.43958623,0.575328463 8.23330387,0.694439675 C8.02702151,0.813550888 7.89996353,1.03367363 7.89999999,1.271875 L7.89999999,1.271875 Z" id="路径"></path>
                            <path d="M10.2333333,1.271875 C10.2333333,1.64006484 10.5318102,1.93854167 10.9,1.93854167 C11.2681898,1.93854167 11.5666667,1.64006484 11.5666667,1.271875 C11.5666667,0.903685164 11.2681898,0.605208328 10.9,0.605208328 C10.5318102,0.605208328 10.2333333,0.903685164 10.2333333,1.271875 Z" id="路径"></path>
                            <path d="M10.2333333,3.93854167 C10.2333333,4.30673151 10.5318102,4.60520834 10.9,4.60520834 C11.2681898,4.60520834 11.5666667,4.30673151 11.5666667,3.93854167 C11.5666667,3.57035184 11.2681898,3.271875 10.9,3.271875 C10.5318102,3.271875 10.2333333,3.57035184 10.2333333,3.93854167 Z" id="路径"></path>
                            <path d="M11.2333333,6.00520833 L1.23333333,6.00520833 C1.03333333,6.00520833 0.9,6.13854166 0.9,6.33854167 C0.9,6.53854169 1.03333333,6.671875 1.23333333,6.671875 L11.2333333,6.671875 C11.4333333,6.671875 11.5666667,6.53854167 11.5666667,6.33854167 C11.5666667,6.13854167 11.4,6.00520833 11.2333333,6.00520833 Z" id="路径"></path>
                            <path d="M0.899999992,1.271875 C0.899963533,1.51007637 1.02702151,1.73019911 1.23330387,1.84931032 C1.43958623,1.96842154 1.6937471,1.96842154 1.90002946,1.84931032 C2.10631182,1.73019911 2.2333698,1.51007637 2.23333334,1.271875 C2.2333698,1.03367363 2.10631182,0.813550888 1.90002946,0.694439675 C1.6937471,0.575328463 1.43958623,0.575328463 1.23330387,0.694439675 C1.02702151,0.813550888 0.899963533,1.03367363 0.899999992,1.271875 L0.899999992,1.271875 Z" id="路径"></path>
                            <path d="M0.899999992,3.93854167 C0.899963533,4.17674304 1.02702151,4.39686578 1.23330387,4.515977 C1.43958623,4.63508821 1.6937471,4.63508821 1.90002946,4.515977 C2.10631182,4.39686578 2.2333698,4.17674304 2.23333334,3.93854167 C2.2333698,3.7003403 2.10631182,3.48021756 1.90002946,3.36110635 C1.6937471,3.24199513 1.43958623,3.24199513 1.23330387,3.36110635 C1.02702151,3.48021756 0.899963533,3.7003403 0.899999992,3.93854167 L0.899999992,3.93854167 Z" id="路径"></path>
                        </g>
                        <rect id="矩形" stroke="#FFFFFF" x="0" y="0" width="16" height="14" rx="1"></rect>
                    </g>
                </g>
            </g>
        </g>
    </g>
</svg>