<?xml version="1.0" encoding="UTF-8"?>
<svg width="18px" height="18px" viewBox="0 0 18 18" version="1.1" xmlns="http://www.w3.org/2000/svg" xmlns:xlink="http://www.w3.org/1999/xlink">
    <title>line feed</title>
    <g id="页面-1" stroke="none" stroke-width="1" fill="none" fill-rule="evenodd">
        <g id="pc" transform="translate(-540.000000, -222.000000)" fill-rule="nonzero">
            <g id="line-feed" transform="translate(540.000000, 222.000000)">
                <rect id="矩形" fill="#000000" opacity="0" x="5.25648193e-06" y="0" width="18" height="18"></rect>
                <path d="M13.0909118,12.9090837 L16.3636373,12.9090837 L16.3636373,7.99999554 C16.3637035,7.54817329 16.7299964,7.1819341 17.1818186,7.1819341 C17.6336409,7.1819341 17.9999338,7.54817329 18,7.99999554 L18,13.7272651 C18,14.1791342 17.6336877,14.5454465 17.1818186,14.5454465 L13.0909118,14.5454465 L13.0909118,12.9090837 L13.0909118,12.9090837 Z M0.820236823,1.45454464 L17.1797732,1.45454464 C17.6326366,1.45454464 18.0000084,1.8985393 18.0000084,2.45453261 C18.0000084,3.00702596 17.6322275,3.45452058 17.1797732,3.45452055 L0.820236823,3.45452055 C0.602821036,3.45545167 0.394060664,3.35047526 0.240131731,3.16281122 C0.0862027987,2.97514718 -0.000208958124,2.72026146 8.35809533e-06,2.45453261 C8.35809533e-06,1.90203926 0.367782535,1.45454464 0.820236823,1.45454464 Z M8.35980154e-06,8.18181419 C8.35980154e-06,7.62931316 0.364100711,7.18181419 0.819009554,7.18181419 L12.2719123,7.18181419 C12.7243666,7.18181419 13.0909118,7.62581319 13.0909118,8.18181419 C13.0909118,8.73431068 12.7268211,9.18181419 12.2719123,9.18181419 L0.819009554,9.18181419 C0.601739528,9.18260846 0.393168037,9.07754045 0.239457475,8.88985999 C0.0857469122,8.70217952 -0.00042638698,8.44736439 8.35980154e-06,8.18181419 L8.35980154e-06,8.18181419 Z M4.97155997e-06,13.9090837 C4.97155997e-06,13.3565836 0.36532798,12.9090837 0.816145921,12.9090837 L6.54750637,12.9090837 C6.99832429,12.9090837 7.36364228,13.3530836 7.36364228,13.9090837 C7.36364228,14.4615833 6.99832431,14.9090837 6.54750637,14.9090837 L0.816145921,14.9090837 C0.599271391,14.9093509 0.391246389,14.8039999 0.238084912,14.6163333 C0.084923436,14.4286667 -0.00075183285,14.1741509 4.97155997e-06,13.9090837 L4.97155997e-06,13.9090837 Z M9.81818636,13.7272651 C9.81818636,13.2674472 10.227277,12.9909019 10.2272771,12.9909019 C10.2272771,12.9909019 12.4187758,11.272721 12.6163666,11.272721 C13.1408209,11.272721 13.0909118,11.6818117 13.0909118,11.6818117 L13.0909118,15.7719003 C13.0909118,16.1548092 12.7963665,16.1818092 12.6065484,16.1818092 C12.4171395,16.1818092 10.2272771,14.4636283 10.2272771,14.4636283 C10.2272771,14.4636283 9.81818636,14.187083 9.81818636,13.7272651 L9.81818636,13.7272651 Z" id="形状" fill="#ad33ad"></path>
            </g>
        </g>
    </g>
</svg>