<?xml version="1.0" encoding="UTF-8"?>
<svg width="20px" height="20px" viewBox="0 0 20 20" version="1.1" xmlns="http://www.w3.org/2000/svg" xmlns:xlink="http://www.w3.org/1999/xlink">
    <!-- Generator: Sketch 63.1 (92452) - https://sketch.com -->
    <title>编组</title>
    <desc>Created with Sketch.</desc>
    <g id="TE" stroke="none" stroke-width="1" fill="none" fill-rule="evenodd">
        <g id="画板备份-18" transform="translate(-490.000000, -482.000000)" fill-rule="nonzero">
            <g id="编组-7备份" transform="translate(470.000000, 260.000000)">
                <g id="编组-28" transform="translate(20.000000, 219.000000)">
                    <g id="编组" transform="translate(0.000000, 3.000000)">
                        <path d="M0,10 C0,15.5228475 4.4771525,20 10,20 C15.5228475,20 20,15.5228475 20,10 C20,4.4771525 15.5228475,0 10,0 C4.4771525,0 0,4.4771525 0,10 Z" id="路径" fill="#377D75"></path>
                        <path d="M9.73591946,9.72553895 C9.73591946,9.72553895 7.61690509,9.81029952 6.93882049,9.72553895 C6.54327114,9.6690319 6.00645416,9.49951075 5.52614424,8.93444025 C5.52614424,8.93444025 4.65028496,7.69128515 5.52614424,6.1655948 C5.52614424,6.1655948 6.54327114,4.55514387 8.12546853,5.12021437 C8.12546853,5.12021437 9.48163773,5.62877782 9.70766593,6.8436794 C9.73591946,6.8436794 9.96194766,8.45413032 9.73591946,9.72553895 Z M10.2444829,9.58427132 C10.2444829,9.58427132 10.1879759,7.46525695 10.30099,6.78717235 C10.357497,6.391623 10.5552717,5.85480602 11.0920887,5.40274962 C11.0920887,5.40274962 12.3352438,4.55514387 13.8609341,5.43100315 C13.8609341,5.43100315 15.4431315,6.47638357 14.878061,8.05858097 C14.878061,8.05858097 14.3694976,9.41475017 13.1263425,9.64077837 C13.1263425,9.64077837 11.5158915,9.83855305 10.2444829,9.58427132 Z M10.357497,10.2058489 C10.357497,10.2058489 12.4765114,10.1210883 13.154596,10.2058489 C13.5501453,10.2623559 14.0869623,10.4318771 14.5390187,10.9969476 C14.5390187,10.9969476 15.414878,12.2401027 14.5390187,13.765793 C14.5390187,13.765793 13.5218918,15.3762439 11.9396944,14.8111734 C11.9396944,14.8111734 10.5835252,14.30261 10.357497,13.0594549 C10.3292435,13.0594549 10.1032153,11.4772575 10.357497,10.2058489 L10.357497,10.2058489 Z M9.82068003,10.318863 C9.82068003,10.318863 9.79242651,12.4378773 9.67941241,13.1159619 C9.62290536,13.5115113 9.39687716,14.0483283 8.83180666,14.4721311 C8.83180666,14.4721311 7.56039804,15.2914834 6.06296121,14.3308635 C6.06296121,14.3308635 4.50901734,13.228976 5.15884841,11.6750322 C5.15884841,11.6750322 5.72391891,10.3471165 6.96707401,10.1775953 C6.96707401,10.1775953 8.57752493,10.0363277 9.82068003,10.318863 L9.82068003,10.318863 Z" id="形状" fill="#FFFFFF"></path>
                        <path d="M10.357497,10.2058489 C10.357497,10.2058489 12.4765114,10.1210883 13.154596,10.2058489 C13.5501453,10.2623559 14.0869623,10.4318771 14.5390187,10.9969476 C14.5390187,10.9969476 15.414878,12.2401027 14.5390187,13.765793 C14.5390187,13.765793 13.5218918,15.3762439 11.9396944,14.8111734 C11.9396944,14.8111734 10.5835252,14.30261 10.357497,13.0594549 C10.3292435,13.0594549 10.1032153,11.4772575 10.357497,10.2058489 L10.357497,10.2058489 Z M9.82068003,10.318863 C9.82068003,10.318863 9.79242651,12.4378773 9.67941241,13.1159619 C9.62290536,13.5115113 9.39687716,14.0483283 8.83180666,14.4721311 C8.83180666,14.4721311 7.56039804,15.2914834 6.06296121,14.3308635 C6.06296121,14.3308635 4.50901734,13.228976 5.15884841,11.6750322 C5.15884841,11.6750322 5.72391891,10.3471165 6.96707401,10.1775953 C6.96707401,10.1775953 8.57752493,10.0363277 9.82068003,10.318863 L9.82068003,10.318863 Z" id="形状" fill="#C3D8D5"></path>
                    </g>
                </g>
            </g>
        </g>
    </g>
</svg>