<?xml version="1.0" encoding="UTF-8"?>
<svg width="18px" height="18px" viewBox="0 0 18 18" version="1.1" xmlns="http://www.w3.org/2000/svg" xmlns:xlink="http://www.w3.org/1999/xlink">
    <title>New line</title>
    <g id="页面-1" stroke="none" stroke-width="1" fill="none" fill-rule="evenodd">
        <g id="pc" transform="translate(-467.000000, -68.000000)">
            <g id="New-line" transform="translate(467.000000, 68.000000)">
                <rect id="矩形" fill="#D8D8D8" opacity="0" x="0" y="0" width="18" height="18"></rect>
                <polyline id="路径-5" stroke="#ad33ad" stroke-width="2" fill="#ad33ad" stroke-linecap="round" points="4 5 2 8.26568758 4 11"></polyline>
                <path d="M3.5,7 L15.5,7 C15.7761424,7 16,7.22385763 16,7.5 L16,8.5 C16,8.77614237 15.7761424,9 15.5,9 L3.5,9 C3.22385763,9 3,8.77614237 3,8.5 L3,7.5 C3,7.22385763 3.22385763,7 3.5,7 Z" id="矩形" fill="#ad33ad"></path>
                <path d="M1.5,0 L16.5,0 C16.7761424,-5.07265313e-17 17,0.223857625 17,0.5 L17,1.5 C17,1.77614237 16.7761424,2 16.5,2 L1.5,2 C1.22385763,2 1,1.77614237 1,1.5 L1,0.5 C1,0.223857625 1.22385763,5.07265313e-17 1.5,0 Z" id="矩形" fill="#ad33ad"></path>
                <path d="M1.5,14 L16.5,14 C16.7761424,14 17,14.2238576 17,14.5 L17,15.5 C17,15.7761424 16.7761424,16 16.5,16 L1.5,16 C1.22385763,16 1,15.7761424 1,15.5 L1,14.5 C1,14.2238576 1.22385763,14 1.5,14 Z" id="矩形" fill="#ad33ad"></path>
            </g>
        </g>
    </g>
</svg>