<?xml version="1.0" encoding="UTF-8"?>
<svg width="20px" height="20px" viewBox="0 0 20 20" version="1.1" xmlns="http://www.w3.org/2000/svg" xmlns:xlink="http://www.w3.org/1999/xlink">
    <!-- Generator: Sketch 63.1 (92452) - https://sketch.com -->
    <title>编组 10</title>
    <desc>Created with Sketch.</desc>
    <g id="TE" stroke="none" stroke-width="1" fill="none" fill-rule="evenodd">
        <g id="画板备份-18" transform="translate(-490.000000, -684.000000)" fill="#377D75">
            <g id="编组-10" transform="translate(490.000000, 684.000000)">
                <path d="M10,0 C15.5228475,0 20,4.4771525 20,10 C20,15.5228475 15.5228475,20 10,20 C4.4771525,20 0,15.5228475 0,10 C0,4.4771525 4.4771525,0 10,0 Z M10.2830189,4.0626186 C10.0943396,3.97912713 9.90566038,3.97912713 9.71698113,4.0626186 C9.62264151,4.14611006 9.43396226,4.22960152 9.24528302,4.39658444 C8.58490566,4.81404175 8.01886792,5.31499051 7.54716981,5.89943074 C6.41509434,6.98481973 5,8.5711575 5,10.2409867 C5,12.7457306 7.26415094,15 10,15 C12.7358491,15 15,12.7457306 15,10.2409867 C15,8.5711575 13.6792453,6.90132827 12.4528302,5.81593928 C11.9811321,5.31499051 11.4150943,4.89753321 10.754717,4.39658444 C10.5660377,4.22960152 10.3773585,4.14611006 10.2830189,4.0626186 Z" id="形状结合"></path>
                <path d="M4,10.2644437 C5.75451561,9.24164341 7.75620715,8.83934549 10.0050746,9.05754997 C12.253942,9.27575445 13.9153797,9.27575445 14.9893876,9.05754997 C15.1499522,13.0397818 13.4885146,15.0205449 10.0050746,14.9998393 C6.52163464,14.9791338 4.51994311,13.4006686 4,10.2644437 Z" id="路径-9" opacity="0.3"></path>
            </g>
        </g>
    </g>
</svg>