<?xml version="1.0" encoding="UTF-8"?>
<svg width="18px" height="18px" viewBox="0 0 18 18" version="1.1" xmlns="http://www.w3.org/2000/svg" xmlns:xlink="http://www.w3.org/1999/xlink">
    <title>PF1</title>
    <g id="页面-1" stroke="none" stroke-width="1" fill="none" fill-rule="evenodd">
        <g id="画板" transform="translate(-15.000000, -8.000000)">
            <g id="PF1" transform="translate(15.000000, 8.000000)">
                <rect id="矩形" fill="#D8D8D8" opacity="0" x="0" y="0" width="18" height="18"></rect>
                <g transform="translate(1.722656, 0.841797)" fill="#ad33ad" fill-rule="nonzero">
                    <path d="M0,0 L3.67675781,0 C4.47753906,0 5.0773112,0.190429688 5.47607422,0.571289062 C5.87483724,0.952148438 6.07421875,1.49414062 6.07421875,2.19726562 C6.07421875,2.91992188 5.85693359,3.48470052 5.42236328,3.89160156 C4.98779297,4.2985026 4.32454427,4.50195312 3.43261719,4.50195312 L2.22167969,4.50195312 L2.22167969,7.15820312 L0,7.15820312 L0,0 Z M2.22167969,3.05175781 L2.76367188,3.05175781 C3.19010417,3.05175781 3.48958333,2.97770182 3.66210938,2.82958984 C3.83463542,2.68147786 3.92089844,2.49186198 3.92089844,2.26074219 C3.92089844,2.03613281 3.84602865,1.84570312 3.69628906,1.68945312 C3.54654948,1.53320312 3.26497396,1.45507812 2.8515625,1.45507812 L2.22167969,1.45507812 L2.22167969,3.05175781 Z" id="形状"></path>
                    <polygon id="路径" points="9.24121094 0 14.7099609 0 14.7099609 1.53808594 11.4628906 1.53808594 11.4628906 2.78808594 14.2363281 2.78808594 14.2363281 4.23339844 11.4628906 4.23339844 11.4628906 7.15820312 9.24121094 7.15820312"></polygon>
                    <path d="M13.08648,8.87792969 L13.08648,16.1582031 L11.0747613,16.1582031 L11.0747613,11.3876953 C10.7492405,11.6350911 10.434299,11.8352865 10.1299371,11.9882812 C9.82557509,12.141276 9.44390191,12.2877604 8.98491753,12.4277344 L8.98491753,10.796875 C9.66200087,10.578776 10.187717,10.3167318 10.562066,10.0107422 C10.9364149,9.7047526 11.2293837,9.32714844 11.4409722,8.87792969 L13.08648,8.87792969 Z" id="路径"></path>
                </g>
            </g>
        </g>
    </g>
</svg>