<?xml version="1.0" encoding="UTF-8"?>
<svg width="18px" height="18px" viewBox="0 0 18 18" version="1.1" xmlns="http://www.w3.org/2000/svg" xmlns:xlink="http://www.w3.org/1999/xlink">
    <title>PF10</title>
    <g id="页面-1" stroke="none" stroke-width="1" fill="none" fill-rule="evenodd">
        <g id="画板" transform="translate(-303.000000, -7.000000)">
            <g id="PF10" transform="translate(303.000000, 7.000000)">
                <rect id="矩形" fill="#D8D8D8" opacity="0" x="0" y="0" width="18" height="18"></rect>
                <g transform="translate(1.722656, 0.841797)" fill="#ad33ad" fill-rule="nonzero">
                    <path d="M0,0 L3.67675781,0 C4.47753906,0 5.0773112,0.190429688 5.47607422,0.571289062 C5.87483724,0.952148438 6.07421875,1.49414062 6.07421875,2.19726562 C6.07421875,2.91992188 5.85693359,3.48470052 5.42236328,3.89160156 C4.98779297,4.2985026 4.32454427,4.50195312 3.43261719,4.50195312 L2.22167969,4.50195312 L2.22167969,7.15820312 L0,7.15820312 L0,0 Z M2.22167969,3.05175781 L2.76367188,3.05175781 C3.19010417,3.05175781 3.48958333,2.97770182 3.66210938,2.82958984 C3.83463542,2.68147786 3.92089844,2.49186198 3.92089844,2.26074219 C3.92089844,2.03613281 3.84602865,1.84570312 3.69628906,1.68945312 C3.54654948,1.53320312 3.26497396,1.45507812 2.8515625,1.45507812 L2.22167969,1.45507812 L2.22167969,3.05175781 Z" id="形状"></path>
                    <polygon id="路径" points="9.24121094 0 14.7099609 0 14.7099609 1.53808594 11.4628906 1.53808594 11.4628906 2.78808594 14.2363281 2.78808594 14.2363281 4.23339844 11.4628906 4.23339844 11.4628906 7.15820312 9.24121094 7.15820312"></polygon>
                    <path d="M5.08648003,8.87792969 L5.08648003,16.1582031 L3.07476128,16.1582031 L3.07476128,11.3876953 C2.74924045,11.6350911 2.43429905,11.8352865 2.12993707,11.9882812 C1.82557509,12.141276 1.44390191,12.2877604 0.984917535,12.4277344 L0.984917535,10.796875 C1.66200087,10.578776 2.18771701,10.3167318 2.56206597,10.0107422 C2.93641493,9.7047526 3.22938368,9.32714844 3.44097222,8.87792969 L5.08648003,8.87792969 Z" id="路径"></path>
                    <path d="M8.6875,12.5498047 C8.6875,11.1891276 8.93245443,10.2369792 9.42236328,9.69335938 C9.91227214,9.14973958 10.6585286,8.87792969 11.6611328,8.87792969 C12.1429036,8.87792969 12.5384115,8.93733724 12.8476562,9.05615234 C13.156901,9.17496745 13.4091797,9.32958984 13.6044922,9.52001953 C13.7998047,9.71044922 13.9536133,9.91064453 14.065918,10.1206055 C14.1782227,10.3305664 14.2685547,10.5755208 14.3369141,10.8554688 C14.4703776,11.3893229 14.5371094,11.9459635 14.5371094,12.5253906 C14.5371094,13.8242188 14.3173828,14.7747396 13.8779297,15.3769531 C13.4384766,15.9791667 12.6816406,16.2802734 11.6074219,16.2802734 C11.0052083,16.2802734 10.5185547,16.1842448 10.1474609,15.9921875 C9.77636719,15.8001302 9.47200521,15.5185547 9.234375,15.1474609 C9.06184896,14.8837891 8.92757161,14.5232747 8.83154297,14.065918 C8.73551432,13.6085612 8.6875,13.1031901 8.6875,12.5498047 Z M10.6601562,12.5546875 C10.6601562,13.4661458 10.7407227,14.0887044 10.9018555,14.4223633 C11.0629883,14.7560221 11.2965495,14.9228516 11.6025391,14.9228516 C11.804362,14.9228516 11.9793294,14.8520508 12.1274414,14.7104492 C12.2755534,14.5688477 12.3846029,14.3450521 12.4545898,14.0390625 C12.5245768,13.7330729 12.5595703,13.2561849 12.5595703,12.6083984 C12.5595703,11.6578776 12.4790039,11.019043 12.3178711,10.6918945 C12.1567383,10.3647461 11.9150391,10.2011719 11.5927734,10.2011719 C11.2639974,10.2011719 11.0263672,10.3680013 10.8798828,10.7016602 C10.7333984,11.035319 10.6601562,11.6529948 10.6601562,12.5546875 Z" id="形状"></path>
                </g>
            </g>
        </g>
    </g>
</svg>