<?xml version="1.0" encoding="UTF-8"?>
<svg width="18px" height="18px" viewBox="0 0 18 18" version="1.1" xmlns="http://www.w3.org/2000/svg" xmlns:xlink="http://www.w3.org/1999/xlink">
    <title>PF18</title>
    <g id="页面-1" stroke="none" stroke-width="1" fill="none" fill-rule="evenodd">
        <g id="画板" transform="translate(-556.000000, -7.000000)">
            <g id="PF18" transform="translate(556.000000, 7.000000)">
                <rect id="矩形" fill="#D8D8D8" opacity="0" x="0" y="0" width="18" height="18"></rect>
                <g id="PF-18" transform="translate(1.722656, 0.841797)" fill="#ad33ad" fill-rule="nonzero">
                    <path d="M0,0 L3.67675781,0 C4.47753906,0 5.0773112,0.190429688 5.47607422,0.571289062 C5.87483724,0.952148438 6.07421875,1.49414062 6.07421875,2.19726562 C6.07421875,2.91992188 5.85693359,3.48470052 5.42236328,3.89160156 C4.98779297,4.2985026 4.32454427,4.50195312 3.43261719,4.50195312 L2.22167969,4.50195312 L2.22167969,7.15820312 L0,7.15820312 L0,0 Z M2.22167969,3.05175781 L2.76367188,3.05175781 C3.19010417,3.05175781 3.48958333,2.97770182 3.66210938,2.82958984 C3.83463542,2.68147786 3.92089844,2.49186198 3.92089844,2.26074219 C3.92089844,2.03613281 3.84602865,1.84570312 3.69628906,1.68945312 C3.54654948,1.53320312 3.26497396,1.45507812 2.8515625,1.45507812 L2.22167969,1.45507812 L2.22167969,3.05175781 Z" id="形状"></path>
                    <polygon id="路径" points="9.24121094 0 14.7099609 0 14.7099609 1.53808594 11.4628906 1.53808594 11.4628906 2.78808594 14.2363281 2.78808594 14.2363281 4.23339844 11.4628906 4.23339844 11.4628906 7.15820312 9.24121094 7.15820312"></polygon>
                    <path d="M9.88378906,12.3105469 C9.57128906,12.1445312 9.34342448,11.9589844 9.20019531,11.7539062 C9.00488281,11.4739583 8.90722656,11.1516927 8.90722656,10.7871094 C8.90722656,10.188151 9.18880208,9.69824219 9.75195312,9.31738281 C10.1914062,9.02441406 10.7724609,8.87792969 11.4951172,8.87792969 C12.4521484,8.87792969 13.1593424,9.06022135 13.6166992,9.42480469 C14.074056,9.78938802 14.3027344,10.2483724 14.3027344,10.8017578 C14.3027344,11.1240234 14.2115885,11.4251302 14.0292969,11.7050781 C13.8925781,11.9134115 13.6777344,12.1152344 13.3847656,12.3105469 C13.7721354,12.4960938 14.0610352,12.741862 14.2514648,13.0478516 C14.4418945,13.3538411 14.5371094,13.6923828 14.5371094,14.0634766 C14.5371094,14.4215495 14.4549154,14.7560221 14.2905273,15.0668945 C14.1261393,15.3777669 13.9243164,15.6178385 13.6850586,15.7871094 C13.4458008,15.9563802 13.1479492,16.0808919 12.7915039,16.1606445 C12.4350586,16.2403971 12.055013,16.2802734 11.6513672,16.2802734 C10.8929036,16.2802734 10.3134766,16.1907552 9.91308594,16.0117188 C9.51269531,15.8326823 9.20833333,15.5690104 9,15.2207031 C8.79166667,14.8723958 8.6875,14.4833984 8.6875,14.0537109 C8.6875,13.6337891 8.78515625,13.2781576 8.98046875,12.9868164 C9.17578125,12.6954753 9.47688802,12.4700521 9.88378906,12.3105469 Z M10.7773438,10.9042969 C10.7773438,11.1516927 10.8546549,11.3510742 11.0092773,11.5024414 C11.1638997,11.6538086 11.3697917,11.7294922 11.6269531,11.7294922 C11.8548177,11.7294922 12.0419922,11.6546224 12.1884766,11.5048828 C12.3349609,11.3551432 12.4082031,11.1614583 12.4082031,10.9238281 C12.4082031,10.6764323 12.3317057,10.4754232 12.1787109,10.3208008 C12.0257161,10.1661784 11.8304036,10.0888672 11.5927734,10.0888672 C11.351888,10.0888672 11.1557617,10.1645508 11.0043945,10.315918 C10.8530273,10.4672852 10.7773438,10.6634115 10.7773438,10.9042969 Z M10.6699219,13.9853516 C10.6699219,14.3011068 10.7659505,14.559082 10.9580078,14.7592773 C11.1500651,14.9594727 11.3697917,15.0595703 11.6171875,15.0595703 C11.8548177,15.0595703 12.0680339,14.9578451 12.2568359,14.7543945 C12.445638,14.550944 12.5400391,14.2929688 12.5400391,13.9804688 C12.5400391,13.6647135 12.4448242,13.4059245 12.2543945,13.2041016 C12.0639648,13.0022786 11.8434245,12.9013672 11.5927734,12.9013672 C11.3453776,12.9013672 11.1297201,12.9990234 10.9458008,13.1943359 C10.7618815,13.3896484 10.6699219,13.6533203 10.6699219,13.9853516 Z" id="形状"></path>
                    <path d="M5.08648003,8.87792969 L5.08648003,16.1582031 L3.07476128,16.1582031 L3.07476128,11.3876953 C2.74924045,11.6350911 2.43429905,11.8352865 2.12993707,11.9882812 C1.82557509,12.141276 1.44390191,12.2877604 0.984917535,12.4277344 L0.984917535,10.796875 C1.66200087,10.578776 2.18771701,10.3167318 2.56206597,10.0107422 C2.93641493,9.7047526 3.22938368,9.32714844 3.44097222,8.87792969 L5.08648003,8.87792969 Z" id="路径"></path>
                </g>
            </g>
        </g>
    </g>
</svg>