<?xml version="1.0" encoding="UTF-8"?>
<svg width="18px" height="18px" viewBox="0 0 18 18" version="1.1" xmlns="http://www.w3.org/2000/svg" xmlns:xlink="http://www.w3.org/1999/xlink">
    <title>PF3</title>
    <g id="页面-1" stroke="none" stroke-width="1" fill="none" fill-rule="evenodd">
        <g id="画板" transform="translate(-92.000000, -8.000000)">
            <g id="PF3" transform="translate(92.000000, 8.000000)">
                <rect id="矩形" fill="#D8D8D8" opacity="0" x="0" y="0" width="18" height="18"></rect>
                <g id="PF-3" transform="translate(1.722656, 0.841797)" fill="#ad33ad" fill-rule="nonzero">
                    <path d="M0,0 L3.67675781,0 C4.47753906,0 5.0773112,0.190429688 5.47607422,0.571289062 C5.87483724,0.952148438 6.07421875,1.49414062 6.07421875,2.19726562 C6.07421875,2.91992188 5.85693359,3.48470052 5.42236328,3.89160156 C4.98779297,4.2985026 4.32454427,4.50195312 3.43261719,4.50195312 L2.22167969,4.50195312 L2.22167969,7.15820312 L0,7.15820312 L0,0 Z M2.22167969,3.05175781 L2.76367188,3.05175781 C3.19010417,3.05175781 3.48958333,2.97770182 3.66210938,2.82958984 C3.83463542,2.68147786 3.92089844,2.49186198 3.92089844,2.26074219 C3.92089844,2.03613281 3.84602865,1.84570312 3.69628906,1.68945312 C3.54654948,1.53320312 3.26497396,1.45507812 2.8515625,1.45507812 L2.22167969,1.45507812 L2.22167969,3.05175781 Z" id="形状"></path>
                    <polygon id="路径" points="9.24121094 0 14.7099609 0 14.7099609 1.53808594 11.4628906 1.53808594 11.4628906 2.78808594 14.2363281 2.78808594 14.2363281 4.23339844 11.4628906 4.23339844 11.4628906 7.15820312 9.24121094 7.15820312"></polygon>
                    <path d="M10.6162109,11.0703125 L8.73632812,10.7333984 C8.89257812,10.1344401 9.19287109,9.67545573 9.63720703,9.35644531 C10.081543,9.0374349 10.710612,8.87792969 11.5244141,8.87792969 C12.4586589,8.87792969 13.1341146,9.05208333 13.5507812,9.40039062 C13.9674479,9.74869792 14.1757812,10.1865234 14.1757812,10.7138672 C14.1757812,11.023112 14.0911458,11.3030599 13.921875,11.5537109 C13.7526042,11.804362 13.4970703,12.0240885 13.1552734,12.2128906 C13.4319661,12.28125 13.6435547,12.3610026 13.7900391,12.4521484 C14.0276693,12.5986328 14.2124023,12.7915039 14.3442383,13.0307617 C14.4760742,13.2700195 14.5419922,13.5556641 14.5419922,13.8876953 C14.5419922,14.304362 14.4329427,14.7039388 14.2148438,15.0864258 C13.9967448,15.4689128 13.6826172,15.7635091 13.2724609,15.9702148 C12.8623047,16.1769206 12.3235677,16.2802734 11.65625,16.2802734 C11.0052083,16.2802734 10.4916992,16.203776 10.1157227,16.0507812 C9.73974609,15.8977865 9.4305013,15.6739909 9.18798828,15.3793945 C8.94547526,15.0847982 8.75911458,14.7145182 8.62890625,14.2685547 L10.6162109,14.0048828 C10.6943359,14.4052734 10.8155924,14.6827799 10.9799805,14.8374023 C11.1443685,14.9920247 11.3535156,15.0693359 11.6074219,15.0693359 C11.874349,15.0693359 12.0965169,14.9716797 12.2739258,14.7763672 C12.4513346,14.5810547 12.5400391,14.320638 12.5400391,13.9951172 C12.5400391,13.6630859 12.4545898,13.4059245 12.2836914,13.2236328 C12.112793,13.0413411 11.8808594,12.9501953 11.5878906,12.9501953 C11.4316406,12.9501953 11.2167969,12.9892578 10.9433594,13.0673828 L11.0458984,11.6464844 C11.1565755,11.6627604 11.2428385,11.6708984 11.3046875,11.6708984 C11.5651042,11.6708984 11.7823893,11.5878906 11.956543,11.421875 C12.1306966,11.2558594 12.2177734,11.0589193 12.2177734,10.8310547 C12.2177734,10.6129557 12.1526693,10.4388021 12.0224609,10.3085938 C11.8922526,10.1783854 11.7132161,10.1132812 11.4853516,10.1132812 C11.2509766,10.1132812 11.0605469,10.184082 10.9140625,10.3256836 C10.7675781,10.4672852 10.6682943,10.7154948 10.6162109,11.0703125 Z" id="路径"></path>
                </g>
            </g>
        </g>
    </g>
</svg>