<?xml version="1.0" encoding="UTF-8"?>
<svg width="18px" height="18px" viewBox="0 0 18 18" version="1.1" xmlns="http://www.w3.org/2000/svg" xmlns:xlink="http://www.w3.org/1999/xlink">
    <title>PF4</title>
    <g id="页面-1" stroke="none" stroke-width="1" fill="none" fill-rule="evenodd">
        <g id="画板" transform="translate(-122.000000, -7.000000)">
            <g id="PF-4" transform="translate(122.000000, 7.000000)">
                <rect id="矩形" fill="#D8D8D8" opacity="0" x="0" y="0" width="18" height="18"></rect>
                <path d="M1.72265625,1.84179688 L5.39941406,1.84179688 C6.20019531,1.84179688 6.79996745,2.03222656 7.19873047,2.41308594 C7.59749349,2.79394531 7.796875,3.3359375 7.796875,4.0390625 C7.796875,4.76171875 7.57958984,5.3264974 7.14501953,5.73339844 C6.71044922,6.14029948 6.04720052,6.34375 5.15527344,6.34375 L3.94433594,6.34375 L3.94433594,9 L1.72265625,9 L1.72265625,1.84179688 Z M3.94433594,4.89355469 L4.48632812,4.89355469 C4.91276042,4.89355469 5.21223958,4.8194987 5.38476562,4.67138672 C5.55729167,4.52327474 5.64355469,4.33365885 5.64355469,4.10253906 C5.64355469,3.87792969 5.5686849,3.6875 5.41894531,3.53125 C5.26920573,3.375 4.98763021,3.296875 4.57421875,3.296875 L3.94433594,3.296875 L3.94433594,4.89355469 Z" id="形状" fill="#ad33ad" fill-rule="nonzero"></path>
                <polygon id="路径" fill="#ad33ad" fill-rule="nonzero" points="10.9638672 1.84179688 16.4326172 1.84179688 16.4326172 3.37988281 13.1855469 3.37988281 13.1855469 4.62988281 15.9589844 4.62988281 15.9589844 6.07519531 13.1855469 6.07519531 13.1855469 9 10.9638672 9"></polygon>
                <path d="M13.4980469,16.6621094 L9.875,16.6621094 L9.875,15.0263672 L13.4980469,10.7197266 L15.2314453,10.7197266 L15.2314453,15.1191406 L16.1298828,15.1191406 L16.1298828,16.6621094 L15.2314453,16.6621094 L15.2314453,18 L13.4980469,18 L13.4980469,16.6621094 Z M13.4980469,15.1191406 L13.4980469,12.8681641 L11.5839844,15.1191406 L13.4980469,15.1191406 Z" id="形状" fill="#ad33ad" fill-rule="nonzero"></path>
            </g>
        </g>
    </g>
</svg>