<?xml version="1.0" encoding="UTF-8"?>
<svg width="18px" height="18px" viewBox="0 0 18 18" version="1.1" xmlns="http://www.w3.org/2000/svg" xmlns:xlink="http://www.w3.org/1999/xlink">
    <title>PF9</title>
    <g id="页面-1" stroke="none" stroke-width="1" fill="none" fill-rule="evenodd">
        <g id="画板" transform="translate(-274.000000, -7.000000)">
            <g id="PF9" transform="translate(274.000000, 7.000000)">
                <rect id="矩形" fill="#D8D8D8" opacity="0" x="0" y="0" width="18" height="18"></rect>
                <g id="PF-9" transform="translate(1.722656, 0.841797)" fill="#ad33ad" fill-rule="nonzero">
                    <path d="M0,0 L3.67675781,0 C4.47753906,0 5.0773112,0.190429688 5.47607422,0.571289062 C5.87483724,0.952148438 6.07421875,1.49414062 6.07421875,2.19726562 C6.07421875,2.91992188 5.85693359,3.48470052 5.42236328,3.89160156 C4.98779297,4.2985026 4.32454427,4.50195312 3.43261719,4.50195312 L2.22167969,4.50195312 L2.22167969,7.15820312 L0,7.15820312 L0,0 Z M2.22167969,3.05175781 L2.76367188,3.05175781 C3.19010417,3.05175781 3.48958333,2.97770182 3.66210938,2.82958984 C3.83463542,2.68147786 3.92089844,2.49186198 3.92089844,2.26074219 C3.92089844,2.03613281 3.84602865,1.84570312 3.69628906,1.68945312 C3.54654948,1.53320312 3.26497396,1.45507812 2.8515625,1.45507812 L2.22167969,1.45507812 L2.22167969,3.05175781 Z" id="形状"></path>
                    <polygon id="路径" points="9.24121094 0 14.7099609 0 14.7099609 1.53808594 11.4628906 1.53808594 11.4628906 2.78808594 14.2363281 2.78808594 14.2363281 4.23339844 11.4628906 4.23339844 11.4628906 7.15820312 9.24121094 7.15820312"></polygon>
                    <path d="M8.77539062,14.5517578 L10.7529297,14.3027344 C10.805013,14.5794271 10.8929036,14.7747396 11.0166016,14.8886719 C11.1402995,15.0026042 11.2916667,15.0595703 11.4707031,15.0595703 C11.7897135,15.0595703 12.038737,14.8984375 12.2177734,14.5761719 C12.3479818,14.3385417 12.445638,13.835612 12.5107422,13.0673828 C12.273112,13.3115234 12.0289714,13.4905599 11.7783203,13.6044922 C11.5276693,13.7184245 11.2379557,13.7753906 10.9091797,13.7753906 C10.2679036,13.7753906 9.72672526,13.547526 9.28564453,13.0917969 C8.8445638,12.6360677 8.62402344,12.0598958 8.62402344,11.3632812 C8.62402344,10.8880208 8.73632812,10.4550781 8.9609375,10.0644531 C9.18554688,9.67382812 9.49479167,9.37841797 9.88867188,9.17822266 C10.2825521,8.97802734 10.7773438,8.87792969 11.3730469,8.87792969 C12.0891927,8.87792969 12.663737,9.0008138 13.0966797,9.24658203 C13.5296224,9.49235026 13.8754883,9.88297526 14.1342773,10.418457 C14.3930664,10.9539388 14.5224609,11.6611328 14.5224609,12.5400391 C14.5224609,13.8323568 14.250651,14.7788086 13.7070312,15.3793945 C13.1634115,15.9799805 12.4098307,16.2802734 11.4462891,16.2802734 C10.8766276,16.2802734 10.4274089,16.2143555 10.0986328,16.0825195 C9.76985677,15.9506836 9.49641927,15.7578125 9.27832031,15.5039062 C9.06022135,15.25 8.89257812,14.9326172 8.77539062,14.5517578 Z M12.4375,11.3583984 C12.4375,10.9710286 12.3398438,10.6674805 12.1445312,10.4477539 C11.9492188,10.2280273 11.7115885,10.1181641 11.4316406,10.1181641 C11.1679688,10.1181641 10.949056,10.2174479 10.7749023,10.4160156 C10.6007487,10.6145833 10.5136719,10.9124349 10.5136719,11.3095703 C10.5136719,11.7099609 10.6040039,12.0159505 10.784668,12.2275391 C10.965332,12.4391276 11.1907552,12.5449219 11.4609375,12.5449219 C11.7408854,12.5449219 11.9736328,12.4423828 12.1591797,12.2373047 C12.3447266,12.0322266 12.4375,11.7392578 12.4375,11.3583984 Z" id="形状"></path>
                </g>
            </g>
        </g>
    </g>
</svg>