<?xml version="1.0" encoding="UTF-8"?>
<svg width="18px" height="18px" viewBox="0 0 18 18" version="1.1" xmlns="http://www.w3.org/2000/svg" xmlns:xlink="http://www.w3.org/1999/xlink">
    <title>print screen</title>
    <g id="页面-1" stroke="none" stroke-width="1" fill="none" fill-rule="evenodd">
        <g id="pc" transform="translate(-787.000000, -219.000000)">
            <g id="print-screen" transform="translate(787.000000, 219.000000)">
                <rect id="矩形" fill="#D8D8D8" opacity="0" x="0" y="0" width="18" height="18"></rect>
                <path d="M8,15 L6,15 L1,15 L1,1 L15,1 L15,7 L15,8" id="路径" stroke="#ad33ad" stroke-width="2" stroke-linejoin="bevel" stroke-dasharray="1"></path>
                <path d="M16.75,10 L15.5,10 L15.0225,8.945 C14.9020583,8.67442767 14.6336682,8.5 14.3375,8.5 L11.6625,8.5 C11.3663318,8.5 11.0979417,8.67442767 10.9775,8.945 L10.5,10 L9.25,10 C8.55964406,10 8,10.5596441 8,11.25 L8,16.25 C8,16.9403559 8.55964406,17.5 9.25,17.5 L16.75,17.5 C17.4403559,17.5 18,16.9403559 18,16.25 L18,11.25 C18,10.5596441 17.4403559,10 16.75,10 Z M16.4285714,15.7857143 C16.4285714,15.8425464 16.405995,15.8970508 16.3658086,15.9372372 C16.3256222,15.9774235 16.2711178,16 16.2142857,16 L9.78571429,16 C9.72888218,16 9.67437777,15.9774235 9.63419141,15.9372372 C9.59400504,15.8970508 9.57142858,15.8425464 9.57142858,15.7857143 L9.57142858,11.5 C9.57142858,11.4431679 9.59400504,11.3886635 9.63419141,11.3484771 C9.67437777,11.3082908 9.72888218,11.2857143 9.78571429,11.2857143 L11.4207143,11.2857143 L11.9928571,10 L14.0071429,10 L14.5792857,11.2857143 L16.2142857,11.2857143 C16.2711178,11.2857143 16.3256222,11.3082908 16.3658086,11.3484771 C16.405995,11.3886635 16.4285714,11.4431679 16.4285714,11.5 L16.4285714,15.7857143 Z" id="形状" fill="#ad33ad" fill-rule="nonzero"></path>
                <path d="M13,11.5 C11.8954305,11.5 11,12.3954305 11,13.5 C11,14.6045695 11.8954305,15.5 13,15.5 C14.1045695,15.5 15,14.6045695 15,13.5 C15,12.3954305 14.1045695,11.5 13,11.5 L13,11.5 Z M13,14.5 C12.4477153,14.5 12,14.0522848 12,13.5 C12,12.9477153 12.4477153,12.5 13,12.5 C13.5522847,12.5 14,12.9477153 14,13.5 C14,14.0522848 13.5522847,14.5 13,14.5 L13,14.5 Z" id="形状" fill="#ad33ad" fill-rule="nonzero"></path>
                <rect id="矩形" fill="#ad33ad" x="15" y="1" width="1" height="1"></rect>
                <rect id="矩形" fill="#ad33ad" x="1" y="0" width="1" height="1"></rect>
                <rect id="矩形" fill="#ad33ad" x="0" y="14" width="1" height="1"></rect>
            </g>
        </g>
    </g>
</svg>