<?xml version="1.0" encoding="UTF-8"?>
<svg width="17px" height="16px" viewBox="0 0 17 16" version="1.1" xmlns="http://www.w3.org/2000/svg" xmlns:xlink="http://www.w3.org/1999/xlink">
    <!-- Generator: Sketch 63.1 (92452) - https://sketch.com -->
    <title>编组</title>
    <desc>Created with Sketch.</desc>
    <g id="TE" stroke="none" stroke-width="1" fill="none" fill-rule="evenodd">
        <g id="pc" transform="translate(-1629.000000, -19.000000)" fill="#FFFFFF" fill-rule="nonzero">
            <g id="编组-23" transform="translate(1477.000000, 2.000000)">
                <g id="编组-9" transform="translate(152.000000, 17.000000)">
                    <g id="编组" transform="translate(0.714286, 0.000000)">
                        <path d="M12.2170732,15.0609756 L1.83658537,15.0609756 C1.53658537,15.0609756 1.23658537,15.0487805 0.936585366,15.0609756 C0.931707317,15.0609756 0.902439024,15.0585366 0.9,15.0609756 C0.9,15.0585366 0.990243902,15.0756098 0.919512195,15.0609756 C0.907317073,15.0585366 0.858536585,15.0390244 0.912195122,15.0609756 C0.970731707,15.0853659 0.904878049,15.0585366 0.895121951,15.0463415 C0.851219512,15.004878 0.970731707,15.1195122 0.897560976,15.0463415 C0.841463415,14.9902439 0.931707317,15.104878 0.890243902,15.0365854 C0.843902439,14.9585366 0.895121951,15.0560976 0.895121951,15.0560976 C0.890243902,15.0536585 0.882926829,15.0146341 0.882926829,15.0097561 C0.882926829,14.9634146 0.880487805,15.0926829 0.885365854,15.0097561 C0.887804878,14.9707317 0.885365854,14.9317073 0.885365854,14.8926829 L0.885365854,14.2292683 L0.885365854,11.8 L0.885365854,9.16585366 C0.885365854,8.7097561 0.897560976,8.25121951 0.885365854,7.79512195 L0.885365854,7.78536585 C0.885365854,7.77804878 0.887804878,7.7804878 0.885365854,7.76829268 C0.87804878,7.70487805 0.882926829,7.84878049 0.882926829,7.78780488 C0.882926829,7.77560976 0.909756098,7.70731707 0.885365854,7.76585366 C0.86097561,7.82439024 0.887804878,7.75853659 0.9,7.74878049 C0.931707317,7.71707317 0.87804878,7.76829268 0.87804878,7.77560976 C0.87804878,7.76829268 0.924390244,7.73170732 0.92195122,7.73170732 C0.919512195,7.73170732 0.856097561,7.78292683 0.895121951,7.75365854 C0.9,7.75121951 0.931707317,7.72926829 0.936585366,7.72926829 C0.92195122,7.73658537 0.904878049,7.74146341 0.890243902,7.74878049 C0.9,7.74634146 0.909756098,7.74146341 0.92195122,7.73902439 C0.926829268,7.73902439 0.992682927,7.72439024 0.926829268,7.73414634 C0.880487805,7.74146341 0.904878049,7.73658537 0.934146341,7.73658537 L12.2097561,7.73658537 C12.2804878,7.73414634 12.202439,7.72439024 12.1926829,7.73170732 C12.197561,7.72682927 12.2560976,7.75121951 12.2536585,7.74878049 C12.2487805,7.74146341 12.1780488,7.72439024 12.2219512,7.73658537 C12.2365854,7.74146341 12.2926829,7.78292683 12.2414634,7.74634146 C12.1926829,7.7097561 12.2487805,7.75365854 12.2560976,7.76341463 C12.2853659,7.81219512 12.204878,7.70731707 12.2439024,7.74878049 C12.2463415,7.75121951 12.2682927,7.78536585 12.2682927,7.7902439 C12.2682927,7.7902439 12.2341463,7.68780488 12.2585366,7.77317073 C12.2609756,7.78536585 12.2707317,7.83902439 12.2634146,7.77804878 C12.2560976,7.72195122 12.2609756,7.77317073 12.2609756,7.7902439 C12.2585366,7.9195122 12.2609756,8.05121951 12.2609756,8.1804878 L12.2609756,15.0146341 C12.2609756,15.0195122 12.2585366,15.0243902 12.2609756,15.0317073 C12.2682927,15.0878049 12.2634146,14.9902439 12.2682927,14.997561 C12.2731707,15.002439 12.2487805,15.0609756 12.2512195,15.0585366 C12.2536585,15.0585366 12.2829268,14.9804878 12.2634146,15.0268293 C12.2609756,15.0317073 12.2439024,15.0658537 12.2390244,15.0682927 C12.3365854,15.0463415 12.2463415,15.0097561 12.2487805,15.0512195 C12.2487805,15.0560976 12.1926829,15.097561 12.2463415,15.0585366 C12.295122,15.0195122 12.2414634,15.0634146 12.2268293,15.0682927 C12.1829268,15.0804878 12.2560976,15.0634146 12.2585366,15.0560976 C12.2560976,15.0634146 12.195122,15.0707317 12.197561,15.0731707 C12.2,15.0682927 12.3097561,15.0585366 12.2170732,15.0609756 C11.9878049,15.0682927 11.7682927,15.2585366 11.7780488,15.5 C11.7878049,15.7317073 11.9707317,15.9463415 12.2170732,15.9390244 C12.7243902,15.9219512 13.1195122,15.5390244 13.1439024,15.0292683 C13.1463415,14.995122 13.1439024,14.9609756 13.1439024,14.9268293 L13.1439024,14.2902439 L13.1439024,11.8463415 L13.1439024,9.15365854 C13.1439024,8.69756098 13.1560976,8.24146341 13.1439024,7.78780488 C13.1317073,7.25365854 12.7121951,6.85853659 12.1829268,6.85609756 L0.990243902,6.85609756 C0.456097561,6.85609756 0.0219512195,7.23658537 0.00731707317,7.78292683 C0.00487804878,7.89756098 0.00731707317,8.01463415 0.00731707317,8.12926829 L0.00731707317,15.0097561 C0.0195121951,15.4146341 0.26097561,15.7560976 0.641463415,15.8926829 C0.795121951,15.9463415 0.953658537,15.9414634 1.11463415,15.9414634 L12.2121951,15.9414634 C12.4414634,15.9414634 12.6609756,15.7390244 12.6512195,15.502439 C12.6463415,15.2634146 12.4634146,15.0609756 12.2170732,15.0609756 L12.2170732,15.0609756 Z" id="路径"></path>
                        <path d="M5.19268293,4.70487805 C5.19268293,4.77317073 5.1902439,4.84146341 5.18536585,4.9097561 C5.18292683,4.94146341 5.18536585,4.9804878 5.17560976,5.0097561 C5.2097561,4.90243902 5.17804878,4.99756098 5.17317073,5.02439024 C5.15121951,5.15365854 5.1195122,5.28292683 5.07804878,5.40731707 C5.06097561,5.45609756 5.04878049,5.51707317 5.02195122,5.55853659 C5.0804878,5.46341463 5.02439024,5.54878049 5.01463415,5.57317073 C5,5.60243902 4.98780488,5.63170732 4.97317073,5.66097561 C4.91463415,5.77560976 4.84878049,5.88536585 4.77317073,5.98780488 C4.76097561,6.00487805 4.69268293,6.0902439 4.76585366,6 C4.75365854,6.01707317 4.73902439,6.03414634 4.72682927,6.04878049 C4.68536585,6.09756098 4.64390244,6.14634146 4.6,6.1902439 C4.55853659,6.23170732 4.51707317,6.27317073 4.47317073,6.31219512 C4.45365854,6.32926829 4.43414634,6.34878049 4.41463415,6.36585366 C4.39756098,6.3804878 4.28292683,6.46585366 4.37804878,6.39756098 C4.28292683,6.46585366 4.18536585,6.53170732 4.08292683,6.5902439 C4.02682927,6.62195122 3.97073171,6.65121951 3.91219512,6.67804878 C3.90731707,6.6804878 3.8097561,6.72195122 3.87560976,6.69512195 C3.93902439,6.67073171 3.8195122,6.71707317 3.80731707,6.7195122 C3.69512195,6.76097561 3.57804878,6.79268293 3.46097561,6.81707317 C3.42926829,6.82439024 3.39512195,6.82926829 3.36341463,6.83658537 C3.33658537,6.84146341 3.24146341,6.87317073 3.34878049,6.83902439 C3.28780488,6.85853659 3.2097561,6.85121951 3.14634146,6.85365854 C3.02439024,6.85853659 2.85609756,6.87560976 2.73902439,6.83902439 C2.75121951,6.84146341 2.83902439,6.85609756 2.75609756,6.84146341 C2.72439024,6.83658537 2.6902439,6.83170732 2.65853659,6.82439024 C2.58292683,6.8097561 2.5097561,6.79268293 2.43414634,6.77073171 C2.38292683,6.75609756 2.32926829,6.73902439 2.2804878,6.7195122 C2.25121951,6.7097561 2.21463415,6.7 2.1902439,6.68536585 C2.28536585,6.74390244 2.2,6.68780488 2.17560976,6.67804878 C2.05853659,6.62439024 1.94634146,6.56097561 1.83902439,6.4902439 C1.79512195,6.46097561 1.75121951,6.42926829 1.7097561,6.39756098 C1.80243902,6.46585366 1.71463415,6.4 1.69756098,6.38780488 C1.67317073,6.36829268 1.64878049,6.34634146 1.62439024,6.32439024 C1.52926829,6.23902439 1.44146341,6.14634146 1.35853659,6.04878049 C1.34390244,6.03170732 1.2804878,5.94634146 1.34878049,6.03658537 C1.32926829,6.0097561 1.3097561,5.98536585 1.29268293,5.95853659 C1.26341463,5.91463415 1.23414634,5.87073171 1.20487805,5.82439024 C1.17073171,5.77073171 1.14146341,5.71463415 1.11219512,5.65609756 L1.07560976,5.58292683 C1.06341463,5.55853659 1.00243902,5.45853659 1.06097561,5.55365854 C1.00243902,5.45853659 0.97804878,5.32195122 0.951219512,5.21219512 C0.934146341,5.14878049 0.92195122,5.08292683 0.909756098,5.01707317 C0.904878049,4.9902439 0.873170732,4.89512195 0.907317073,5.00243902 C0.897560976,4.97317073 0.9,4.93414634 0.897560976,4.90243902 C0.887804878,4.77317073 0.887804878,4.64146341 0.897560976,4.51219512 C0.9,4.48536585 0.902439024,4.45609756 0.904878049,4.42926829 C0.912195122,4.31463415 0.887804878,4.52439024 0.907317073,4.41219512 C0.92195122,4.33658537 0.934146341,4.26097561 0.953658537,4.18536585 C0.980487805,4.07804878 1.00731707,3.94146341 1.06341463,3.84390244 C1.00243902,3.94390244 1.08536585,3.79756098 1.09756098,3.77317073 C1.13170732,3.70487805 1.16585366,3.64146341 1.20487805,3.57560976 C1.23170732,3.52926829 1.26097561,3.48536585 1.29268293,3.44146341 C1.3097561,3.41463415 1.32926829,3.3902439 1.34878049,3.36341463 C1.2804878,3.45609756 1.34634146,3.36829268 1.35853659,3.35121951 C1.43902439,3.25365854 1.52926829,3.16097561 1.62439024,3.07560976 C1.64878049,3.05365854 1.67317073,3.03414634 1.69756098,3.01219512 C1.71463415,2.99756098 1.8,2.93414634 1.7097561,3.00243902 C1.75365854,2.97073171 1.79512195,2.93902439 1.83902439,2.9097561 C1.94634146,2.83902439 2.05853659,2.77560976 2.17560976,2.72195122 C2.19756098,2.71219512 2.28292683,2.65609756 2.1902439,2.71463415 C2.21707317,2.7 2.25365854,2.6902439 2.2804878,2.6804878 C2.33170732,2.66097561 2.38292683,2.64634146 2.43414634,2.62926829 C2.49756098,2.6097561 2.56097561,2.59512195 2.62439024,2.5804878 C2.65609756,2.57317073 2.6902439,2.56829268 2.72195122,2.56097561 C2.75121951,2.55609756 2.84146341,2.52439024 2.73658537,2.55853659 C2.85121951,2.52195122 3.00731707,2.53902439 3.12682927,2.54146341 C3.18780488,2.54390244 3.25121951,2.54878049 3.31219512,2.55365854 C3.42682927,2.56097561 3.21707317,2.53658537 3.32926829,2.55609756 C3.37317073,2.56341463 3.41707317,2.57073171 3.45853659,2.5804878 C3.59756098,2.6097561 3.73170732,2.65365854 3.86585366,2.70243902 C3.88780488,2.7097561 3.94390244,2.72439024 3.85121951,2.69512195 C3.8902439,2.70731707 3.93170732,2.73170732 3.96829268,2.74878049 C4.03658537,2.78292683 4.1,2.81707317 4.16585366,2.85609756 C4.2195122,2.8902439 4.27317073,2.92439024 4.32682927,2.96097561 C4.34390244,2.97317073 4.42926829,3.04146341 4.33902439,2.96829268 C4.37317073,2.99512195 4.40487805,3.02195122 4.43658537,3.04878049 C4.54146341,3.13902439 4.63658537,3.23902439 4.72439024,3.34390244 C4.73902439,3.36097561 4.75121951,3.37804878 4.76341463,3.39268293 C4.68780488,3.3 4.77560976,3.41219512 4.7902439,3.43170732 C4.82926829,3.48780488 4.86585366,3.54634146 4.90243902,3.60731707 C4.93658537,3.66829268 4.97073171,3.72926829 5,3.79268293 C5.01463415,3.82195122 5.03170732,3.85121951 5.03902439,3.8804878 C5.00243902,3.77073171 5.03902439,3.88780488 5.04878049,3.9097561 C5.09756098,4.04390244 5.13658537,4.1804878 5.16341463,4.3195122 C5.16829268,4.34634146 5.17317073,4.37317073 5.17804878,4.40243902 C5.18536585,4.45121951 5.18536585,4.44634146 5.17560976,4.38536585 L5.18292683,4.45121951 C5.18780488,4.54634146 5.19268293,4.62682927 5.19268293,4.70487805 C5.19512195,4.93414634 5.39268293,5.15365854 5.63170732,5.14390244 C5.86829268,5.13414634 6.07317073,4.95121951 6.07075326,4.70487805 C6.06341463,3.42926829 5.25853659,2.30243902 4.06829268,1.85609756 C2.9097561,1.42195122 1.51219512,1.79512195 0.726829268,2.75121951 C0.317073171,3.25121951 0.0731707317,3.83902439 0.0195121951,4.48536585 C-0.0317073171,5.09756098 0.12195122,5.73414634 0.436585366,6.25853659 C1.1,7.36341463 2.4,7.9195122 3.65853659,7.67317073 C4.84634146,7.43902439 5.83414634,6.42682927 6.02195122,5.22926829 C6.04878049,5.05609756 6.06829268,4.88292683 6.06829268,4.7097561 C6.07075326,4.4804878 5.86585366,4.26097561 5.62926829,4.27073171 C5.39268293,4.27804878 5.19268293,4.45853659 5.19268293,4.70487805 L5.19268293,4.70487805 Z M12.9829268,3.87317073 C12.9829268,3.95853659 12.9804878,4.04390244 12.9731707,4.12926829 C12.9707317,4.16829268 12.9658537,4.20731707 12.9634146,4.24634146 L12.9560976,4.31219512 C12.9756098,4.20487805 12.9585366,4.28780488 12.9560976,4.31219512 C12.9292683,4.4804878 12.8878049,4.64634146 12.8365854,4.80731707 C12.8121951,4.88536585 12.7780488,4.95853659 12.7536585,5.03658537 C12.7341463,5.09512195 12.7878049,4.96585366 12.7609756,5.02195122 C12.7512195,5.04146341 12.7439024,5.06097561 12.7341463,5.0804878 C12.7170732,5.1195122 12.697561,5.15853659 12.6780488,5.19756098 C12.602439,5.34634146 12.5170732,5.48780488 12.4219512,5.62195122 C12.397561,5.65609756 12.3731707,5.6902439 12.3463415,5.72439024 C12.4,5.65365854 12.3512195,5.71707317 12.3268293,5.74878049 C12.2731707,5.81463415 12.2170732,5.87804878 12.1560976,5.93902439 C12.1,5.99756098 12.0439024,6.05121951 11.9853659,6.10487805 C11.9536585,6.13414634 11.9219512,6.16097561 11.8902439,6.18780488 C11.8609756,6.21219512 11.7780488,6.27560976 11.8536585,6.2195122 C11.7170732,6.32195122 11.5756098,6.41707317 11.4243902,6.49756098 C11.3585366,6.53414634 11.2926829,6.56829268 11.2243902,6.6 C11.2,6.61219512 11.0829268,6.67804878 11.1804878,6.6195122 C11.1439024,6.64146341 11.1,6.65121951 11.0585366,6.66585366 C10.895122,6.72682927 10.7243902,6.77317073 10.5536585,6.80731707 C10.5146341,6.81463415 10.4780488,6.82195122 10.4390244,6.82682927 C10.4243902,6.82926829 10.3512195,6.84146341 10.4146341,6.83170732 C10.4731707,6.82195122 10.4170732,6.83170732 10.4073171,6.83170732 C10.3170732,6.84146341 10.2268293,6.84878049 10.1390244,6.85365854 C9.95853659,6.86097561 9.77560976,6.85121951 9.59512195,6.83170732 C9.58292683,6.83170732 9.52682927,6.82195122 9.58780488,6.83170732 C9.65121951,6.84146341 9.57804878,6.82926829 9.56341463,6.82682927 C9.52439024,6.8195122 9.48780488,6.81463415 9.44878049,6.80731707 C9.36341463,6.7902439 9.27804878,6.77073171 9.19268293,6.74634146 C9.1097561,6.72195122 9.02682927,6.69512195 8.94390244,6.66585366 C8.90731707,6.65365854 8.87317073,6.63658537 8.83902439,6.62439024 C8.79268293,6.60731707 8.86829268,6.63658537 8.86829268,6.63658537 C8.83902439,6.62682927 8.80731707,6.6097561 8.7804878,6.59756098 C8.63414634,6.52926829 8.49512195,6.45121951 8.35853659,6.36341463 C8.28780488,6.31707317 8.21707317,6.26829268 8.14878049,6.21707317 C8.21707317,6.26829268 8.15853659,6.22439024 8.12439024,6.19756098 C8.08780488,6.16585366 8.05121951,6.13658537 8.01707317,6.10487805 C7.89512195,5.99512195 7.7804878,5.87560976 7.67560976,5.74878049 C7.65121951,5.7195122 7.60243902,5.65609756 7.65609756,5.72439024 C7.63170732,5.6902439 7.60487805,5.65609756 7.5804878,5.62195122 C7.53170732,5.55121951 7.48536585,5.4804878 7.44146341,5.40731707 C7.40243902,5.34390244 7.36585366,5.27804878 7.33170732,5.2097561 C7.31219512,5.17073171 7.29268293,5.13414634 7.27560976,5.09512195 C7.26585366,5.07560976 7.25853659,5.05609756 7.24878049,5.03658537 C7.21463415,4.96097561 7.26585366,5.08780488 7.24878049,5.03658537 C7.19512195,4.87560976 7.13414634,4.7195122 7.09512195,4.55609756 C7.07804878,4.4804878 7.06097561,4.40487805 7.04878049,4.32926829 C7.04634146,4.3097561 7.03902439,4.28292683 7.03902439,4.26341463 C7.03658537,4.35609756 7.04390244,4.3097561 7.04146341,4.2804878 C7.03658537,4.22926829 7.03170732,4.1804878 7.02682927,4.12926829 C7.01463415,3.95365854 7.01463415,3.77804878 7.02926829,3.60243902 C7.03170732,3.56341463 7.03658537,3.52439024 7.04146341,3.48536585 C7.05365854,3.37073171 7.02926829,3.54878049 7.04878049,3.43658537 C7.06341463,3.34878049 7.0804878,3.26341463 7.10243902,3.17804878 C7.13902439,3.02439024 7.17804878,2.83414634 7.25853659,2.69756098 C7.21463415,2.77317073 7.25609756,2.70731707 7.27317073,2.66829268 C7.2902439,2.62926829 7.3097561,2.5902439 7.32926829,2.55121951 C7.36829268,2.47560976 7.4097561,2.4 7.45365854,2.32682927 C7.49512195,2.25853659 7.53902439,2.1902439 7.58536585,2.12682927 C7.60731707,2.09756098 7.62926829,2.06829268 7.65121951,2.03658537 C7.68536585,1.98536585 7.6,2.09512195 7.64146341,2.04878049 C7.65853659,2.02926829 7.67560976,2.00731707 7.69268293,1.98780488 C7.79756098,1.86097561 7.91219512,1.74390244 8.03658537,1.63414634 C8.06341463,1.6097561 8.09268293,1.58536585 8.12195122,1.56097561 C8.13902439,1.54634146 8.25121951,1.46097561 8.15853659,1.52926829 C8.22682927,1.47804878 8.29512195,1.42926829 8.36829268,1.38292683 C8.50731707,1.29268293 8.65365854,1.21219512 8.80487805,1.14390244 C8.84634146,1.12439024 8.90731707,1.08780488 8.83414634,1.12926829 C8.86829268,1.1097561 8.91707317,1.09756098 8.95609756,1.08292683 C9.03658537,1.05365854 9.1195122,1.02682927 9.20487805,1.00243902 C9.28292683,0.980487805 9.36341463,0.96097561 9.44390244,0.943902439 C9.48292683,0.936585366 9.5195122,0.929268293 9.55853659,0.92195122 C9.57560976,0.919512195 9.60487805,0.909756098 9.62439024,0.912195122 C9.57073171,0.909756098 9.56585366,0.919512195 9.62439024,0.912195122 C9.8,0.892682927 9.97560976,0.885365854 10.1512195,0.892682927 C10.2365854,0.895121951 10.3195122,0.902439024 10.404878,0.912195122 C10.4121951,0.912195122 10.4512195,0.92195122 10.4536585,0.917073171 C10.4390244,0.929268293 10.3707317,0.904878049 10.4365854,0.914634146 C10.4853659,0.92195122 10.5341463,0.931707317 10.5829268,0.941463415 C10.7487805,0.975609756 10.9121951,1.02195122 11.0707317,1.0804878 C11.1097561,1.09512195 11.1560976,1.10731707 11.1926829,1.12682927 C11.1195122,1.08292683 11.1804878,1.12195122 11.2219512,1.14146341 C11.3,1.17804878 11.3756098,1.21707317 11.4512195,1.25853659 C11.595122,1.33902439 11.7341463,1.42926829 11.8658537,1.52926829 C11.7878049,1.47073171 11.8731707,1.53658537 11.902439,1.56097561 C11.9317073,1.58536585 11.9585366,1.6097561 11.9878049,1.63414634 C12.0512195,1.6902439 12.1121951,1.74878049 12.1707317,1.8097561 C12.2268293,1.86829268 12.2804878,1.92682927 12.3292683,1.98780488 C12.3487805,2.0097561 12.4268293,2.11219512 12.3609756,2.02439024 C12.3853659,2.05853659 12.4121951,2.09268293 12.4365854,2.12682927 C12.5317073,2.26097561 12.6170732,2.40487805 12.6926829,2.55121951 C12.7097561,2.58536585 12.7268293,2.6195122 12.7414634,2.65365854 C12.7560976,2.68780488 12.8097561,2.7804878 12.7609756,2.69756098 C12.802439,2.76829268 12.8243902,2.86341463 12.8512195,2.94146341 C12.902439,3.10243902 12.9439024,3.26829268 12.9707317,3.43658537 C12.9902439,3.54878049 12.9658537,3.37073171 12.9780488,3.48536585 C12.9829268,3.52439024 12.9853659,3.56341463 12.9902439,3.60243902 C12.9804878,3.69268293 12.9829268,3.78292683 12.9829268,3.87317073 C12.9829268,4.10243902 13.1829268,4.32195122 13.4219512,4.31219512 C13.6585366,4.30243902 13.8609756,4.1195122 13.8609756,3.87317073 C13.8536585,2.24878049 12.8243902,0.802439024 11.304878,0.23902439 C9.8195122,-0.312195122 8.04878049,0.165853659 7.04390244,1.3902439 C6.52195122,2.02439024 6.21219512,2.78292683 6.14878049,3.6 C6.08780488,4.38292683 6.28536585,5.19268293 6.6902439,5.86341463 C7.08292683,6.51219512 7.67317073,7.05609756 8.36585366,7.37073171 C9.12926829,7.71707317 9.96341463,7.81707317 10.7878049,7.65365854 C12.3146341,7.35121951 13.5731707,6.05365854 13.8073171,4.51219512 C13.8390244,4.3 13.8609756,4.08780488 13.8634146,3.87317073 C13.8634146,3.64390244 13.6609756,3.42439024 13.4243902,3.43414634 C13.1829268,3.44390244 12.9853659,3.62682927 12.9829268,3.87317073 L12.9829268,3.87317073 Z M12.9268293,10.904878 C13.7439024,10.3365854 14.5609756,9.76829268 15.3804878,9.2 C15.495122,9.1195122 15.6097561,9.04146341 15.7243902,8.96097561 C15.504878,8.83414634 15.2829268,8.70731707 15.0634146,8.58292683 L15.0634146,14.2195122 C15.2829268,14.0926829 15.504878,13.9658537 15.7243902,13.8414634 C14.9073171,13.2731707 14.0878049,12.704878 13.2707317,12.1365854 C13.1560976,12.0560976 13.0414634,11.9780488 12.9268293,11.897561 C12.7365854,11.7658537 12.4317073,11.8560976 12.3268293,12.0560976 C12.2073171,12.2804878 12.2829268,12.5170732 12.4853659,12.6560976 C13.302439,13.2243902 14.1219512,13.7926829 14.9390244,14.3609756 C15.0536585,14.4414634 15.1682927,14.5195122 15.2829268,14.6 C15.5634146,14.795122 15.9439024,14.5341463 15.9439024,14.2219512 L15.9439024,12.3146341 L15.9439024,9.27804878 L15.9439024,8.58536585 C15.9439024,8.27317073 15.5634146,8.01219512 15.2829268,8.20731707 C14.4658537,8.77560976 13.6487805,9.34390244 12.8292683,9.91219512 C12.7146341,9.99268293 12.6,10.0707317 12.4853659,10.1512195 C12.297561,10.2829268 12.1926829,10.5414634 12.3268293,10.7512195 C12.4463415,10.9341463 12.7243902,11.0439024 12.9268293,10.904878 L12.9268293,10.904878 Z" id="形状"></path>
                    </g>
                </g>
            </g>
        </g>
    </g>
</svg>