<?xml version="1.0" encoding="UTF-8"?>
<svg width="20px" height="18px" viewBox="0 0 20 18" version="1.1" xmlns="http://www.w3.org/2000/svg" xmlns:xlink="http://www.w3.org/1999/xlink">
    <title>Reset</title>
    <g id="页面-1" stroke="none" stroke-width="1" fill="none" fill-rule="evenodd">
        <g id="pc" transform="translate(-1110.000000, -67.000000)">
            <g id="Reset" transform="translate(1110.000000, 67.000000)">
                <rect id="矩形" fill="#D8D8D8" opacity="0" x="0" y="0" width="18" height="18"></rect>
                <polyline id="路径-5" stroke="#ad33ad" stroke-width="2" stroke-linecap="round" transform="translate(14.765474, 5.255307) scale(-1, 1) rotate(-43.000000) translate(-14.765474, -5.255307) " points="16.0286323 2.72899103 13.5023165 5.47904373 16.0286323 7.78162261"></polyline>
                <path d="M14.4920333,5.23313854 C14.30098,4.91998445 14.0850864,4.62364371 13.8470908,4.34685465 C12.6116019,2.90997994 10.7804906,2 8.73684211,2 C5.01618695,2 2,5.01618695 2,8.73684211 C2,12.4574973 5.01618695,15.4736842 8.73684211,15.4736842 C10.43104,15.4736842 11.9791714,14.8482989 13.1629787,13.8157856 C13.6722866,13.3715687 14.1141594,12.8519938 14.4712162,12.2744414" id="路径" stroke="#ad33ad" stroke-width="2" stroke-linecap="round"></path>
            </g>
        </g>
    </g>
</svg>