<?xml version="1.0" encoding="UTF-8"?>
<svg width="18px" height="18px" viewBox="0 0 18 18" version="1.1" xmlns="http://www.w3.org/2000/svg" xmlns:xlink="http://www.w3.org/1999/xlink">
    <title>script file</title>
    <g id="页面-1" stroke="none" stroke-width="1" fill="none" fill-rule="evenodd">
        <g id="pc" transform="translate(-893.000000, -221.000000)">
            <g id="script-file" transform="translate(893.000000, 221.000000)">
                <rect id="矩形" fill="#D8D8D8" opacity="0" x="0" y="0" width="18" height="18"></rect>
                <rect id="矩形" stroke="#ad33ad" stroke-width="2" x="2" y="1" width="14" height="16" rx="1"></rect>
                <polyline id="路径-5" stroke="#ad33ad" stroke-width="1.4" stroke-linecap="round" points="6 7.96122296 4 10.2473569 6 12.1615033"></polyline>
                <polyline id="路径-5" stroke="#ad33ad" stroke-width="1.4" stroke-linecap="round" transform="translate(13.000000, 10.061363) scale(-1, 1) translate(-13.000000, -10.061363) " points="14 7.96122296 12 10.2473569 14 12.1615033"></polyline>
                <path d="M8.59487902,7.02730632 L8.99339537,7.02545869 C9.2584892,7.02422964 9.47438654,7.23813431 9.47561559,7.50322813 C9.47564042,7.50858442 9.4755756,7.51394074 9.47542114,7.51929485 L9.32265055,12.8149835 C9.31518653,13.0737189 9.10391578,13.279937 8.84507556,13.281137 L8.44655921,13.2829846 C8.18146538,13.2842137 7.96556804,13.070309 7.96433899,12.8052152 C7.96431416,12.7998589 7.96437898,12.7945026 7.96453344,12.7891485 L8.11730403,7.49345982 C8.12476805,7.23472444 8.33603879,7.02850637 8.59487902,7.02730632 Z" id="矩形" fill="#ad33ad" transform="translate(8.719977, 10.154222) rotate(4.000000) translate(-8.719977, -10.154222) "></path>
            </g>
        </g>
    </g>
</svg>