<?xml version="1.0" encoding="UTF-8"?>
<svg width="18px" height="20px" viewBox="0 0 18 20" version="1.1" xmlns="http://www.w3.org/2000/svg" xmlns:xlink="http://www.w3.org/1999/xlink">
    <title>sys req</title>
    <g id="页面-1" stroke="none" stroke-width="1" fill="none" fill-rule="evenodd">
        <g id="pc" transform="translate(-963.000000, -221.000000)">
            <g id="sys-req" transform="translate(963.000000, 221.000000)">
                <rect id="矩形" fill="#D8D8D8" opacity="0" x="0" y="0" width="18" height="18"></rect>
                <path d="M8,17 L2.94117647,17 C2.42137906,17 2,16.5786209 2,16.0588235 L2,1.94117647 C2,1.42137906 2.42137906,1 2.94117647,1 L15.1764706,1 C15.696268,1 16.1176471,1.42137906 16.1176471,1.94117647 L16.1176471,11.3529412" id="形状" stroke="#ad33ad" stroke-width="2" stroke-linejoin="round"></path>
                <rect id="矩形" stroke="#ad33ad" fill="#D8D8D8" x="2.5" y="6.5" width="13" height="1"></rect>
                <path d="M8.5,11.5 L8.5,12.5 L2.5,12.5 L2.5,11.5 L8.5,11.5 Z" id="矩形" stroke="#ad33ad" fill="#D8D8D8"></path>
                <circle id="椭圆形" stroke="#ad33ad" fill="#D8D8D8" cx="13" cy="4" r="1"></circle>
                <rect id="矩形" fill="#D8D8D8" opacity="0" x="8" y="11" width="9" height="9"></rect>
                <path d="M9.5,14 L15,14 C15.2761424,14 15.5,14.2238576 15.5,14.5 L15.5,15.1 C15.5,15.3761424 15.2761424,15.6 15,15.6 L9.5,15.6 C9.22385763,15.6 9,15.3761424 9,15.1 L9,14.5 C9,14.2238576 9.22385763,14 9.5,14 Z" id="矩形" fill="#ad33ad"></path>
                <polyline id="路径-5" stroke="#ad33ad" stroke-width="2" stroke-linecap="round" transform="translate(15.111111, 14.500000) scale(-1, 1) translate(-15.111111, -14.500000) " points="16.2222222 12 14 14.7214063 16.2222222 17"></polyline>
            </g>
        </g>
    </g>
</svg>