<?xml version="1.0" encoding="utf-8"?>
<!-- Generator: Adobe Illustrator 22.1.0, SVG Export Plug-In . SVG Version: 6.00 Build 0)  -->
<svg version="1.1" id="Layer_1" xmlns="http://www.w3.org/2000/svg" xmlns:xlink="http://www.w3.org/1999/xlink" x="0px" y="0px"
	 viewBox="0 0 16 16" style="enable-background:new 0 0 16 16;" xml:space="preserve">
<style type="text/css">
	.st0{fill:#FFFFFF;}
</style>
<path d="M5,3c1.4,0,2.5,1.1,2.5,2.5S6.4,8,5,8S2.5,6.9,2.5,5.5S3.6,3,5,3 M5,2C3.1,2,1.5,3.6,1.5,5.5S3.1,9,5,9s3.5-1.6,3.5-3.5
	S6.9,2,5,2z"/>
<path d="M10,16H9v-2.5C9,12.1,7.9,11,6.5,11h-3C2.1,11,1,12.1,1,13.5V16H0v-2.5C0,11.6,1.6,10,3.5,10h3c1.9,0,3.5,1.6,3.5,3.5V16z"
	/>
<rect x="9.2" y="12.2" class="st0" width="0.8" height="1.8"/>
<path d="M15.3,11.9c0-0.1,0-0.2,0-0.2s0-0.2,0-0.2l0.6-0.4c0.2-0.2,0.2-0.5,0.1-0.7l-0.7-1.1c-0.1-0.2-0.3-0.3-0.5-0.3
	c-0.1,0-0.1,0-0.2,0.1L14,9.2c-0.1-0.1-0.2-0.2-0.4-0.2l-0.2-0.7c0-0.3-0.2-0.4-0.5-0.4h-1.3c-0.3,0-0.5,0.2-0.6,0.4L10.9,9
	c-0.2,0.1-0.3,0.1-0.4,0.2L9.9,8.9c-0.1,0-0.1,0-0.2,0c-0.2,0-0.4,0.1-0.5,0.3l-0.7,1.1c-0.1,0.2-0.1,0.5,0.2,0.7l0.5,0.5
	c0,0.1,0,0.2,0,0.2c0,0.1,0,0.2,0,0.2l-0.5,0.4c-0.2,0.2-0.3,0.5-0.1,0.7l0.7,1.1c0.1,0.2,0.2,0.3,0.4,0.3c0.1,0,0.1,0,0.2-0.1
	l0.7-0.2c0.1,0.1,0.2,0.2,0.4,0.2l0.2,0.7c0.1,0.3,0.3,0.4,0.6,0.4H13c0.3,0,0.5-0.2,0.6-0.4l0.2-0.7c0.1-0.1,0.2-0.1,0.4-0.2
	l0.7,0.2c0.1,0,0.1,0.1,0.2,0.1c0.2,0,0.4-0.1,0.5-0.3l0.6-1.1c0.1-0.2,0.1-0.5-0.1-0.7L15.3,11.9z M14.8,13.9l-0.9-0.3
	c-0.2,0.2-0.5,0.3-0.8,0.4l-0.2,1h-1.3l-0.2-1c-0.3-0.1-0.5-0.3-0.8-0.4l-0.9,0.3l-0.7-1.1l0.8-0.7c-0.1-0.3-0.1-0.6,0-0.9l-0.8-0.7
	l0.7-1.1l0.9,0.3c0.2-0.2,0.5-0.3,0.8-0.4l0.2-1h1.3l0.2,1c0.3,0.1,0.5,0.3,0.8,0.4l0.9-0.3l0.7,1.1l-0.8,0.7c0.1,0.3,0.1,0.6,0,0.9
	l0.8,0.7L14.8,13.9z"/>
<path d="M12.3,13.4c-0.9,0-1.7-0.7-1.7-1.7s0.7-1.7,1.7-1.7s1.7,0.7,1.7,1.7C13.9,12.6,13.2,13.4,12.3,13.4L12.3,13.4z M12.3,10.6
	c-0.6,0-1.1,0.4-1.1,1.1v0.1c0,0.6,0.4,1.1,1.1,1.1h0.1c0.6,0,1.1-0.4,1.1-1.1v-0.1C13.4,11.1,12.9,10.6,12.3,10.6
	C12.3,10.6,12.3,10.6,12.3,10.6z"/>
</svg>
