<?xml version="1.0" standalone="no"?>
<!DOCTYPE svg PUBLIC "-//W3C//DTD SVG 1.1//EN" "http://www.w3.org/Graphics/SVG/1.1/DTD/svg11.dtd" >
<svg xmlns="http://www.w3.org/2000/svg" xmlns:xlink="http://www.w3.org/1999/xlink" version="1.1">
<metadata></metadata>
<defs>
<font id="rodregular" horiz-adv-x="1229" >
<font-face units-per-em="2048" ascent="1505" descent="-543" />
<missing-glyph horiz-adv-x="500" />
<glyph horiz-adv-x="0" />
<glyph horiz-adv-x="682" />
<glyph unicode=" " />
<glyph unicode="!" d="M356 115l146 157l151 -153l-143 -164zM403 522v439h201v-439l-100 -172z" />
<glyph unicode="&#x22;" d="M301 559q0 13 23 84l82 260q26 84 94 84q80 0 80 -67q0 -25 -31 -82l-158 -228q-50 -71 -72 -71q-18 0 -18 20zM608 559q0 13 23 84l82 260q26 84 94 84q80 0 80 -67q0 -25 -31 -82l-158 -228q-49 -71 -71 -71q-19 0 -19 20z" />
<glyph unicode="#" d="M199 358v105h198l27 213h-184v104h196l53 330h107l-53 -330h211l53 330h104l-51 -330h172v-104h-184l-29 -213h172v-105h-184l-53 -358h-105l51 358h-225l-51 -358h-107l54 358h-172zM502 463h213l26 213h-211z" />
<glyph unicode="$" d="M291 207q0 68 37 103q27 24 59 24q78 0 78 -74q0 -38 -28.5 -60.5t-28.5 -41.5q0 -47 62 -83q58 -33 120 -30v389q-140 69 -184 107q-93 78 -93 204q0 116 86 197q82 77 191 80v106h61v-106q120 0 197 -60q72 -57 72 -135q0 -112 -89 -112q-67 0 -67 76q0 26 19.5 43 t19.5 28q0 39 -48.5 71t-103.5 32v-363q40 -18 111 -53q190 -102 190 -268q0 -102 -53 -176q-76 -106 -248 -128v-114h-61v110q-125 0 -210 62q-89 65 -89 172zM432 799q0 -106 158 -174v333q-48 0 -94 -32q-64 -44 -64 -127zM651 49q58 2 108 39q62 47 62 125 q0 125 -170 190v-354z" />
<glyph unicode="%" d="M20 629q0 149 100.5 280t225.5 131q46 0 84 -23q25 -17 49 -34q102 -68 221 -68q156 0 263 132l45 -35l-707 -1141h-84l641 1022l-4 4q-74 -37 -172 -37q-93 0 -176 49q22 -35 22 -133q0 -126 -69 -250q-86 -153 -221 -153q-108 0 -167 82q-51 70 -51 174zM145 590 q0 -156 103 -156q93 0 163 125q64 112 64 232q0 69 -24 118q-32 64 -97 64q-81 0 -148 -139q-61 -127 -61 -244zM707 137q0 150 99 279q101 133 226 133q93 0 142 -88q40 -73 40 -176q0 -126 -69 -250q-86 -154 -221 -154q-107 0 -166 82q-51 71 -51 174zM831 98 q0 -155 103 -155q93 0 163 124q64 113 64 232q0 69 -24 118q-32 64 -97 64q-81 0 -148 -139q-61 -126 -61 -244z" />
<glyph unicode="&#x26;" d="M28 251q6 133 133 246q40 35 199 136q-60 140 -58 253q2 120 93 195q80 67 183 67q91 0 151 -53q65 -58 65 -158q0 -155 -256 -304q92 -156 214 -343l107 167q49 76 51 135q3 78 -105 92v28h355v-28q-94 -20 -148 -106l-214 -341q101 -147 239 -147q105 0 165 96l39 -26 q-135 -196 -280 -197q-138 -1 -260 158q-68 -68 -175.5 -108t-212.5 -41q-129 -1 -205 63q-87 74 -80 216zM202 292q0 -84 55 -150q63 -76 163 -75q50 0 119 31.5t111 73.5q-24 19 -119 159q-105 153 -146 240q-183 -119 -183 -279zM436 909q0 -65 65 -211q99 59 125 84 q57 53 75 139q4 22 4 42q0 57 -35 89q-32 29 -81 29q-62 0 -105 -43q-48 -48 -48 -129z" />
<glyph unicode="'" d="M465 559q0 13 22 84l82 260q27 84 95 84q79 0 79 -67q0 -25 -30 -82l-158 -228q-50 -71 -72 -71q-18 0 -18 20z" />
<glyph unicode="(" d="M420 371q0 284 148 483q104 138 247 203l23 -39q-117 -79 -172 -202q-68 -156 -68 -433q0 -297 74 -466q55 -126 166 -204l-23 -41q-169 87 -274 254q-121 192 -121 445z" />
<glyph unicode=")" d="M393 -289q117 79 171 202q69 156 69 433q0 297 -74 466q-55 126 -166 204l23 41q169 -87 273 -253q122 -193 122 -446q0 -284 -148 -482q-104 -139 -247 -204z" />
<glyph unicode="*" d="M305 596q0 43 53 72q45 24 93 24q106 18 137 39q-51 24 -170 47q-39 8 -71 35q-36 30 -36 64q0 65 72 65q52 0 106 -63q30 -35 59 -70q27 -30 56 -47q0 45 -24 115q-33 93 -33 112q0 101 78 101q69 0 69 -93q0 -31 -26.5 -117.5t-26.5 -115.5q48 24 82 65q25 33 49 67 q44 46 98 46q70 0 70 -68q0 -51 -60 -77q-32 -14 -128 -31q-49 -9 -93 -37q54 -28 134 -39q54 0 97 -23q52 -28 52 -77q0 -28 -20.5 -50t-49.5 -22q-56 0 -104 57q-81 97 -125 121q-3 -44 16 -92q37 -92 37 -135q0 -88 -67 -88q-80 0 -80 92q0 37 37 129q15 38 22 100 q-40 -25 -94 -84q-31 -34 -62 -69q-33 -31 -71 -31q-76 0 -76 78z" />
<glyph unicode="+" d="M143 412v110h424v445h111v-445h430v-110h-430v-441h-107v441h-428z" />
<glyph unicode="," d="M451 98l139 166q125 -103 125 -223q0 -87 -61.5 -163t-153.5 -105l-27 53q80 40 80 121q0 67 -102 151z" />
<glyph unicode="-" d="M389 430v170h465v-170h-465z" />
<glyph unicode="." d="M442 109l154 155l154 -155l-154 -154z" />
<glyph unicode="/" d="M319 -25l474 990h149l-479 -990h-144z" />
<glyph unicode="0" d="M268 504q0 242 97 383q95 137 253 137q159 0 254 -137q97 -141 97 -383q0 -243 -96 -381.5t-255 -138.5q-158 0 -254 138.5t-96 381.5zM453 504q0 -455 165 -455q166 0 166 455q0 454 -166 454q-165 0 -165 -454z" />
<glyph unicode="1" d="M426 47q82 0 109.5 27t27.5 110v584q0 104 -51 104q-6 0 -55 -16l-17 47q110 44 262 131l29 -20q-8 -119 -8 -176v-654q0 -86 20.5 -108.5t110.5 -30.5l-8 -53q-109 8 -219 8q-71 0 -195 -8z" />
<glyph unicode="2" d="M293 29q444 414 444 645q0 110 -59 168q-54 53 -143 53q-121 0 -162 -154l-51 15q29 142 121 213q72 55 161 55q123 0 207 -77q90 -83 90 -216q0 -211 -403 -590l4 -4q57 8 143 8q8 0 57.5 -3t59.5 -3q83 0 123 21q33 17 67 69l35 -16q-45 -97 -82 -219q-214 8 -336 6 q-173 -3 -258 -14z" />
<glyph unicode="3" d="M313 86q0 74 70 74q35 0 95.5 -47t119.5 -47q68 0 119 60t51 136q0 90 -65 158q-76 80 -205 80v51q79 3 138 52q64 53 64 134q0 61 -38 110q-42 54 -107 54q-107 0 -170 -102l-35 20q21 64 78 121q82 84 190 84q94 0 156 -57q66 -60 66 -154q0 -128 -109 -205 q69 -21 116 -77q60 -73 60 -181q0 -172 -123 -274q-112 -92 -274 -92q-197 0 -197 102z" />
<glyph unicode="4" d="M281 227v150l450 631h107v-637h120v-148h-120v-223h-158v227h-399zM373 371h307l-4 430z" />
<glyph unicode="5" d="M322 98q0 80 86 80q38 0 94.5 -44t107.5 -44q64 0 109 47q51 53 51 144q0 273 -430 307l195 420h383l-66 -152h-305l-45 -102q120 0 240 -83q159 -110 159 -298q0 -209 -132.5 -299t-262.5 -90q-80 0 -132 32.5t-52 81.5z" />
<glyph unicode="6" d="M299 391q0 234 152 422q173 213 450 223l14 -35q-173 -32 -273 -145q-82 -93 -132 -264q101 49 188 49q122 0 195 -95q63 -84 63 -198q0 -160 -101 -265q-97 -99 -228 -99t-223 96q-105 111 -105 311zM471 369q0 -147 46.5 -234.5t119.5 -87.5q78 0 120 80q36 68 36 168 q0 82 -31 150q-47 102 -150 102q-56 0 -127 -47q-14 -76 -14 -131z" />
<glyph unicode="7" d="M309 766q58 130 97 242h546l-319 -1031l-94 25l266 856q-24 -1 -140 2q-127 4 -141 4q-79 0 -119 -30q-29 -23 -61 -86z" />
<glyph unicode="8" d="M319 233q0 149 195 285l-55 45q-121 99 -121 223q0 113 86 178q79 60 194 60q119 0 195 -51q86 -58 86 -162q0 -126 -203 -250l86 -69q74 -60 104 -107q40 -60 40 -141q0 -97 -73 -173q-83 -87 -214 -87q-144 0 -232 70t-88 179zM463 262q0 -219 182 -219q68 0 111 43.5 t43 106.5q0 92 -125 194l-101 82q-110 -66 -110 -207zM469 827q0 -77 96 -157l76 -64q123 82 123 207q0 154 -152 154q-66 0 -107 -45q-36 -41 -36 -95z" />
<glyph unicode="9" d="M287 659q0 160 102 266q96 99 227 99q132 0 223 -96q105 -112 105 -312q0 -233 -152 -421q-173 -214 -450 -224l-14 35q173 33 273 146q83 93 132 264q-101 -49 -188 -49q-122 0 -195 95q-63 83 -63 197zM451 713q0 -83 31 -150q47 -102 149 -102q56 0 127 47 q14 75 14 131q0 147 -46 234.5t-120 87.5q-78 0 -120 -81q-35 -67 -35 -167z" />
<glyph unicode=":" d="M354 104l154 156l154 -156l-154 -153zM354 563l154 156l154 -156l-154 -153z" />
<glyph unicode=";" d="M334 575l153 156l154 -156l-154 -153zM350 98l139 166q125 -103 125 -223q0 -87 -61 -163t-154 -105l-26 53q80 40 80 121q0 67 -103 151z" />
<glyph unicode="&#x3c;" d="M174 410v108l881 391v-129l-721 -317l721 -338v-129z" />
<glyph unicode="=" d="M131 268v111h965v-111h-965zM131 555v111h965v-111h-965z" />
<glyph unicode="&#x3e;" d="M174 -4v129l721 317l-721 338v129l881 -413v-109z" />
<glyph unicode="?" d="M219 803q38 67 96 118q73 64 140 64q150 0 231 -81q66 -66 66 -156q0 -117 -105 -218l-59 -57q-72 -69 -66 -139l-26 -8q-39 68 -39 145q0 61 51 156l39 71q41 76 41 146q0 28 -27 51t-57 23q-50 0 -89 -76q-13 -25 -50 -131zM346 104l152 158l153 -158q-7 -9 -155 -163z " />
<glyph unicode="@" d="M215 413v336q0 255 136 418q109 130 266 130q175 0 273 -149q53 -81 53 -186v-576q40 -4 40 -41q0 -28 -22 -38q-10 -5 -34 -5h-68v11q-50 -8 -85 -8q-117 0 -197 71q-83 74 -83 189q0 142 115 226q102 74 250 74v97q0 107 -66 178.5t-172 71.5q-131 0 -205 -97 q-117 -152 -117 -371v-331q0 -177 75 -305q91 -154 256 -154q150 0 225 71q17 16 33 16q41 0 41 -40q0 -32 -60 -70q-96 -61 -251 -61q-160 0 -258 111q-81 92 -122 239q-23 82 -23 193zM578 567q0 -85 62 -134q57 -44 145 -44q29 0 74 9v384q-108 -1 -188 -52 q-93 -60 -93 -163z" />
<glyph unicode="A" d="M17 42q0 42 56 42h65l371 1002h-248q-56 0 -56 42t56 42h423l410 -1086h65q56 0 56 -42t-56 -42h-313q-57 0 -57 42t57 42h160l-115 307h-552l-113 -307h161q56 0 56 -42t-56 -42h-314q-56 0 -56 42zM371 475h488l-232 611h-31z" />
<glyph unicode="B" d="M87 42q0 42 56 42h113v1002h-113q-56 0 -56 42t56 42h528q141 0 243 -79q111 -87 111 -224q0 -154 -165 -249q253 -91 253 -297q0 -175 -162 -272q-83 -49 -180 -49h-628q-56 0 -56 42zM340 84h425q159 0 232 125q31 53 31 110q0 72 -51 132q-46 55 -117 83 q-79 31 -218 31h-302v-481zM340 650h297q195 0 269 116q34 53 34 108q0 96 -89 157q-79 55 -178 55h-333v-436z" />
<glyph unicode="C" d="M127 504v171q0 132 69 259t180 194q115 69 250 69q208 0 358 -142v59q0 56 42 56t42 -56v-233q0 -57 -42 -57q-39 0 -42 51q-5 84 -91 149q-117 89 -264 89q-96 0 -183 -43q-65 -32 -102 -76q-133 -157 -133 -331v-147q0 -186 133 -324q134 -141 319 -141q201 0 359 189 q18 21 38 21q40 0 40 -39q0 -22 -43 -70q-166 -185 -392 -185q-91 0 -185 35q-124 46 -234 185q-119 147 -119 317z" />
<glyph unicode="D" d="M158 42q0 42 56 42h71v1002h-71q-56 0 -56 42t56 42h452q208 0 327 -144q149 -180 149 -383v-116q0 -295 -247 -461q-98 -66 -229 -66h-452q-56 0 -56 42zM369 84h305q105 0 200 70q90 65 138 165q46 96 46 190v152q0 78 -25 139q-36 89 -102 169q-96 117 -257 117h-305 v-1002z" />
<glyph unicode="E" d="M88 42q0 42 56 42h113v1002h-113q-56 0 -56 42t56 42h883v-289q0 -56 -42 -56t-42 56v205h-602v-437h301v95q0 56 43 56q42 0 42 -56v-274q0 -56 -42 -56q-43 0 -43 56v95h-301v-481h646v248q0 56 42 56t42 -56v-332h-927q-56 0 -56 42z" />
<glyph unicode="F" d="M159 42q0 42 56 42h113v1002h-113q-56 0 -56 42t56 42h925v-289q0 -56 -42 -56q-43 0 -43 56v205h-643v-437h301v95q0 56 43 56q42 0 42 -56v-274q0 -56 -42 -56q-43 0 -43 56v95h-301v-481h288q56 0 56 -42t-56 -42h-485q-56 0 -56 42z" />
<glyph unicode="G" d="M128 506v154q0 141 68 268q70 131 188.5 200t258.5 69q203 0 343 -111q0 64 18 77q11 7 25 7q42 0 42 -56v-190q0 -56 -42 -56q-38 0 -41 52q-6 94 -130 149q-100 44 -208 44q-244 0 -384 -243q-54 -94 -54 -211v-153q0 -216 134 -338q128 -117 347 -117q136 0 293 72 v311h-289q-56 0 -56 42q0 43 56 43l404 -1q56 0 56 -42q0 -29 -26 -38q-10 -4 -60 -4v-360q-194 -107 -382 -107q-261 0 -411 152t-150 387z" />
<glyph unicode="H" d="M107 42q0 42 56 42h95v1002h-52q-57 0 -57 42t57 42h249q56 0 56 -42t-56 -42h-113v-436h557v436h-112q-56 0 -56 42t56 42h249q57 0 57 -42t-57 -42h-52v-1002h95q56 0 56 -42t-56 -42h-292q-56 0 -56 42t56 42h112v482h-557v-482h113q56 0 56 -42t-56 -42h-292 q-56 0 -56 42z" />
<glyph unicode="I" d="M229 42q0 42 56 42h288v1002h-288q-56 0 -56 42t56 42h660q56 0 56 -42t-56 -42h-288v-1002h288q56 0 56 -42t-56 -42h-660q-56 0 -56 42z" />
<glyph unicode="J" d="M171 153v310q0 56 42 56q43 0 43 -56l-1 -270q154 -142 302 -142q165 0 256 141q45 71 45 152v742h-329q-57 0 -57 42t57 42h614q56 0 56 -42t-56 -42h-200v-742q0 -156 -114.5 -266.5t-271.5 -110.5q-183 0 -386 186z" />
<glyph unicode="K" d="M89 42q0 42 56 42h113v1002h-113q-56 0 -56 42t56 42h352q57 0 57 -42t-57 -42h-155v-517l580 517h-92q-57 0 -57 42t57 42h247q56 0 56 -42t-56 -42h-34l-462 -413q189 -77 302 -284q37 -68 132 -305h105q57 0 57 -42t-57 -42h-162q-100 274 -154 365q-113 189 -293 245 l-169 -152v-374h155q57 0 57 -42t-57 -42h-352q-56 0 -56 42z" />
<glyph unicode="L" d="M128 42q0 42 56 42h200v1002h-200q-56 0 -56 42t56 42h485q56 0 56 -42t-56 -42h-200v-1002h558v334q0 56 43 56q42 0 42 -56v-418h-928q-56 0 -56 42z" />
<glyph unicode="M" d="M24 42q0 42 56 42h71v1002h-53q-56 0 -56 42t56 42h206l318 -724l313 724h206q57 0 57 -42t-57 -42h-52v-1002h70q57 0 57 -42t-57 -42h-309q-57 0 -57 42t57 42h155v1002h-18l-317 -735h-96l-323 735h-16v-1002h155q56 0 56 -42t-56 -42h-310q-56 0 -56 42z" />
<glyph unicode="N" d="M46 1128q0 42 56 42h220l620 -1049v965h-155q-56 0 -56 42t56 42h310q56 0 56 -42t-56 -42h-71v-1086h-108l-619 1047v-963h155q57 0 57 -42t-57 -42h-309q-57 0 -57 42t57 42h70v1002h-113q-56 0 -56 42z" />
<glyph unicode="O" d="M104 582q0 239 133 418q147 197 379 197q145 0 265 -86q113 -81 179 -217q68 -143 68 -312q0 -161 -62 -300q-68 -151 -193 -235q-120 -80 -257 -80q-231 0 -378 197q-134 179 -134 418zM188 582q0 -200 111 -357q124 -174 317 -174q194 0 317 173q110 156 110 358 t-110 358q-123 173 -317 173t-317 -174q-111 -156 -111 -357z" />
<glyph unicode="P" d="M179 42q0 42 56 42h113v1002h-113q-56 0 -56 42t56 42h488q157 0 270 -91q122 -97 122 -250q0 -158 -121 -248q-75 -56 -155 -82q-58 -19 -144 -19h-263v-396h288q56 0 56 -42t-56 -42h-485q-56 0 -56 42zM432 564h268q85 0 165 37q87 39 129 106q37 60 37 122 q0 113 -96 188q-88 69 -204 69h-299v-522z" />
<glyph unicode="Q" d="M104 582q0 239 133 418q147 197 379 197t379 -197q133 -179 133 -418q0 -235 -131 -414q-144 -198 -371 -201l-112 -84q83 17 137 17q89 0 173 -32q61 -23 93 -23q57 0 129 47q27 18 40 18q41 0 41 -42q0 -15 -10 -26q-21 -23 -95 -56q-57 -25 -110 -25q-38 0 -121.5 27 t-137.5 27q-49 0 -121 -12q-96 -16 -162 -34q-18 -5 -29 -5q-41 0 -41 44q0 19 23 36l187 135q-190 47 -303 230q-103 167 -103 373zM188 582q0 -200 111 -357q124 -174 317 -174q194 0 317 173q110 156 110 358t-110 358q-123 173 -317 173t-317 -174q-111 -156 -111 -357z " />
<glyph unicode="R" d="M88 42q0 42 56 42h113v1002h-113q-56 0 -56 42t56 42h508q142 0 253 -89q119 -96 119 -235q0 -204 -289 -302q110 -76 205 -209q43 -61 154 -251h64q56 0 56 -42t-56 -42h-112q-122 219 -180 297q-117 158 -258 225h-267v-438h155q57 0 57 -42t-57 -42h-352q-56 0 -56 42 zM341 606h229q92 0 180 32q101 37 150 102q40 54 40 110q0 100 -98 171q-89 65 -192 65h-309v-480z" />
<glyph unicode="S" d="M185 56v232q0 57 42 57q39 0 42 -51q6 -117 125 -185q100 -58 225 -58q134 0 230 64q111 74 111 202q0 138 -139 199q-49 22 -200 47q-180 30 -266 83q-127 77 -127 229q0 149 121 240q109 82 263 82q176 0 303 -111v28q0 56 42 56t42 -56v-214q0 -56 -42 -56 q-39 0 -42 51q-6 102 -105 164q-87 54 -195 54q-119 0 -205 -59q-98 -67 -98 -181q0 -101 84 -157q68 -46 236 -74q172 -28 236 -57q176 -79 176 -271q0 -165 -134 -261q-120 -86 -291 -86q-219 0 -350 137v-48q0 -56 -42 -56t-42 56z" />
<glyph unicode="T" d="M143 795v375h941v-375q0 -57 -42 -57t-42 57v291h-344v-1002h218q56 0 56 -42t-56 -42h-521q-56 0 -56 42t56 42h218v1002h-344v-291q0 -57 -42 -57t-42 57z" />
<glyph unicode="U" d="M83 1128q0 42 56 42h310q56 0 56 -42t-56 -42h-155v-702q0 -136 92 -233q93 -100 228 -100q170 0 272 155q51 79 51 178v702h-155q-56 0 -56 42t56 42h310q56 0 56 -42t-56 -42h-71v-702q0 -174 -114 -294q-116 -123 -289 -123q-226 0 -347 198q-61 99 -61 219v702h-71 q-56 0 -56 42z" />
<glyph unicode="V" d="M16 1128q0 27 23 38q10 4 33 4h313q37 0 50 -19q6 -11 6 -23q0 -26 -23 -37q-10 -5 -33 -5h-161l390 -1002h6l385 1002h-160q-38 0 -50 20q-7 10 -7 22q0 26 24 38q9 4 33 4h312q38 0 51 -19q6 -11 6 -23q0 -26 -23 -37q-10 -5 -34 -5h-64l-416 -1086h-117l-423 1086h-65 q-37 0 -49 20q-7 10 -7 22z" />
<glyph unicode="W" d="M37 1128q0 42 56 42h312q57 0 57 -42t-57 -42h-196l111 -990l227 815h129l233 -815l109 990h-197q-56 0 -56 42t56 42h310q57 0 57 -42t-57 -42h-31l-117 -1086h-132l-238 831l-233 -831h-132l-124 1086h-31q-56 0 -56 42z" />
<glyph unicode="X" d="M80 42q0 31 26 39q10 3 61 3l394 515l-376 487h-31q-56 0 -56 42t56 42h229q57 0 57 -42t-57 -42h-94l324 -419l322 419h-94q-57 0 -57 42t57 42h230q56 0 56 -42t-56 -42h-32l-374 -487l399 -515h32q56 0 56 -42t-56 -42h-270q-56 0 -56 42t56 42h134l-347 446 l-343 -446h134q56 0 56 -42t-56 -42h-268q-56 0 -56 42z" />
<glyph unicode="Y" d="M99 1128q0 42 56 42h231q56 0 56 -42t-56 -42h-83l314 -473l307 473h-82q-57 0 -57 42t57 42h230q56 0 56 -42t-56 -42h-50l-363 -558v-444h218q56 0 56 -42t-56 -42h-521q-56 0 -56 42t56 42h218v444l-369 558h-50q-56 0 -56 42z" />
<glyph unicode="Z" d="M213 0v122l682 964h-559v-247q0 -57 -43 -57q-42 0 -42 57v331h725v-119l-682 -967h644v293q0 57 42 57t42 -57v-377h-809z" />
<glyph unicode="[" d="M467 -291v1313h375v-76h-238v-1161h242v-76h-379z" />
<glyph unicode="\" d="M350 1194h160l381 -1194h-146z" />
<glyph unicode="]" d="M391 -215h242v1161h-238v76h375v-1313h-379v76z" />
<glyph unicode="^" d="M256 436l317 701h107l317 -701h-118l-252 568l-252 -568h-119z" />
<glyph unicode="_" d="M0 -145h1229v-113h-1229v113z" />
<glyph unicode="`" d="M444 1286q0 43 43 43q15 0 38 -20l236 -204l22 -25q3 -5 3 -16q0 -43 -43 -43q-15 0 -38 20l-236 204q-25 22 -25 41z" />
<glyph unicode="a" d="M144 231q0 155 150 238q121 66 289 66q120 0 273 -31v136q0 89 -88 135q-70 36 -168 36q-97 0 -275 -57q-31 -10 -41 -10q-39 0 -39 42q0 17 10 27q14 15 113 41q158 42 236 42q129 0 225 -62q112 -71 112 -194v-556h112q57 0 57 -42t-57 -42h-197v121 q-183 -154 -391 -154q-132 0 -221 64q-100 73 -100 200zM228 231q0 -91 74 -139q63 -41 159 -41q205 0 395 182v185q-115 33 -264 33q-182 0 -286 -79q-78 -59 -78 -141z" />
<glyph unicode="b" d="M45 42q0 42 56 42h113v1086h-113q-56 0 -56 43q0 42 56 42h197v-557q152 198 367 198q190 0 318 -135t128 -326q0 -190 -127 -327q-130 -141 -319 -141q-220 0 -367 198v-165h-197q-56 0 -56 42zM299 431q0 -154 105.5 -267t258.5 -113t260 114q104 112 104 266t-104 266 q-107 114 -260 114t-258.5 -113t-105.5 -267z" />
<glyph unicode="c" d="M171 425q0 204 133 337.5t337 133.5q193 0 324 -115v28q0 57 42 57q43 0 43 -57v-190q0 -57 -43 -57q-38 0 -42 50q-8 97 -125 153q-95 46 -204 46q-170 0 -275.5 -107t-105.5 -278q0 -167 108 -271t276 -104q226 0 383 152q21 20 37 20q40 0 40 -40q0 -43 -101 -109 q-163 -107 -363 -107q-202 0 -333 128t-131 330z" />
<glyph unicode="d" d="M126 431q0 122 61 232.5t165 171.5t219 61q220 0 370 -200v474h-112q-57 0 -57 43q0 42 57 42h197v-1171h112q57 0 57 -42t-57 -42h-197v167q-146 -200 -371 -200q-120 0 -223 63t-160 170q-61 112 -61 231zM210 431q0 -156 105.5 -268t260.5 -112q154 0 261 113 q104 112 104 267q0 156 -105 268t-260 112t-260.5 -112t-105.5 -268z" />
<glyph unicode="e" d="M128 451q0 192 141 320q137 125 330 125q211 0 341 -136q129 -134 129 -341v-6h-856q22 -166 137 -264t283 -98q221 0 365 113q19 15 33 15q40 0 40 -42q0 -16 -16 -33q-61 -63 -198 -103q-119 -34 -224 -34q-210 0 -356 136q-149 139 -149 348zM214 498h770 q-25 142 -132.5 227.5t-252.5 85.5q-146 0 -252.5 -85t-132.5 -228z" />
<glyph unicode="f" d="M215 42q0 42 56 42h203v697h-182q-56 0 -56 43q0 42 56 42h182v127q0 121 99 195q90 67 215 67q118 0 254 -22q72 -12 72 -48q0 -41 -44 -41q-7 0 -27 3q-150 23 -255 23q-90 0 -154 -42q-75 -50 -75 -135v-127h393q56 0 56 -43q0 -42 -56 -42h-393v-697h369q56 0 56 -42 t-56 -42h-657q-56 0 -56 42z" />
<glyph unicode="g" d="M125 459q0 179 123 308t301 129q213 0 348 -184v154h197q56 0 56 -43q0 -42 -56 -42h-113v-839q0 -84 -36 -150q-56 -103 -182 -158q-46 -20 -123 -20h-238q-56 0 -56 42q0 43 56 43l241 -1h2q152 0 230 149q22 41 22 107v252q-135 -185 -348 -185q-178 0 -302 131 q-122 128 -122 307zM210 459q0 -146 99 -249.5t244 -103.5t244.5 103.5t99.5 249.5t-99.5 249t-244.5 103t-244 -103.5t-99 -248.5z" />
<glyph unicode="h" d="M85 1213q0 42 56 42h197v-517q145 158 318 158q191 0 281 -140q46 -72 46 -151v-521h94q56 0 56 -42t-56 -42h-273q-57 0 -57 42t57 42h94v515q0 102 -75 160q-68 53 -173 53q-92 0 -157 -45q-48 -33 -155 -151v-532h95q56 0 56 -42t-56 -42h-274q-56 0 -56 42t56 42h95 v1086h-113q-56 0 -56 43z" />
<glyph unicode="i" d="M189 42q0 42 56 42h330v697h-245q-57 0 -57 42q0 43 57 43h329v-782h330q57 0 57 -42t-57 -42h-744q-56 0 -56 42zM532 1080v217h124v-217h-124z" />
<glyph unicode="j" d="M180 -344q0 43 56 43l265 -1q106 0 172.5 68.5t66.5 174.5v840h-499q-56 0 -56 43q0 42 56 42h583v-925q0 -206 -176 -296q-61 -31 -145 -31h-267q-56 0 -56 42zM611 1080v217h124v-217h-124z" />
<glyph unicode="k" d="M191 42q0 42 56 42h113v1086h-113q-56 0 -56 43q0 42 56 42h197v-774l357 300h-43q-56 0 -56 42q0 43 56 43h269q57 0 57 -43q0 -42 -57 -42h-97l-328 -274l415 -423h97q57 0 57 -42t-57 -42h-272q-56 0 -56 42t56 42h59l-361 371l-96 -81v-374h-197q-56 0 -56 42z" />
<glyph unicode="l" d="M187 42q0 42 56 42h330v1086h-242q-57 0 -57 43q0 42 57 42h326v-1171h330q57 0 57 -42t-57 -42h-744q-56 0 -56 42z" />
<glyph unicode="m" d="M21 42q0 42 56 42h71v697h-71q-56 0 -56 43q0 42 56 42h155v-85q107 115 215 115q130 0 196 -139q111 139 229 139q90 0 145 -59q71 -77 71 -166v-587h71q56 0 56 -42t-56 -42h-155v663q0 58 -35 101q-37 47 -94 47q-104 0 -213 -170v-557h70q56 0 56 -42t-56 -42h-155 v657q0 58 -34 104q-37 50 -94 50q-103 0 -217 -170v-557h71q56 0 56 -42t-56 -42h-226q-56 0 -56 42z" />
<glyph unicode="n" d="M108 42q0 42 56 42h95v697h-71q-56 0 -56 43q0 42 56 42h155v-127q155 157 319 157q185 0 277 -140q45 -70 45 -143v-529h71q56 0 56 -42t-56 -42h-225q-57 0 -57 42t57 42h70v515q0 98 -72 157q-67 55 -167 55q-102 0 -181 -59q-46 -34 -137 -141v-527h95q56 0 56 -42 t-56 -42h-274q-56 0 -56 42z" />
<glyph unicode="o" d="M145 431q0 195 137.5 330t332.5 135t332 -135t137 -330q0 -194 -137 -329t-332 -135t-332.5 134.5t-137.5 329.5zM229 431q0 -159 113 -269.5t272 -110.5q160 0 272.5 110.5t112.5 269.5q0 160 -112.5 270t-272.5 110t-272.5 -110.5t-112.5 -269.5z" />
<glyph unicode="p" d="M45 -344q0 42 56 42h113v1083h-113q-56 0 -56 43q0 42 56 42h197v-153q151 183 364 183q123 0 226 -56q107 -59 165 -163t58 -218q0 -186 -130.5 -312t-317.5 -126q-225 0 -365 183v-506h204q56 0 56 -42t-56 -42h-401q-56 0 -56 42zM298 459q0 -149 107.5 -251 t257.5 -102t256.5 102t106.5 251t-106.5 250.5t-256.5 101.5t-256 -101q-109 -102 -109 -251z" />
<glyph unicode="q" d="M128 459q0 187 132 313q129 124 317 124q224 0 363 -183v153h197q57 0 57 -43q0 -42 -57 -42h-112v-1083h112q57 0 57 -42t-57 -42h-400q-56 0 -56 42t56 42h203v506q-139 -183 -365 -183q-186 0 -316.5 126.5t-130.5 311.5zM212 459q0 -149 107 -251t257 -102t257 102 t107 251t-107 250.5t-257 101.5t-257 -101.5t-107 -250.5z" />
<glyph unicode="r" d="M171 41q0 40 56 40h203v700h-155q-56 0 -56 43q0 42 56 42h239v-212q121 109 181 150q120 83 215 83q53 0 126 -42q78 -44 78 -85q0 -44 -44 -44q-17 0 -43 26q-61 61 -112 61q-82 0 -216 -101q-50 -38 -185 -158v-460h372q57 0 57 -42t-57 -42h-659q-56 0 -56 41z" />
<glyph unicode="s" d="M207 56v173q0 56 42 56q43 0 43 -46q0 -101 135 -156q76 -32 187 -32q113 0 203 39q121 52 121 151q0 155 -319 188q-126 13 -180 28q-104 28 -151 92q-38 52 -38 112q0 119 127 184q101 51 232 51q174 0 283 -85q0 55 42 55q43 0 43 -57v-144q0 -56 -43 -56 q-38 0 -42 47q-6 60 -62 99q-81 56 -217 56q-141 0 -219 -57q-59 -43 -59 -96q0 -60 70 -100q49 -28 182 -43q177 -20 243 -43q192 -69 192 -231q0 -140 -140 -214q-113 -60 -265 -60q-199 0 -326 101q0 -49 -18 -61q-11 -7 -24 -7q-42 0 -42 56z" />
<glyph unicode="t" d="M146 824q0 42 56 42h155v248q0 56 42 56q43 0 43 -56v-248h456q56 0 56 -43q0 -42 -56 -42h-456v-559q0 -88 75 -133q61 -38 155 -38q77 0 174 23q104 24 164 60q22 13 33 13q40 0 40 -42q0 -47 -168 -99q-124 -39 -237 -39q-134 0 -221 59q-100 68 -100 196v559h-155 q-56 0 -56 43z" />
<glyph unicode="u" d="M91 824q0 42 56 42h197v-627q0 -81 51 -134.5t131 -53.5q205 0 376 188v542h-155q-56 0 -56 43q0 42 56 42h239v-782h71q56 0 56 -42t-56 -42h-155v123q-172 -156 -372 -156q-123 0 -187 67q-83 88 -83 205v542h-113q-56 0 -56 43z" />
<glyph unicode="v" d="M59 824q0 42 56 42h315q56 0 56 -43q0 -42 -56 -42h-139l308 -697h37l302 697h-140q-56 0 -56 43q0 42 56 42h316q56 0 56 -43q0 -42 -56 -42h-85l-341 -781h-142l-345 781h-86q-56 0 -56 43z" />
<glyph unicode="w" d="M56 824q0 42 56 42h231q56 0 56 -43q0 -42 -56 -42h-107l149 -666l179 532h100l184 -532l143 666h-106q-57 0 -57 43q0 42 57 42h230q57 0 57 -43q0 -42 -57 -42h-40l-171 -781l-104 -1l-185 540l-184 -540l-104 1l-174 781h-41q-56 0 -56 43z" />
<glyph unicode="x" d="M101 42q0 29 25 39q9 3 47 3l385 369l-342 328q-50 0 -62 19q-8 11 -8 24q0 42 57 42h229q56 0 56 -43q0 -42 -56 -42h-100l283 -273l285 273h-100q-57 0 -57 43q0 42 57 42h229q56 0 56 -43q0 -28 -24 -38q-10 -4 -46 -4l-343 -328l385 -369q53 0 66 -18q7 -11 7 -24 q0 -42 -57 -42h-270q-57 0 -57 42t57 42h139l-327 313l-325 -313h140q56 0 56 -42t-56 -42h-273q-56 0 -56 42z" />
<glyph unicode="y" d="M149 823q0 28 24 39q10 4 32 4h230q56 0 56 -43q0 -42 -56 -42h-113l343 -689l338 689h-113q-56 0 -56 43q0 42 56 42h229q57 0 57 -43q0 -29 -26 -38q-10 -4 -56 -4l-532 -1083h131q56 0 56 -42t-56 -42h-484q-56 0 -56 42t56 42h263l148 302l-390 781h-25q-56 0 -56 42 z" />
<glyph unicode="z" d="M237 0v75l626 706h-522v-114q0 -56 -42 -56q-43 0 -43 56v199h726v-75l-629 -707h568v116q0 56 42 56q43 0 43 -56l-1 -200h-768z" />
<glyph unicode="{" d="M383 553q102 16 139 116q23 64 23 191q0 37 -4 120q-3 79 -2 120q1 149 44 220q57 93 199 93q33 0 70 -6q-172 -45 -174 -303q-1 -47 5 -138q5 -95 5 -137q0 -123 -28 -184q-37 -79 -132 -92q95 -13 132 -92q28 -62 28 -185q0 -42 -5.5 -134.5t-4.5 -139.5 q2 -258 174 -303q-37 -6 -70 -6q-142 0 -199 93q-43 71 -44 220q-1 41 2 120q4 83 4 120q0 127 -23 191q-37 100 -139 116z" />
<glyph unicode="|" d="M563 0v1194h129v-1194h-129z" />
<glyph unicode="}" d="M446 -301q172 45 175 303q0 47 -5.5 139.5t-5.5 134.5q0 123 29 185q37 79 131 92q-94 13 -131 92q-29 61 -29 184q0 42 6 137q5 91 5 138q-3 258 -175 303q37 6 70 6q142 0 199 -93q44 -71 45 -220q0 -41 -3 -120q-3 -83 -3 -120q0 -127 23 -191q36 -100 138 -116 q-102 -16 -138 -116q-23 -64 -23 -191q0 -37 3 -120q3 -79 3 -120q-1 -149 -45 -220q-57 -93 -199 -93q-33 0 -70 6z" />
<glyph unicode="~" d="M96 471q123 217 304 217q75 0 241 -76q52 -18 105 -37q61 -21 104 -21q116 0 209 155l98 -64q-135 -237 -311 -237q-61 0 -134 29l-104 46q-121 70 -202 70q-69 0 -127 -51q-41 -36 -107 -131z" />
<glyph d="M41 59v469h162q54 0 83 -7q89 -21 125 -114q18 -49 18 -111q0 -102 -45 -163q-36 -51 -98 -66q-33 -8 -76 -8h-169zM103 114h100q82 0 115 33q47 47 47 150q0 134 -83 166q-25 9 -80 9h-99v-358zM485 59v469h339v-56h-277v-143h260v-55h-260v-160h288v-55h-350zM895 59 v469h62v-414h231v-55h-293z" />
<glyph unicode="&#xa0;" />
<glyph unicode="&#xa1;" d="M356 736l146 -157l151 153l-143 164zM403 -110h201v439l-100 172l-101 -172v-439z" />
<glyph unicode="&#xa2;" d="M228 646q0 160 110 270q81 81 233 114v250q0 56 42 56t42 -56v-247q128 -4 218 -75q10 34 41 34q43 0 43 -51v-127q0 -57 -42 -57q-36 0 -42 48q-10 76 -89 115q-64 32 -149 32q-139 0 -229 -82q-94 -86 -94 -223q0 -133 90 -218.5t224 -85.5q155 0 261 87q21 17 37 17 q40 0 40 -41q0 -29 -51 -61q-117 -74 -258 -82v-207q0 -56 -42 -56t-42 56v207q-148 18 -245.5 126t-97.5 257z" />
<glyph unicode="&#xa3;" d="M264 477v53h144q-46 136 -46 199q0 129 85 214q82 83 202 83q107 0 175 -61q65 -57 65 -138q0 -45 -27.5 -75.5t-64.5 -30.5q-84 0 -84 82q0 43 28.5 66t28.5 36q0 28 -37 46q-30 16 -61 16q-66 0 -114 -42q-54 -46 -54 -124q0 -25 37 -134q23 -67 47 -135h192v-57h-172 q6 -46 6 -94q0 -131 -45 -248q67 -24 146 -24q171 0 192 155h47q-3 -93 -57 -181q-65 -105 -160 -114q-129 -11 -202 92q-57 -94 -154 -94q-115 0 -115 105q0 34 27 61q36 37 106 37q38 0 101 -18q6 24 6 61q0 62 -76 264h-166zM324 63q0 -47 51 -47q78 0 102 80 q-45 21 -80 21q-73 0 -73 -54z" />
<glyph unicode="&#xa4;" d="M206 242q0 17 22 39l116 115q-74 97 -74 212t72 211l-114 114q-22 22 -22 40q0 42 43 42q17 0 39 -22l114 -114q91 73 213 73q120 0 211 -73l114 114q22 22 40 22q42 0 42 -43q0 -9 -4 -17t-18 -22l-114 -114q72 -95 72 -210q0 -119 -73 -213l115 -115q22 -22 22 -40 q0 -42 -43 -42q-17 0 -39 22l-115 115q-96 -72 -211 -72t-210 72l-116 -115q-22 -22 -39 -22q-43 0 -43 43zM355 608q0 -108 75.5 -183.5t183.5 -75.5t184 75.5t76 183.5q0 109 -75.5 184.5t-184.5 75.5q-108 0 -183.5 -76t-75.5 -184z" />
<glyph unicode="&#xa5;" d="M98 1128q0 42 56 42h230q56 0 56 -42t-56 -42h-81l311 -472l311 472h-82q-56 0 -56 42t56 42h228q57 0 57 -42t-57 -42h-48l-340 -515h245q41 0 41 -30t-41 -30h-271v-158h271q41 0 41 -30t-41 -30h-271v-209h179q56 0 56 -42t-56 -42h-443q-56 0 -56 42t56 42h179v209 h-271q-40 0 -40 30t40 30h271v158h-271q-40 0 -40 30t40 30h242l-339 515h-50q-56 0 -56 42z" />
<glyph unicode="&#xa6;" d="M572 -143v376q0 79 2 87q7 30 40 30t40 -30q3 -8 3 -87l-1 -376q0 -89 -6 -97q-14 -19 -36 -19q-33 0 -40 29q-2 8 -2 87zM572 762v376q0 79 2 87q7 30 40 30q31 0 40 -30q3 -11 3 -87l-1 -376q0 -88 -6 -98q-14 -19 -36 -19q-33 0 -40 30q-2 8 -2 87z" />
<glyph unicode="&#xa7;" d="M348 356q0 146 158 246q-33 23 -61 74q-35 62 -35 127q0 74 51 139q67 86 190 86q107 0 162 -55q41 -42 41 -96q0 -29 -18.5 -51.5t-44.5 -22.5q-72 0 -72 65l10 54q0 51 -76 51q-62 0 -100.5 -38.5t-38.5 -92.5q0 -79 129 -178l135 -105q135 -104 135 -237 q0 -155 -151 -254q92 -74 92 -179q0 -97 -75 -155q-67 -53 -161 -53q-77 0 -136 30q-81 43 -81 129q0 70 66 70q63 0 63 -64q0 -8 -4 -26.5t-4 -30.5q0 -49 101 -49q65 0 100 38q29 31 29 70q0 67 -72 119l-139 103q-105 77 -142 126q-51 67 -51 160zM444 412 q0 -82 101 -162l182 -146q8 6 25 19q67 67 67 135q0 57 -28 95q-22 31 -101 93l-149 119q-97 -59 -97 -153z" />
<glyph unicode="&#xa8;" d="M319 1147q0 34 23.5 58t57.5 24t58 -24t24 -58t-24 -57.5t-58 -23.5q-33 0 -57 24t-24 57zM748 1147q0 34 23.5 58t57.5 24t58 -24t24 -58t-24 -57.5t-58 -23.5t-57.5 23.5t-23.5 57.5z" />
<glyph unicode="&#xa9;" d="M3 584q0 255 178 433.5t433 178.5q256 0 434 -178t178 -434q0 -255 -178.5 -433t-433.5 -178t-433 178t-178 433zM70 584q0 -227 158.5 -385t385.5 -158t385.5 158t158.5 385q0 228 -158 386t-386 158q-227 0 -385.5 -158.5t-158.5 -385.5zM328 550v97q0 120 81.5 208 t200.5 88t203 -81v34q0 32 25 32q23 0 23 -32v-132q0 -22 -11 -28q-6 -4 -13 -4q-22 0 -24 28q-4 49 -51 85q-66 50 -150 50q-100 0 -158 -63q-78 -85 -78 -192v-83q0 -105 75.5 -184.5t179.5 -79.5q116 0 204 107q10 12 21 12q23 0 23 -22q0 -51 -100 -100 q-88 -44 -146 -44q-173 0 -275 178q-30 52 -30 126z" />
<glyph unicode="&#xaa;" d="M296 900q0 101 104 154q82 41 193 41q70 0 166 -16v66q0 89 -154 89q-59 0 -175 -34q-20 -6 -30 -6q-39 0 -39 39q0 30 79 50q111 28 168 28q86 0 153 -39q79 -46 79 -127v-321h60q50 0 50 -38q0 -39 -50 -39h-141v60q-115 -80 -240 -80q-89 0 -151 41q-72 47 -72 132z M377 900q0 -96 139 -96q127 0 243 102l-1 95q-64 17 -157 17q-116 0 -179 -45q-45 -32 -45 -73z" />
<glyph unicode="&#xab;" d="M99 434l448 410q26 24 44 24q42 0 42 -43q0 -15 -23 -41l-313 -350l313 -349q23 -26 23 -42q0 -42 -42 -42q-19 0 -44 23zM568 434l448 410q26 24 44 24q42 0 42 -43q0 -16 -22 -41l-313 -350l313 -349q22 -25 22 -42q0 -42 -42 -42q-19 0 -44 23z" />
<glyph unicode="&#xac;" d="M24 585q0 42 56 42h1005v-504q0 -56 -42 -56q-43 0 -43 56v420h-920q-37 0 -49 20q-7 10 -7 22z" />
<glyph unicode="&#xad;" d="M24 585q0 42 56 42h1005q56 0 56 -42q0 -27 -23 -37q-10 -5 -33 -5h-1005q-37 0 -49 20q-7 10 -7 22z" />
<glyph unicode="&#xae;" d="M3 584q0 255 178 433.5t433 178.5q256 0 434 -178t178 -434q0 -255 -178.5 -433t-433.5 -178t-433 178t-178 433zM70 584q0 -227 158.5 -385t385.5 -158t385.5 158t158.5 385q0 228 -158 386t-386 158q-227 0 -385.5 -158.5t-158.5 -385.5zM320 277q0 15 14 22q5 2 18 2 h64v567h-64q-20 0 -28 12q-4 6 -4 12q0 15 14 22q5 2 18 2h288q81 0 144 -51q67 -54 67 -133q0 -115 -164 -171q86 -57 203 -260h37q20 0 28 -12q4 -6 4 -12q0 -15 -13 -21q-6 -3 -19 -3h-64q-68 123 -102 168q-66 89 -146 128h-151v-248h88q20 0 28 -11q4 -6 4 -13 q0 -15 -13 -21q-6 -3 -19 -3h-200q-21 0 -28 11q-4 6 -4 13zM464 596h129q73 0 135 32q75 39 75 107q0 57 -55 97q-50 36 -109 36h-175v-272z" />
<glyph unicode="&#xaf;" d="M-27 1383q0 42 56 42h1171q56 0 56 -43q0 -42 -56 -42h-1171q-56 0 -56 43z" />
<glyph unicode="&#xb0;" d="M301 1038q0 129 92 221.5t221 92.5t221.5 -92.5t92.5 -221.5q0 -128 -92 -219.5t-222 -91.5q-129 0 -221 91.5t-92 219.5zM387 1038q0 -96 67.5 -163.5t163.5 -67.5q97 0 164.5 67.5t67.5 163.5q0 97 -67.5 164.5t-164.5 67.5q-96 0 -163.5 -67.5t-67.5 -164.5z" />
<glyph unicode="&#xb1;" d="M143 0h965v-111h-965v111zM143 412v110h424v445h111v-445h430v-110h-430v-342h-107v342h-428z" />
<glyph unicode="&#xb2;" d="M360 610q287 263 287 424q0 142 -121 142q-58 0 -106 -107l-45 18q55 183 194 183q89 0 146 -52t57 -141q0 -165 -266 -387l4 -4q51 10 88 10q5 0 35 -3t35 -3q89 0 123 62l36 -15q-29 -70 -53 -155q-28 2 -192 6q-120 4 -205 -6z" />
<glyph unicode="&#xb3;" d="M403 668q0 45 50 45q28 0 51 -23q45 -45 82 -45q46 0 78 37t32 86q0 65 -48.5 109t-121.5 41v47q52 0 90.5 30.5t38.5 85.5q0 40 -25 69.5t-69 29.5q-72 0 -102 -70l-33 20q13 56 60 95q52 45 122 45q72 0 114 -43q38 -40 38 -99q0 -84 -76 -135q119 -38 119 -172 q0 -101 -78 -172t-184 -71q-138 0 -138 90z" />
<glyph unicode="&#xb4;" d="M443 1064q0 19 25 41l236 204q23 20 39 20q42 0 42 -43q0 -19 -25 -41l-237 -204q-23 -20 -38 -20q-42 0 -42 43z" />
<glyph unicode="&#xb5;" d="M90 824q0 42 56 42h197v-627q0 -81 51 -134.5t131 -53.5q205 0 376 188v542h-155q-56 0 -56 43q0 42 56 42h239v-782h71q56 0 56 -42t-56 -42h-155v123q-172 -156 -374 -156q-109 0 -184 67v-364q0 -56 -42 -56t-42 56v1111h-113q-56 0 -56 43z" />
<glyph unicode="&#xb6;" d="M171 857v97q0 121 95 192q146 109 348 109h409q41 0 41 -30q0 -31 -41 -31h-128v-1263h131q40 0 40 -30q0 -31 -40 -31h-195q-41 0 -41 31q0 20 19 27q7 3 25 3v1263h-176v-1263q30 0 39 -14q5 -8 5 -16q0 -31 -40 -31h-280q-40 0 -40 30q0 31 40 31h215v633 q-116 8 -213 45q-126 48 -189 151q-24 39 -24 97zM292 872q0 -56 27 -95q92 -133 278 -150v567q-114 -10 -201 -69q-104 -70 -104 -176v-77z" />
<glyph unicode="&#xb7;" d="M708 683q0 43 30 73t73 30t72.5 -30t29.5 -73q0 -42 -30 -72t-72 -30q-43 0 -73 29.5t-30 72.5z" />
<glyph unicode="&#xb8;" d="M442 -258q0 30 30 30q10 0 23 -7q68 -38 125 -38q83 0 83 59q0 51 -76 51h-41v153q0 40 30 40t30 -40v-96q118 -17 118 -110q0 -57 -45 -89q-40 -28 -99 -28q-35 0 -89 15q-61 16 -79 37q-10 11 -10 23z" />
<glyph unicode="&#xb9;" d="M444 584v47q86 0 86 61v428q0 39 -28 39q-5 0 -41 -14l-15 39q59 28 177 90l26 -19q-4 -53 -4 -135v-428q0 -59 86 -59v-47q-63 2 -156 2q-65 0 -131 -4z" />
<glyph unicode="&#xba;" d="M294 1019q0 126 97 211q93 81 221 81t221 -81q97 -85 97 -211t-97 -211q-93 -81 -221 -81q-127 0 -221 81q-97 85 -97 211zM375 1019q0 -93 73 -156q69 -59 164 -59t164 59q73 63 73 156q0 94 -73 156q-69 59 -164 59t-164 -59q-73 -63 -73 -156z" />
<glyph unicode="&#xbb;" d="M127 43q0 17 22 42l313 349l-313 350q-22 25 -22 42q0 42 42 42q17 0 43 -24l449 -410l-449 -410q-25 -23 -43 -23q-42 0 -42 42zM596 43q0 17 22 42l313 349l-313 350q-22 25 -22 42q0 42 42 42q18 0 44 -24l448 -410l-448 -410q-25 -23 -44 -23q-42 0 -42 42z" />
<glyph unicode="&#xbc;" d="M111 584v47q86 0 86 61v428q0 39 -29 39q-5 0 -41 -14l-14 39q58 28 176 90l26 -19q-4 -53 -4 -135v-428q0 -59 86 -59v-47q-63 2 -155 2q-66 0 -131 -4zM176 -4l782 1268h78l-776 -1268h-84zM729 150v104l301 416h74v-412h82v-108h-82v-150h-115v150h-260zM803 256h188 l-4 264z" />
<glyph unicode="&#xbd;" d="M111 584v47q86 0 86 61v428q0 39 -29 39q-5 0 -41 -14l-14 39q58 28 176 90l26 -19q-4 -53 -4 -135v-428q0 -59 86 -59v-47q-63 2 -155 2q-66 0 -131 -4zM176 -4l782 1268h78l-776 -1268h-84zM694 23q287 262 287 423q0 142 -121 142q-58 0 -106 -107l-45 19 q55 182 194 182q88 0 145.5 -52t57.5 -141q0 -165 -266 -387l4 -4q51 11 88 11q5 0 34.5 -3.5t34.5 -3.5q89 0 123 62l37 -14q-29 -71 -53 -156q-92 6 -193 6q-152 0 -204 -6z" />
<glyph unicode="&#xbe;" d="M70 668q0 45 49 45q28 0 51 -23q45 -45 82 -45q46 0 78 37t32 86q0 65 -48.5 109t-120.5 41v47q51 0 88 29q41 32 41 87q0 40 -25.5 69.5t-69.5 29.5q-72 0 -102 -70l-33 20q14 56 60 95q52 45 122 45q72 0 114 -43q38 -40 38 -99q0 -84 -76 -135q119 -38 119 -172 q0 -101 -78 -172t-184 -71q-137 0 -137 90zM176 -4l782 1268h78l-776 -1268h-84zM729 150v104l301 416h74v-412h82v-108h-82v-150h-115v150h-260zM803 256h188l-4 264z" />
<glyph unicode="&#xbf;" d="M219 89q0 116 105 217l59 58q72 69 66 139l26 8q39 -68 39 -145q0 -62 -51 -156l-39 -72q-41 -75 -41 -145q0 -29 27 -51.5t57 -22.5q50 0 89 75q13 25 50 132l146 -92q-38 -67 -97 -118q-72 -64 -139 -64q-151 0 -231 81q-66 66 -66 156zM319 732q8 10 156 164l150 -164 l-152 -158z" />
<glyph unicode="&#xc0;" d="M17 42q0 42 56 42h65l371 1002h-248q-56 0 -56 42t56 42h423l410 -1086h65q56 0 56 -42t-56 -42h-313q-57 0 -57 42t57 42h160l-115 307h-552l-113 -307h161q56 0 56 -42t-56 -42h-314q-56 0 -56 42zM371 475h488l-232 611h-31zM444 1590q0 43 43 43q15 0 38 -20 l236 -204l22 -25q3 -5 3 -16q0 -43 -43 -43q-15 0 -38 20l-236 204q-25 22 -25 41z" />
<glyph unicode="&#xc1;" d="M17 42q0 42 56 42h65l371 1002h-248q-56 0 -56 42t56 42h423l410 -1086h65q56 0 56 -42t-56 -42h-313q-57 0 -57 42t57 42h160l-115 307h-552l-113 -307h161q56 0 56 -42t-56 -42h-314q-56 0 -56 42zM371 475h488l-232 611h-31zM443 1368q0 19 25 41l236 204q23 20 39 20 q42 0 42 -43q0 -19 -25 -41l-237 -204q-23 -20 -38 -20q-42 0 -42 43z" />
<glyph unicode="&#xc2;" d="M17 42q0 42 56 42h65l371 1002h-248q-56 0 -56 42t56 42h423l410 -1086h65q56 0 56 -42t-56 -42h-313q-57 0 -57 42t57 42h160l-115 307h-552l-113 -307h161q56 0 56 -42t-56 -42h-314q-56 0 -56 42zM316 1366q0 21 28 42l270 206l271 -206q18 -14 23 -22.5t5 -19.5 q0 -18 -12.5 -30t-30.5 -12q-13 0 -35 17l-221 169l-220 -169q-22 -17 -36 -17q-17 0 -29.5 12.5t-12.5 29.5zM371 475h488l-232 611h-31z" />
<glyph unicode="&#xc3;" d="M17 42q0 42 56 42h65l371 1002h-248q-56 0 -56 42t56 42h423l410 -1086h65q56 0 56 -42t-56 -42h-313q-57 0 -57 42t57 42h160l-115 307h-552l-113 -307h161q56 0 56 -42t-56 -42h-314q-56 0 -56 42zM296 1386q0 26 51 66q78 59 136 59q30 0 61 -12.5t101 -60.5t102 -48 q38 0 115 68q16 13 30 13q17 0 29.5 -12t12.5 -27q0 -17 -13 -32q-40 -45 -95 -74q-38 -21 -79 -21q-64 0 -173 79q-58 43 -90 43q-40 0 -101 -56q-27 -25 -46 -25q-18 0 -29.5 12t-11.5 28zM371 475h488l-232 611h-31z" />
<glyph unicode="&#xc4;" d="M17 42q0 42 56 42h65l371 1002h-248q-56 0 -56 42t56 42h423l410 -1086h65q56 0 56 -42t-56 -42h-313q-57 0 -57 42t57 42h160l-115 307h-552l-113 -307h161q56 0 56 -42t-56 -42h-314q-56 0 -56 42zM319 1451q0 34 23.5 58t57.5 24t58 -24t24 -58t-24 -57.5t-58 -23.5 q-33 0 -57 24t-24 57zM371 475h488l-232 611h-31zM748 1451q0 34 23.5 58t57.5 24t58 -24t24 -58t-24 -57.5t-58 -23.5t-57.5 23.5t-23.5 57.5z" />
<glyph unicode="&#xc5;" d="M17 42q0 42 56 42h65l371 1002h-248q-56 0 -56 42t56 42h423l410 -1086h65q56 0 56 -42t-56 -42h-313q-57 0 -57 42t57 42h160l-115 307h-552l-113 -307h161q56 0 56 -42t-56 -42h-314q-56 0 -56 42zM371 475h488l-232 611h-31zM433 1490q0 73 53 125.5t128 52.5 t128 -52.5t53 -125.5t-53 -125.5t-128 -52.5t-128 52.5t-53 125.5zM493 1490q0 -48 35.5 -83t85.5 -35t85.5 34.5t35.5 83.5t-35.5 83.5t-85.5 34.5q-51 0 -86 -35t-35 -83z" />
<glyph unicode="&#xc6;" d="M18 42q0 19 13 30.5t43 11.5h77l276 1002h-131q-30 0 -43 11.5t-13 30.5t12.5 30.5t43.5 11.5h874v-316q0 -30 -12 -43t-30 -13q-19 0 -31 13t-12 43v232h-387v-436h163v58q0 31 11.5 44t30.5 13t31 -13t11 -44v-198q0 -31 -11.5 -44t-30.5 -13t-30.5 13t-11.5 44v57 h-163v-483h430v194q0 23 5 34q3 6 14.5 14t18.5 8l20 -3q16 -9 21 -18.5t5 -34.5v-278h-706q-30 0 -43 12t-13 30q0 19 13 30.5t43 11.5h108v310h-293l-85 -310h54q30 0 43 -11.5t13 -30.5q0 -18 -13 -30t-43 -12h-216q-30 0 -43 12t-13 30zM344 475h270v611h-104z" />
<glyph unicode="&#xc7;" d="M127 504v171q0 132 69 259t180 194q115 69 250 69q208 0 358 -142v59q0 56 42 56t42 -56v-233q0 -57 -42 -57q-39 0 -42 51q-5 84 -91 149q-117 89 -264 89q-96 0 -183 -43q-65 -32 -102 -76q-133 -157 -133 -331v-147q0 -186 133 -324q134 -141 319 -141q201 0 359 189 q18 21 38 21q40 0 40 -39q0 -22 -43 -70q-166 -185 -392 -185q-91 0 -185 35q-124 46 -234 185q-119 147 -119 317zM453 -258q0 30 30 30q10 0 23 -7q68 -38 125 -38q83 0 83 59q0 51 -76 51h-41v153q0 40 30 40t30 -40v-96q118 -17 118 -110q0 -57 -45 -89q-40 -28 -99 -28 q-35 0 -89 15q-61 16 -79 37q-10 11 -10 23z" />
<glyph unicode="&#xc8;" d="M88 42q0 42 56 42h113v1002h-113q-56 0 -56 42t56 42h883v-289q0 -56 -42 -56t-42 56v205h-602v-437h301v95q0 56 43 56q42 0 42 -56v-274q0 -56 -42 -56q-43 0 -43 56v95h-301v-481h646v248q0 56 42 56t42 -56v-332h-927q-56 0 -56 42zM444 1590q0 43 43 43q15 0 38 -20 l236 -204l22 -25q3 -5 3 -16q0 -43 -43 -43q-15 0 -38 20l-236 204q-25 22 -25 41z" />
<glyph unicode="&#xc9;" d="M88 42q0 42 56 42h113v1002h-113q-56 0 -56 42t56 42h883v-289q0 -56 -42 -56t-42 56v205h-602v-437h301v95q0 56 43 56q42 0 42 -56v-274q0 -56 -42 -56q-43 0 -43 56v95h-301v-481h646v248q0 56 42 56t42 -56v-332h-927q-56 0 -56 42zM443 1368q0 19 25 41l236 204 q23 20 39 20q42 0 42 -43q0 -19 -25 -41l-237 -204q-23 -20 -38 -20q-42 0 -42 43z" />
<glyph unicode="&#xca;" d="M88 42q0 42 56 42h113v1002h-113q-56 0 -56 42t56 42h883v-289q0 -56 -42 -56t-42 56v205h-602v-437h301v95q0 56 43 56q42 0 42 -56v-274q0 -56 -42 -56q-43 0 -43 56v95h-301v-481h646v248q0 56 42 56t42 -56v-332h-927q-56 0 -56 42zM316 1366q0 21 28 42l270 206 l271 -206q18 -14 23 -22.5t5 -19.5q0 -18 -12.5 -30t-30.5 -12q-13 0 -35 17l-221 169l-220 -169q-22 -17 -36 -17q-17 0 -29.5 12.5t-12.5 29.5z" />
<glyph unicode="&#xcb;" d="M88 42q0 42 56 42h113v1002h-113q-56 0 -56 42t56 42h883v-289q0 -56 -42 -56t-42 56v205h-602v-437h301v95q0 56 43 56q42 0 42 -56v-274q0 -56 -42 -56q-43 0 -43 56v95h-301v-481h646v248q0 56 42 56t42 -56v-332h-927q-56 0 -56 42zM319 1451q0 34 23.5 58t57.5 24 t58 -24t24 -58t-24 -57.5t-58 -23.5q-33 0 -57 24t-24 57zM748 1451q0 34 23.5 58t57.5 24t58 -24t24 -58t-24 -57.5t-58 -23.5t-57.5 23.5t-23.5 57.5z" />
<glyph unicode="&#xcc;" d="M229 42q0 42 56 42h288v1002h-288q-56 0 -56 42t56 42h660q56 0 56 -42t-56 -42h-288v-1002h288q56 0 56 -42t-56 -42h-660q-56 0 -56 42zM444 1590q0 43 43 43q15 0 38 -20l236 -204l22 -25q3 -5 3 -16q0 -43 -43 -43q-15 0 -38 20l-236 204q-25 22 -25 41z" />
<glyph unicode="&#xcd;" d="M229 42q0 42 56 42h288v1002h-288q-56 0 -56 42t56 42h660q56 0 56 -42t-56 -42h-288v-1002h288q56 0 56 -42t-56 -42h-660q-56 0 -56 42zM443 1368q0 19 25 41l236 204q23 20 39 20q42 0 42 -43q0 -19 -25 -41l-237 -204q-23 -20 -38 -20q-42 0 -42 43z" />
<glyph unicode="&#xce;" d="M229 42q0 42 56 42h288v1002h-288q-56 0 -56 42t56 42h660q56 0 56 -42t-56 -42h-288v-1002h288q56 0 56 -42t-56 -42h-660q-56 0 -56 42zM316 1366q0 21 28 42l270 206l271 -206q18 -14 23 -22.5t5 -19.5q0 -18 -12.5 -30t-30.5 -12q-13 0 -35 17l-221 169l-220 -169 q-22 -17 -36 -17q-17 0 -29.5 12.5t-12.5 29.5z" />
<glyph unicode="&#xcf;" d="M229 42q0 42 56 42h288v1002h-288q-56 0 -56 42t56 42h660q56 0 56 -42t-56 -42h-288v-1002h288q56 0 56 -42t-56 -42h-660q-56 0 -56 42zM319 1451q0 34 23.5 58t57.5 24t58 -24t24 -58t-24 -57.5t-58 -23.5q-33 0 -57 24t-24 57zM748 1451q0 34 23.5 58t57.5 24t58 -24 t24 -58t-24 -57.5t-58 -23.5t-57.5 23.5t-23.5 57.5z" />
<glyph unicode="&#xd0;" d="M-3 607q0 14 8.5 25t21.5 15q8 2 87 2h99v437h-70q-31 0 -44 11.5t-13 30.5t13 30.5t44 11.5h451q106 0 193.5 -44t133.5 -100q79 -95 120 -201q30 -77 30 -182v-116q0 -129 -57.5 -250t-190.5 -211q-99 -66 -229 -66h-451q-31 0 -44 12t-13 30q0 19 13 30.5t44 11.5h70 v480h-99q-79 0 -87 2q-13 4 -21.5 15t-8.5 26zM298 84h305q105 0 198 69t139 165.5t46 190.5v152q0 78 -24 139q-37 89 -102 169q-36 44 -106.5 80.5t-150.5 36.5h-305v-437h234q79 0 87 -2q12 -4 21 -15t9 -25q0 -15 -9 -26t-21 -15q-8 -2 -87 -2h-234v-480z" />
<glyph unicode="&#xd1;" d="M46 1128q0 42 56 42h220l620 -1049v965h-155q-56 0 -56 42t56 42h310q56 0 56 -42t-56 -42h-71v-1086h-108l-619 1047v-963h155q57 0 57 -42t-57 -42h-309q-57 0 -57 42t57 42h70v1002h-113q-56 0 -56 42zM296 1386q0 26 51 66q78 59 136 59q30 0 61 -12.5t101 -60.5 t102 -48q38 0 115 68q16 13 30 13q17 0 29.5 -12t12.5 -27q0 -17 -13 -32q-40 -45 -95 -74q-38 -21 -79 -21q-64 0 -173 79q-58 43 -90 43q-40 0 -101 -56q-27 -25 -46 -25q-18 0 -29.5 12t-11.5 28z" />
<glyph unicode="&#xd2;" d="M104 582q0 239 133 418q147 197 379 197q145 0 265 -86q113 -81 179 -217q68 -143 68 -312q0 -161 -62 -300q-68 -151 -193 -235q-120 -80 -257 -80q-231 0 -378 197q-134 179 -134 418zM188 582q0 -200 111 -357q124 -174 317 -174q194 0 317 173q110 156 110 358 t-110 358q-123 173 -317 173t-317 -174q-111 -156 -111 -357zM444 1590q0 43 43 43q15 0 38 -20l236 -204l22 -25q3 -5 3 -16q0 -43 -43 -43q-15 0 -38 20l-236 204q-25 22 -25 41z" />
<glyph unicode="&#xd3;" d="M104 582q0 239 133 418q147 197 379 197q145 0 265 -86q113 -81 179 -217q68 -143 68 -312q0 -161 -62 -300q-68 -151 -193 -235q-120 -80 -257 -80q-231 0 -378 197q-134 179 -134 418zM188 582q0 -200 111 -357q124 -174 317 -174q194 0 317 173q110 156 110 358 t-110 358q-123 173 -317 173t-317 -174q-111 -156 -111 -357zM443 1368q0 19 25 41l236 204q23 20 39 20q42 0 42 -43q0 -19 -25 -41l-237 -204q-23 -20 -38 -20q-42 0 -42 43z" />
<glyph unicode="&#xd4;" d="M104 582q0 239 133 418q147 197 379 197q145 0 265 -86q113 -81 179 -217q68 -143 68 -312q0 -161 -62 -300q-68 -151 -193 -235q-120 -80 -257 -80q-231 0 -378 197q-134 179 -134 418zM188 582q0 -200 111 -357q124 -174 317 -174q194 0 317 173q110 156 110 358 t-110 358q-123 173 -317 173t-317 -174q-111 -156 -111 -357zM316 1366q0 21 28 42l270 206l271 -206q18 -14 23 -22.5t5 -19.5q0 -18 -12.5 -30t-30.5 -12q-13 0 -35 17l-221 169l-220 -169q-22 -17 -36 -17q-17 0 -29.5 12.5t-12.5 29.5z" />
<glyph unicode="&#xd5;" d="M104 582q0 239 133 418q147 197 379 197q145 0 265 -86q113 -81 179 -217q68 -143 68 -312q0 -161 -62 -300q-68 -151 -193 -235q-120 -80 -257 -80q-231 0 -378 197q-134 179 -134 418zM188 582q0 -200 111 -357q124 -174 317 -174q194 0 317 173q110 156 110 358 t-110 358q-123 173 -317 173t-317 -174q-111 -156 -111 -357zM296 1386q0 26 51 66q78 59 136 59q30 0 61 -12.5t101 -60.5t102 -48q38 0 115 68q16 13 30 13q17 0 29.5 -12t12.5 -27q0 -17 -13 -32q-40 -45 -95 -74q-38 -21 -79 -21q-64 0 -173 79q-58 43 -90 43 q-40 0 -101 -56q-27 -25 -46 -25q-18 0 -29.5 12t-11.5 28z" />
<glyph unicode="&#xd6;" d="M104 582q0 239 133 418q147 197 379 197q145 0 265 -86q113 -81 179 -217q68 -143 68 -312q0 -161 -62 -300q-68 -151 -193 -235q-120 -80 -257 -80q-231 0 -378 197q-134 179 -134 418zM188 582q0 -200 111 -357q124 -174 317 -174q194 0 317 173q110 156 110 358 t-110 358q-123 173 -317 173t-317 -174q-111 -156 -111 -357zM319 1451q0 34 23.5 58t57.5 24t58 -24t24 -58t-24 -57.5t-58 -23.5q-33 0 -57 24t-24 57zM748 1451q0 34 23.5 58t57.5 24t58 -24t24 -58t-24 -57.5t-58 -23.5t-57.5 23.5t-23.5 57.5z" />
<glyph unicode="&#xd7;" d="M162 86l385 387l-373 377l78 76l373 -377l368 373l76 -76l-371 -375l394 -393l-76 -78l-393 395l-385 -395z" />
<glyph unicode="&#xd8;" d="M80 -41q0 14 18 36l137 174q-131 181 -131 412q0 272 154.5 444t357.5 172q183 0 322 -134l127 162q14 17 22.5 22t19.5 5q18 0 30 -12.5t12 -30.5q0 -14 -17 -36l-137 -174q133 -177 133 -417q0 -270 -155 -442.5t-357 -172.5q-184 0 -325 137l-127 -161 q-14 -18 -22.5 -22.5t-18.5 -4.5q-18 0 -30.5 12.5t-12.5 30.5zM188 582q0 -191 102 -343l594 756q-121 118 -268 118q-177 0 -302.5 -156t-125.5 -375zM344 172q121 -121 272 -121q175 0 301 155t126 376q0 196 -103 347z" />
<glyph unicode="&#xd9;" d="M83 1128q0 42 56 42h310q56 0 56 -42t-56 -42h-155v-702q0 -136 92 -233q93 -100 228 -100q170 0 272 155q51 79 51 178v702h-155q-56 0 -56 42t56 42h310q56 0 56 -42t-56 -42h-71v-702q0 -174 -114 -294q-116 -123 -289 -123q-226 0 -347 198q-61 99 -61 219v702h-71 q-56 0 -56 42zM444 1590q0 43 43 43q15 0 38 -20l236 -204l22 -25q3 -5 3 -16q0 -43 -43 -43q-15 0 -38 20l-236 204q-25 22 -25 41z" />
<glyph unicode="&#xda;" d="M83 1128q0 42 56 42h310q56 0 56 -42t-56 -42h-155v-702q0 -136 92 -233q93 -100 228 -100q170 0 272 155q51 79 51 178v702h-155q-56 0 -56 42t56 42h310q56 0 56 -42t-56 -42h-71v-702q0 -174 -114 -294q-116 -123 -289 -123q-226 0 -347 198q-61 99 -61 219v702h-71 q-56 0 -56 42zM443 1368q0 19 25 41l236 204q23 20 39 20q42 0 42 -43q0 -19 -25 -41l-237 -204q-23 -20 -38 -20q-42 0 -42 43z" />
<glyph unicode="&#xdb;" d="M83 1128q0 42 56 42h310q56 0 56 -42t-56 -42h-155v-702q0 -136 92 -233q93 -100 228 -100q170 0 272 155q51 79 51 178v702h-155q-56 0 -56 42t56 42h310q56 0 56 -42t-56 -42h-71v-702q0 -174 -114 -294q-116 -123 -289 -123q-226 0 -347 198q-61 99 -61 219v702h-71 q-56 0 -56 42zM316 1366q0 21 28 42l270 206l271 -206q18 -14 23 -22.5t5 -19.5q0 -18 -12.5 -30t-30.5 -12q-13 0 -35 17l-221 169l-220 -169q-22 -17 -36 -17q-17 0 -29.5 12.5t-12.5 29.5z" />
<glyph unicode="&#xdc;" d="M83 1128q0 42 56 42h310q56 0 56 -42t-56 -42h-155v-702q0 -136 92 -233q93 -100 228 -100q170 0 272 155q51 79 51 178v702h-155q-56 0 -56 42t56 42h310q56 0 56 -42t-56 -42h-71v-702q0 -174 -114 -294q-116 -123 -289 -123q-226 0 -347 198q-61 99 -61 219v702h-71 q-56 0 -56 42zM319 1451q0 34 23.5 58t57.5 24t58 -24t24 -58t-24 -57.5t-58 -23.5q-33 0 -57 24t-24 57zM748 1451q0 34 23.5 58t57.5 24t58 -24t24 -58t-24 -57.5t-58 -23.5t-57.5 23.5t-23.5 57.5z" />
<glyph unicode="&#xdd;" d="M99 1128q0 42 56 42h231q56 0 56 -42t-56 -42h-83l314 -473l307 473h-82q-57 0 -57 42t57 42h230q56 0 56 -42t-56 -42h-50l-363 -558v-444h218q56 0 56 -42t-56 -42h-521q-56 0 -56 42t56 42h218v444l-369 558h-50q-56 0 -56 42zM443 1368q0 19 25 41l236 204 q23 20 39 20q42 0 42 -43q0 -19 -25 -41l-237 -204q-23 -20 -38 -20q-42 0 -42 43z" />
<glyph unicode="&#xde;" d="M179 42q0 19 13 30.5t43 11.5h113v1002h-113q-30 0 -43 11.5t-13 30.5q0 13 7.5 24t17.5 14.5t55 3.5h461q30 0 43 -11.5t13 -30.5t-13 -30.5t-43 -11.5h-288v-157h291q173 0 282.5 -102.5t109.5 -239.5q0 -80 -35.5 -145t-85.5 -102q-75 -56 -155 -82q-58 -20 -144 -20 h-263v-154h288q30 0 43 -11.5t13 -30.5q0 -18 -13 -30t-43 -12h-485q-30 0 -43 12t-13 30zM432 323h268q93 0 174.5 41t119 101t37.5 122q0 99 -85 178t-215 79h-299v-521z" />
<glyph unicode="&#xdf;" d="M89 42q0 19 13 30.5t43 11.5h113v906q0 106 84.5 185.5t210.5 79.5q127 0 215 -88.5t88 -214.5q0 -125 -120 -207q93 -39 146 -84q72 -61 110.5 -143t38.5 -185q0 -170 -83 -268t-191 -98q-92 0 -155 68.5t-63 174.5q0 22 12 34.5t30 12.5t29.5 -12t12.5 -37 q5 -78 42 -117q36 -40 93 -40q87 0 137.5 88.5t50.5 192.5q0 83 -32.5 152t-76.5 106.5t-133 78.5q-56 25 -132 25q-31 0 -43 9q-16 13 -16 34q0 17 12.5 29.5t33.5 12.5q61 0 111.5 26t76 64.5t25.5 85.5q0 87 -64 151t-155 64q-94 0 -152.5 -55.5t-58.5 -124.5v-906h32 q30 0 43 -11.5t13 -30.5q0 -18 -13 -30t-43 -12h-229q-30 0 -43 12t-13 30z" />
<glyph unicode="&#xe0;" d="M144 231q0 155 150 238q121 66 289 66q120 0 273 -31v136q0 89 -88 135q-70 36 -168 36q-97 0 -275 -57q-31 -10 -41 -10q-39 0 -39 42q0 17 10 27q14 15 113 41q158 42 236 42q129 0 225 -62q112 -71 112 -194v-556h112q57 0 57 -42t-57 -42h-197v121 q-183 -154 -391 -154q-132 0 -221 64q-100 73 -100 200zM228 231q0 -91 74 -139q63 -41 159 -41q205 0 395 182v185q-115 33 -264 33q-182 0 -286 -79q-78 -59 -78 -141zM444 1286q0 43 43 43q15 0 38 -20l236 -204l22 -25q3 -5 3 -16q0 -43 -43 -43q-15 0 -38 20l-236 204 q-25 22 -25 41z" />
<glyph unicode="&#xe1;" d="M144 231q0 155 150 238q121 66 289 66q120 0 273 -31v136q0 89 -88 135q-70 36 -168 36q-97 0 -275 -57q-31 -10 -41 -10q-39 0 -39 42q0 17 10 27q14 15 113 41q158 42 236 42q129 0 225 -62q112 -71 112 -194v-556h112q57 0 57 -42t-57 -42h-197v121 q-183 -154 -391 -154q-132 0 -221 64q-100 73 -100 200zM228 231q0 -91 74 -139q63 -41 159 -41q205 0 395 182v185q-115 33 -264 33q-182 0 -286 -79q-78 -59 -78 -141zM443 1064q0 19 25 41l236 204q23 20 39 20q42 0 42 -43q0 -19 -25 -41l-237 -204q-23 -20 -38 -20 q-42 0 -42 43z" />
<glyph unicode="&#xe2;" d="M144 231q0 155 150 238q121 66 289 66q120 0 273 -31v136q0 89 -88 135q-70 36 -168 36q-97 0 -275 -57q-31 -10 -41 -10q-39 0 -39 42q0 17 10 27q14 15 113 41q158 42 236 42q129 0 225 -62q112 -71 112 -194v-556h112q57 0 57 -42t-57 -42h-197v121 q-183 -154 -391 -154q-132 0 -221 64q-100 73 -100 200zM228 231q0 -91 74 -139q63 -41 159 -41q205 0 395 182v185q-115 33 -264 33q-182 0 -286 -79q-78 -59 -78 -141zM316 1062q0 21 28 42l270 206l271 -206q18 -14 23 -22.5t5 -19.5q0 -18 -12.5 -30t-30.5 -12 q-13 0 -35 17l-221 169l-220 -169q-22 -17 -36 -17q-17 0 -29.5 12.5t-12.5 29.5z" />
<glyph unicode="&#xe3;" d="M144 231q0 155 150 238q121 66 289 66q120 0 273 -31v136q0 89 -88 135q-70 36 -168 36q-97 0 -275 -57q-31 -10 -41 -10q-39 0 -39 42q0 17 10 27q14 15 113 41q158 42 236 42q129 0 225 -62q112 -71 112 -194v-556h112q57 0 57 -42t-57 -42h-197v121 q-183 -154 -391 -154q-132 0 -221 64q-100 73 -100 200zM228 231q0 -91 74 -139q63 -41 159 -41q205 0 395 182v185q-115 33 -264 33q-182 0 -286 -79q-78 -59 -78 -141zM296 1082q0 26 51 66q78 59 136 59q30 0 61 -12.5t101 -60.5t102 -48q38 0 115 68q16 13 30 13 q17 0 29.5 -12t12.5 -27q0 -17 -13 -32q-40 -45 -95 -74q-38 -21 -79 -21q-64 0 -173 79q-58 43 -90 43q-40 0 -101 -56q-27 -25 -46 -25q-18 0 -29.5 12t-11.5 28z" />
<glyph unicode="&#xe4;" d="M144 231q0 155 150 238q121 66 289 66q120 0 273 -31v136q0 89 -88 135q-70 36 -168 36q-97 0 -275 -57q-31 -10 -41 -10q-39 0 -39 42q0 17 10 27q14 15 113 41q158 42 236 42q129 0 225 -62q112 -71 112 -194v-556h112q57 0 57 -42t-57 -42h-197v121 q-183 -154 -391 -154q-132 0 -221 64q-100 73 -100 200zM228 231q0 -91 74 -139q63 -41 159 -41q205 0 395 182v185q-115 33 -264 33q-182 0 -286 -79q-78 -59 -78 -141zM319 1147q0 34 23.5 58t57.5 24t58 -24t24 -58t-24 -57.5t-58 -23.5q-33 0 -57 24t-24 57zM748 1147 q0 34 23.5 58t57.5 24t58 -24t24 -58t-24 -57.5t-58 -23.5t-57.5 23.5t-23.5 57.5z" />
<glyph unicode="&#xe5;" d="M144 231q0 155 150 238q121 66 289 66q120 0 273 -31v136q0 89 -88 135q-70 36 -168 36q-97 0 -275 -57q-31 -10 -41 -10q-39 0 -39 42q0 17 10 27q14 15 113 41q158 42 236 42q129 0 225 -62q112 -71 112 -194v-556h112q57 0 57 -42t-57 -42h-197v121 q-183 -154 -391 -154q-132 0 -221 64q-100 73 -100 200zM228 231q0 -91 74 -139q63 -41 159 -41q205 0 395 182v185q-115 33 -264 33q-182 0 -286 -79q-78 -59 -78 -141zM433 1186q0 73 53 125.5t128 52.5t128 -52.5t53 -125.5t-53 -125.5t-128 -52.5t-128 52.5t-53 125.5z M493 1186q0 -48 35.5 -83t85.5 -35t85.5 34.5t35.5 83.5t-35.5 83.5t-85.5 34.5q-51 0 -86 -35t-35 -83z" />
<glyph unicode="&#xe6;" d="M16 300q0 55 29.5 95.5t115.5 80.5q125 58 234 58q45 0 90 -6.5t89 -19.5v125q0 70 -53 124t-114 54q-33 0 -86 -14.5t-103 -40.5q-26 -13 -37 -13q-16 0 -28.5 12.5t-12.5 28.5t14 31t105 48t153 33q69 0 134 -47.5t96 -130.5q55 91 105 128q65 50 136 50 q109 0 208.5 -126.5t100.5 -357.5h-534q15 -181 100 -286q61 -75 129 -75q89 0 231 116q18 15 33 15q18 0 29.5 -12t11.5 -30q0 -16 -13 -31q-48 -51 -152 -103q-79 -39 -139 -39q-61 0 -122 39.5t-108 119.5v-70q0 -30 -11.5 -43t-30.5 -13t-30.5 13t-11.5 43v45 q-71 -76 -127 -105t-119 -29q-80 0 -154 43t-116 125t-42 165zM100 293q0 -59 30.5 -119.5t84 -91.5t111.5 -31q53 0 100 30q64 40 148 148v191q-45 15 -88 22.5t-84 7.5q-141 0 -249 -72q-53 -34 -53 -85zM658 496h449q-20 156 -102 249q-58 66 -125 66q-63 0 -121 -67 q-80 -92 -101 -248z" />
<glyph unicode="&#xe7;" d="M171 425q0 204 133 337.5t337 133.5q193 0 324 -115v28q0 57 42 57q43 0 43 -57v-190q0 -57 -43 -57q-38 0 -42 50q-8 97 -125 153q-95 46 -204 46q-170 0 -275.5 -107t-105.5 -278q0 -167 108 -271t276 -104q226 0 383 152q21 20 37 20q40 0 40 -40q0 -43 -101 -109 q-163 -107 -363 -107q-202 0 -333 128t-131 330zM453 -258q0 30 30 30q10 0 23 -7q68 -38 125 -38q83 0 83 59q0 51 -76 51h-41v153q0 40 30 40t30 -40v-96q118 -17 118 -110q0 -57 -45 -89q-40 -28 -99 -28q-35 0 -89 15q-61 16 -79 37q-10 11 -10 23z" />
<glyph unicode="&#xe8;" d="M128 451q0 192 141 320q137 125 330 125q211 0 341.5 -136t128.5 -347h-856q22 -166 137 -264t283 -98q221 0 365 113q19 15 33 15q40 0 40 -42q0 -16 -16 -33q-61 -63 -198 -103q-119 -34 -224 -34q-210 0 -356 136q-149 139 -149 348zM214 498h770 q-25 142 -132.5 227.5t-252.5 85.5q-146 0 -252.5 -85t-132.5 -228zM444 1286q0 43 43 43q15 0 38 -20l236 -204l22 -25q3 -5 3 -16q0 -43 -43 -43q-15 0 -38 20l-236 204q-25 22 -25 41z" />
<glyph unicode="&#xe9;" d="M128 451q0 192 141 320q137 125 330 125q211 0 341.5 -136t128.5 -347h-856q22 -166 137 -264t283 -98q221 0 365 113q19 15 33 15q40 0 40 -42q0 -16 -16 -33q-61 -63 -198 -103q-119 -34 -224 -34q-210 0 -356 136q-149 139 -149 348zM214 498h770 q-25 142 -132.5 227.5t-252.5 85.5q-146 0 -252.5 -85t-132.5 -228zM443 1064q0 19 25 41l236 204q23 20 39 20q42 0 42 -43q0 -19 -25 -41l-237 -204q-23 -20 -38 -20q-42 0 -42 43z" />
<glyph unicode="&#xea;" d="M128 451q0 192 141 320q137 125 330 125q211 0 341.5 -136t128.5 -347h-856q22 -166 137 -264t283 -98q221 0 365 113q19 15 33 15q40 0 40 -42q0 -16 -16 -33q-61 -63 -198 -103q-119 -34 -224 -34q-210 0 -356 136q-149 139 -149 348zM214 498h770 q-25 142 -132.5 227.5t-252.5 85.5q-146 0 -252.5 -85t-132.5 -228zM316 1062q0 21 28 42l270 206l271 -206q18 -14 23 -22.5t5 -19.5q0 -18 -12.5 -30t-30.5 -12q-13 0 -35 17l-221 169l-220 -169q-22 -17 -36 -17q-17 0 -29.5 12.5t-12.5 29.5z" />
<glyph unicode="&#xeb;" d="M128 451q0 192 141 320q137 125 330 125q211 0 341.5 -136t128.5 -347h-856q22 -166 137 -264t283 -98q221 0 365 113q19 15 33 15q40 0 40 -42q0 -16 -16 -33q-61 -63 -198 -103q-119 -34 -224 -34q-210 0 -356 136q-149 139 -149 348zM214 498h770 q-25 142 -132.5 227.5t-252.5 85.5q-146 0 -252.5 -85t-132.5 -228zM319 1147q0 34 23.5 58t57.5 24t58 -24t24 -58t-24 -57.5t-58 -23.5q-33 0 -57 24t-24 57zM748 1147q0 34 23.5 58t57.5 24t58 -24t24 -58t-24 -57.5t-58 -23.5t-57.5 23.5t-23.5 57.5z" />
<glyph unicode="&#xec;" d="M189 42q0 42 56 42h330v697h-245q-57 0 -57 42q0 43 57 43h329v-782h330q57 0 57 -42t-57 -42h-744q-56 0 -56 42zM444 1286q0 43 43 43q15 0 38 -20l236 -204l22 -25q3 -5 3 -16q0 -43 -43 -43q-15 0 -38 20l-236 204q-25 22 -25 41z" />
<glyph unicode="&#xed;" d="M189 42q0 42 56 42h330v697h-245q-57 0 -57 42q0 43 57 43h329v-782h330q57 0 57 -42t-57 -42h-744q-56 0 -56 42zM443 1064q0 19 25 41l236 204q23 20 39 20q42 0 42 -43q0 -19 -25 -41l-237 -204q-23 -20 -38 -20q-42 0 -42 43z" />
<glyph unicode="&#xee;" d="M189 42q0 42 56 42h330v697h-245q-57 0 -57 42q0 43 57 43h329v-782h330q57 0 57 -42t-57 -42h-744q-56 0 -56 42zM316 1062q0 21 28 42l270 206l271 -206q18 -14 23 -22.5t5 -19.5q0 -18 -12.5 -30t-30.5 -12q-13 0 -35 17l-221 169l-220 -169q-22 -17 -36 -17 q-17 0 -29.5 12.5t-12.5 29.5z" />
<glyph unicode="&#xef;" d="M189 42q0 42 56 42h330v697h-245q-57 0 -57 42q0 43 57 43h329v-782h330q57 0 57 -42t-57 -42h-744q-56 0 -56 42zM319 1147q0 34 23.5 58t57.5 24t58 -24t24 -58t-24 -57.5t-58 -23.5q-33 0 -57 24t-24 57zM748 1147q0 34 23.5 58t57.5 24t58 -24t24 -58t-24 -57.5 t-58 -23.5t-57.5 23.5t-23.5 57.5z" />
<glyph unicode="&#xf0;" d="M129 430q0 183 132 313t327 130q95 0 177 -34t135 -80q36 -33 75 -95q-38 150 -87.5 229t-181.5 196q-321 -112 -341 -112q-19 0 -31 11t-12 27q0 15 15 28.5t104 40.5q140 42 180 51q-67 20 -138 29q-39 5 -53 17.5t-14 28.5t14 28t41 12q130 0 254 -77l159 58 q28 9 47 9q16 0 26.5 -11t10.5 -29q0 -19 -16 -30q-27 -20 -155 -47q137 -126 205 -272t68 -355q0 -258 -131.5 -392.5t-342.5 -134.5q-200 0 -333.5 135t-133.5 326zM211 424q0 -94 52.5 -185t147.5 -141t189 -50t187 47t142 133t49 190q0 157 -108.5 263.5t-272.5 106.5 q-167 0 -276.5 -107.5t-109.5 -256.5z" />
<glyph unicode="&#xf1;" d="M108 42q0 42 56 42h95v697h-71q-56 0 -56 43q0 42 56 42h155v-127q155 157 319 157q185 0 277 -140q45 -70 45 -143v-529h71q56 0 56 -42t-56 -42h-225q-57 0 -57 42t57 42h70v515q0 98 -72 157q-67 55 -167 55q-102 0 -181 -59q-46 -34 -137 -141v-527h95q56 0 56 -42 t-56 -42h-274q-56 0 -56 42zM296 1082q0 26 51 66q78 59 136 59q30 0 61 -12.5t101 -60.5t102 -48q38 0 115 68q16 13 30 13q17 0 29.5 -12t12.5 -27q0 -17 -13 -32q-40 -45 -95 -74q-38 -21 -79 -21q-64 0 -173 79q-58 43 -90 43q-40 0 -101 -56q-27 -25 -46 -25 q-18 0 -29.5 12t-11.5 28z" />
<glyph unicode="&#xf2;" d="M145 431q0 195 137.5 330t332.5 135t332 -135t137 -330q0 -194 -137 -329t-332 -135t-332.5 134.5t-137.5 329.5zM229 431q0 -159 113 -269.5t272 -110.5q160 0 272.5 110.5t112.5 269.5q0 160 -112.5 270t-272.5 110t-272.5 -110.5t-112.5 -269.5zM444 1286q0 43 43 43 q15 0 38 -20l236 -204l22 -25q3 -5 3 -16q0 -43 -43 -43q-15 0 -38 20l-236 204q-25 22 -25 41z" />
<glyph unicode="&#xf3;" d="M145 431q0 195 137.5 330t332.5 135t332 -135t137 -330q0 -194 -137 -329t-332 -135t-332.5 134.5t-137.5 329.5zM229 431q0 -159 113 -269.5t272 -110.5q160 0 272.5 110.5t112.5 269.5q0 160 -112.5 270t-272.5 110t-272.5 -110.5t-112.5 -269.5zM443 1064q0 19 25 41 l236 204q23 20 39 20q42 0 42 -43q0 -19 -25 -41l-237 -204q-23 -20 -38 -20q-42 0 -42 43z" />
<glyph unicode="&#xf4;" d="M145 431q0 195 137.5 330t332.5 135t332 -135t137 -330q0 -194 -137 -329t-332 -135t-332.5 134.5t-137.5 329.5zM229 431q0 -159 113 -269.5t272 -110.5q160 0 272.5 110.5t112.5 269.5q0 160 -112.5 270t-272.5 110t-272.5 -110.5t-112.5 -269.5zM316 1062q0 21 28 42 l270 206l271 -206q18 -14 23 -22.5t5 -19.5q0 -18 -12.5 -30t-30.5 -12q-13 0 -35 17l-221 169l-220 -169q-22 -17 -36 -17q-17 0 -29.5 12.5t-12.5 29.5z" />
<glyph unicode="&#xf5;" d="M145 431q0 195 137.5 330t332.5 135t332 -135t137 -330q0 -194 -137 -329t-332 -135t-332.5 134.5t-137.5 329.5zM229 431q0 -159 113 -269.5t272 -110.5q160 0 272.5 110.5t112.5 269.5q0 160 -112.5 270t-272.5 110t-272.5 -110.5t-112.5 -269.5zM296 1082q0 26 51 66 q78 59 136 59q30 0 61 -12.5t101 -60.5t102 -48q38 0 115 68q16 13 30 13q17 0 29.5 -12t12.5 -27q0 -17 -13 -32q-40 -45 -95 -74q-38 -21 -79 -21q-64 0 -173 79q-58 43 -90 43q-40 0 -101 -56q-27 -25 -46 -25q-18 0 -29.5 12t-11.5 28z" />
<glyph unicode="&#xf6;" d="M145 431q0 195 137.5 330t332.5 135t332 -135t137 -330q0 -194 -137 -329t-332 -135t-332.5 134.5t-137.5 329.5zM229 431q0 -159 113 -269.5t272 -110.5q160 0 272.5 110.5t112.5 269.5q0 160 -112.5 270t-272.5 110t-272.5 -110.5t-112.5 -269.5zM319 1147 q0 34 23.5 58t57.5 24t58 -24t24 -58t-24 -57.5t-58 -23.5q-33 0 -57 24t-24 57zM748 1147q0 34 23.5 58t57.5 24t58 -24t24 -58t-24 -57.5t-58 -23.5t-57.5 23.5t-23.5 57.5z" />
<glyph unicode="&#xf7;" d="M143 412v110h965v-110h-965zM516 145q0 45 32 77t77 32q44 0 76 -32t32 -77q0 -44 -32 -75t-76 -31q-45 0 -77 31t-32 75zM516 788q0 45 32 77t77 32q44 0 76 -32t32 -77q0 -44 -32 -75t-76 -31q-45 0 -77 31t-32 75z" />
<glyph unicode="&#xf8;" d="M112 -42q0 16 22 38l123 126q-123 133 -123 310q0 189 140.5 326.5t342.5 137.5q167 0 298 -99l125 128q22 22 40 22q17 0 29.5 -12t12.5 -31q0 -16 -22 -39l-122 -125q122 -132 122 -309q0 -190 -140.5 -327t-342.5 -137q-162 0 -297 99l-126 -129q-22 -23 -40 -23 t-30 12.5t-12 31.5zM219 431q0 -137 97 -248l539 553q-106 75 -238 75q-167 0 -282.5 -112.5t-115.5 -267.5zM379 127q106 -76 239 -76q167 0 282 112.5t115 267.5q0 141 -96 249z" />
<glyph unicode="&#xf9;" d="M91 824q0 42 56 42h197v-627q0 -81 51 -134.5t131 -53.5q205 0 376 188v542h-155q-56 0 -56 43q0 42 56 42h239v-782h71q56 0 56 -42t-56 -42h-155v123q-172 -156 -372 -156q-123 0 -187 67q-83 88 -83 205v542h-113q-56 0 -56 43zM444 1286q0 43 43 43q15 0 38 -20 l236 -204l22 -25q3 -5 3 -16q0 -43 -43 -43q-15 0 -38 20l-236 204q-25 22 -25 41z" />
<glyph unicode="&#xfa;" d="M91 824q0 42 56 42h197v-627q0 -81 51 -134.5t131 -53.5q205 0 376 188v542h-155q-56 0 -56 43q0 42 56 42h239v-782h71q56 0 56 -42t-56 -42h-155v123q-172 -156 -372 -156q-123 0 -187 67q-83 88 -83 205v542h-113q-56 0 -56 43zM443 1064q0 19 25 41l236 204 q23 20 39 20q42 0 42 -43q0 -19 -25 -41l-237 -204q-23 -20 -38 -20q-42 0 -42 43z" />
<glyph unicode="&#xfb;" d="M91 824q0 42 56 42h197v-627q0 -81 51 -134.5t131 -53.5q205 0 376 188v542h-155q-56 0 -56 43q0 42 56 42h239v-782h71q56 0 56 -42t-56 -42h-155v123q-172 -156 -372 -156q-123 0 -187 67q-83 88 -83 205v542h-113q-56 0 -56 43zM316 1062q0 21 28 42l270 206l271 -206 q18 -14 23 -22.5t5 -19.5q0 -18 -12.5 -30t-30.5 -12q-13 0 -35 17l-221 169l-220 -169q-22 -17 -36 -17q-17 0 -29.5 12.5t-12.5 29.5z" />
<glyph unicode="&#xfc;" d="M91 824q0 42 56 42h197v-627q0 -81 51 -134.5t131 -53.5q205 0 376 188v542h-155q-56 0 -56 43q0 42 56 42h239v-782h71q56 0 56 -42t-56 -42h-155v123q-172 -156 -372 -156q-123 0 -187 67q-83 88 -83 205v542h-113q-56 0 -56 43zM319 1147q0 34 23.5 58t57.5 24t58 -24 t24 -58t-24 -57.5t-58 -23.5q-33 0 -57 24t-24 57zM748 1147q0 34 23.5 58t57.5 24t58 -24t24 -58t-24 -57.5t-58 -23.5t-57.5 23.5t-23.5 57.5z" />
<glyph unicode="&#xfd;" d="M149 823q0 28 24 39q10 4 32 4h230q56 0 56 -43q0 -42 -56 -42h-113l343 -689l338 689h-113q-56 0 -56 43q0 42 56 42h229q57 0 57 -43q0 -29 -26 -38q-10 -4 -56 -4l-532 -1083h131q56 0 56 -42t-56 -42h-484q-56 0 -56 42t56 42h263l148 302l-390 781h-25q-56 0 -56 42 zM443 1064q0 19 25 41l236 204q23 20 39 20q42 0 42 -43q0 -19 -25 -41l-237 -204q-23 -20 -38 -20q-42 0 -42 43z" />
<glyph unicode="&#xfe;" d="M45 -344q0 19 13 30.5t43 11.5h113v1472h-113q-30 0 -43 12t-13 31q0 18 13 30t43 12h197v-542q75 91 161 137t203 46q124 0 229 -58t162.5 -161.5t57.5 -217.5q0 -181 -129.5 -309.5t-318.5 -128.5q-225 0 -365 183v-506h204q30 0 43 -11.5t13 -30.5q0 -18 -13 -30 t-43 -12h-401q-30 0 -43 11.5t-13 30.5zM298 459q0 -145 106 -249t259 -104q151 0 257 103.5t106 249.5q0 145 -105.5 248.5t-257.5 103.5q-153 0 -259 -104t-106 -248z" />
<glyph unicode="&#xff;" d="M149 823q0 28 24 39q10 4 32 4h230q56 0 56 -43q0 -42 -56 -42h-113l343 -689l338 689h-113q-56 0 -56 43q0 42 56 42h229q57 0 57 -43q0 -29 -26 -38q-10 -4 -56 -4l-532 -1083h131q56 0 56 -42t-56 -42h-484q-56 0 -56 42t56 42h263l148 302l-390 781h-25q-56 0 -56 42 zM319 1147q0 34 23.5 58t57.5 24t58 -24t24 -58t-24 -57.5t-58 -23.5q-33 0 -57 24t-24 57zM748 1147q0 34 23.5 58t57.5 24t58 -24t24 -58t-24 -57.5t-58 -23.5t-57.5 23.5t-23.5 57.5z" />
<glyph unicode="&#x152;" d="M17 582q0 108 28 211.5t72 165.5t126 122q62 45 125.5 67t158.5 22h644v-320q0 -30 -12 -43t-31 -13q-18 0 -30 13t-12 43v236h-388v-436h163v57q0 31 12 44t30 13q19 0 31 -13t12 -44l-1 -199q0 -30 -11.5 -43t-30.5 -13q-18 0 -30 13t-12 43v58h-163v-482h430v193 q0 30 11.5 43t30.5 13t30.5 -13t11.5 -43v-277h-669q-230 0 -378 157.5t-148 424.5zM101 581q0 -233 122.5 -365t322.5 -132h67v1002h-67q-122 0 -192 -35t-129.5 -98t-91.5 -158.5t-32 -213.5z" />
<glyph unicode="&#x153;" d="M18 439q0 208 113 347q91 111 204 111q77 0 155.5 -60t124.5 -178q103 238 268 238q110 0 208.5 -124t101.5 -360h-536q8 -115 50 -204t89.5 -123.5t94.5 -34.5q76 0 187 84q46 35 55.5 40t19.5 5q16 0 28.5 -12.5t12.5 -29.5q0 -19 -30 -44q-47 -40 -113 -76 q-92 -51 -162 -51q-76 0 -152 61t-122 186q-50 -129 -125 -188t-151 -59q-115 0 -204 112q-117 145 -117 360zM102 432q0 -178 79 -279.5t157 -101.5q79 0 157.5 101.5t78.5 279.5t-79 279.5t-157 101.5q-79 0 -157.5 -101.5t-78.5 -279.5zM658 498h449q-25 162 -102 249 q-59 66 -123 66t-122 -65q-77 -87 -102 -250z" />
<glyph unicode="&#x178;" d="M99 1128q0 42 56 42h231q56 0 56 -42t-56 -42h-83l314 -473l307 473h-82q-57 0 -57 42t57 42h230q56 0 56 -42t-56 -42h-50l-363 -558v-444h218q56 0 56 -42t-56 -42h-521q-56 0 -56 42t56 42h218v444l-369 558h-50q-56 0 -56 42zM319 1451q0 34 23.5 58t57.5 24t58 -24 t24 -58t-24 -57.5t-58 -23.5q-33 0 -57 24t-24 57zM748 1451q0 34 23.5 58t57.5 24t58 -24t24 -58t-24 -57.5t-58 -23.5t-57.5 23.5t-23.5 57.5z" />
<glyph unicode="&#x2c6;" d="M316 1062q0 21 28 42l270 206l271 -206q18 -14 23 -22.5t5 -19.5q0 -18 -12.5 -30t-30.5 -12q-13 0 -35 17l-221 169l-220 -169q-22 -17 -36 -17q-17 0 -29.5 12.5t-12.5 29.5z" />
<glyph unicode="&#x2dc;" d="M296 1082q0 26 51 66q78 59 136 59q30 0 61 -12.5t101 -60.5t102 -48q38 0 115 68q16 13 30 13q17 0 29.5 -12t12.5 -27q0 -17 -13 -32q-40 -45 -95 -74q-38 -21 -79 -21q-64 0 -173 79q-58 43 -90 43q-40 0 -101 -56q-27 -25 -46 -25q-18 0 -29.5 12t-11.5 28z" />
<glyph unicode="&#x2000;" horiz-adv-x="834" />
<glyph unicode="&#x2001;" horiz-adv-x="1668" />
<glyph unicode="&#x2002;" horiz-adv-x="834" />
<glyph unicode="&#x2003;" horiz-adv-x="1668" />
<glyph unicode="&#x2004;" horiz-adv-x="556" />
<glyph unicode="&#x2005;" horiz-adv-x="417" />
<glyph unicode="&#x2006;" horiz-adv-x="278" />
<glyph unicode="&#x2007;" horiz-adv-x="278" />
<glyph unicode="&#x2008;" horiz-adv-x="208" />
<glyph unicode="&#x2009;" horiz-adv-x="333" />
<glyph unicode="&#x200a;" horiz-adv-x="92" />
<glyph unicode="&#x2010;" d="M389 430v170h465v-170h-465z" />
<glyph unicode="&#x2011;" d="M389 430v170h465v-170h-465z" />
<glyph unicode="&#x2012;" d="M389 430v170h465v-170h-465z" />
<glyph unicode="&#x2013;" d="M145 585q0 42 56 42h827q56 0 56 -42t-56 -42h-827q-56 0 -56 42z" />
<glyph unicode="&#x2014;" d="M-15 586q0 43 56 43h1146q56 0 56 -43q0 -42 -56 -42h-1146q-56 0 -56 42z" />
<glyph unicode="&#x2018;" d="M509 1255h274l145 -520q3 -11 3 -23q0 -59 -61 -59q-36 0 -63 50z" />
<glyph unicode="&#x2019;" d="M293 713q0 11 3 22l146 520h273l-297 -552q-27 -50 -65 -50q-60 0 -60 60z" />
<glyph unicode="&#x201a;" d="M299 -264q0 11 3 22l146 519h273l-297 -551q-27 -51 -65 -51q-60 0 -60 61z" />
<glyph unicode="&#x201c;" d="M179 1255h218l171 -431q9 -23 9 -35q0 -51 -52 -51q-28 0 -53 40zM611 1255h218l171 -431q9 -23 9 -35q0 -51 -51 -51q-29 0 -54 40z" />
<glyph unicode="&#x201d;" d="M219 788q0 13 9 36l172 431h217l-293 -477q-25 -40 -54 -40q-51 0 -51 50zM651 788q0 11 10 36l171 431h217l-292 -477q-24 -40 -54 -40q-52 0 -52 50z" />
<glyph unicode="&#x201e;" d="M224 -210q0 13 9 36l172 430h217l-293 -476q-25 -40 -54 -40q-51 0 -51 50zM656 -210q0 11 10 36l171 430h217l-292 -476q-25 -40 -54 -40q-52 0 -52 50z" />
<glyph unicode="&#x2022;" d="M367 637q0 103 72 175t175 72t175.5 -72t72.5 -175t-72.5 -175.5t-175.5 -72.5t-175 72.5t-72 175.5z" />
<glyph unicode="&#x2026;" d="M101 73q0 43 30 72.5t73 29.5q42 0 72 -30t30 -72q0 -43 -29.5 -73t-72.5 -30t-73 30t-30 73zM511 73q0 42 30 72t72 30q43 0 73 -29.5t30 -72.5t-30 -73t-73 -30t-72.5 30t-29.5 73zM923 73q0 43 29.5 72.5t72.5 29.5t73 -29.5t30 -72.5t-30 -73t-73 -30t-72.5 30 t-29.5 73z" />
<glyph unicode="&#x202f;" horiz-adv-x="333" />
<glyph unicode="&#x2039;" d="M107 434l448 410q26 24 44 24q42 0 42 -43q0 -15 -23 -41l-313 -350l313 -349q23 -26 23 -42q0 -42 -42 -42q-19 0 -44 23z" />
<glyph unicode="&#x203a;" d="M596 43q0 17 22 42l313 349l-313 350q-22 25 -22 42q0 42 42 42q17 0 43 -24l449 -410l-449 -410q-25 -23 -43 -23q-42 0 -42 42z" />
<glyph unicode="&#x205f;" horiz-adv-x="417" />
<glyph unicode="&#x20ac;" d="M7 518q0 30 40 30h80v90h-80q-40 0 -40 30t40 30h84q10 209 154 354t344 145q208 0 358 -142v59q0 56 42 56t42 -56v-233q0 -57 -42 -57q-39 0 -42 51q-6 94 -115 166t-240 72q-111 0 -198.5 -52t-147.5 -145t-71 -218h583q42 0 42 -30t-42 -30h-586v-90h557q42 0 42 -30 t-42 -30h-554q8 -177 139.5 -307t311.5 -130q201 0 359 189q18 21 38 21q40 0 40 -39q0 -17 -34.5 -60.5t-99.5 -93.5t-141 -75.5t-160 -25.5q-148 0 -267 69t-194 185.5t-77 266.5h-83q-40 0 -40 30z" />
<glyph unicode="&#x2122;" d="M-65 1108v225h564v-225q0 -22 -12 -30q-6 -4 -13 -4q-26 0 -26 34v175h-206v-601h131q34 0 34 -26q0 -25 -34 -25h-312q-34 0 -34 25q0 26 34 26h131v601h-206v-175q0 -34 -26 -34q-25 0 -25 34zM497 656q0 26 35 26h43v601h-32q-35 0 -35 25t35 25h127l197 -435l193 435 h127q35 0 35 -25t-35 -25h-32v-601h43q35 0 35 -26q0 -25 -35 -25h-191q-35 0 -35 25q0 26 35 26h96v601h-11l-196 -442h-59l-200 442h-9v-601h95q35 0 35 -26q0 -25 -35 -25h-191q-35 0 -35 25z" />
<glyph unicode="&#x25fc;" horiz-adv-x="865" d="M0 0v865h865v-865h-865z" />
</font>
</defs>
</svg>
