<?xml version="1.0" encoding="UTF-8"?>
<svg width="18px" height="18px" viewBox="0 0 18 18" version="1.1" xmlns="http://www.w3.org/2000/svg" xmlns:xlink="http://www.w3.org/1999/xlink">
    <title>Backspace</title>
    <g id="页面-1" stroke="none" stroke-width="1" fill="none" fill-rule="evenodd">
        <g id="pc" transform="translate(-115.000000, -67.000000)">
            <g id="Backspace" transform="translate(115.000000, 67.000000)">
                <rect id="矩形" fill="#D8D8D8" opacity="0" x="0" y="0" width="18" height="18"></rect>
                <path d="M15,2 C15.5522847,2 16.0522847,2.22385763 16.4142136,2.58578644 C16.7761424,2.94771525 17,3.44771525 17,4 L17,4 L17,13 C17,13.5522847 16.7761424,14.0522847 16.4142136,14.4142136 C16.0522847,14.7761424 15.5522847,15 15,15 L15,15 L6.04086069,15 C5.35258784,15 4.71267147,14.6460963 4.34681536,14.0631136 L4.34681536,14.0631136 L1.49008949,9.51099105 C1.28429627,9.18306462 1.18239038,8.8104762 1.18415737,8.43838011 C1.18592436,8.06628401 1.29136424,7.69468023 1.50026258,7.36872306 L1.50026258,7.36872306 L4.3508035,2.92084557 C4.71853809,2.34704626 5.35315216,2 6.03467573,2 L6.03467573,2 Z" id="路径-6" stroke="#ad33ad" stroke-width="2"></path>
                <rect id="矩形" fill="#ad33ad" transform="translate(10.000000, 9.000000) rotate(45.000000) translate(-10.000000, -9.000000) " x="6" y="8" width="8" height="2" rx="1"></rect>
                <rect id="矩形" fill="#ad33ad" transform="translate(10.000000, 9.000000) scale(-1, 1) rotate(45.000000) translate(-10.000000, -9.000000) " x="6" y="8" width="8" height="2" rx="1"></rect>
            </g>
        </g>
    </g>
</svg>