<?xml version="1.0" encoding="UTF-8"?>
<svg width="18px" height="18px" viewBox="0 0 18 18" version="1.1" xmlns="http://www.w3.org/2000/svg" xmlns:xlink="http://www.w3.org/1999/xlink">
    <title>CF10</title>
    <g id="页面-1" stroke="none" stroke-width="1" fill="none" fill-rule="evenodd">
        <g id="画板" transform="translate(-303.000000, -36.000000)">
            <g id="CF10" transform="translate(303.000000, 36.000000)">
                <rect id="矩形" fill="#D8D8D8" opacity="0" x="0" y="0" width="18" height="18"></rect>
                <g transform="translate(1.473633, 0.719727)" fill="#ad33ad" fill-rule="nonzero">
                    <polygon id="路径" points="9.49023438 0.122070312 14.9589844 0.122070312 14.9589844 1.66015625 11.7119141 1.66015625 11.7119141 2.91015625 14.4853516 2.91015625 14.4853516 4.35546875 11.7119141 4.35546875 11.7119141 7.28027344 9.49023438 7.28027344"></polygon>
                    <path d="M5.33550347,9 L5.33550347,16.2802734 L3.32378472,16.2802734 L3.32378472,11.5097656 C2.99826389,11.7571615 2.68332248,11.9573568 2.3789605,12.1103516 C2.07459852,12.2633464 1.69292535,12.4098307 1.23394097,12.5498047 L1.23394097,10.9189453 C1.91102431,10.7008464 2.43674045,10.4388021 2.81108941,10.1328125 C3.18543837,9.82682292 3.47840712,9.44921875 3.68999566,9 L5.33550347,9 Z" id="路径"></path>
                    <path d="M8.93652344,12.671875 C8.93652344,11.3111979 9.18147786,10.3590495 9.67138672,9.81542969 C10.1612956,9.2718099 10.9075521,9 11.9101562,9 C12.3919271,9 12.7874349,9.05940755 13.0966797,9.17822266 C13.4059245,9.29703776 13.6582031,9.45166016 13.8535156,9.64208984 C14.0488281,9.83251953 14.2026367,10.0327148 14.3149414,10.2426758 C14.4272461,10.4526367 14.5175781,10.6975911 14.5859375,10.9775391 C14.719401,11.5113932 14.7861328,12.0680339 14.7861328,12.6474609 C14.7861328,13.9462891 14.5664062,14.8968099 14.1269531,15.4990234 C13.6875,16.101237 12.9306641,16.4023438 11.8564453,16.4023438 C11.2542318,16.4023438 10.7675781,16.3063151 10.3964844,16.1142578 C10.0253906,15.9222005 9.72102865,15.640625 9.48339844,15.2695312 C9.3108724,15.0058594 9.17659505,14.6453451 9.08056641,14.1879883 C8.98453776,13.7306315 8.93652344,13.2252604 8.93652344,12.671875 Z M10.9091797,12.6767578 C10.9091797,13.5882161 10.9897461,14.2107747 11.1508789,14.5444336 C11.3120117,14.8780924 11.5455729,15.0449219 11.8515625,15.0449219 C12.0533854,15.0449219 12.2283529,14.9741211 12.3764648,14.8325195 C12.5245768,14.690918 12.6336263,14.4671224 12.7036133,14.1611328 C12.7736003,13.8551432 12.8085938,13.3782552 12.8085938,12.7304688 C12.8085938,11.7799479 12.7280273,11.1411133 12.5668945,10.8139648 C12.4057617,10.4868164 12.1640625,10.3232422 11.8417969,10.3232422 C11.5130208,10.3232422 11.2753906,10.4900716 11.1289062,10.8237305 C10.9824219,11.1573893 10.9091797,11.7750651 10.9091797,12.6767578 Z" id="形状"></path>
                    <path d="M5.02441406,4.35546875 L6.96289062,4.94140625 C6.83268229,5.48502604 6.62760417,5.9391276 6.34765625,6.30371094 C6.06770833,6.66829427 5.72021484,6.94335938 5.30517578,7.12890625 C4.89013672,7.31445312 4.36197917,7.40722656 3.72070312,7.40722656 C2.94270833,7.40722656 2.30712891,7.29410807 1.81396484,7.06787109 C1.32080078,6.84163411 0.895182292,6.4436849 0.537109375,5.87402344 C0.179036458,5.30436198 0,4.57519531 0,3.68652344 C0,2.5016276 0.314941406,1.59098307 0.944824219,0.954589844 C1.57470703,0.318196615 2.46582031,0 3.61816406,0 C4.51985677,0 5.22867839,0.182291667 5.74462891,0.546875 C6.26057943,0.911458333 6.64388021,1.47135417 6.89453125,2.2265625 L4.94140625,2.66113281 C4.87304688,2.44303385 4.80143229,2.28352865 4.7265625,2.18261719 C4.60286458,2.01334635 4.4514974,1.88313802 4.27246094,1.79199219 C4.09342448,1.70084635 3.89322917,1.65527344 3.671875,1.65527344 C3.17057292,1.65527344 2.78645833,1.85709635 2.51953125,2.26074219 C2.31770833,2.56022135 2.21679688,3.03059896 2.21679688,3.671875 C2.21679688,4.46614583 2.33723958,5.01057943 2.578125,5.30517578 C2.81901042,5.59977214 3.15755208,5.74707031 3.59375,5.74707031 C4.01692708,5.74707031 4.3367513,5.62825521 4.55322266,5.390625 C4.76969401,5.15299479 4.92675781,4.80794271 5.02441406,4.35546875 Z" id="路径备份-9"></path>
                </g>
            </g>
        </g>
    </g>
</svg>