<?xml version="1.0" encoding="UTF-8"?>
<svg width="18px" height="18px" viewBox="0 0 18 18" version="1.1" xmlns="http://www.w3.org/2000/svg" xmlns:xlink="http://www.w3.org/1999/xlink">
    <title>CF12</title>
    <g id="页面-1" stroke="none" stroke-width="1" fill="none" fill-rule="evenodd">
        <g id="画板" transform="translate(-367.000000, -36.000000)">
            <g id="CF12" transform="translate(367.000000, 36.000000)">
                <rect id="矩形" fill="#D8D8D8" opacity="0" x="0" y="0" width="18" height="18"></rect>
                <g id="CF-12" transform="translate(1.473633, 0.719727)" fill="#ad33ad" fill-rule="nonzero">
                    <polygon id="路径" points="9.49023438 0.122070312 14.9589844 0.122070312 14.9589844 1.66015625 11.7119141 1.66015625 11.7119141 2.91015625 14.4853516 2.91015625 14.4853516 4.35546875 11.7119141 4.35546875 11.7119141 7.28027344 9.49023438 7.28027344"></polygon>
                    <path d="M13.7568359,16.2802734 L7.79003906,16.2802734 C7.85839844,15.6910807 8.06591797,15.1368815 8.41259766,14.6176758 C8.75927734,14.0984701 9.40950521,13.4856771 10.3632812,12.7792969 C10.9459635,12.3463542 11.3186849,12.0175781 11.4814453,11.7929688 C11.6442057,11.5683594 11.7255859,11.3551432 11.7255859,11.1533203 C11.7255859,10.9352214 11.6450195,10.7488607 11.4838867,10.5942383 C11.3227539,10.4396159 11.1201172,10.3623047 10.8759766,10.3623047 C10.6220703,10.3623047 10.4145508,10.4420573 10.253418,10.6015625 C10.0922852,10.7610677 9.98404948,11.0426432 9.92871094,11.4462891 L7.93652344,11.2851562 C8.01464844,10.7252604 8.1578776,10.2882487 8.36621094,9.97412109 C8.57454427,9.65999349 8.86832682,9.41910807 9.24755859,9.25146484 C9.62679036,9.08382161 10.1516927,9 10.8222656,9 C11.5221354,9 12.066569,9.0797526 12.4555664,9.23925781 C12.8445638,9.39876302 13.1505534,9.64371745 13.3735352,9.97412109 C13.5965169,10.3045247 13.7080078,10.6748047 13.7080078,11.0849609 C13.7080078,11.5211589 13.5802409,11.9378255 13.324707,12.3349609 C13.0691732,12.7320964 12.6044922,13.1682943 11.9306641,13.6435547 C11.5302734,13.9202474 11.2625326,14.1139323 11.1274414,14.2246094 C10.9923503,14.3352865 10.8336589,14.4801432 10.6513672,14.6591797 L13.7568359,14.6591797 L13.7568359,16.2802734 Z" id="路径"></path>
                    <path d="M4.33550347,9 L4.33550347,16.2802734 L2.32378472,16.2802734 L2.32378472,11.5097656 C1.99826389,11.7571615 1.68332248,11.9573568 1.3789605,12.1103516 C1.07459852,12.2633464 0.692925347,12.4098307 0.233940972,12.5498047 L0.233940972,10.9189453 C0.911024306,10.7008464 1.43674045,10.4388021 1.81108941,10.1328125 C2.18543837,9.82682292 2.47840712,9.44921875 2.68999566,9 L4.33550347,9 Z" id="路径"></path>
                    <path d="M5.02441406,4.35546875 L6.96289062,4.94140625 C6.83268229,5.48502604 6.62760417,5.9391276 6.34765625,6.30371094 C6.06770833,6.66829427 5.72021484,6.94335938 5.30517578,7.12890625 C4.89013672,7.31445312 4.36197917,7.40722656 3.72070312,7.40722656 C2.94270833,7.40722656 2.30712891,7.29410807 1.81396484,7.06787109 C1.32080078,6.84163411 0.895182292,6.4436849 0.537109375,5.87402344 C0.179036458,5.30436198 0,4.57519531 0,3.68652344 C0,2.5016276 0.314941406,1.59098307 0.944824219,0.954589844 C1.57470703,0.318196615 2.46582031,0 3.61816406,0 C4.51985677,0 5.22867839,0.182291667 5.74462891,0.546875 C6.26057943,0.911458333 6.64388021,1.47135417 6.89453125,2.2265625 L4.94140625,2.66113281 C4.87304688,2.44303385 4.80143229,2.28352865 4.7265625,2.18261719 C4.60286458,2.01334635 4.4514974,1.88313802 4.27246094,1.79199219 C4.09342448,1.70084635 3.89322917,1.65527344 3.671875,1.65527344 C3.17057292,1.65527344 2.78645833,1.85709635 2.51953125,2.26074219 C2.31770833,2.56022135 2.21679688,3.03059896 2.21679688,3.671875 C2.21679688,4.46614583 2.33723958,5.01057943 2.578125,5.30517578 C2.81901042,5.59977214 3.15755208,5.74707031 3.59375,5.74707031 C4.01692708,5.74707031 4.3367513,5.62825521 4.55322266,5.390625 C4.76969401,5.15299479 4.92675781,4.80794271 5.02441406,4.35546875 Z" id="路径备份-11"></path>
                </g>
            </g>
        </g>
    </g>
</svg>