<?xml version="1.0" encoding="UTF-8"?>
<svg width="18px" height="18px" viewBox="0 0 18 18" version="1.1" xmlns="http://www.w3.org/2000/svg" xmlns:xlink="http://www.w3.org/1999/xlink">
    <title>CF16</title>
    <g id="页面-1" stroke="none" stroke-width="1" fill="none" fill-rule="evenodd">
        <g id="画板" transform="translate(-498.000000, -36.000000)">
            <g id="CF16" transform="translate(498.000000, 36.000000)">
                <rect id="矩形" fill="#D8D8D8" opacity="0" x="0" y="0" width="18" height="18"></rect>
                <g id="CF-16" transform="translate(1.473633, 0.719727)" fill="#ad33ad" fill-rule="nonzero">
                    <polygon id="路径" points="9.49023438 0.122070312 14.9589844 0.122070312 14.9589844 1.66015625 11.7119141 1.66015625 11.7119141 2.91015625 14.4853516 2.91015625 14.4853516 4.35546875 11.7119141 4.35546875 11.7119141 7.28027344 9.49023438 7.28027344"></polygon>
                    <path d="M14.6933594,10.7333984 L12.7158203,10.9775391 C12.663737,10.7008464 12.5766602,10.5055339 12.4545898,10.3916016 C12.3325195,10.2776693 12.1819661,10.2207031 12.0029297,10.2207031 C11.6806641,10.2207031 11.430013,10.3834635 11.2509766,10.7089844 C11.1207682,10.9433594 11.0247396,11.4446615 10.9628906,12.2128906 C11.2005208,11.9720052 11.4446615,11.7937826 11.6953125,11.6782227 C11.9459635,11.5626628 12.2356771,11.5048828 12.5644531,11.5048828 C13.202474,11.5048828 13.7420247,11.7327474 14.1831055,12.1884766 C14.6241862,12.6442057 14.8447266,13.2220052 14.8447266,13.921875 C14.8447266,14.3938802 14.7332357,14.8251953 14.5102539,15.2158203 C14.2872721,15.6064453 13.9780273,15.9018555 13.5825195,16.1020508 C13.1870117,16.3022461 12.6914062,16.4023438 12.0957031,16.4023438 C11.3795573,16.4023438 10.805013,16.2802734 10.3720703,16.0361328 C9.9391276,15.7919922 9.59326172,15.402181 9.33447266,14.8666992 C9.07568359,14.3312174 8.94628906,13.6223958 8.94628906,12.7402344 C8.94628906,11.4479167 9.21809896,10.5014648 9.76171875,9.90087891 C10.3053385,9.30029297 11.0589193,9 12.0224609,9 C12.5921224,9 13.0421549,9.06591797 13.3725586,9.19775391 C13.7029622,9.32958984 13.9772135,9.52246094 14.1953125,9.77636719 C14.4134115,10.0302734 14.5794271,10.3492839 14.6933594,10.7333984 Z M11.03125,13.921875 C11.03125,14.3092448 11.1289062,14.612793 11.3242188,14.8325195 C11.5195312,15.0522461 11.7587891,15.1621094 12.0419922,15.1621094 C12.3024089,15.1621094 12.5205078,15.0628255 12.6962891,14.8642578 C12.8720703,14.6656901 12.9599609,14.3694661 12.9599609,13.9755859 C12.9599609,13.5719401 12.8688151,13.2643229 12.6865234,13.0527344 C12.5042318,12.8411458 12.2779948,12.7353516 12.0078125,12.7353516 C11.7311198,12.7353516 11.4991862,12.8378906 11.3120117,13.0429688 C11.1248372,13.2480469 11.03125,13.5410156 11.03125,13.921875 Z" id="形状"></path>
                    <path d="M5.33550347,9 L5.33550347,16.2802734 L3.32378472,16.2802734 L3.32378472,11.5097656 C2.99826389,11.7571615 2.68332248,11.9573568 2.3789605,12.1103516 C2.07459852,12.2633464 1.69292535,12.4098307 1.23394097,12.5498047 L1.23394097,10.9189453 C1.91102431,10.7008464 2.43674045,10.4388021 2.81108941,10.1328125 C3.18543837,9.82682292 3.47840712,9.44921875 3.68999566,9 L5.33550347,9 Z" id="路径"></path>
                    <path d="M5.02441406,4.35546875 L6.96289062,4.94140625 C6.83268229,5.48502604 6.62760417,5.9391276 6.34765625,6.30371094 C6.06770833,6.66829427 5.72021484,6.94335938 5.30517578,7.12890625 C4.89013672,7.31445312 4.36197917,7.40722656 3.72070312,7.40722656 C2.94270833,7.40722656 2.30712891,7.29410807 1.81396484,7.06787109 C1.32080078,6.84163411 0.895182292,6.4436849 0.537109375,5.87402344 C0.179036458,5.30436198 0,4.57519531 0,3.68652344 C0,2.5016276 0.314941406,1.59098307 0.944824219,0.954589844 C1.57470703,0.318196615 2.46582031,0 3.61816406,0 C4.51985677,0 5.22867839,0.182291667 5.74462891,0.546875 C6.26057943,0.911458333 6.64388021,1.47135417 6.89453125,2.2265625 L4.94140625,2.66113281 C4.87304688,2.44303385 4.80143229,2.28352865 4.7265625,2.18261719 C4.60286458,2.01334635 4.4514974,1.88313802 4.27246094,1.79199219 C4.09342448,1.70084635 3.89322917,1.65527344 3.671875,1.65527344 C3.17057292,1.65527344 2.78645833,1.85709635 2.51953125,2.26074219 C2.31770833,2.56022135 2.21679688,3.03059896 2.21679688,3.671875 C2.21679688,4.46614583 2.33723958,5.01057943 2.578125,5.30517578 C2.81901042,5.59977214 3.15755208,5.74707031 3.59375,5.74707031 C4.01692708,5.74707031 4.3367513,5.62825521 4.55322266,5.390625 C4.76969401,5.15299479 4.92675781,4.80794271 5.02441406,4.35546875 Z" id="路径备份-24"></path>
                </g>
            </g>
        </g>
    </g>
</svg>