<?xml version="1.0" encoding="UTF-8"?>
<svg width="18px" height="18px" viewBox="0 0 18 18" version="1.1" xmlns="http://www.w3.org/2000/svg" xmlns:xlink="http://www.w3.org/1999/xlink">
    <title>CF18</title>
    <g id="页面-1" stroke="none" stroke-width="1" fill="none" fill-rule="evenodd">
        <g id="画板" transform="translate(-556.000000, -36.000000)">
            <g id="CF18" transform="translate(556.000000, 36.000000)">
                <rect id="矩形" fill="#D8D8D8" opacity="0" x="0" y="0" width="18" height="18"></rect>
                <g id="CF-18" transform="translate(1.473633, 0.719727)" fill="#ad33ad" fill-rule="nonzero">
                    <polygon id="路径" points="9.49023438 0.122070312 14.9589844 0.122070312 14.9589844 1.66015625 11.7119141 1.66015625 11.7119141 2.91015625 14.4853516 2.91015625 14.4853516 4.35546875 11.7119141 4.35546875 11.7119141 7.28027344 9.49023438 7.28027344"></polygon>
                    <path d="M10.1328125,12.4326172 C9.8203125,12.2666016 9.59244792,12.0810547 9.44921875,11.8759766 C9.25390625,11.5960286 9.15625,11.273763 9.15625,10.9091797 C9.15625,10.3102214 9.43782552,9.8203125 10.0009766,9.43945312 C10.4404297,9.14648438 11.0214844,9 11.7441406,9 C12.7011719,9 13.4083659,9.18229167 13.8657227,9.546875 C14.3230794,9.91145833 14.5517578,10.3704427 14.5517578,10.9238281 C14.5517578,11.2460938 14.460612,11.5472005 14.2783203,11.8271484 C14.1416016,12.0354818 13.9267578,12.2373047 13.6337891,12.4326172 C14.0211589,12.6181641 14.3100586,12.8639323 14.5004883,13.1699219 C14.690918,13.4759115 14.7861328,13.8144531 14.7861328,14.1855469 C14.7861328,14.5436198 14.7039388,14.8780924 14.5395508,15.1889648 C14.3751628,15.4998372 14.1733398,15.7399089 13.934082,15.9091797 C13.6948242,16.0784505 13.3969727,16.2029622 13.0405273,16.2827148 C12.684082,16.3624674 12.3040365,16.4023438 11.9003906,16.4023438 C11.1419271,16.4023438 10.5625,16.3128255 10.1621094,16.1337891 C9.76171875,15.9547526 9.45735677,15.6910807 9.24902344,15.3427734 C9.0406901,14.9944661 8.93652344,14.6054688 8.93652344,14.1757812 C8.93652344,13.7558594 9.03417969,13.4002279 9.22949219,13.1088867 C9.42480469,12.8175456 9.72591146,12.5921224 10.1328125,12.4326172 Z M11.0263672,11.0263672 C11.0263672,11.273763 11.1036784,11.4731445 11.2583008,11.6245117 C11.4129232,11.7758789 11.6188151,11.8515625 11.8759766,11.8515625 C12.1038411,11.8515625 12.2910156,11.7766927 12.4375,11.6269531 C12.5839844,11.4772135 12.6572266,11.2835286 12.6572266,11.0458984 C12.6572266,10.7985026 12.5807292,10.5974935 12.4277344,10.4428711 C12.2747396,10.2882487 12.0794271,10.2109375 11.8417969,10.2109375 C11.6009115,10.2109375 11.4047852,10.2866211 11.253418,10.4379883 C11.1020508,10.5893555 11.0263672,10.7854818 11.0263672,11.0263672 Z M10.9189453,14.1074219 C10.9189453,14.4231771 11.014974,14.6811523 11.2070312,14.8813477 C11.3990885,15.081543 11.6188151,15.1816406 11.8662109,15.1816406 C12.1038411,15.1816406 12.3170573,15.0799154 12.5058594,14.8764648 C12.6946615,14.6730143 12.7890625,14.4150391 12.7890625,14.1025391 C12.7890625,13.7867839 12.6938477,13.5279948 12.503418,13.3261719 C12.3129883,13.124349 12.0924479,13.0234375 11.8417969,13.0234375 C11.594401,13.0234375 11.3787435,13.1210938 11.1948242,13.3164062 C11.0109049,13.5117188 10.9189453,13.7753906 10.9189453,14.1074219 Z" id="形状"></path>
                    <path d="M5.33550347,9 L5.33550347,16.2802734 L3.32378472,16.2802734 L3.32378472,11.5097656 C2.99826389,11.7571615 2.68332248,11.9573568 2.3789605,12.1103516 C2.07459852,12.2633464 1.69292535,12.4098307 1.23394097,12.5498047 L1.23394097,10.9189453 C1.91102431,10.7008464 2.43674045,10.4388021 2.81108941,10.1328125 C3.18543837,9.82682292 3.47840712,9.44921875 3.68999566,9 L5.33550347,9 Z" id="路径"></path>
                    <path d="M5.02441406,4.35546875 L6.96289062,4.94140625 C6.83268229,5.48502604 6.62760417,5.9391276 6.34765625,6.30371094 C6.06770833,6.66829427 5.72021484,6.94335938 5.30517578,7.12890625 C4.89013672,7.31445312 4.36197917,7.40722656 3.72070312,7.40722656 C2.94270833,7.40722656 2.30712891,7.29410807 1.81396484,7.06787109 C1.32080078,6.84163411 0.895182292,6.4436849 0.537109375,5.87402344 C0.179036458,5.30436198 0,4.57519531 0,3.68652344 C0,2.5016276 0.314941406,1.59098307 0.944824219,0.954589844 C1.57470703,0.318196615 2.46582031,0 3.61816406,0 C4.51985677,0 5.22867839,0.182291667 5.74462891,0.546875 C6.26057943,0.911458333 6.64388021,1.47135417 6.89453125,2.2265625 L4.94140625,2.66113281 C4.87304688,2.44303385 4.80143229,2.28352865 4.7265625,2.18261719 C4.60286458,2.01334635 4.4514974,1.88313802 4.27246094,1.79199219 C4.09342448,1.70084635 3.89322917,1.65527344 3.671875,1.65527344 C3.17057292,1.65527344 2.78645833,1.85709635 2.51953125,2.26074219 C2.31770833,2.56022135 2.21679688,3.03059896 2.21679688,3.671875 C2.21679688,4.46614583 2.33723958,5.01057943 2.578125,5.30517578 C2.81901042,5.59977214 3.15755208,5.74707031 3.59375,5.74707031 C4.01692708,5.74707031 4.3367513,5.62825521 4.55322266,5.390625 C4.76969401,5.15299479 4.92675781,4.80794271 5.02441406,4.35546875 Z" id="路径备份-22"></path>
                </g>
            </g>
        </g>
    </g>
</svg>