<?xml version="1.0" encoding="UTF-8"?>
<svg width="18px" height="18px" viewBox="0 0 18 18" version="1.1" xmlns="http://www.w3.org/2000/svg" xmlns:xlink="http://www.w3.org/1999/xlink">
    <title>CF20</title>
    <g id="页面-1" stroke="none" stroke-width="1" fill="none" fill-rule="evenodd">
        <g id="画板" transform="translate(-619.000000, -35.000000)">
            <g id="CF20" transform="translate(619.000000, 35.000000)">
                <rect id="矩形" fill="#D8D8D8" opacity="0" x="0" y="0" width="18" height="18"></rect>
                <g transform="translate(0.473633, 0.719727)" fill="#ad33ad" fill-rule="nonzero">
                    <polygon id="路径" points="10.4902344 0.122070312 15.9589844 0.122070312 15.9589844 1.66015625 12.7119141 1.66015625 12.7119141 2.91015625 15.4853516 2.91015625 15.4853516 4.35546875 12.7119141 4.35546875 12.7119141 7.28027344 10.4902344 7.28027344"></polygon>
                    <path d="M9.93652344,12.671875 C9.93652344,11.3111979 10.1814779,10.3590495 10.6713867,9.81542969 C11.1612956,9.2718099 11.9075521,9 12.9101562,9 C13.3919271,9 13.7874349,9.05940755 14.0966797,9.17822266 C14.4059245,9.29703776 14.6582031,9.45166016 14.8535156,9.64208984 C15.0488281,9.83251953 15.2026367,10.0327148 15.3149414,10.2426758 C15.4272461,10.4526367 15.5175781,10.6975911 15.5859375,10.9775391 C15.719401,11.5113932 15.7861328,12.0680339 15.7861328,12.6474609 C15.7861328,13.9462891 15.5664062,14.8968099 15.1269531,15.4990234 C14.6875,16.101237 13.9306641,16.4023438 12.8564453,16.4023438 C12.2542318,16.4023438 11.7675781,16.3063151 11.3964844,16.1142578 C11.0253906,15.9222005 10.7210286,15.640625 10.4833984,15.2695312 C10.3108724,15.0058594 10.1765951,14.6453451 10.0805664,14.1879883 C9.98453776,13.7306315 9.93652344,13.2252604 9.93652344,12.671875 Z M11.9091797,12.6767578 C11.9091797,13.5882161 11.9897461,14.2107747 12.1508789,14.5444336 C12.3120117,14.8780924 12.5455729,15.0449219 12.8515625,15.0449219 C13.0533854,15.0449219 13.2283529,14.9741211 13.3764648,14.8325195 C13.5245768,14.690918 13.6336263,14.4671224 13.7036133,14.1611328 C13.7736003,13.8551432 13.8085938,13.3782552 13.8085938,12.7304688 C13.8085938,11.7799479 13.7280273,11.1411133 13.5668945,10.8139648 C13.4057617,10.4868164 13.1640625,10.3232422 12.8417969,10.3232422 C12.5130208,10.3232422 12.2753906,10.4900716 12.1289062,10.8237305 C11.9824219,11.1573893 11.9091797,11.7750651 11.9091797,12.6767578 Z" id="形状"></path>
                    <path d="M6.75683594,16.2802734 L0.790039062,16.2802734 C0.858398438,15.6910807 1.06591797,15.1368815 1.41259766,14.6176758 C1.75927734,14.0984701 2.40950521,13.4856771 3.36328125,12.7792969 C3.94596354,12.3463542 4.3186849,12.0175781 4.48144531,11.7929688 C4.64420573,11.5683594 4.72558594,11.3551432 4.72558594,11.1533203 C4.72558594,10.9352214 4.64501953,10.7488607 4.48388672,10.5942383 C4.32275391,10.4396159 4.12011719,10.3623047 3.87597656,10.3623047 C3.62207031,10.3623047 3.41455078,10.4420573 3.25341797,10.6015625 C3.09228516,10.7610677 2.98404948,11.0426432 2.92871094,11.4462891 L0.936523438,11.2851562 C1.01464844,10.7252604 1.1578776,10.2882487 1.36621094,9.97412109 C1.57454427,9.65999349 1.86832682,9.41910807 2.24755859,9.25146484 C2.62679036,9.08382161 3.15169271,9 3.82226562,9 C4.52213542,9 5.06656901,9.0797526 5.45556641,9.23925781 C5.8445638,9.39876302 6.15055339,9.64371745 6.37353516,9.97412109 C6.59651693,10.3045247 6.70800781,10.6748047 6.70800781,11.0849609 C6.70800781,11.5211589 6.58024089,11.9378255 6.32470703,12.3349609 C6.06917318,12.7320964 5.60449219,13.1682943 4.93066406,13.6435547 C4.53027344,13.9202474 4.26253255,14.1139323 4.12744141,14.2246094 C3.99235026,14.3352865 3.83365885,14.4801432 3.65136719,14.6591797 L6.75683594,14.6591797 L6.75683594,16.2802734 Z" id="路径"></path>
                    <path d="M5.02441406,4.35546875 L6.96289062,4.94140625 C6.83268229,5.48502604 6.62760417,5.9391276 6.34765625,6.30371094 C6.06770833,6.66829427 5.72021484,6.94335938 5.30517578,7.12890625 C4.89013672,7.31445312 4.36197917,7.40722656 3.72070312,7.40722656 C2.94270833,7.40722656 2.30712891,7.29410807 1.81396484,7.06787109 C1.32080078,6.84163411 0.895182292,6.4436849 0.537109375,5.87402344 C0.179036458,5.30436198 0,4.57519531 0,3.68652344 C0,2.5016276 0.314941406,1.59098307 0.944824219,0.954589844 C1.57470703,0.318196615 2.46582031,0 3.61816406,0 C4.51985677,0 5.22867839,0.182291667 5.74462891,0.546875 C6.26057943,0.911458333 6.64388021,1.47135417 6.89453125,2.2265625 L4.94140625,2.66113281 C4.87304688,2.44303385 4.80143229,2.28352865 4.7265625,2.18261719 C4.60286458,2.01334635 4.4514974,1.88313802 4.27246094,1.79199219 C4.09342448,1.70084635 3.89322917,1.65527344 3.671875,1.65527344 C3.17057292,1.65527344 2.78645833,1.85709635 2.51953125,2.26074219 C2.31770833,2.56022135 2.21679688,3.03059896 2.21679688,3.671875 C2.21679688,4.46614583 2.33723958,5.01057943 2.578125,5.30517578 C2.81901042,5.59977214 3.15755208,5.74707031 3.59375,5.74707031 C4.01692708,5.74707031 4.3367513,5.62825521 4.55322266,5.390625 C4.76969401,5.15299479 4.92675781,4.80794271 5.02441406,4.35546875 Z" id="路径备份-20"></path>
                </g>
            </g>
        </g>
    </g>
</svg>