<?xml version="1.0" encoding="UTF-8"?>
<svg width="18px" height="18px" viewBox="0 0 18 18" version="1.1" xmlns="http://www.w3.org/2000/svg" xmlns:xlink="http://www.w3.org/1999/xlink">
    <title>CF24</title>
    <g id="页面-1" stroke="none" stroke-width="1" fill="none" fill-rule="evenodd">
        <g id="画板" transform="translate(-731.000000, -35.000000)">
            <g id="CF24" transform="translate(731.000000, 35.000000)">
                <rect id="矩形" fill="#D8D8D8" opacity="0" x="0" y="0" width="18" height="18"></rect>
                <g transform="translate(1.263672, 0.719727)" fill="#ad33ad" fill-rule="nonzero">
                    <polygon id="路径" points="9.70019531 0.122070312 15.1689453 0.122070312 15.1689453 1.66015625 11.921875 1.66015625 11.921875 2.91015625 14.6953125 2.91015625 14.6953125 4.35546875 11.921875 4.35546875 11.921875 7.28027344 9.70019531 7.28027344"></polygon>
                    <path d="M5.96679688,16.2802734 L0,16.2802734 C0.068359375,15.6910807 0.275878906,15.1368815 0.622558594,14.6176758 C0.969238281,14.0984701 1.61946615,13.4856771 2.57324219,12.7792969 C3.15592448,12.3463542 3.52864583,12.0175781 3.69140625,11.7929688 C3.85416667,11.5683594 3.93554687,11.3551432 3.93554687,11.1533203 C3.93554687,10.9352214 3.85498047,10.7488607 3.69384766,10.5942383 C3.53271484,10.4396159 3.33007812,10.3623047 3.0859375,10.3623047 C2.83203125,10.3623047 2.62451172,10.4420573 2.46337891,10.6015625 C2.30224609,10.7610677 2.19401042,11.0426432 2.13867188,11.4462891 L0.146484375,11.2851562 C0.224609375,10.7252604 0.367838542,10.2882487 0.576171875,9.97412109 C0.784505208,9.65999349 1.07828776,9.41910807 1.45751953,9.25146484 C1.8367513,9.08382161 2.36165365,9 3.03222656,9 C3.73209635,9 4.27652995,9.0797526 4.66552734,9.23925781 C5.05452474,9.39876302 5.36051432,9.64371745 5.58349609,9.97412109 C5.80647786,10.3045247 5.91796875,10.6748047 5.91796875,11.0849609 C5.91796875,11.5211589 5.79020182,11.9378255 5.53466797,12.3349609 C5.27913411,12.7320964 4.81445312,13.1682943 4.140625,13.6435547 C3.74023438,13.9202474 3.47249349,14.1139323 3.33740234,14.2246094 C3.2023112,14.3352865 3.04361979,14.4801432 2.86132812,14.6591797 L5.96679688,14.6591797 L5.96679688,16.2802734 Z" id="路径"></path>
                    <path d="M12.234375,14.9423828 L8.61132812,14.9423828 L8.61132812,13.3066406 L12.234375,9 L13.9677734,9 L13.9677734,13.3994141 L14.8662109,13.3994141 L14.8662109,14.9423828 L13.9677734,14.9423828 L13.9677734,16.2802734 L12.234375,16.2802734 L12.234375,14.9423828 Z M12.234375,13.3994141 L12.234375,11.1484375 L10.3203125,13.3994141 L12.234375,13.3994141 Z" id="形状"></path>
                    <path d="M5.234375,4.35546875 L7.17285156,4.94140625 C7.04264323,5.48502604 6.8375651,5.9391276 6.55761719,6.30371094 C6.27766927,6.66829427 5.93017578,6.94335938 5.51513672,7.12890625 C5.10009766,7.31445312 4.5719401,7.40722656 3.93066406,7.40722656 C3.15266927,7.40722656 2.51708984,7.29410807 2.02392578,7.06787109 C1.53076172,6.84163411 1.10514323,6.4436849 0.747070312,5.87402344 C0.388997396,5.30436198 0.209960938,4.57519531 0.209960938,3.68652344 C0.209960938,2.5016276 0.524902344,1.59098307 1.15478516,0.954589844 C1.78466797,0.318196615 2.67578125,0 3.828125,0 C4.72981771,0 5.43863932,0.182291667 5.95458984,0.546875 C6.47054036,0.911458333 6.85384115,1.47135417 7.10449219,2.2265625 L5.15136719,2.66113281 C5.08300781,2.44303385 5.01139323,2.28352865 4.93652344,2.18261719 C4.81282552,2.01334635 4.66145833,1.88313802 4.48242188,1.79199219 C4.30338542,1.70084635 4.1031901,1.65527344 3.88183594,1.65527344 C3.38053385,1.65527344 2.99641927,1.85709635 2.72949219,2.26074219 C2.52766927,2.56022135 2.42675781,3.03059896 2.42675781,3.671875 C2.42675781,4.46614583 2.54720052,5.01057943 2.78808594,5.30517578 C3.02897135,5.59977214 3.36751302,5.74707031 3.80371094,5.74707031 C4.22688802,5.74707031 4.54671224,5.62825521 4.76318359,5.390625 C4.97965495,5.15299479 5.13671875,4.80794271 5.234375,4.35546875 Z" id="路径备份-16"></path>
                </g>
            </g>
        </g>
    </g>
</svg>