<?xml version="1.0" encoding="UTF-8"?>
<svg width="18px" height="18px" viewBox="0 0 18 18" version="1.1" xmlns="http://www.w3.org/2000/svg" xmlns:xlink="http://www.w3.org/1999/xlink">
    <title>CF3</title>
    <g id="页面-1" stroke="none" stroke-width="1" fill="none" fill-rule="evenodd">
        <g id="画板" transform="translate(-92.000000, -37.000000)">
            <g id="CF3" transform="translate(92.000000, 37.000000)">
                <rect id="矩形" fill="#D8D8D8" opacity="0" x="0" y="0" width="18" height="18"></rect>
                <g id="CF-3" transform="translate(1.473633, 0.719727)" fill="#ad33ad" fill-rule="nonzero">
                    <polygon id="路径" points="9.49023438 0.122070312 14.9589844 0.122070312 14.9589844 1.66015625 11.7119141 1.66015625 11.7119141 2.91015625 14.4853516 2.91015625 14.4853516 4.35546875 11.7119141 4.35546875 11.7119141 7.28027344 9.49023438 7.28027344"></polygon>
                    <path d="M10.8652344,11.1923828 L8.98535156,10.8554688 C9.14160156,10.2565104 9.44189453,9.79752604 9.88623047,9.47851562 C10.3305664,9.15950521 10.9596354,9 11.7734375,9 C12.7076823,9 13.383138,9.17415365 13.7998047,9.52246094 C14.2164714,9.87076823 14.4248047,10.3085938 14.4248047,10.8359375 C14.4248047,11.1451823 14.3401693,11.4251302 14.1708984,11.6757812 C14.0016276,11.9264323 13.7460938,12.1461589 13.4042969,12.3349609 C13.6809896,12.4033203 13.8925781,12.4830729 14.0390625,12.5742188 C14.2766927,12.7207031 14.4614258,12.9135742 14.5932617,13.152832 C14.7250977,13.3920898 14.7910156,13.6777344 14.7910156,14.0097656 C14.7910156,14.4264323 14.6819661,14.8260091 14.4638672,15.2084961 C14.2457682,15.5909831 13.9316406,15.8855794 13.5214844,16.0922852 C13.1113281,16.2989909 12.5725911,16.4023438 11.9052734,16.4023438 C11.2542318,16.4023438 10.7407227,16.3258464 10.3647461,16.1728516 C9.98876953,16.0198568 9.67952474,15.7960612 9.43701172,15.5014648 C9.1944987,15.2068685 9.00813802,14.8365885 8.87792969,14.390625 L10.8652344,14.1269531 C10.9433594,14.5273438 11.0646159,14.8048503 11.2290039,14.9594727 C11.3933919,15.1140951 11.6025391,15.1914062 11.8564453,15.1914062 C12.1233724,15.1914062 12.3455404,15.09375 12.5229492,14.8984375 C12.7003581,14.703125 12.7890625,14.4427083 12.7890625,14.1171875 C12.7890625,13.7851562 12.7036133,13.5279948 12.5327148,13.3457031 C12.3618164,13.1634115 12.1298828,13.0722656 11.8369141,13.0722656 C11.6806641,13.0722656 11.4658203,13.1113281 11.1923828,13.1894531 L11.2949219,11.7685547 C11.405599,11.7848307 11.491862,11.7929688 11.5537109,11.7929688 C11.8141276,11.7929688 12.0314128,11.7099609 12.2055664,11.5439453 C12.3797201,11.3779297 12.4667969,11.1809896 12.4667969,10.953125 C12.4667969,10.735026 12.4016927,10.5608724 12.2714844,10.4306641 C12.141276,10.3004557 11.9622396,10.2353516 11.734375,10.2353516 C11.5,10.2353516 11.3095703,10.3061523 11.1630859,10.4477539 C11.0166016,10.5893555 10.9173177,10.8375651 10.8652344,11.1923828 Z" id="路径"></path>
                    <path d="M5.02441406,4.35546875 L6.96289062,4.94140625 C6.83268229,5.48502604 6.62760417,5.9391276 6.34765625,6.30371094 C6.06770833,6.66829427 5.72021484,6.94335938 5.30517578,7.12890625 C4.89013672,7.31445312 4.36197917,7.40722656 3.72070312,7.40722656 C2.94270833,7.40722656 2.30712891,7.29410807 1.81396484,7.06787109 C1.32080078,6.84163411 0.895182292,6.4436849 0.537109375,5.87402344 C0.179036458,5.30436198 0,4.57519531 0,3.68652344 C0,2.5016276 0.314941406,1.59098307 0.944824219,0.954589844 C1.57470703,0.318196615 2.46582031,0 3.61816406,0 C4.51985677,0 5.22867839,0.182291667 5.74462891,0.546875 C6.26057943,0.911458333 6.64388021,1.47135417 6.89453125,2.2265625 L4.94140625,2.66113281 C4.87304688,2.44303385 4.80143229,2.28352865 4.7265625,2.18261719 C4.60286458,2.01334635 4.4514974,1.88313802 4.27246094,1.79199219 C4.09342448,1.70084635 3.89322917,1.65527344 3.671875,1.65527344 C3.17057292,1.65527344 2.78645833,1.85709635 2.51953125,2.26074219 C2.31770833,2.56022135 2.21679688,3.03059896 2.21679688,3.671875 C2.21679688,4.46614583 2.33723958,5.01057943 2.578125,5.30517578 C2.81901042,5.59977214 3.15755208,5.74707031 3.59375,5.74707031 C4.01692708,5.74707031 4.3367513,5.62825521 4.55322266,5.390625 C4.76969401,5.15299479 4.92675781,4.80794271 5.02441406,4.35546875 Z" id="路径备份-2"></path>
                </g>
            </g>
        </g>
    </g>
</svg>