<?xml version="1.0" encoding="UTF-8"?>
<svg width="18px" height="18px" viewBox="0 0 18 18" version="1.1" xmlns="http://www.w3.org/2000/svg" xmlns:xlink="http://www.w3.org/1999/xlink">
    <title>Erase End of  Field</title>
    <g id="页面-1" stroke="none" stroke-width="1" fill="none" fill-rule="evenodd">
        <g id="pc" transform="translate(-315.000000, -66.000000)">
            <g id="Erase-End-of--Field" transform="translate(315.000000, 66.000000)">
                <g id="编组-15">
                    <rect id="矩形" fill="#D8D8D8" opacity="0" x="0" y="0" width="18" height="18"></rect>
                    <path d="M3.23199036,3.6169838 L1.15881217,8.6169838 C1.05713433,8.86220593 1.05713433,9.13779407 1.15881217,9.3830162 L3.23199036,14.3830162 C3.38685573,14.7565137 3.75140086,15 4.15573199,15 L13,15 C13.5522847,15 14,14.5522847 14,14 L14,4 C14,3.44771525 13.5522847,3 13,3 L4.15573199,3 C3.75140086,3 3.38685573,3.24348631 3.23199036,3.6169838 Z" id="路径-6" stroke="#ad33ad" stroke-width="2"></path>
                    <path d="M5.78571429,8.11904762 L10.8571429,8.19047619 C11.3277569,8.19710456 11.7076573,8.57700502 11.7142857,9.04761905 C11.7206779,9.50146415 11.3579456,9.8745602 10.9041005,9.88095238 C10.8963849,9.88106105 10.888668,9.88106105 10.8809524,9.88095238 L5.80952381,9.80952381 C5.33890978,9.80289544 4.95900932,9.42299498 4.95238095,8.95238095 C4.94598877,8.49853585 5.30872103,8.1254398 5.76256614,8.11904762 C5.7702818,8.11893895 5.77799862,8.11893895 5.78571429,8.11904762 Z" id="矩形" fill="#ad33ad" transform="translate(8.333333, 9.000000) rotate(45.000000) translate(-8.333333, -9.000000) "></path>
                    <path d="M5.78571429,8.11904762 L10.8571429,8.19047619 C11.3277569,8.19710456 11.7076573,8.57700502 11.7142857,9.04761905 C11.7206779,9.50146415 11.3579456,9.8745602 10.9041005,9.88095238 C10.8963849,9.88106105 10.888668,9.88106105 10.8809524,9.88095238 L5.80952381,9.80952381 C5.33890978,9.80289544 4.95900932,9.42299498 4.95238095,8.95238095 C4.94598877,8.49853585 5.30872103,8.1254398 5.76256614,8.11904762 C5.7702818,8.11893895 5.77799862,8.11893895 5.78571429,8.11904762 Z" id="矩形" fill="#ad33ad" transform="translate(8.333333, 9.000000) scale(-1, 1) rotate(45.000000) translate(-8.333333, -9.000000) "></path>
                </g>
                <rect id="矩形" fill="#ad33ad" x="16" y="2" width="2" height="14" rx="1"></rect>
            </g>
        </g>
    </g>
</svg>