<?xml version="1.0" encoding="UTF-8"?>
<svg width="18px" height="18px" viewBox="0 0 18 18" version="1.1" xmlns="http://www.w3.org/2000/svg" xmlns:xlink="http://www.w3.org/1999/xlink">
    <title>F13</title>
    <g id="页面-1" stroke="none" stroke-width="1" fill="none" fill-rule="evenodd">
        <g id="画板" transform="translate(-407.000000, -66.000000)">
            <g id="F13" transform="translate(407.000000, 66.000000)">
                <rect id="矩形" fill="#D8D8D8" opacity="0" x="0" y="0" width="18" height="18"></rect>
                <g transform="translate(2.707574, 0.841797)" fill="#ad33ad" fill-rule="nonzero" id="路径">
                    <polygon points="2.2562934 0 7.7250434 0 7.7250434 1.53808594 4.47797309 1.53808594 4.47797309 2.78808594 7.25141059 2.78808594 7.25141059 4.23339844 4.47797309 4.23339844 4.47797309 7.15820312 2.2562934 7.15820312"></polygon>
                    <path d="M9.6312934,11.0703125 L7.75141059,10.7333984 C7.90766059,10.1344401 8.20795356,9.67545573 8.6522895,9.35644531 C9.09662543,9.0374349 9.72569444,8.87792969 10.5394965,8.87792969 C11.4737413,8.87792969 12.149197,9.05208333 12.5658637,9.40039062 C12.9825304,9.74869792 13.1908637,10.1865234 13.1908637,10.7138672 C13.1908637,11.023112 13.1062283,11.3030599 12.9369575,11.5537109 C12.7676866,11.804362 12.5121528,12.0240885 12.1703559,12.2128906 C12.4470486,12.28125 12.6586372,12.3610026 12.8051215,12.4521484 C13.0427517,12.5986328 13.2274848,12.7915039 13.3593207,13.0307617 C13.4911567,13.2700195 13.5570747,13.5556641 13.5570747,13.8876953 C13.5570747,14.304362 13.4480252,14.7039388 13.2299262,15.0864258 C13.0118273,15.4689128 12.6976997,15.7635091 12.2875434,15.9702148 C11.8773872,16.1769206 11.3386502,16.2802734 10.6713325,16.2802734 C10.0202908,16.2802734 9.50678168,16.203776 9.13080512,16.0507812 C8.75482856,15.8977865 8.44558377,15.6739909 8.20307075,15.3793945 C7.96055773,15.0847982 7.77419705,14.7145182 7.64398872,14.2685547 L9.6312934,14.0048828 C9.7094184,14.4052734 9.83067491,14.6827799 9.99506293,14.8374023 C10.159451,14.9920247 10.3685981,15.0693359 10.6225043,15.0693359 C10.8894314,15.0693359 11.1115994,14.9716797 11.2890082,14.7763672 C11.4664171,14.5810547 11.5551215,14.320638 11.5551215,13.9951172 C11.5551215,13.6630859 11.4696723,13.4059245 11.2987739,13.2236328 C11.1278754,13.0413411 10.8959418,12.9501953 10.6029731,12.9501953 C10.4467231,12.9501953 10.2318793,12.9892578 9.95844184,13.0673828 L10.0609809,11.6464844 C10.171658,11.6627604 10.257921,11.6708984 10.31977,11.6708984 C10.5801866,11.6708984 10.7974718,11.5878906 10.9716254,11.421875 C11.1457791,11.2558594 11.2328559,11.0589193 11.2328559,10.8310547 C11.2328559,10.6129557 11.1677517,10.4388021 11.0375434,10.3085938 C10.9073351,10.1783854 10.7282986,10.1132812 10.500434,10.1132812 C10.266059,10.1132812 10.0756293,10.184082 9.92914497,10.3256836 C9.78266059,10.4672852 9.68337674,10.7154948 9.6312934,11.0703125 Z"></path>
                    <path d="M4.1015625,8.87792969 L4.1015625,16.1582031 L2.08984375,16.1582031 L2.08984375,11.3876953 C1.76432292,11.6350911 1.44938151,11.8352865 1.14501953,11.9882812 C0.840657552,12.141276 0.458984375,12.2877604 0,12.4277344 L0,10.796875 C0.677083333,10.578776 1.20279948,10.3167318 1.57714844,10.0107422 C1.9514974,9.7047526 2.24446615,9.32714844 2.45605469,8.87792969 L4.1015625,8.87792969 Z"></path>
                </g>
            </g>
        </g>
    </g>
</svg>