<?xml version="1.0" encoding="UTF-8"?>
<svg width="18px" height="18px" viewBox="0 0 18 18" version="1.1" xmlns="http://www.w3.org/2000/svg" xmlns:xlink="http://www.w3.org/1999/xlink">
    <title>F16</title>
    <g id="页面-1" stroke="none" stroke-width="1" fill="none" fill-rule="evenodd">
        <g id="画板" transform="translate(-498.000000, -66.000000)">
            <g id="F16" transform="translate(498.000000, 66.000000)">
                <rect id="矩形" fill="#D8D8D8" opacity="0" x="0" y="0" width="18" height="18"></rect>
                <g transform="translate(2.707574, 0.841797)" fill="#ad33ad" fill-rule="nonzero">
                    <polygon id="路径" points="2.2562934 0 7.7250434 0 7.7250434 1.53808594 4.47797309 1.53808594 4.47797309 2.78808594 7.25141059 2.78808594 7.25141059 4.23339844 4.47797309 4.23339844 4.47797309 7.15820312 2.2562934 7.15820312"></polygon>
                    <path d="M13.4594184,10.6113281 L11.4818793,10.8554688 C11.429796,10.578776 11.3427192,10.3834635 11.2206489,10.2695312 C11.0985786,10.155599 10.9480252,10.0986328 10.7689887,10.0986328 C10.4467231,10.0986328 10.196072,10.2613932 10.0170356,10.5869141 C9.88682726,10.8212891 9.79079861,11.3225911 9.72894965,12.0908203 C9.96657986,11.8499349 10.2107205,11.6717122 10.4613715,11.5561523 C10.7120226,11.4405924 11.0017361,11.3828125 11.3305122,11.3828125 C11.968533,11.3828125 12.5080838,11.6106771 12.9491645,12.0664062 C13.3902452,12.5221354 13.6107856,13.0999349 13.6107856,13.7998047 C13.6107856,14.2718099 13.4992947,14.703125 13.2763129,15.09375 C13.0533312,15.484375 12.7440864,15.7797852 12.3485786,15.9799805 C11.9530707,16.1801758 11.4574653,16.2802734 10.8617622,16.2802734 C10.1456163,16.2802734 9.57107205,16.1582031 9.13812934,15.9140625 C8.70518663,15.6699219 8.35932075,15.2801107 8.10053168,14.7446289 C7.84174262,14.2091471 7.71234809,13.5003255 7.71234809,12.6181641 C7.71234809,11.3258464 7.98415799,10.3793945 8.52777778,9.77880859 C9.07139757,9.17822266 9.8249783,8.87792969 10.78852,8.87792969 C11.3581814,8.87792969 11.808214,8.94384766 12.1386176,9.07568359 C12.4690213,9.20751953 12.7432726,9.40039062 12.9613715,9.65429688 C13.1794705,9.90820312 13.3454861,10.2272135 13.4594184,10.6113281 Z M9.79730903,13.7998047 C9.79730903,14.1871745 9.89496528,14.4907227 10.0902778,14.7104492 C10.2855903,14.9301758 10.5248481,15.0400391 10.8080512,15.0400391 C11.0684679,15.0400391 11.2865668,14.9407552 11.4623481,14.7421875 C11.6381293,14.5436198 11.72602,14.2473958 11.72602,13.8535156 C11.72602,13.4498698 11.6348741,13.1422526 11.4525825,12.9306641 C11.2702908,12.7190755 11.0440538,12.6132812 10.7738715,12.6132812 C10.4971788,12.6132812 10.2652452,12.7158203 10.0780707,12.9208984 C9.89089627,13.1259766 9.79730903,13.4189453 9.79730903,13.7998047 Z" id="形状"></path>
                    <path d="M4.1015625,8.87792969 L4.1015625,16.1582031 L2.08984375,16.1582031 L2.08984375,11.3876953 C1.76432292,11.6350911 1.44938151,11.8352865 1.14501953,11.9882812 C0.840657552,12.141276 0.458984375,12.2877604 0,12.4277344 L0,10.796875 C0.677083333,10.578776 1.20279948,10.3167318 1.57714844,10.0107422 C1.9514974,9.7047526 2.24446615,9.32714844 2.45605469,8.87792969 L4.1015625,8.87792969 Z" id="路径"></path>
                </g>
            </g>
        </g>
    </g>
</svg>