<?xml version="1.0" encoding="UTF-8"?>
<svg width="18px" height="18px" viewBox="0 0 18 18" version="1.1" xmlns="http://www.w3.org/2000/svg" xmlns:xlink="http://www.w3.org/1999/xlink">
    <title>F17</title>
    <g id="页面-1" stroke="none" stroke-width="1" fill="none" fill-rule="evenodd">
        <g id="画板" transform="translate(-527.000000, -66.000000)">
            <g id="F17" transform="translate(527.000000, 66.000000)">
                <rect id="矩形" fill="#D8D8D8" opacity="0" x="0" y="0" width="18" height="18"></rect>
                <g id="F1-7" transform="translate(2.707574, 0.841797)" fill="#ad33ad" fill-rule="nonzero">
                    <polygon id="路径" points="2.2562934 0 7.7250434 0 7.7250434 1.53808594 4.47797309 1.53808594 4.47797309 2.78808594 7.25141059 2.78808594 7.25141059 4.23339844 4.47797309 4.23339844 4.47797309 7.15820312 2.2562934 7.15820312"></polygon>
                    <path d="M7.73676215,9 L13.5424262,9 L13.5424262,10.3427734 C13.0378689,10.7985026 12.6163194,11.2916667 12.2777778,11.8222656 C11.8676215,12.4667969 11.5437283,13.1845703 11.3060981,13.9755859 C11.117296,14.5908203 10.9903429,15.3183594 10.9252387,16.1582031 L8.94281684,16.1582031 C9.09906684,14.9895833 9.34483507,14.0097656 9.68012153,13.21875 C10.015408,12.4277344 10.5460069,11.5813802 11.2719184,10.6796875 L7.73676215,10.6796875 L7.73676215,9 Z" id="路径"></path>
                    <path d="M4.1015625,8.87792969 L4.1015625,16.1582031 L2.08984375,16.1582031 L2.08984375,11.3876953 C1.76432292,11.6350911 1.44938151,11.8352865 1.14501953,11.9882812 C0.840657552,12.141276 0.458984375,12.2877604 0,12.4277344 L0,10.796875 C0.677083333,10.578776 1.20279948,10.3167318 1.57714844,10.0107422 C1.9514974,9.7047526 2.24446615,9.32714844 2.45605469,8.87792969 L4.1015625,8.87792969 Z" id="路径"></path>
                </g>
            </g>
        </g>
    </g>
</svg>