<?xml version="1.0" encoding="UTF-8"?>
<svg width="18px" height="18px" viewBox="0 0 18 18" version="1.1" xmlns="http://www.w3.org/2000/svg" xmlns:xlink="http://www.w3.org/1999/xlink">
    <title>F18</title>
    <g id="页面-1" stroke="none" stroke-width="1" fill="none" fill-rule="evenodd">
        <g id="画板" transform="translate(-556.000000, -66.000000)">
            <g id="F18" transform="translate(556.000000, 66.000000)">
                <rect id="矩形" fill="#D8D8D8" opacity="0" x="0" y="0" width="18" height="18"></rect>
                <g transform="translate(2.707574, 0.841797)" fill="#ad33ad" fill-rule="nonzero">
                    <polygon id="路径" points="2.2562934 0 7.7250434 0 7.7250434 1.53808594 4.47797309 1.53808594 4.47797309 2.78808594 7.25141059 2.78808594 7.25141059 4.23339844 4.47797309 4.23339844 4.47797309 7.15820312 2.2562934 7.15820312"></polygon>
                    <path d="M8.89887153,12.3105469 C8.58637153,12.1445312 8.35850694,11.9589844 8.21527778,11.7539062 C8.01996528,11.4739583 7.92230903,11.1516927 7.92230903,10.7871094 C7.92230903,10.188151 8.20388455,9.69824219 8.76703559,9.31738281 C9.20648872,9.02441406 9.7875434,8.87792969 10.5101997,8.87792969 C11.4672309,8.87792969 12.1744249,9.06022135 12.6317817,9.42480469 C13.0891385,9.78938802 13.3178168,10.2483724 13.3178168,10.8017578 C13.3178168,11.1240234 13.226671,11.4251302 13.0443793,11.7050781 C12.9076606,11.9134115 12.6928168,12.1152344 12.3998481,12.3105469 C12.7872179,12.4960938 13.0761176,12.741862 13.2665473,13.0478516 C13.456977,13.3538411 13.5521918,13.6923828 13.5521918,14.0634766 C13.5521918,14.4215495 13.4699978,14.7560221 13.3056098,15.0668945 C13.1412218,15.3777669 12.9393989,15.6178385 12.7001411,15.7871094 C12.4608832,15.9563802 12.1630317,16.0808919 11.8065864,16.1606445 C11.4501411,16.2403971 11.0700955,16.2802734 10.6664497,16.2802734 C9.90798611,16.2802734 9.32855903,16.1907552 8.9281684,16.0117188 C8.52777778,15.8326823 8.2234158,15.5690104 8.01508247,15.2207031 C7.80674913,14.8723958 7.70258247,14.4833984 7.70258247,14.0537109 C7.70258247,13.6337891 7.80023872,13.2781576 7.99555122,12.9868164 C8.19086372,12.6954753 8.49197049,12.4700521 8.89887153,12.3105469 Z M9.79242622,10.9042969 C9.79242622,11.1516927 9.86973741,11.3510742 10.0243598,11.5024414 C10.1789822,11.6538086 10.3848741,11.7294922 10.6420356,11.7294922 C10.8699002,11.7294922 11.0570747,11.6546224 11.203559,11.5048828 C11.3500434,11.3551432 11.4232856,11.1614583 11.4232856,10.9238281 C11.4232856,10.6764323 11.3467882,10.4754232 11.1937934,10.3208008 C11.0407986,10.1661784 10.8454861,10.0888672 10.6078559,10.0888672 C10.3669705,10.0888672 10.1708442,10.1645508 10.019477,10.315918 C9.86810981,10.4672852 9.79242622,10.6634115 9.79242622,10.9042969 Z M9.68500434,13.9853516 C9.68500434,14.3011068 9.78103299,14.559082 9.97309028,14.7592773 C10.1651476,14.9594727 10.3848741,15.0595703 10.63227,15.0595703 C10.8699002,15.0595703 11.0831163,14.9578451 11.2719184,14.7543945 C11.4607205,14.550944 11.5551215,14.2929688 11.5551215,13.9804688 C11.5551215,13.6647135 11.4599067,13.4059245 11.269477,13.2041016 C11.0790473,13.0022786 10.8585069,12.9013672 10.6078559,12.9013672 C10.3604601,12.9013672 10.1448025,12.9990234 9.96088325,13.1943359 C9.77696398,13.3896484 9.68500434,13.6533203 9.68500434,13.9853516 Z" id="形状"></path>
                    <path d="M4.1015625,8.87792969 L4.1015625,16.1582031 L2.08984375,16.1582031 L2.08984375,11.3876953 C1.76432292,11.6350911 1.44938151,11.8352865 1.14501953,11.9882812 C0.840657552,12.141276 0.458984375,12.2877604 0,12.4277344 L0,10.796875 C0.677083333,10.578776 1.20279948,10.3167318 1.57714844,10.0107422 C1.9514974,9.7047526 2.24446615,9.32714844 2.45605469,8.87792969 L4.1015625,8.87792969 Z" id="路径"></path>
                </g>
            </g>
        </g>
    </g>
</svg>