<?xml version="1.0" encoding="UTF-8"?>
<svg width="18px" height="18px" viewBox="0 0 18 18" version="1.1" xmlns="http://www.w3.org/2000/svg" xmlns:xlink="http://www.w3.org/1999/xlink">
    <title>F3</title>
    <g id="页面-1" stroke="none" stroke-width="1" fill="none" fill-rule="evenodd">
        <g id="画板" transform="translate(-92.000000, -67.000000)">
            <g id="F3" transform="translate(92.000000, 67.000000)">
                <rect id="矩形" fill="#D8D8D8" opacity="0" x="0" y="0" width="18" height="18"></rect>
                <g transform="translate(2.963867, 5.719727)" fill="#ad33ad" fill-rule="nonzero" id="路径">
                    <polygon points="0 0.122070312 5.46875 0.122070312 5.46875 1.66015625 2.22167969 1.66015625 2.22167969 2.91015625 4.99511719 2.91015625 4.99511719 4.35546875 2.22167969 4.35546875 2.22167969 7.28027344 0 7.28027344"></polygon>
                    <path d="M8.375,2.19238281 L6.49511719,1.85546875 C6.65136719,1.25651042 6.95166016,0.797526042 7.39599609,0.478515625 C7.84033203,0.159505208 8.46940104,0 9.28320312,0 C10.2174479,0 10.8929036,0.174153646 11.3095703,0.522460938 C11.726237,0.870768229 11.9345703,1.30859375 11.9345703,1.8359375 C11.9345703,2.14518229 11.8499349,2.42513021 11.6806641,2.67578125 C11.5113932,2.92643229 11.2558594,3.14615885 10.9140625,3.33496094 C11.1907552,3.40332031 11.4023438,3.48307292 11.5488281,3.57421875 C11.7864583,3.72070313 11.9711914,3.91357422 12.1030273,4.15283203 C12.2348633,4.39208984 12.3007812,4.67773438 12.3007812,5.00976562 C12.3007812,5.42643229 12.1917318,5.82600911 11.9736328,6.20849609 C11.7555339,6.59098307 11.4414062,6.88557943 11.03125,7.09228516 C10.6210938,7.29899089 10.0823568,7.40234375 9.41503906,7.40234375 C8.7639974,7.40234375 8.25048828,7.32584635 7.87451172,7.17285156 C7.49853516,7.01985677 7.18929036,6.7960612 6.94677734,6.50146484 C6.70426432,6.20686849 6.51790365,5.83658854 6.38769531,5.390625 L8.375,5.12695312 C8.453125,5.52734375 8.57438151,5.80485026 8.73876953,5.95947266 C8.90315755,6.11409505 9.11230469,6.19140625 9.36621094,6.19140625 C9.63313802,6.19140625 9.85530599,6.09375 10.0327148,5.8984375 C10.2101237,5.703125 10.2988281,5.44270833 10.2988281,5.1171875 C10.2988281,4.78515625 10.2133789,4.52799479 10.0424805,4.34570312 C9.87158203,4.16341146 9.63964844,4.07226562 9.34667969,4.07226562 C9.19042969,4.07226562 8.97558594,4.11132812 8.70214844,4.18945312 L8.8046875,2.76855469 C8.91536458,2.78483073 9.0016276,2.79296875 9.06347656,2.79296875 C9.32389323,2.79296875 9.54117839,2.70996094 9.71533203,2.54394531 C9.88948568,2.37792969 9.9765625,2.18098958 9.9765625,1.953125 C9.9765625,1.73502604 9.91145833,1.5608724 9.78125,1.43066406 C9.65104167,1.30045573 9.47200521,1.23535156 9.24414062,1.23535156 C9.00976562,1.23535156 8.81933594,1.30615234 8.67285156,1.44775391 C8.52636719,1.58935547 8.42708333,1.8375651 8.375,2.19238281 Z"></path>
                </g>
            </g>
        </g>
    </g>
</svg>