<?xml version="1.0" encoding="UTF-8"?>
<svg width="18px" height="18px" viewBox="0 0 18 18" version="1.1" xmlns="http://www.w3.org/2000/svg" xmlns:xlink="http://www.w3.org/1999/xlink">
    <title>F6</title>
    <g id="页面-1" stroke="none" stroke-width="1" fill="none" fill-rule="evenodd">
        <g id="画板" transform="translate(-183.000000, -67.000000)">
            <g id="F6" transform="translate(183.000000, 67.000000)">
                <rect id="矩形" fill="#D8D8D8" opacity="0" x="0" y="0" width="18" height="18"></rect>
                <g id="F-6" transform="translate(3.963867, 5.719727)" fill="#ad33ad" fill-rule="nonzero">
                    <polygon id="路径" points="0 0.122070312 5.46875 0.122070312 5.46875 1.66015625 2.22167969 1.66015625 2.22167969 2.91015625 4.99511719 2.91015625 4.99511719 4.35546875 2.22167969 4.35546875 2.22167969 7.28027344 0 7.28027344"></polygon>
                    <path d="M12.203125,1.73339844 L10.2255859,1.97753906 C10.1735026,1.70084635 10.0864258,1.50553385 9.96435547,1.39160156 C9.84228516,1.27766927 9.69173177,1.22070312 9.51269531,1.22070312 C9.19042969,1.22070312 8.93977865,1.38346354 8.76074219,1.70898438 C8.63053385,1.94335937 8.53450521,2.44466146 8.47265625,3.21289062 C8.71028646,2.97200521 8.95442708,2.79378255 9.20507812,2.67822266 C9.45572917,2.56266276 9.74544271,2.50488281 10.0742188,2.50488281 C10.7122396,2.50488281 11.2517904,2.7327474 11.6928711,3.18847656 C12.1339518,3.64420573 12.3544922,4.22200521 12.3544922,4.921875 C12.3544922,5.39388021 12.2430013,5.82519531 12.0200195,6.21582031 C11.7970378,6.60644531 11.487793,6.90185547 11.0922852,7.10205078 C10.6967773,7.30224609 10.2011719,7.40234375 9.60546875,7.40234375 C8.88932292,7.40234375 8.31477865,7.28027344 7.88183594,7.03613281 C7.44889323,6.79199219 7.10302734,6.40218099 6.84423828,5.86669922 C6.58544922,5.33121745 6.45605469,4.62239583 6.45605469,3.74023437 C6.45605469,2.44791667 6.72786458,1.50146484 7.27148438,0.900878906 C7.81510417,0.300292969 8.5686849,0 9.53222656,0 C10.101888,0 10.5519206,0.0659179688 10.8823242,0.197753906 C11.2127279,0.329589844 11.4869792,0.522460938 11.7050781,0.776367188 C11.9231771,1.03027344 12.0891927,1.34928385 12.203125,1.73339844 Z M8.54101562,4.921875 C8.54101562,5.30924479 8.63867188,5.61279297 8.83398438,5.83251953 C9.02929688,6.05224609 9.26855469,6.16210938 9.55175781,6.16210938 C9.81217448,6.16210938 10.0302734,6.06282552 10.2060547,5.86425781 C10.3818359,5.6656901 10.4697266,5.36946615 10.4697266,4.97558594 C10.4697266,4.5719401 10.3785807,4.26432292 10.1962891,4.05273438 C10.0139974,3.84114583 9.78776042,3.73535156 9.51757812,3.73535156 C9.24088542,3.73535156 9.00895182,3.83789062 8.82177734,4.04296875 C8.63460286,4.24804688 8.54101562,4.54101562 8.54101562,4.921875 Z" id="形状"></path>
                </g>
            </g>
        </g>
    </g>
</svg>