<?xml version="1.0" encoding="UTF-8"?>
<svg width="18px" height="18px" viewBox="0 0 18 18" version="1.1" xmlns="http://www.w3.org/2000/svg" xmlns:xlink="http://www.w3.org/1999/xlink">
    <title>F7</title>
    <g id="页面-1" stroke="none" stroke-width="1" fill="none" fill-rule="evenodd">
        <g id="画板" transform="translate(-212.000000, -67.000000)">
            <g id="F7" transform="translate(212.000000, 67.000000)">
                <rect id="矩形" fill="#D8D8D8" opacity="0" x="0" y="0" width="18" height="18"></rect>
                <g id="F-7" transform="translate(3.963867, 5.841797)" fill="#ad33ad" fill-rule="nonzero">
                    <polygon id="路径" points="0 0 5.46875 0 5.46875 1.53808594 2.22167969 1.53808594 2.22167969 2.78808594 4.99511719 2.78808594 4.99511719 4.23339844 2.22167969 4.23339844 2.22167969 7.15820312 0 7.15820312"></polygon>
                    <path d="M6.48046875,0 L12.2861328,0 L12.2861328,1.34277344 C11.7815755,1.7985026 11.360026,2.29166667 11.0214844,2.82226562 C10.6113281,3.46679688 10.2874349,4.18457031 10.0498047,4.97558594 C9.8610026,5.59082031 9.73404948,6.31835938 9.66894531,7.15820312 L7.68652344,7.15820312 C7.84277344,5.98958333 8.08854167,5.00976562 8.42382812,4.21875 C8.75911458,3.42773438 9.28971354,2.58138021 10.015625,1.6796875 L6.48046875,1.6796875 L6.48046875,0 Z" id="路径"></path>
                </g>
            </g>
        </g>
    </g>
</svg>