<?xml version="1.0" encoding="UTF-8"?>
<svg width="18px" height="18px" viewBox="0 0 18 18" version="1.1" xmlns="http://www.w3.org/2000/svg" xmlns:xlink="http://www.w3.org/1999/xlink">
    <title>F9</title>
    <g id="页面-1" stroke="none" stroke-width="1" fill="none" fill-rule="evenodd">
        <g id="画板" transform="translate(-274.000000, -66.000000)">
            <g id="F9" transform="translate(274.000000, 66.000000)">
                <rect id="矩形" fill="#D8D8D8" opacity="0" x="0" y="0" width="18" height="18"></rect>
                <g id="F-9" transform="translate(2.963867, 5.719727)" fill="#ad33ad" fill-rule="nonzero">
                    <polygon id="路径" points="0 0.122070312 5.46875 0.122070312 5.46875 1.66015625 2.22167969 1.66015625 2.22167969 2.91015625 4.99511719 2.91015625 4.99511719 4.35546875 2.22167969 4.35546875 2.22167969 7.28027344 0 7.28027344"></polygon>
                    <path d="M6.53417969,5.67382812 L8.51171875,5.42480469 C8.56380208,5.7014974 8.65169271,5.8968099 8.77539062,6.01074219 C8.89908854,6.12467448 9.05045573,6.18164062 9.22949219,6.18164062 C9.5485026,6.18164062 9.79752604,6.02050781 9.9765625,5.69824219 C10.1067708,5.46061198 10.2044271,4.95768229 10.2695312,4.18945312 C10.031901,4.43359375 9.78776042,4.61263021 9.53710938,4.7265625 C9.28645833,4.84049479 8.99674479,4.89746094 8.66796875,4.89746094 C8.02669271,4.89746094 7.48551432,4.66959635 7.04443359,4.21386719 C6.60335286,3.75813802 6.3828125,3.18196615 6.3828125,2.48535156 C6.3828125,2.01009115 6.49511719,1.57714844 6.71972656,1.18652344 C6.94433594,0.795898438 7.25358073,0.500488281 7.64746094,0.300292969 C8.04134115,0.100097656 8.53613281,0 9.13183594,0 C9.84798177,0 10.422526,0.122884115 10.8554688,0.368652344 C11.2884115,0.614420573 11.6342773,1.00504557 11.8930664,1.54052734 C12.1518555,2.07600911 12.28125,2.78320312 12.28125,3.66210938 C12.28125,4.95442708 12.0094401,5.90087891 11.4658203,6.50146484 C10.9222005,7.10205078 10.1686198,7.40234375 9.20507812,7.40234375 C8.63541667,7.40234375 8.18619792,7.33642578 7.85742188,7.20458984 C7.52864583,7.07275391 7.25520833,6.87988281 7.03710938,6.62597656 C6.81901042,6.37207031 6.65136719,6.0546875 6.53417969,5.67382812 Z M10.1962891,2.48046875 C10.1962891,2.09309896 10.0986328,1.78955078 9.90332031,1.56982422 C9.70800781,1.35009766 9.4703776,1.24023438 9.19042969,1.24023438 C8.92675781,1.24023438 8.70784505,1.33951823 8.53369141,1.53808594 C8.35953776,1.73665365 8.27246094,2.03450521 8.27246094,2.43164062 C8.27246094,2.83203125 8.36279297,3.13802083 8.54345703,3.34960938 C8.72412109,3.56119792 8.94954427,3.66699219 9.21972656,3.66699219 C9.49967448,3.66699219 9.73242188,3.56445312 9.91796875,3.359375 C10.1035156,3.15429688 10.1962891,2.86132812 10.1962891,2.48046875 Z" id="形状"></path>
                </g>
            </g>
        </g>
    </g>
</svg>