<?xml version="1.0" encoding="UTF-8"?>
<svg width="18px" height="18px" viewBox="0 0 18 18" version="1.1" xmlns="http://www.w3.org/2000/svg" xmlns:xlink="http://www.w3.org/1999/xlink">
    <title>field exit</title>
    <g id="页面-1" stroke="none" stroke-width="1" fill="none" fill-rule="evenodd">
        <g id="pc" transform="translate(-1626.000000, -501.000000)">
            <g id="field-exit" transform="translate(1626.000000, 501.000000)">
                <rect id="矩形" fill="#D8D8D8" fill-rule="nonzero" opacity="0" x="0" y="0" width="18" height="18"></rect>
                <path d="M5,11 L2,11 C1.44771525,11 1,10.5522847 1,10 L1,3 C1,2.44771525 1.44771525,2 2,2 L16,2 C16.5522847,2 17,2.44771525 17,3 L17,10 C17,10.5522847 16.5522847,11 16,11" id="路径" stroke="#ad33ad" stroke-width="2"></path>
                <rect id="矩形" stroke="#ad33ad" x="3.5" y="4.5" width="1" height="4"></rect>
                <path d="M14.3333271,12.6666623 L9.66666377,12.6666623 L9.66666377,11.33333 L14.3333271,11.33333 L13.6666638,9.99999759 L14.9999932,9.99999759 L16.3333256,11.9999976 L14.9999932,13.9999976 L13.6666638,13.9999976 L14.3333271,12.6666623 Z M14.7720823,8.2293322 L13.8287941,9.17226486 C13.0796283,8.42034385 12.0614254,7.99839628 10.9999961,7.99999903 C8.79093107,7.99999903 6.99999903,9.79093107 6.99999903,11.9999961 C6.99999903,14.2090612 8.79093107,15.9999932 10.9999961,15.9999932 C12.0748398,15.9999932 13.0807057,15.5751047 13.8266608,14.8302163 L14.7685268,15.7738601 C13.7695401,16.7738861 12.4135107,17.3350282 10.9999961,17.3333333 C8.05457605,17.3333333 5.66666667,14.9454162 5.66666667,11.9999961 C5.66666667,9.05457605 8.05457605,6.66666667 10.9999961,6.66666667 C12.4335951,6.66666667 13.7786608,7.23555514 14.7720823,8.2293322 Z" id="形状" stroke="#ad33ad" stroke-width="0.4" fill="#ad33ad" fill-rule="nonzero"></path>
            </g>
        </g>
    </g>
</svg>