<?xml version="1.0" encoding="UTF-8"?>
<svg width="17px" height="16px" viewBox="0 0 17 16" version="1.1" xmlns="http://www.w3.org/2000/svg" xmlns:xlink="http://www.w3.org/1999/xlink">
    <!-- Generator: Sketch 63.1 (92452) - https://sketch.com -->
    <title>编组</title>
    <desc>Created with Sketch.</desc>
    <g id="TE" stroke="none" stroke-width="1" fill="none" fill-rule="evenodd">
        <g id="pc" transform="translate(-1836.000000, -19.000000)" fill="#FFFFFF" fill-rule="nonzero">
            <g id="编组-23" transform="translate(1477.000000, 2.000000)">
                <g id="编组-9" transform="translate(152.000000, 17.000000)">
                    <g id="编组" transform="translate(207.285714, 0.000000)">
                        <path d="M7.99109679,15.9713908 C5.86037227,15.9713908 3.8571773,15.1416539 2.35054166,13.635 C0.843906018,12.1283644 0.014150875,10.1251877 0.014150875,7.99444491 C0.014150875,5.86373868 0.843906018,3.86052543 2.35054166,2.35388979 C3.85719557,0.847235857 5.86037227,0.017499 7.99109679,0.017499 C10.1218213,0.017499 12.1250163,0.847235875 13.6316519,2.35388979 C15.1383058,3.8605437 15.9680427,5.86373868 15.9680427,7.99444491 C15.9680427,10.1251877 15.1383058,12.1283644 13.6316519,13.635 C12.1250163,15.141654 10.1218213,15.9713908 7.99109679,15.9713908 Z M7.99109679,0.749327393 C3.99612766,0.749327393 0.745979268,3.99947579 0.745979268,7.99444491 C0.745979268,11.989414 3.99612766,15.2395624 7.99109679,15.2395624 C11.9860659,15.2395624 15.2362326,11.989414 15.2362326,7.99444491 C15.2362326,3.99947579 11.9860842,0.749327393 7.99109679,0.749327393 Z" id="形状"></path>
                        <path d="M7.94912296,12.713458 C7.62577648,12.713458 7.36437655,12.4513454 7.36437655,12.1279989 L7.36437655,6.93199725 C7.36437655,6.6086325 7.62577646,6.3465382 7.94912295,6.3465382 C8.27246943,6.3465382 8.53386934,6.60865077 8.53386934,6.93199725 L8.53386934,12.1279989 C8.53386934,12.4513454 8.27246945,12.713458 7.94912296,12.713458 Z" id="路径"></path>
                        <path d="M7.16565416,4.15105302 C7.16565416,4.43865649 7.31908877,4.70441307 7.56816068,4.84821481 C7.8172326,4.99201655 8.12410185,4.99201655 8.37317376,4.84821481 C8.62224568,4.70441307 8.77568029,4.43865649 8.77568029,4.15105302 C8.77568029,3.70645658 8.41526366,3.34603996 7.97066722,3.34603996 C7.52607079,3.34603996 7.16565416,3.70645658 7.16565416,4.15105302 L7.16565416,4.15105302 Z" id="路径"></path>
                    </g>
                </g>
            </g>
        </g>
    </g>
</svg>