<?xml version="1.0" encoding="UTF-8"?>
<svg width="16px" height="16px" viewBox="0 0 16 16" version="1.1" xmlns="http://www.w3.org/2000/svg" xmlns:xlink="http://www.w3.org/1999/xlink">
    <!-- Generator: Sketch 63.1 (92452) - https://sketch.com -->
    <title>形状</title>
    <desc>Created with Sketch.</desc>
    <g id="TE" stroke="none" stroke-width="1" fill="none" fill-rule="evenodd">
        <g id="pc" transform="translate(-1448.000000, -30.000000)" fill="#FFFFFF" fill-rule="nonzero">
            <g id="编组-23" transform="translate(1448.000000, 2.000000)">
                <g id="编组" transform="translate(0.000000, 28.000000)">
                    <path d="M6.0358029,7.40550098 L1.36969808,7.40550098 C0.61323472,7.40550098 0,6.79226626 0,6.0358029 L0,1.36969808 C0,0.61323472 0.61323472,0 1.36969808,0 L6.0358029,0 C6.39906942,0 6.74745748,0.144307062 7.0043257,0.401175281 C7.26119392,0.658043499 7.40550098,1.00643157 7.40550098,1.36969808 L7.40550098,6.0358029 C7.40550098,6.79226626 6.79226626,7.40550098 6.0358029,7.40550098 Z M1.36969808,0.913132051 C1.11754363,0.913132051 0.913132051,1.11754363 0.913132051,1.36969808 L0.913132051,6.0358029 C0.913132051,6.28795736 1.11754363,6.49236893 1.36969808,6.49236893 L6.0358029,6.49236893 C6.28795736,6.49236893 6.49236893,6.28795736 6.49236893,6.0358029 L6.49236893,1.36969808 C6.49236893,1.11754363 6.28795736,0.913132051 6.0358029,0.913132051 L1.36969808,0.913132051 Z M14.5142341,7.40550098 L9.84812925,7.40550098 C9.48486273,7.40550098 9.13647466,7.26119393 8.87960644,7.00432571 C8.62273821,6.74745749 8.47843115,6.39906942 8.47843115,6.0358029 L8.47843115,1.36969808 C8.47843115,1.00643156 8.62273821,0.658043494 8.87960644,0.401175275 C9.13647466,0.144307057 9.48486273,0 9.84812925,0 L14.5142341,0 C15.2706974,0 15.8839321,0.61323472 15.8839321,1.36969808 L15.8839321,6.0358029 C15.8839321,6.79226626 15.2706974,7.40550098 14.5142341,7.40550098 Z M9.84812925,0.913132051 C9.59597479,0.913132051 9.39156322,1.11754363 9.39156322,1.36969808 L9.39156322,6.0358029 C9.39156322,6.28795736 9.59597479,6.49236893 9.84812925,6.49236893 L14.5142341,6.49236893 C14.7663885,6.49236893 14.9708001,6.28795735 14.9708001,6.0358029 L14.9708001,1.36969808 C14.9708001,1.11754363 14.7663885,0.913132051 14.5142341,0.913132051 L9.84812925,0.913132051 Z M14.5142341,15.7195684 L9.84812925,15.7195684 C9.48486273,15.7195684 9.13647466,15.5752613 8.87960644,15.3183931 C8.62273821,15.0615249 8.47843115,14.7131368 8.47843115,14.3498703 L8.47843115,9.68376547 C8.47843115,9.32049895 8.62273821,8.97211088 8.87960644,8.71524266 C9.13647466,8.45837444 9.48486273,8.31406738 9.84812925,8.31406738 L14.5142341,8.31406738 C15.2706974,8.31406738 15.8839321,8.9273021 15.8839321,9.68376547 L15.8839321,14.3498703 C15.8839321,15.1063337 15.2706974,15.7195684 14.5142341,15.7195684 Z M9.84812925,9.22719945 C9.5959748,9.22719945 9.39156322,9.43161101 9.39156322,9.68376547 L9.39156322,14.3498703 C9.39156322,14.6020247 9.5959748,14.8064363 9.84812925,14.8064363 L14.5142341,14.8064363 C14.7663885,14.8064363 14.9708001,14.6020247 14.9708001,14.3498703 L14.9708001,9.68376547 C14.9708001,9.43161102 14.7663885,9.22719945 14.5142341,9.22719945 L9.84812925,9.22719945 Z M6.0358029,15.7834876 L1.36969808,15.7834876 C0.61323472,15.7834876 0,15.1702529 0,14.4137895 L0,9.74768472 C0,8.99122136 0.61323472,8.37798664 1.36969808,8.37798664 L6.0358029,8.37798664 C6.79226626,8.37798664 7.40550098,8.99122136 7.40550098,9.74768472 L7.40550098,14.4137895 C7.40550098,15.1702529 6.79226626,15.7834876 6.0358029,15.7834876 Z M1.36969808,9.29111869 C1.11754363,9.29111869 0.913132051,9.49553026 0.913132051,9.74768472 L0.913132051,14.4137895 C0.913132051,14.665944 1.11754363,14.8703556 1.36969808,14.8703556 L6.0358029,14.8703556 C6.28795736,14.8703556 6.49236893,14.665944 6.49236893,14.4137895 L6.49236893,9.74768472 C6.49236893,9.49553026 6.28795736,9.29111869 6.0358029,9.29111869 L1.36969808,9.29111869 Z" id="形状"></path>
                </g>
            </g>
        </g>
    </g>
</svg>