<?xml version="1.0" encoding="UTF-8"?>
<svg width="18px" height="18px" viewBox="0 0 18 18" version="1.1" xmlns="http://www.w3.org/2000/svg" xmlns:xlink="http://www.w3.org/1999/xlink">
    <title>number key</title>
    <g id="页面-1" stroke="none" stroke-width="1" fill="none" fill-rule="evenodd">
        <g id="pc" transform="translate(-748.000000, -219.000000)">
            <g id="number-key" transform="translate(748.000000, 219.000000)">
                <rect id="矩形" fill="#D8D8D8" opacity="0" x="0" y="0" width="18" height="18"></rect>
                <g id="1-2-3" transform="translate(1.320000, 0.320000)" fill="#ad33ad" fill-rule="nonzero" stroke="#ad33ad" stroke-width="0.4">
                    <polygon id="路径" points="0.408 5.68 0.408 4.824 1.944 4.824 1.944 0.856 1.872 0.856 0.656 2.296 0 1.744 1.384 0.096 2.976 0.096 2.976 4.824 4.256 4.824 4.256 5.68"></polygon>
                    <path d="M9.936,5.68 L6.064,5.68 L6.064,4.704 L7.816,3.168 C8.11466667,2.90666667 8.33333333,2.67066667 8.472,2.46 C8.61066667,2.24933333 8.68,2.02133333 8.68,1.776 L8.68,1.672 C8.68,1.42666667 8.6,1.23866667 8.44,1.108 C8.28,0.977333333 8.08533333,0.912 7.856,0.912 C7.568,0.912 7.34933333,0.993333333 7.2,1.156 C7.05066667,1.31866667 6.944,1.51466667 6.88,1.744 L5.968,1.392 C6.02666667,1.20533333 6.10933333,1.028 6.216,0.86 C6.32266667,0.692 6.45733333,0.544 6.62,0.416 C6.78266667,0.288 6.97333333,0.186666667 7.192,0.112 C7.41066667,0.0373333333 7.66133333,0 7.944,0 C8.23733333,0 8.49866667,0.0413333333 8.728,0.124 C8.95733333,0.206666667 9.15066667,0.322666667 9.308,0.472 C9.46533333,0.621333333 9.58533333,0.797333333 9.668,1 C9.75066667,1.20266667 9.792,1.424 9.792,1.664 C9.792,1.89866667 9.75466667,2.112 9.68,2.304 C9.60533333,2.496 9.504,2.67866667 9.376,2.852 C9.248,3.02533333 9.09866667,3.19066667 8.928,3.348 C8.75733333,3.50533333 8.576,3.664 8.384,3.824 L7.208,4.792 L9.936,4.792 L9.936,5.68 Z" id="路径"></path>
                    <path d="M13.552,2.352 C13.872,2.352 14.108,2.28666667 14.26,2.156 C14.412,2.02533333 14.488,1.85866667 14.488,1.656 L14.488,1.6 C14.488,1.37066667 14.4146667,1.19066667 14.268,1.06 C14.1213333,0.929333333 13.92,0.864 13.664,0.864 C13.4186667,0.864 13.2013333,0.922666667 13.012,1.04 C12.8226667,1.15733333 12.6586667,1.32266667 12.52,1.536 L11.848,0.928 C11.944,0.8 12.0493333,0.678666667 12.164,0.564 C12.2786667,0.449333333 12.4106667,0.350666667 12.56,0.268 C12.7093333,0.185333333 12.8773333,0.12 13.064,0.072 C13.2506667,0.024 13.4613333,0 13.696,0 C13.9786667,0 14.236,0.0333333333 14.468,0.1 C14.7,0.166666667 14.9,0.264 15.068,0.392 C15.236,0.52 15.3653333,0.673333333 15.456,0.852 C15.5466667,1.03066667 15.592,1.232 15.592,1.456 C15.592,1.63733333 15.564,1.8 15.508,1.944 C15.452,2.088 15.3746667,2.21333333 15.276,2.32 C15.1773333,2.42666667 15.0626667,2.51333333 14.932,2.58 C14.8013333,2.64666667 14.664,2.696 14.52,2.728 L14.52,2.776 C14.68,2.808 14.832,2.85866667 14.976,2.928 C15.12,2.99733333 15.244,3.08933333 15.348,3.204 C15.452,3.31866667 15.5346667,3.45333333 15.596,3.608 C15.6573333,3.76266667 15.688,3.93866667 15.688,4.136 C15.688,4.38133333 15.6386667,4.60533333 15.54,4.808 C15.4413333,5.01066667 15.3013333,5.184 15.12,5.328 C14.9386667,5.472 14.7226667,5.58266667 14.472,5.66 C14.2213333,5.73733333 13.9413333,5.776 13.632,5.776 C13.36,5.776 13.12,5.748 12.912,5.692 C12.704,5.636 12.5213333,5.56 12.364,5.464 C12.2066667,5.368 12.0693333,5.25733333 11.952,5.132 C11.8346667,5.00666667 11.7333333,4.87466667 11.648,4.736 L12.424,4.144 C12.488,4.256 12.5573333,4.35866667 12.632,4.452 C12.7066667,4.54533333 12.792,4.62666667 12.888,4.696 C12.984,4.76533333 13.0933333,4.81866667 13.216,4.856 C13.3386667,4.89333333 13.4773333,4.912 13.632,4.912 C13.9413333,4.912 14.1786667,4.83733333 14.344,4.688 C14.5093333,4.53866667 14.592,4.33333333 14.592,4.072 L14.592,4.016 C14.592,3.76 14.5026667,3.56533333 14.324,3.432 C14.1453333,3.29866667 13.888,3.232 13.552,3.232 L13,3.232 L13,2.352 L13.552,2.352 Z" id="路径"></path>
                </g>
                <circle id="椭圆形" stroke="#ad33ad" stroke-width="1.4" cx="3.5" cy="9.5" r="1.8"></circle>
                <circle id="椭圆形" stroke="#ad33ad" stroke-width="1.4" cx="9.5" cy="9.5" r="1.8"></circle>
                <circle id="椭圆形" stroke="#ad33ad" stroke-width="1.4" cx="15.5" cy="9.5" r="1.8"></circle>
                <circle id="椭圆形" stroke="#ad33ad" stroke-width="1.4" cx="3.5" cy="15.5" r="1.8"></circle>
                <circle id="椭圆形" stroke="#ad33ad" stroke-width="1.4" cx="9.5" cy="15.5" r="1.8"></circle>
                <circle id="椭圆形" stroke="#ad33ad" stroke-width="1.4" cx="15.5" cy="15.5" r="1.8"></circle>
            </g>
        </g>
    </g>
</svg>