<?xml version="1.0" encoding="UTF-8"?>
<svg width="18px" height="18px" viewBox="0 0 18 18" version="1.1" xmlns="http://www.w3.org/2000/svg" xmlns:xlink="http://www.w3.org/1999/xlink">
    <title>PA1 2</title>
    <g id="页面-1" stroke="none" stroke-width="1" fill="none" fill-rule="evenodd">
        <g id="画板" transform="translate(-79.000000, -98.000000)">
            <g id="PA1" transform="translate(79.000000, 98.000000)">
                <rect id="矩形" fill="#D8D8D8" opacity="0" x="0" y="0" width="18" height="18"></rect>
                <g id="PA-1" transform="translate(1.722656, 0.841797)" fill="#ad33ad" fill-rule="nonzero">
                    <path d="M0,0 L3.67675781,0 C4.47753906,0 5.0773112,0.190429688 5.47607422,0.571289062 C5.87483724,0.952148438 6.07421875,1.49414062 6.07421875,2.19726562 C6.07421875,2.91992188 5.85693359,3.48470052 5.42236328,3.89160156 C4.98779297,4.2985026 4.32454427,4.50195312 3.43261719,4.50195312 L2.22167969,4.50195312 L2.22167969,7.15820312 L0,7.15820312 L0,0 Z M2.22167969,3.05175781 L2.76367188,3.05175781 C3.19010417,3.05175781 3.48958333,2.97770182 3.66210938,2.82958984 C3.83463542,2.68147786 3.92089844,2.49186198 3.92089844,2.26074219 C3.92089844,2.03613281 3.84602865,1.84570312 3.69628906,1.68945312 C3.54654948,1.53320312 3.26497396,1.45507812 2.8515625,1.45507812 L2.22167969,1.45507812 L2.22167969,3.05175781 Z" id="形状"></path>
                    <path d="M11.7861328,5.9765625 L9.26660156,5.9765625 L8.91992188,7.15820312 L6.65917969,7.15820312 L9.34960938,0 L11.7617188,0 L14.4521484,7.15820312 L12.1376953,7.15820312 L11.7861328,5.9765625 Z M11.3222656,4.42871094 L10.53125,1.85546875 L9.74511719,4.42871094 L11.3222656,4.42871094 Z" id="形状"></path>
                    <path d="M9.61621094,11.0703125 L7.73632812,10.7333984 C7.89257812,10.1344401 8.19287109,9.67545573 8.63720703,9.35644531 C9.08154297,9.0374349 9.71061198,8.87792969 10.5244141,8.87792969 C11.4586589,8.87792969 12.1341146,9.05208333 12.5507812,9.40039062 C12.9674479,9.74869792 13.1757812,10.1865234 13.1757812,10.7138672 C13.1757812,11.023112 13.0911458,11.3030599 12.921875,11.5537109 C12.7526042,11.804362 12.4970703,12.0240885 12.1552734,12.2128906 C12.4319661,12.28125 12.6435547,12.3610026 12.7900391,12.4521484 C13.0276693,12.5986328 13.2124023,12.7915039 13.3442383,13.0307617 C13.4760742,13.2700195 13.5419922,13.5556641 13.5419922,13.8876953 C13.5419922,14.304362 13.4329427,14.7039388 13.2148438,15.0864258 C12.9967448,15.4689128 12.6826172,15.7635091 12.2724609,15.9702148 C11.8623047,16.1769206 11.3235677,16.2802734 10.65625,16.2802734 C10.0052083,16.2802734 9.49169922,16.203776 9.11572266,16.0507812 C8.73974609,15.8977865 8.4305013,15.6739909 8.18798828,15.3793945 C7.94547526,15.0847982 7.75911458,14.7145182 7.62890625,14.2685547 L9.61621094,14.0048828 C9.69433594,14.4052734 9.81559245,14.6827799 9.97998047,14.8374023 C10.1443685,14.9920247 10.3535156,15.0693359 10.6074219,15.0693359 C10.874349,15.0693359 11.0965169,14.9716797 11.2739258,14.7763672 C11.4513346,14.5810547 11.5400391,14.320638 11.5400391,13.9951172 C11.5400391,13.6630859 11.4545898,13.4059245 11.2836914,13.2236328 C11.112793,13.0413411 10.8808594,12.9501953 10.5878906,12.9501953 C10.4316406,12.9501953 10.2167969,12.9892578 9.94335938,13.0673828 L10.0458984,11.6464844 C10.1565755,11.6627604 10.2428385,11.6708984 10.3046875,11.6708984 C10.5651042,11.6708984 10.7823893,11.5878906 10.956543,11.421875 C11.1306966,11.2558594 11.2177734,11.0589193 11.2177734,10.8310547 C11.2177734,10.6129557 11.1526693,10.4388021 11.0224609,10.3085938 C10.8922526,10.1783854 10.7132161,10.1132812 10.4853516,10.1132812 C10.2509766,10.1132812 10.0605469,10.184082 9.9140625,10.3256836 C9.76757812,10.4672852 9.66829427,10.7154948 9.61621094,11.0703125 Z" id="路径"></path>
                </g>
            </g>
        </g>
    </g>
</svg>