<?xml version="1.0" encoding="UTF-8"?>
<svg width="18px" height="18px" viewBox="0 0 18 18" version="1.1" xmlns="http://www.w3.org/2000/svg" xmlns:xlink="http://www.w3.org/1999/xlink">
    <title>page up</title>
    <g id="页面-1" stroke="none" stroke-width="1" fill="none" fill-rule="evenodd">
        <g id="pc" transform="translate(-829.000000, -220.000000)">
            <g id="page-up" transform="translate(829.000000, 220.000000)">
                <rect id="矩形" fill="#D8D8D8" opacity="0" x="0" y="0" width="18" height="18"></rect>
                <path d="M8.64644661,-2.35355339 C9.13807119,-2.5 9.26307119,-2.44403559 9.35355339,-2.35355339 C9.44403559,-2.26307119 9.5,-2.13807119 9.5,-2 L9.5,-2 L9.5,11 C9.5,11.1380712 9.44403559,11.2630712 9.35355339,11.3535534 C9.26307119,11.4440356 9.13807119,11.5 9,11.5 C8.86192881,11.5 8.73692881,11.4440356 8.64644661,11.3535534 C8.55596441,11.2630712 8.5,11.1380712 8.5,11 L8.5,11 L8.5,-2 C8.5,-2.13807119 8.55596441,-2.26307119 8.64644661,-2.35355339 Z" id="矩形" stroke="#ad33ad" transform="translate(9.000000, 4.500000) rotate(90.000000) translate(-9.000000, -4.500000) "></path>
                <polyline id="路径-5" stroke="#ad33ad" stroke-width="2" stroke-linecap="round" transform="translate(9.250000, 12.250000) scale(-1, 1) rotate(90.000000) translate(-9.250000, -12.250000) " points="12.25 7.25 6.25 12.25 12.25 17.25"></polyline>
            </g>
        </g>
    </g>
</svg>