<?xml version="1.0" encoding="UTF-8"?>
<svg width="18px" height="18px" viewBox="0 0 18 18" version="1.1" xmlns="http://www.w3.org/2000/svg" xmlns:xlink="http://www.w3.org/1999/xlink">
    <title>PF12</title>
    <g id="页面-1" stroke="none" stroke-width="1" fill="none" fill-rule="evenodd">
        <g id="画板" transform="translate(-367.000000, -7.000000)">
            <g id="PF12" transform="translate(367.000000, 7.000000)">
                <rect id="矩形" fill="#D8D8D8" opacity="0" x="0" y="0" width="18" height="18"></rect>
                <g id="PF-12" transform="translate(1.707574, 0.841797)" fill="#ad33ad" fill-rule="nonzero">
                    <path d="M0.0150824653,0 L3.69184028,0 C4.49262153,0 5.09239366,0.190429688 5.49115668,0.571289062 C5.8899197,0.952148438 6.08930122,1.49414062 6.08930122,2.19726562 C6.08930122,2.91992188 5.87201606,3.48470052 5.43744575,3.89160156 C5.00287543,4.2985026 4.33962674,4.50195312 3.44769965,4.50195312 L2.23676215,4.50195312 L2.23676215,7.15820312 L0.0150824653,7.15820312 L0.0150824653,0 Z M2.23676215,3.05175781 L2.77875434,3.05175781 C3.20518663,3.05175781 3.5046658,2.97770182 3.67719184,2.82958984 C3.84971788,2.68147786 3.9359809,2.49186198 3.9359809,2.26074219 C3.9359809,2.03613281 3.86111111,1.84570312 3.71137153,1.68945312 C3.56163194,1.53320312 3.28005642,1.45507812 2.86664497,1.45507812 L2.23676215,1.45507812 L2.23676215,3.05175781 Z" id="形状"></path>
                    <polygon id="路径" points="9.2562934 0 14.7250434 0 14.7250434 1.53808594 11.4779731 1.53808594 11.4779731 2.78808594 14.2514106 2.78808594 14.2514106 4.23339844 11.4779731 4.23339844 11.4779731 7.15820312 9.2562934 7.15820312"></polygon>
                    <path d="M13.522895,16.1582031 L7.55609809,16.1582031 C7.62445747,15.5690104 7.831977,15.0148112 8.17865668,14.4956055 C8.52533637,13.9763997 9.17556424,13.3636068 10.1293403,12.6572266 C10.7120226,12.2242839 11.0847439,11.8955078 11.2475043,11.6708984 C11.4102648,11.4462891 11.491645,11.2330729 11.491645,11.03125 C11.491645,10.813151 11.4110786,10.6267904 11.2499457,10.472168 C11.0888129,10.3175456 10.8861762,10.2402344 10.6420356,10.2402344 C10.3881293,10.2402344 10.1806098,10.319987 10.019477,10.4794922 C9.85834418,10.6389974 9.75010851,10.9205729 9.69476997,11.3242188 L7.70258247,11.1630859 C7.78070747,10.6031901 7.92393663,10.1661784 8.13226997,9.85205078 C8.3406033,9.53792318 8.63438585,9.29703776 9.01361762,9.12939453 C9.39284939,8.9617513 9.91775174,8.87792969 10.5883247,8.87792969 C11.2881944,8.87792969 11.832628,8.95768229 12.2216254,9.1171875 C12.6106228,9.27669271 12.9166124,9.52164714 13.1395942,9.85205078 C13.362576,10.1824544 13.4740668,10.5527344 13.4740668,10.9628906 C13.4740668,11.3990885 13.3462999,11.8157552 13.0907661,12.2128906 C12.8352322,12.610026 12.3705512,13.046224 11.6967231,13.5214844 C11.2963325,13.7981771 11.0285916,13.991862 10.8935004,14.1025391 C10.7584093,14.2132161 10.5997179,14.3580729 10.4174262,14.5371094 L13.522895,14.5371094 L13.522895,16.1582031 Z" id="路径"></path>
                    <path d="M4.1015625,8.87792969 L4.1015625,16.1582031 L2.08984375,16.1582031 L2.08984375,11.3876953 C1.76432292,11.6350911 1.44938151,11.8352865 1.14501953,11.9882812 C0.840657552,12.141276 0.458984375,12.2877604 0,12.4277344 L0,10.796875 C0.677083333,10.578776 1.20279948,10.3167318 1.57714844,10.0107422 C1.9514974,9.7047526 2.24446615,9.32714844 2.45605469,8.87792969 L4.1015625,8.87792969 Z" id="路径"></path>
                </g>
            </g>
        </g>
    </g>
</svg>