<?xml version="1.0" encoding="UTF-8"?>
<svg width="18px" height="18px" viewBox="0 0 18 18" version="1.1" xmlns="http://www.w3.org/2000/svg" xmlns:xlink="http://www.w3.org/1999/xlink">
    <title>PF14</title>
    <g id="页面-1" stroke="none" stroke-width="1" fill="none" fill-rule="evenodd">
        <g id="画板" transform="translate(-437.000000, -7.000000)">
            <g id="PF14" transform="translate(437.000000, 7.000000)">
                <rect id="矩形" fill="#D8D8D8" opacity="0" x="0" y="0" width="18" height="18"></rect>
                <g id="PF1-4" transform="translate(1.707574, 0.841797)" fill="#ad33ad" fill-rule="nonzero">
                    <path d="M0.0150824653,0 L3.69184028,0 C4.49262153,0 5.09239366,0.190429688 5.49115668,0.571289062 C5.8899197,0.952148438 6.08930122,1.49414062 6.08930122,2.19726562 C6.08930122,2.91992188 5.87201606,3.48470052 5.43744575,3.89160156 C5.00287543,4.2985026 4.33962674,4.50195312 3.44769965,4.50195312 L2.23676215,4.50195312 L2.23676215,7.15820312 L0.0150824653,7.15820312 L0.0150824653,0 Z M2.23676215,3.05175781 L2.77875434,3.05175781 C3.20518663,3.05175781 3.5046658,2.97770182 3.67719184,2.82958984 C3.84971788,2.68147786 3.9359809,2.49186198 3.9359809,2.26074219 C3.9359809,2.03613281 3.86111111,1.84570312 3.71137153,1.68945312 C3.56163194,1.53320312 3.28005642,1.45507812 2.86664497,1.45507812 L2.23676215,1.45507812 L2.23676215,3.05175781 Z" id="形状"></path>
                    <polygon id="路径" points="9.2562934 0 14.7250434 0 14.7250434 1.53808594 11.4779731 1.53808594 11.4779731 2.78808594 14.2514106 2.78808594 14.2514106 4.23339844 11.4779731 4.23339844 11.4779731 7.15820312 9.2562934 7.15820312"></polygon>
                    <path d="M11.7904731,14.8203125 L8.16742622,14.8203125 L8.16742622,13.1845703 L11.7904731,8.87792969 L13.5238715,8.87792969 L13.5238715,13.2773438 L14.422309,13.2773438 L14.422309,14.8203125 L13.5238715,14.8203125 L13.5238715,16.1582031 L11.7904731,16.1582031 L11.7904731,14.8203125 Z M11.7904731,13.2773438 L11.7904731,11.0263672 L9.87641059,13.2773438 L11.7904731,13.2773438 Z" id="形状"></path>
                    <path d="M4.1015625,8.87792969 L4.1015625,16.1582031 L2.08984375,16.1582031 L2.08984375,11.3876953 C1.76432292,11.6350911 1.44938151,11.8352865 1.14501953,11.9882812 C0.840657552,12.141276 0.458984375,12.2877604 0,12.4277344 L0,10.796875 C0.677083333,10.578776 1.20279948,10.3167318 1.57714844,10.0107422 C1.9514974,9.7047526 2.24446615,9.32714844 2.45605469,8.87792969 L4.1015625,8.87792969 Z" id="路径"></path>
                </g>
            </g>
        </g>
    </g>
</svg>