<?xml version="1.0" encoding="UTF-8"?>
<svg width="18px" height="18px" viewBox="0 0 18 18" version="1.1" xmlns="http://www.w3.org/2000/svg" xmlns:xlink="http://www.w3.org/1999/xlink">
    <title>PF15</title>
    <g id="页面-1" stroke="none" stroke-width="1" fill="none" fill-rule="evenodd">
        <g id="画板" transform="translate(-468.000000, -7.000000)">
            <g id="PF15" transform="translate(468.000000, 7.000000)">
                <rect id="矩形" fill="#D8D8D8" opacity="0" x="0" y="0" width="18" height="18"></rect>
                <g id="PF-15" transform="translate(1.722656, 0.841797)" fill="#ad33ad" fill-rule="nonzero">
                    <path d="M0,0 L3.67675781,0 C4.47753906,0 5.0773112,0.190429688 5.47607422,0.571289062 C5.87483724,0.952148438 6.07421875,1.49414062 6.07421875,2.19726562 C6.07421875,2.91992188 5.85693359,3.48470052 5.42236328,3.89160156 C4.98779297,4.2985026 4.32454427,4.50195312 3.43261719,4.50195312 L2.22167969,4.50195312 L2.22167969,7.15820312 L0,7.15820312 L0,0 Z M2.22167969,3.05175781 L2.76367188,3.05175781 C3.19010417,3.05175781 3.48958333,2.97770182 3.66210938,2.82958984 C3.83463542,2.68147786 3.92089844,2.49186198 3.92089844,2.26074219 C3.92089844,2.03613281 3.84602865,1.84570312 3.69628906,1.68945312 C3.54654948,1.53320312 3.26497396,1.45507812 2.8515625,1.45507812 L2.22167969,1.45507812 L2.22167969,3.05175781 Z" id="形状"></path>
                    <polygon id="路径" points="9.24121094 0 14.7099609 0 14.7099609 1.53808594 11.4628906 1.53808594 11.4628906 2.78808594 14.2363281 2.78808594 14.2363281 4.23339844 11.4628906 4.23339844 11.4628906 7.15820312 9.24121094 7.15820312"></polygon>
                    <path d="M9.49316406,9 L14.2148438,9 L14.2148438,10.5869141 L11.0166016,10.5869141 L10.8457031,11.6611328 C11.0670573,11.5569661 11.2859701,11.4788411 11.5024414,11.4267578 C11.7189128,11.3746745 11.9329427,11.3486328 12.1445312,11.3486328 C12.8606771,11.3486328 13.4417318,11.5651042 13.8876953,11.9980469 C14.3336589,12.4309896 14.5566406,12.976237 14.5566406,13.6337891 C14.5566406,14.0960286 14.4418945,14.5403646 14.2124023,14.9667969 C13.9829102,15.3932292 13.6573893,15.71875 13.2358398,15.9433594 C12.8142904,16.1679688 12.2747396,16.2802734 11.6171875,16.2802734 C11.1451823,16.2802734 10.7407227,16.2355143 10.4038086,16.1459961 C10.0668945,16.0564779 9.7804362,15.9230143 9.54443359,15.7456055 C9.30843099,15.5681966 9.1171875,15.3671875 8.97070312,15.1425781 C8.82421875,14.9179688 8.70214844,14.6380208 8.60449219,14.3027344 L10.6162109,14.0830078 C10.6650391,14.4052734 10.7789714,14.6502279 10.9580078,14.8178711 C11.1370443,14.9855143 11.3502604,15.0693359 11.5976562,15.0693359 C11.874349,15.0693359 12.1030273,14.9643555 12.2836914,14.7543945 C12.4643555,14.5444336 12.5546875,14.2311198 12.5546875,13.8144531 C12.5546875,13.3880208 12.4635417,13.0755208 12.28125,12.8769531 C12.0989583,12.6783854 11.8564453,12.5791016 11.5537109,12.5791016 C11.3616536,12.5791016 11.1761068,12.6263021 10.9970703,12.7207031 C10.8636068,12.7890625 10.7171224,12.9127604 10.5576172,13.0917969 L8.86328125,12.8476562 L9.49316406,9 Z" id="路径"></path>
                    <path d="M5.08648003,8.87792969 L5.08648003,16.1582031 L3.07476128,16.1582031 L3.07476128,11.3876953 C2.74924045,11.6350911 2.43429905,11.8352865 2.12993707,11.9882812 C1.82557509,12.141276 1.44390191,12.2877604 0.984917535,12.4277344 L0.984917535,10.796875 C1.66200087,10.578776 2.18771701,10.3167318 2.56206597,10.0107422 C2.93641493,9.7047526 3.22938368,9.32714844 3.44097222,8.87792969 L5.08648003,8.87792969 Z" id="路径"></path>
                </g>
            </g>
        </g>
    </g>
</svg>