<?xml version="1.0" encoding="UTF-8"?>
<svg width="18px" height="18px" viewBox="0 0 18 18" version="1.1" xmlns="http://www.w3.org/2000/svg" xmlns:xlink="http://www.w3.org/1999/xlink">
    <title>PF21</title>
    <g id="页面-1" stroke="none" stroke-width="1" fill="none" fill-rule="evenodd">
        <g id="画板" transform="translate(-648.000000, -6.000000)">
            <g id="PF21" transform="translate(648.000000, 6.000000)">
                <rect id="矩形" fill="#D8D8D8" opacity="0" x="0" y="0" width="18" height="18"></rect>
                <g transform="translate(1.263672, 0.841797)" fill="#ad33ad" fill-rule="nonzero">
                    <path d="M0.458984375,0 L4.13574219,0 C4.93652344,0 5.53629557,0.190429688 5.93505859,0.571289062 C6.33382161,0.952148438 6.53320312,1.49414062 6.53320312,2.19726562 C6.53320312,2.91992188 6.31591797,3.48470052 5.88134766,3.89160156 C5.44677734,4.2985026 4.78352865,4.50195312 3.89160156,4.50195312 L2.68066406,4.50195312 L2.68066406,7.15820312 L0.458984375,7.15820312 L0.458984375,0 Z M2.68066406,3.05175781 L3.22265625,3.05175781 C3.64908854,3.05175781 3.94856771,2.97770182 4.12109375,2.82958984 C4.29361979,2.68147786 4.37988281,2.49186198 4.37988281,2.26074219 C4.37988281,2.03613281 4.30501302,1.84570312 4.15527344,1.68945312 C4.00553385,1.53320312 3.72395833,1.45507812 3.31054688,1.45507812 L2.68066406,1.45507812 L2.68066406,3.05175781 Z" id="形状"></path>
                    <polygon id="路径" points="9.70019531 0 15.1689453 0 15.1689453 1.53808594 11.921875 1.53808594 11.921875 2.78808594 14.6953125 2.78808594 14.6953125 4.23339844 11.921875 4.23339844 11.921875 7.15820312 9.70019531 7.15820312"></polygon>
                    <path d="M5.96679688,16.1582031 L0,16.1582031 C0.068359375,15.5690104 0.275878906,15.0148112 0.622558594,14.4956055 C0.969238281,13.9763997 1.61946615,13.3636068 2.57324219,12.6572266 C3.15592448,12.2242839 3.52864583,11.8955078 3.69140625,11.6708984 C3.85416667,11.4462891 3.93554687,11.2330729 3.93554687,11.03125 C3.93554687,10.813151 3.85498047,10.6267904 3.69384766,10.472168 C3.53271484,10.3175456 3.33007812,10.2402344 3.0859375,10.2402344 C2.83203125,10.2402344 2.62451172,10.319987 2.46337891,10.4794922 C2.30224609,10.6389974 2.19401042,10.9205729 2.13867188,11.3242188 L0.146484375,11.1630859 C0.224609375,10.6031901 0.367838542,10.1661784 0.576171875,9.85205078 C0.784505208,9.53792318 1.07828776,9.29703776 1.45751953,9.12939453 C1.8367513,8.9617513 2.36165365,8.87792969 3.03222656,8.87792969 C3.73209635,8.87792969 4.27652995,8.95768229 4.66552734,9.1171875 C5.05452474,9.27669271 5.36051432,9.52164714 5.58349609,9.85205078 C5.80647786,10.1824544 5.91796875,10.5527344 5.91796875,10.9628906 C5.91796875,11.3990885 5.79020182,11.8157552 5.53466797,12.2128906 C5.27913411,12.610026 4.81445312,13.046224 4.140625,13.5214844 C3.74023438,13.7981771 3.47249349,13.991862 3.33740234,14.1025391 C3.2023112,14.2132161 3.04361979,14.3580729 2.86132812,14.5371094 L5.96679688,14.5371094 L5.96679688,16.1582031 Z" id="路径"></path>
                    <path d="M13.5454644,8.87792969 L13.5454644,16.1582031 L11.5337457,16.1582031 L11.5337457,11.3876953 C11.2082248,11.6350911 10.8932834,11.8352865 10.5889214,11.9882812 C10.2845595,12.141276 9.90288628,12.2877604 9.44390191,12.4277344 L9.44390191,10.796875 C10.1209852,10.578776 10.6467014,10.3167318 11.0210503,10.0107422 C11.3953993,9.7047526 11.6883681,9.32714844 11.8999566,8.87792969 L13.5454644,8.87792969 Z" id="路径"></path>
                </g>
            </g>
        </g>
    </g>
</svg>