<?xml version="1.0" encoding="UTF-8"?>
<svg width="18px" height="18px" viewBox="0 0 18 18" version="1.1" xmlns="http://www.w3.org/2000/svg" xmlns:xlink="http://www.w3.org/1999/xlink">
    <title>PF6</title>
    <g id="页面-1" stroke="none" stroke-width="1" fill="none" fill-rule="evenodd">
        <g id="画板" transform="translate(-183.000000, -8.000000)">
            <g id="PF6" transform="translate(183.000000, 8.000000)">
                <rect id="矩形" fill="#D8D8D8" opacity="0" x="0" y="0" width="18" height="18"></rect>
                <g id="PF-6" transform="translate(1.722656, 0.841797)" fill="#ad33ad" fill-rule="nonzero">
                    <path d="M0,0 L3.67675781,0 C4.47753906,0 5.0773112,0.190429688 5.47607422,0.571289062 C5.87483724,0.952148438 6.07421875,1.49414062 6.07421875,2.19726562 C6.07421875,2.91992188 5.85693359,3.48470052 5.42236328,3.89160156 C4.98779297,4.2985026 4.32454427,4.50195312 3.43261719,4.50195312 L2.22167969,4.50195312 L2.22167969,7.15820312 L0,7.15820312 L0,0 Z M2.22167969,3.05175781 L2.76367188,3.05175781 C3.19010417,3.05175781 3.48958333,2.97770182 3.66210938,2.82958984 C3.83463542,2.68147786 3.92089844,2.49186198 3.92089844,2.26074219 C3.92089844,2.03613281 3.84602865,1.84570312 3.69628906,1.68945312 C3.54654948,1.53320312 3.26497396,1.45507812 2.8515625,1.45507812 L2.22167969,1.45507812 L2.22167969,3.05175781 Z" id="形状"></path>
                    <polygon id="路径" points="9.24121094 0 14.7099609 0 14.7099609 1.53808594 11.4628906 1.53808594 11.4628906 2.78808594 14.2363281 2.78808594 14.2363281 4.23339844 11.4628906 4.23339844 11.4628906 7.15820312 9.24121094 7.15820312"></polygon>
                    <path d="M14.4443359,10.6113281 L12.4667969,10.8554688 C12.4147135,10.578776 12.3276367,10.3834635 12.2055664,10.2695312 C12.0834961,10.155599 11.9329427,10.0986328 11.7539062,10.0986328 C11.4316406,10.0986328 11.1809896,10.2613932 11.0019531,10.5869141 C10.8717448,10.8212891 10.7757161,11.3225911 10.7138672,12.0908203 C10.9514974,11.8499349 11.195638,11.6717122 11.4462891,11.5561523 C11.6969401,11.4405924 11.9866536,11.3828125 12.3154297,11.3828125 C12.9534505,11.3828125 13.4930013,11.6106771 13.934082,12.0664062 C14.3751628,12.5221354 14.5957031,13.0999349 14.5957031,13.7998047 C14.5957031,14.2718099 14.4842122,14.703125 14.2612305,15.09375 C14.0382487,15.484375 13.7290039,15.7797852 13.3334961,15.9799805 C12.9379883,16.1801758 12.4423828,16.2802734 11.8466797,16.2802734 C11.1305339,16.2802734 10.5559896,16.1582031 10.1230469,15.9140625 C9.69010417,15.6699219 9.34423828,15.2801107 9.08544922,14.7446289 C8.82666016,14.2091471 8.69726562,13.5003255 8.69726562,12.6181641 C8.69726562,11.3258464 8.96907552,10.3793945 9.51269531,9.77880859 C10.0563151,9.17822266 10.8098958,8.87792969 11.7734375,8.87792969 C12.343099,8.87792969 12.7931315,8.94384766 13.1235352,9.07568359 C13.4539388,9.20751953 13.7281901,9.40039062 13.9462891,9.65429688 C14.164388,9.90820312 14.3304036,10.2272135 14.4443359,10.6113281 Z M10.7822266,13.7998047 C10.7822266,14.1871745 10.8798828,14.4907227 11.0751953,14.7104492 C11.2705078,14.9301758 11.5097656,15.0400391 11.7929688,15.0400391 C12.0533854,15.0400391 12.2714844,14.9407552 12.4472656,14.7421875 C12.6230469,14.5436198 12.7109375,14.2473958 12.7109375,13.8535156 C12.7109375,13.4498698 12.6197917,13.1422526 12.4375,12.9306641 C12.2552083,12.7190755 12.0289714,12.6132812 11.7587891,12.6132812 C11.4820964,12.6132812 11.2501628,12.7158203 11.0629883,12.9208984 C10.8758138,13.1259766 10.7822266,13.4189453 10.7822266,13.7998047 Z" id="形状"></path>
                </g>
            </g>
        </g>
    </g>
</svg>