<?xml version="1.0" encoding="UTF-8"?>
<svg width="18px" height="19px" viewBox="0 0 18 19" version="1.1" xmlns="http://www.w3.org/2000/svg" xmlns:xlink="http://www.w3.org/1999/xlink">
    <title>print</title>
    <g id="页面-1" stroke="none" stroke-width="1" fill="none" fill-rule="evenodd">
        <g id="pc" transform="translate(-1212.000000, -65.000000)">
            <g id="print" transform="translate(1212.000000, 66.000000)">
                <g id="编组-17">
                    <rect id="矩形" fill="#D8D8D8" opacity="0" x="0" y="0" width="18" height="18"></rect>
                    <path d="M15,4 C15.5522847,4 16.0522847,4.22385763 16.4142136,4.58578644 C16.7761424,4.94771525 17,5.44771525 17,6 L17,6 L17,12 C17,12.5522847 16.7761424,13.0522847 16.4142136,13.4142136 C16.0522847,13.7761424 15.5522847,14 15,14 L15,14 L14,14 L14,15 C14,15.5522847 13.7761424,16.0522847 13.4142136,16.4142136 C13.0522847,16.7761424 12.5522847,17 12,17 L12,17 L6,17 C5.44771525,17 4.94771525,16.7761424 4.58578644,16.4142136 C4.22385763,16.0522847 4,15.5522847 4,15 L4,15 L4,14 L3,14 C2.44771525,14 1.94771525,13.7761424 1.58578644,13.4142136 C1.22385763,13.0522847 1,12.5522847 1,12 L1,12 L1,6 C1,5.44771525 1.22385763,4.94771525 1.58578644,4.58578644 C1.94771525,4.22385763 2.44771525,4 3,4 L3,4 Z" id="形状结合" stroke="#ad33ad" stroke-width="2"></path>
                    <rect id="矩形" stroke="#ad33ad" stroke-width="2" x="4" y="9" width="10" height="8" rx="1"></rect>
                    <path d="M13.681992,0.909634529 L14.1046649,3.48290501 C13.3257333,3.90329997 13.1993243,4.00165144 12.3086519,4.00314563 L12.3086519,4.00314563 L6,4.00332642 C5.66314975,4.00332642 5.35520772,4.0010837 5.1516798,3.98560544 C4.96830351,3.97165971 4.70276552,3.93427517 4.4084402,3.889751 L4.4084402,3.889751 L3.77740533,1.14166636 L4.87692349,1.00530477 C5.07436897,0.980817703 5.31422007,0.993012221 5.82912383,0.99705723 L5.82912383,0.99705723 L12.1490323,0.997007107 C12.4765087,0.993868844 12.6649239,0.980842624 12.7730566,0.973271917 L12.7730566,0.973271917 L13.681992,0.909634529 Z" id="矩形" stroke="#ad33ad" stroke-width="2"></path>
                </g>
                <rect id="矩形" fill="#ad33ad" x="13" y="6" width="2" height="2"></rect>
            </g>
        </g>
    </g>
</svg>