<?xml version="1.0" encoding="UTF-8"?>
<svg width="18px" height="18px" viewBox="0 0 18 18" version="1.1" xmlns="http://www.w3.org/2000/svg" xmlns:xlink="http://www.w3.org/1999/xlink">
    <title>Rapid right</title>
    <g id="页面-1" stroke="none" stroke-width="1" fill="none" fill-rule="evenodd">
        <g id="pc" transform="translate(-645.000000, -221.000000)">
            <g id="Rapid-right" transform="translate(645.000000, 221.000000)">
                <rect id="矩形" fill="#D8D8D8" opacity="0" x="0" y="0" width="18" height="18"></rect>
                <path d="M1,8 L11,8 C11.5522847,8 12,8.44771525 12,9 C12,9.55228475 11.5522847,10 11,10 L1,10 C0.44771525,10 -2.65431532e-16,9.55228475 0,9 C-6.76353751e-17,8.44771525 0.44771525,8 1,8 Z" id="矩形" fill="#ad33ad"></path>
                <polyline id="路径-5" stroke="#ad33ad" stroke-width="2" stroke-linecap="round" transform="translate(14.000000, 8.500000) scale(-1, 1) translate(-14.000000, -8.500000) " points="16 4 12 8.89853138 16 13"></polyline>
                <polyline id="路径-5" stroke="#ad33ad" stroke-width="2" stroke-linecap="round" transform="translate(10.000000, 8.500000) scale(-1, 1) translate(-10.000000, -8.500000) " points="12 4 8 8.89853138 12 13"></polyline>
            </g>
        </g>
    </g>
</svg>