<?xml version="1.0" encoding="UTF-8"?>
<svg width="16px" height="16px" viewBox="0 0 16 16" version="1.1" fill="#990099" xmlns="http://www.w3.org/2000/svg" xmlns:xlink="http://www.w3.org/1999/xlink">
     <rect id="r" opacity="0" x="0" y="0" width="16" height="16"></rect>
            <path d="M15.0909091,14.0305455 C15.3921553,14.0305455 15.6363636,14.2747538 15.6363636,14.576 C15.6363636,14.8772462 15.3921553,15.1214545 15.0909091,15.1214545 L1.27272727,15.1214545 C0.971481038,15.1214545 0.727272719,14.8772462 0.727272719,14.576 C0.727272719,14.2747538 0.971481038,14.0305455 1.27272727,14.0305455 L15.0909091,14.0305455 L15.0909091,14.0305455 Z M15.0847273,4.13781819 L6.42836364,12.7945455 L3.05381819,13.1392727 L3.39890909,9.76472727 L10.9258182,2.23745455 L10.9258182,2.23709091 L12.0552727,1.108 C12.5629091,0.600363641 13.448,0.600363641 13.9556364,1.108 L15.0847273,2.23745455 C15.3376151,2.48888631 15.4794213,2.83102818 15.4785495,3.18763636 C15.4785495,3.54654545 15.3385455,3.884 15.0847273,4.13781819 L15.0847273,4.13781819 Z M4.27527273,11.9178182 L5.93127273,11.7487273 L12.7981818,4.88145455 L11.3116364,3.39454545 L4.44436364,10.2614545 L4.27527273,11.9178182 Z M13.0054545,1.80545327 C12.9382935,1.80524074 12.8738501,1.83196114 12.8265455,1.87963636 L12.0829091,2.62290909 L13.5698182,4.11018181 L14.3130909,3.36654545 C14.4118581,3.26771949 14.4118581,3.10755323 14.3130909,3.00872727 L13.1843636,1.87963636 C13.1370128,1.8320299 13.0725996,1.80532196 13.0054545,1.80545327 Z" id="c"></path>
</svg>