<?xml version="1.0" encoding="utf-8"?>
<!-- Generator: Adobe Illustrator 25.2.1, SVG Export Plug-In . SVG Version: 6.00 Build 0)  -->
<svg version="1.1" height='26' id="Layer_1" xmlns="http://www.w3.org/2000/svg" xmlns:xlink="http://www.w3.org/1999/xlink" x="0px" y="0px"
	 viewBox="0 0 500 175.5" style="enable-background:new 0 0 500 175.5;" xml:space="preserve">
<style type="text/css">
	.st0{fill:#FFFFFF;}
</style>
<g>
	<path class="st0" d="M136.9,54.7l-7-1v-4.1h32.7c16.9,0,35.7,3.5,35.7,23.8c0,11.1-10.4,19-20.4,20.6l21.1,40.1l7,1v4.1h-21.8
		l-22.9-44.3h-8.8v39.2l7,1v4.1h-29.7v-4.1l7-1V54.7z M152.5,90.8h5.8c16.8,0,23.1-6.4,23.1-18.7c0-13.6-9.6-18.4-20.4-18.4
		c-2.4,0-5.5,0.4-8.5,0.6V90.8z"/>
	<path class="st0" d="M203.8,108.6c0-17.3,11-32.5,27.5-32.5s27.5,15.2,27.5,32.5c0,14.7-10.6,32.4-27.5,32.4
		S203.8,127.2,203.8,108.6z M244.3,108.6c0-18.3-3.6-28.1-12.9-28.1s-12.9,9.5-12.9,28.1c0,17.3,2.7,27.9,12.9,27.9
		C241.6,136.6,244.3,119.8,244.3,108.6z"/>
	<path class="st0" d="M312.2,129.3c-6.9,7.9-13.8,11.8-20.9,11.8c-16.7,0-27-12.6-27-29.6c0-20.2,12.2-35.4,30-35.4
		c5.8,0,14.5,2.3,14.5,10.5c0,3.7-3.5,6.3-7,6.3c-9.5,0-6.8-12.3-10.8-12.3c-7,0-13.8,7.4-13.8,24.3c0,11.5,6.9,26.5,20,26.5
		c4.7,0,8.1-1.8,11.5-5L312.2,129.3z"/>
	<path class="st0" d="M348.7,139.2v-3.5l7-1.3l-15.4-27l-5.9,9.5v17.5l6.1,1.3v3.5h-26v-3.5l7-1.3V58c0-4.2-2.4-5.5-7-5.5v-3.5
		l19.9-7.7v66.2h0.3l7-11.1c6.3-10,15.1-20.4,21.8-20.4c3.6,0,7.3,2.9,7.3,7c0,5.9-4.7,8.1-7.8,8.1c-3.1,0-5.5-2.8-7.7-2.8
		c-2.4,0-6.3,5.9-7.3,7.8l21.8,38.3l6.1,1.3v3.5H348.7z"/>
	<path class="st0" d="M388,109.9c0.4,10.2,6,21.5,17.8,21.5c7.8,0,10-3.8,14.1-8.5l3.5,2.7c-6.3,9.1-12.8,15.4-24.6,15.4
		c-15,0-23.6-14.6-23.6-29.7c0-16,8.2-35.2,25.7-35.2c13.6,0,22.2,12,22.3,24.3L388,109.9z M401.6,100.7c5.1-1.3,7-4.1,7-10.2
		c0-6.4-3.8-9.9-9.6-9.9c-8.8,0-12.3,11.1-12.3,24L401.6,100.7z"/>
	<path class="st0" d="M426.8,83.7v-5.8h7V60.2l12.8-7.3v25h14.5v5.8h-14.5v43c0,4.1,3.2,6,6.8,6c3.3,0,6.1-1.9,9.1-4.2l1.9,3.5
		c-3.8,4.5-10.5,9.1-16.7,9.1c-11.3,0-14-8.6-14-14.5V83.7H426.8z"/>
</g>
<g>
	<polygon class="st0" points="67.5,49 57.8,95.2 32.6,85 55.4,49 18,49 18,141 111,141 111,49 	"/>
	<path class="st0" d="M69.3,40.1l4.2-20l-11,17.4C65.1,37.5,67.5,38.5,69.3,40.1z"/>
</g>
</svg>
